# Blender v2.82 (sub 7) OBJ File: 'BalaDerecha.blend'
# www.blender.org
mtllib BalaDerecha_000003.mtl
o Bala_Cylinder.003
v -0.532486 4.112645 -0.018613
v -0.516718 4.033719 0.654135
v -0.433327 4.071560 -0.020937
v -0.473352 4.015751 0.653118
v -0.392254 3.972374 -0.021900
v -0.455390 3.972373 0.652697
v -0.433327 3.873188 -0.020937
v -0.473352 3.928996 0.653118
v -0.532486 3.832104 -0.018613
v -0.516718 3.911028 0.654135
v -0.631645 3.873188 -0.016289
v -0.560084 3.928996 0.655151
v -0.672718 3.972374 -0.015326
v -0.578047 3.972373 0.655572
v -0.631645 4.071560 -0.016289
v -0.560084 4.015751 0.655151
v -0.523272 4.112645 0.374524
v -0.424113 4.071560 0.372200
v -0.383040 3.972374 0.371238
v -0.424113 3.873188 0.372200
v -0.523272 3.832104 0.374524
v -0.622431 3.873188 0.376849
v -0.663504 3.972374 0.377811
v -0.622431 4.071560 0.376849
v -0.516718 3.988738 0.654135
v -0.505150 3.983945 0.653863
v -0.500358 3.972374 0.653751
v -0.505150 3.960802 0.653863
v -0.516718 3.956009 0.654135
v -0.528286 3.960802 0.654406
v -0.533078 3.972374 0.654518
v -0.528286 3.983945 0.654406
v -0.532486 4.028502 -0.018613
v -0.492808 4.012063 -0.019543
v -0.476373 3.972374 -0.019928
v -0.492808 3.932685 -0.019543
v -0.532486 3.916246 -0.018613
v -0.572164 3.932685 -0.017683
v -0.588599 3.972374 -0.017298
v -0.572164 4.012063 -0.017683
vt 0.571177 0.819618
vt 0.793679 0.842301
vt 0.792020 0.881992
vt 0.561213 0.895770
vt 0.797677 0.921414
vt 0.558627 0.981594
vt 0.784882 0.431415
vt 0.915080 0.649522
vt 0.882098 0.673287
vt 0.725706 0.494938
vt 0.854120 0.701371
vt 0.679164 0.556598
vt 0.830961 0.732764
vt 0.641960 0.618211
vt 0.812842 0.767023
vt 0.611028 0.684809
vt 0.982776 0.396146
vt 0.982776 0.463263
vt 0.923370 0.438657
vt 0.923370 0.420752
vt 0.801537 0.803928
vt 0.587762 0.749802
vt 0.227995 0.416724
vt 0.323726 0.422389
vt 0.291268 0.488982
vt 0.253411 0.486967
vt 0.320555 0.647466
vt 0.289883 0.730852
vt 0.370361 0.577645
vt 0.385540 0.494831
vt 0.426017 0.417005
vt 0.470066 0.340997
vt 0.514875 0.267284
vt 0.263759 0.816919
vt 0.241100 0.904987
vt 0.880146 0.438657
vt 0.880146 0.420752
vt 0.892805 0.408092
vt 0.910710 0.408092
vt 0.910710 0.451317
vt 0.892805 0.451317
vt 0.820740 0.396146
vt 0.868199 0.348686
vt 0.820740 0.463263
vt 0.935317 0.510722
vt 0.868199 0.510722
vt 0.935317 0.348686
vt 0.250323 0.578435
vt 0.223959 0.551121
vt 0.225364 0.512930
vt 0.316167 0.516903
vt 0.313787 0.552663
vt 0.287795 0.578888
vt 0.153818 0.578578
vt 0.156940 0.481709
vt 0.221449 0.648464
vn 0.3761 0.8940 0.2435
vn 0.8997 0.3703 0.2313
vn 0.8997 -0.3703 0.2313
vn 0.3761 -0.8940 0.2435
vn -0.3643 -0.8940 0.2609
vn -0.8878 -0.3703 0.2732
vn 0.0234 -0.0000 0.9997
vn -0.8878 0.3703 0.2732
vn -0.3643 0.8940 0.2609
vn -0.0234 -0.0000 -0.9997
vn -0.3826 0.9239 0.0090
vn -0.9236 0.3827 0.0216
vn -0.9236 -0.3827 0.0216
vn -0.3826 -0.9239 0.0090
vn 0.3826 -0.9239 -0.0090
vn 0.9236 -0.3827 -0.0216
vn 0.9236 0.3827 -0.0216
vn 0.3826 0.9239 -0.0090
usemtl Material
s off
f 17/1/1 2/2/1 4/3/1 18/4/1
f 18/4/2 4/3/2 6/5/2 19/6/2
f 19/7/3 6/8/3 8/9/3 20/10/3
f 20/10/4 8/9/4 10/11/4 21/12/4
f 21/12/5 10/11/5 12/13/5 22/14/5
f 22/14/6 12/13/6 14/15/6 23/16/6
f 12/17/7 10/18/7 29/19/7 30/20/7
f 23/16/8 14/15/8 16/21/8 24/22/8
f 24/22/9 16/21/9 2/2/9 17/1/9
f 7/23/10 9/24/10 37/25/10 36/26/10
f 15/27/11 24/22/11 17/1/11 1/28/11
f 13/29/12 23/16/12 24/22/12 15/27/12
f 11/30/13 22/14/13 23/16/13 13/29/13
f 9/31/14 21/12/14 22/14/14 11/30/14
f 7/32/15 20/10/15 21/12/15 9/31/15
f 5/33/16 19/7/16 20/10/16 7/32/16
f 3/34/17 18/4/17 19/6/17 5/35/17
f 1/28/18 17/1/18 18/4/18 3/34/18
f 26/36/7 25/37/7 32/38/7 31/39/7 30/20/7 29/19/7 28/40/7 27/41/7
f 2/42/7 16/43/7 32/38/7 25/37/7
f 4/44/7 2/42/7 25/37/7 26/36/7
f 8/45/7 6/46/7 27/41/7 28/40/7
f 14/47/7 12/17/7 30/20/7 31/39/7
f 10/18/7 8/45/7 28/40/7 29/19/7
f 16/43/7 14/47/7 31/39/7 32/38/7
f 6/46/7 4/44/7 26/36/7 27/41/7
f 33/48/10 34/49/10 35/50/10 36/26/10 37/25/10 38/51/10 39/52/10 40/53/10
f 13/29/10 15/27/10 40/53/10 39/52/10
f 3/54/10 5/55/10 35/50/10 34/49/10
f 9/24/10 11/30/10 38/51/10 37/25/10
f 15/27/10 1/56/10 33/48/10 40/53/10
f 1/56/10 3/54/10 34/49/10 33/48/10
f 5/55/10 7/23/10 36/26/10 35/50/10
f 11/30/10 13/29/10 39/52/10 38/51/10
o Estela_1_Cube.006
v -0.536406 3.970284 0.048929
v -0.536957 3.973372 0.049009
v -0.535879 3.973281 -0.063456
v -0.536431 3.976368 -0.063376
v -0.533317 3.970835 0.048959
v -0.533869 3.973923 0.049038
v -0.532791 3.973832 -0.063427
v -0.533342 3.976919 -0.063347
vt 0.029882 0.343262
vt 0.025420 0.338800
vt 0.185305 0.178913
vt 0.189767 0.183375
vt 0.189767 0.174452
vt 0.194229 0.178913
vt 0.349650 0.014568
vt 0.354112 0.019030
vt 0.354112 0.338796
vt 0.349650 0.343258
vt 0.025422 0.019030
vt 0.029884 0.014568
vn -0.9844 -0.1756 -0.0093
vn 0.0047 0.0267 -0.9996
vn 0.9844 0.1756 0.0093
vn 0.1758 -0.9841 -0.0254
vn -0.1758 0.9841 0.0254
usemtl Material
s off
f 41/57/19 42/58/19 44/59/19 43/60/19
f 43/60/20 44/59/20 48/61/20 47/62/20
f 47/62/21 48/61/21 46/63/21 45/64/21
f 43/60/22 47/62/22 45/65/22 41/66/22
f 48/61/23 44/59/23 42/67/23 46/68/23
o Estela_2_Cube.007
v -0.545437 3.965962 0.048782
v -0.547125 3.968606 0.048800
v -0.545648 3.966141 0.003947
v -0.547336 3.968786 0.003966
v -0.542793 3.967650 0.048776
v -0.544481 3.970294 0.048795
v -0.543003 3.967829 0.003942
v -0.544691 3.970474 0.003960
vt 0.744001 0.084237
vt 0.751716 0.076522
vt 0.861958 0.186765
vt 0.854244 0.194479
vt 0.869673 0.194479
vt 0.861958 0.202194
vt 0.979915 0.304722
vt 0.972201 0.312436
vt 0.751716 0.312436
vt 0.744002 0.304722
vt 0.972201 0.076522
vt 0.979915 0.084237
vn -0.8429 -0.5380 0.0018
vn -0.0047 0.0040 -1.0000
vn 0.8429 0.5380 -0.0018
vn 0.5380 -0.8429 -0.0059
vn -0.5380 0.8429 0.0059
usemtl Material
s off
f 49/69/24 50/70/24 52/71/24 51/72/24
f 51/72/25 52/71/25 56/73/25 55/74/25
f 55/74/26 56/73/26 54/75/26 53/76/26
f 51/72/27 55/74/27 53/77/27 49/78/27
f 56/73/28 52/71/28 50/79/28 54/80/28
o Estela_3_Cube.008
v -0.536145 3.965465 0.048801
v -0.533009 3.965549 0.048801
v -0.536160 3.966290 -0.035699
v -0.533024 3.966374 -0.035698
v -0.536061 3.962329 0.048771
v -0.532925 3.962413 0.048771
v -0.536076 3.963153 -0.035729
v -0.532939 3.963238 -0.035729
vt 0.390874 0.024965
vt 0.396746 0.019093
vt 0.554902 0.177249
vt 0.549030 0.183121
vt 0.560774 0.183121
vt 0.554902 0.188993
vt 0.718924 0.341271
vt 0.713052 0.347142
vt 0.396753 0.347142
vt 0.390881 0.341270
vt 0.713052 0.019100
vt 0.718924 0.024972
vn -0.0268 0.9996 0.0098
vn -0.0002 0.0098 -1.0000
vn 0.0268 -0.9996 -0.0098
vn -0.9996 -0.0268 -0.0001
vn 0.9996 0.0268 0.0001
usemtl Material
s off
f 57/81/29 58/82/29 60/83/29 59/84/29
f 59/84/30 60/83/30 64/85/30 63/86/30
f 63/86/31 64/85/31 62/87/31 61/88/31
f 59/84/32 63/86/32 61/89/32 57/90/32
f 64/85/33 60/83/33 58/91/33 62/92/33
o Fogonazo_Cylinder.004
v -0.531578 3.969834 -0.043111
v -0.486121 4.108392 -0.077160
v -0.500656 4.059637 -0.001871
v -0.407992 4.034467 -0.080240
v -0.445921 4.012118 -0.003180
v -0.388822 3.917431 -0.079803
v -0.440810 3.939818 -0.003302
v -0.465728 3.829990 -0.079172
v -0.488317 3.885089 -0.002166
v -0.578610 3.831275 -0.074949
v -0.560613 3.879992 -0.000437
v -0.652914 3.911916 -0.070006
v -0.615348 3.927511 0.000871
v -0.663930 4.013775 -0.072145
v -0.620459 3.999811 0.000993
v -0.606430 4.112974 -0.073412
v -0.572952 4.054539 -0.000142
v -0.559407 4.175231 -0.206806
v -0.683252 4.106952 -0.188467
v -0.654688 3.833101 -0.193946
v -0.710263 3.959692 -0.170660
v -0.521621 3.768368 -0.194833
v -0.382764 3.828126 -0.182881
v -0.345872 3.975047 -0.220590
v -0.417021 4.114948 -0.200353
vt 0.850869 0.849468
vt 0.865642 0.889005
vt 0.820524 0.881111
vt 0.876722 0.851123
vt 0.884768 0.872295
vt 0.906749 0.910006
vt 0.869594 0.940029
vt 0.905573 0.882033
vt 0.947428 0.894084
vt 0.941664 0.935426
vt 0.927580 0.874303
vt 0.962746 0.854657
vt 0.990508 0.890076
vt 0.936703 0.853058
vt 0.944794 0.815568
vt 0.990508 0.820665
vt 0.928389 0.832052
vt 0.908294 0.798729
vt 0.939540 0.775883
vt 0.907920 0.822792
vt 0.866867 0.807937
vt 0.873982 0.767631
vt 0.886038 0.829976
vt 0.821646 0.809632
vt 0.126448 0.773829
vt 0.125686 0.680795
vt 0.173820 0.655586
vt 0.187849 0.714236
vt 0.081641 0.659384
vt 0.069454 0.714850
vt 0.047074 0.770080
vt 0.018590 0.815527
vt 0.065491 0.834048
vt 0.026885 0.728253
vt 0.077230 0.886821
vt 0.123271 0.863849
vt 0.164572 0.891121
vt 0.182364 0.842979
vt 0.235552 0.829027
vt 0.209102 0.775466
vt 0.235552 0.729784
vn 0.6398 0.6598 0.3940
vn 0.5936 0.6314 0.4991
vn 0.9260 0.1530 0.3451
vn 0.8576 0.1108 0.5022
vn 0.6417 -0.5606 0.5234
vn 0.6207 -0.5361 0.5721
vn 0.0074 -0.8840 0.4674
vn 0.0351 -0.8239 0.5656
vn -0.6578 -0.6313 0.4109
vn -0.5961 -0.6248 0.5042
vn -0.8826 -0.0858 0.4622
vn -0.8687 -0.0748 0.4897
vn -0.7557 0.4442 0.4813
vn -0.6681 0.4648 0.5810
vn 0.0478 0.8986 0.4362
vn 0.0144 0.8117 0.5839
vn -0.7297 -0.4839 -0.4831
vn 0.7083 -0.3788 -0.5957
vn 0.7869 0.2970 -0.5409
vn -0.1272 -0.7843 -0.6071
vn -0.2744 0.8132 -0.5132
vn 0.8306 -0.1594 -0.5335
vn 0.3686 0.7307 -0.5746
vn 0.4521 -0.6781 -0.5795
vn -0.7428 0.3790 -0.5519
vn 0.6741 0.4653 -0.5737
vn -0.7663 -0.2037 -0.6094
vn 0.1106 0.7544 -0.6471
vn -0.4074 -0.7949 -0.4496
vn -0.5135 0.6847 -0.5172
vn -0.8637 0.1665 -0.4756
vn 0.2503 -0.7955 -0.5518
vn 0.0239 -0.0000 0.9997
usemtl Material
s off
f 66/93/34 68/94/34 89/95/34
f 66/93/35 67/96/35 69/97/35 68/94/35
f 68/94/36 70/98/36 88/99/36
f 68/94/37 69/97/37 71/100/37 70/98/37
f 70/98/38 72/101/38 87/102/38
f 70/98/39 71/100/39 73/103/39 72/101/39
f 72/101/40 74/104/40 86/105/40
f 72/101/41 73/103/41 75/106/41 74/104/41
f 74/104/42 76/107/42 84/108/42
f 74/104/43 75/106/43 77/109/43 76/107/43
f 76/107/44 78/110/44 85/111/44
f 76/107/45 77/109/45 79/112/45 78/110/45
f 78/110/46 80/113/46 83/114/46
f 78/110/47 79/112/47 81/115/47 80/113/47
f 80/113/48 66/93/48 82/116/48
f 80/113/49 81/115/49 67/96/49 66/93/49
f 65/117/50 80/118/50 82/119/50
f 66/120/51 65/117/51 82/119/51
f 80/118/52 65/117/52 83/121/52
f 65/117/53 78/122/53 83/121/53
f 76/123/54 65/117/54 84/124/54
f 65/117/55 74/125/55 84/124/55
f 78/122/56 65/117/56 85/126/56
f 65/117/57 76/123/57 85/126/57
f 74/125/58 65/117/58 86/127/58
f 65/117/59 72/128/59 86/127/59
f 72/128/60 65/117/60 87/129/60
f 65/117/61 70/130/61 87/129/61
f 70/130/62 65/117/62 88/131/62
f 65/117/63 68/132/63 88/131/63
f 65/117/64 66/120/64 89/133/64
f 68/132/65 65/117/65 89/133/65
f 69/97/66 67/96/66 81/115/66 79/112/66 77/109/66 75/106/66 73/103/66 71/100/66
