# Blender v2.82 (sub 7) OBJ File: 'AnimacionCruz.blend'
# www.blender.org
mtllib AnimacionCruz_000096.mtl
o Cruz_Orto_Cube.011
v 0.459169 6.288336 0.405837
v 0.127938 8.853878 -0.392794
v 0.083138 6.331160 0.699370
v -0.248119 8.896702 -0.099277
v 0.289322 6.202565 0.200751
v -0.041951 8.768107 -0.597869
v -0.086735 6.245389 0.494269
v -0.417982 8.810931 -0.304336
v 0.163130 8.581105 -0.307886
v -0.212901 8.623929 -0.014352
v -0.382747 8.538158 -0.219438
v -0.006716 8.495335 -0.512971
v -0.178328 8.356107 0.069023
v -0.348175 8.270335 -0.136063
v 0.027856 8.227511 -0.429596
v 0.197703 8.313282 -0.224510
v 0.390664 8.410716 0.008448
v 0.356091 8.678538 -0.074927
v -0.575264 8.440939 -0.451888
v -0.199234 8.398115 -0.745421
v -0.019955 8.721362 0.218633
v 0.014633 8.453540 0.301982
v -0.540692 8.173117 -0.368512
v -0.164661 8.130292 -0.662046
v -0.144093 8.091051 0.151527
v -0.313940 8.005280 -0.053559
v 0.062091 7.962457 -0.347092
v 0.231938 8.048227 -0.142006
v -0.108837 7.818062 0.236509
v -0.278725 7.732291 0.031434
v 0.097347 7.689467 -0.262110
v 0.267194 7.775237 -0.057025
v 0.767839 8.028050 0.547474
v 0.732583 8.301040 0.462493
v -0.814108 7.752721 -0.657423
v -0.438078 7.709897 -0.950956
v 0.356552 8.343864 0.756026
v 0.391808 8.070874 0.841007
v -0.778879 7.479731 -0.572457
v -0.402848 7.436907 -0.865990
v -0.027279 7.186079 0.433191
v -0.178921 6.959637 0.271962
v 0.197110 6.916813 -0.021571
v 0.348752 7.143255 0.139658
v 0.008388 6.909985 0.519158
v -0.144114 6.689993 0.355901
v 0.231917 6.647169 0.062368
v 0.384419 6.867161 0.225625
v 0.668506 7.277142 0.529739
v 0.292459 7.319966 0.823298
v 0.558320 7.445707 0.364012
v 0.182289 7.488531 0.657545
v -0.443128 6.566895 -0.009191
v -0.067097 6.524071 -0.302725
v -0.350961 6.382539 0.135768
v 0.025070 6.339715 -0.157765
vt 0.964857 0.925148
vt 0.986290 0.946580
vt 0.950629 0.982245
vt 0.929195 0.960812
vt 0.516153 0.886901
vt 0.566161 0.943673
vt 0.510999 0.992284
vt 0.460972 0.935521
vt 0.064045 0.095675
vt 0.042620 0.074236
vt 0.078283 0.038573
vt 0.099715 0.060005
vt 0.539241 0.121954
vt 0.492117 0.059365
vt 0.552965 0.013571
vt 0.600077 0.076165
vt 0.505572 0.537208
vt 0.484733 0.516382
vt 0.520405 0.480715
vt 0.541232 0.501549
vt 0.021783 0.053413
vt 0.057448 0.017745
vt 0.585489 0.183424
vt 0.646324 0.137641
vt 0.411852 0.879790
vt 0.398449 0.990626
vt 0.349330 0.934895
vt 0.467033 0.831170
vt 0.669187 0.024154
vt 0.715447 0.085619
vt 0.875656 0.835953
vt 0.896482 0.856779
vt 0.860818 0.892447
vt 0.839998 0.871614
vt 0.418422 0.776013
vt 0.363241 0.824633
vt 0.153138 0.184755
vt 0.132307 0.163936
vt 0.167973 0.128270
vt 0.188799 0.149096
vt 0.631279 0.244248
vt 0.692115 0.198459
vt 0.108697 0.140327
vt 0.087668 0.119271
vt 0.123322 0.083619
vt 0.144368 0.104658
vt 0.920146 0.880443
vt 0.941190 0.901487
vt 0.905525 0.937154
vt 0.884488 0.916104
vt 0.516534 0.235322
vt 0.470274 0.173857
vt 0.529693 0.775945
vt 0.578807 0.831675
vt 0.678428 0.306894
vt 0.739264 0.261105
vt 0.250135 0.210431
vt 0.214468 0.246098
vt 0.368348 0.719198
vt 0.313172 0.767825
vt 0.778588 0.810218
vt 0.814254 0.774551
vt 0.681727 0.642044
vt 0.731397 0.691694
vt 0.695729 0.727365
vt 0.646069 0.677705
vt 0.252429 0.587698
vt 0.171481 0.607023
vt 0.357960 0.389589
vt 0.297251 0.328881
vt 0.332919 0.293216
vt 0.393627 0.353924
vt 0.811886 0.484222
vt 0.848408 0.406151
vt 0.235916 0.267545
vt 0.271577 0.231887
vt 0.792801 0.753098
vt 0.757134 0.788770
vt 0.871448 0.063489
vt 0.918597 0.126141
vt 0.499265 0.441728
vt 0.452128 0.379071
vt 0.530968 0.575887
vt 0.581037 0.632695
vt 0.200789 0.967818
vt 0.150720 0.911009
vt 0.858461 0.546103
vt 0.896107 0.469506
vt 0.201803 0.530233
vt 0.122024 0.550912
vt 0.586715 0.547032
vt 0.551049 0.582698
vt 0.095638 0.409772
vt 0.040475 0.458394
vt 0.449806 0.481442
vt 0.485470 0.445780
vt 0.935251 0.648135
vt 0.996086 0.602346
vt 0.613977 0.645613
vt 0.649636 0.609952
vt 0.900138 0.300862
vt 0.966211 0.326801
vt 0.630219 0.590529
vt 0.594550 0.626199
vt 0.350467 0.491722
vt 0.362108 0.559294
vt 0.030797 0.640993
vt 0.011885 0.577515
vt 0.434615 0.394925
vt 0.398951 0.430587
vt 0.417706 0.449355
vt 0.453374 0.413691
vt 0.808468 0.652235
vt 0.748040 0.619788
vn 0.6071 0.3066 0.7331
vn -0.7851 0.0894 0.6129
vn -0.6071 -0.3066 -0.7331
vn 0.7851 -0.0894 -0.6129
vn 0.1223 -0.9476 0.2950
vn -0.1223 0.9476 -0.2950
vn 0.7851 -0.0894 -0.6128
vn -0.7851 0.0894 0.6128
vn 0.7851 -0.0895 -0.6129
vn 0.6072 0.3066 0.7331
vn -0.1224 0.9476 -0.2950
vn 0.1224 -0.9476 0.2950
vn -0.7851 0.0895 0.6129
vn 0.6072 0.3065 0.7331
vn -0.6072 -0.3065 -0.7331
vn 0.6071 0.3066 0.7330
vn -0.6071 -0.3065 -0.7331
vn -0.3836 0.7067 -0.5945
vn 0.3836 -0.7067 0.5945
vn 0.4529 0.7578 0.4696
vn -0.3915 0.6951 -0.6030
vn 0.3915 -0.6951 0.6030
vn -0.4998 -0.6758 -0.5417
usemtl Material.286
s off
f 9/1/1 2/2/1 4/3/1 10/4/1
f 10/5/2 4/6/2 8/7/2 11/8/2
f 11/9/3 8/10/3 6/11/3 12/12/3
f 12/13/4 6/14/4 2/15/4 9/16/4
f 3/17/5 7/18/5 5/19/5 1/20/5
f 8/10/6 4/21/6 2/22/6 6/11/6
f 15/23/7 12/13/7 9/16/7 16/24/7
f 14/25/8 11/8/8 19/26/8 23/27/8
f 13/28/8 10/5/8 11/8/8 14/25/8
f 16/24/9 9/16/9 18/29/9 17/30/9
f 28/31/1 16/32/1 13/33/1 25/34/1
f 25/35/2 13/28/2 14/25/2 26/36/2
f 26/37/3 14/38/3 15/39/3 27/40/3
f 27/41/4 15/23/4 16/24/4 28/42/4
f 23/43/3 19/44/3 20/45/3 24/46/3
f 17/47/10 18/48/10 21/49/10 22/50/10
f 9/1/11 10/4/11 21/49/11 18/48/11
f 11/9/11 12/12/11 20/45/11 19/44/11
f 15/39/12 14/38/12 23/43/12 24/46/12
f 13/33/12 16/32/12 17/47/12 22/50/12
f 12/13/7 15/23/7 24/51/7 20/52/7
f 10/5/2 13/28/2 22/53/2 21/54/2
f 31/55/7 27/41/7 28/42/7 32/56/7
f 26/37/11 27/40/11 36/57/11 35/58/11
f 29/59/13 25/35/13 26/36/13 30/60/13
f 28/31/6 25/34/6 37/61/6 34/62/6
f 44/63/14 32/64/14 29/65/14 41/66/14
f 41/67/2 29/59/2 30/60/2 42/68/2
f 42/69/3 30/70/3 31/71/3 43/72/3
f 43/73/7 31/55/7 32/56/7 44/74/7
f 39/75/15 35/58/15 36/57/15 40/76/15
f 33/77/1 34/62/1 37/61/1 38/78/1
f 31/71/5 30/70/5 39/75/5 40/76/5
f 32/56/4 28/42/4 34/79/4 33/80/4
f 29/65/5 32/64/5 33/77/5 38/78/5
f 27/41/4 31/55/4 40/81/4 36/82/4
f 25/35/2 29/59/2 38/83/2 37/84/2
f 30/60/13 26/36/13 35/85/13 39/86/13
f 47/87/4 43/73/4 44/74/4 48/88/4
f 45/89/2 41/67/2 42/68/2 46/90/2
f 1/20/16 48/91/16 45/92/16 3/17/16
f 3/93/2 45/89/2 46/90/2 7/94/2
f 7/18/17 46/95/17 47/96/17 5/19/17
f 5/97/4 47/87/4 48/88/4 1/98/4
f 44/63/18 41/66/18 52/99/18 51/100/18
f 48/88/4 44/74/4 51/101/4 49/102/4
f 45/92/19 48/91/19 49/103/19 50/104/19
f 41/67/8 45/89/8 50/105/8 52/106/8
f 49/103/20 51/100/20 52/99/20 50/104/20
f 46/90/2 42/68/2 53/107/2 55/108/2
f 42/69/21 43/72/21 54/109/21 53/110/21
f 47/96/22 46/95/22 55/111/22 56/112/22
f 43/73/4 47/87/4 56/113/4 54/114/4
f 54/109/23 56/112/23 55/111/23 53/110/23
