# Blender v2.82 (sub 7) OBJ File: 'AnimacionSimbolo.blend'
# www.blender.org
mtllib AnimacionSimbolo_000104.mtl
o Brimstone_Cube.008
v 0.527048 8.666714 0.136827
v 0.742939 9.440817 0.180018
v 0.101197 8.778284 0.265839
v 0.317088 9.552387 0.309031
v 0.617810 8.992098 0.154996
v 0.191959 9.103668 0.284009
v 0.440520 8.356476 0.119523
v 0.014669 8.468046 0.248536
v 0.353273 8.043568 0.102064
v -0.072578 8.155137 0.231076
v 0.203963 7.508241 0.072199
v -0.221888 7.619811 0.201212
v 0.190244 8.734959 0.597241
v 0.616090 8.623390 0.468258
v 0.280975 9.060345 0.615406
v 0.706856 8.948771 0.486398
v 0.175127 8.389971 0.845749
v 0.600978 8.278401 0.716736
v 0.087880 8.077063 0.828290
v 0.513726 7.965494 0.699307
v 0.133897 7.257020 0.058196
v -0.144908 7.706775 0.380081
v 0.280939 7.595210 0.251098
v -0.185099 7.553723 0.379768
v 0.240746 7.442154 0.250786
v -0.068366 7.720829 0.620655
v 0.357510 7.609257 0.491676
v -0.119741 7.583554 0.569749
v 0.306110 7.471984 0.440737
v -0.014191 7.633897 0.874663
v 0.411660 7.522327 0.745650
v -0.077375 7.522161 0.762686
v 0.348475 7.410592 0.633673
v -0.016699 7.389617 1.077645
v 0.409147 7.278049 0.948662
v -0.070809 7.346192 0.936544
v 0.355037 7.234624 0.807561
v -0.202792 7.072666 0.737621
v 0.223088 6.961092 0.608612
v -0.209564 6.933487 0.835567
v 0.216282 6.821918 0.706585
v -0.265176 7.062242 0.540649
v 0.160700 6.950669 0.411671
v -0.301004 6.886741 0.574127
v 0.124842 6.775172 0.445144
v -0.305241 7.123069 0.355763
v 0.120610 7.011499 0.226750
v -0.344301 6.936083 0.388596
v 0.081580 6.824509 0.259587
v -0.291983 7.368593 0.187204
v 0.055309 6.975326 0.042460
v -0.370541 7.086895 0.171473
v 0.334375 7.009961 0.933698
v -0.091505 7.121535 1.062706
v 0.314503 7.089384 0.799450
v -0.111347 7.200953 0.928463
v 0.448453 8.704962 -0.155780
v 0.664344 9.479067 -0.112588
v 0.022573 8.816536 -0.026772
v 0.238464 9.590641 0.016420
v 0.539185 9.030352 -0.137615
v 0.113335 9.141921 -0.008603
v 0.361925 8.394726 -0.173084
v -0.063925 8.506295 -0.044071
v 0.274648 8.081820 -0.190548
v -0.151202 8.193390 -0.061535
v 0.125338 7.546494 -0.220412
v -0.300512 7.658064 -0.091400
v -0.066443 8.859859 -0.358169
v 0.359407 8.748289 -0.487182
v 0.024288 9.185245 -0.340004
v 0.450139 9.073675 -0.469017
v -0.224383 8.584370 -0.641284
v 0.201467 8.472799 -0.770297
v -0.311660 8.271465 -0.658748
v 0.114190 8.159895 -0.787761
v 0.055273 7.295272 -0.234415
v -0.316386 7.790204 -0.258060
v 0.109494 7.678630 -0.387069
v -0.360941 7.639285 -0.274725
v 0.064905 7.527716 -0.403707
v -0.367729 7.866497 -0.493603
v 0.058121 7.754927 -0.622616
v -0.396039 7.717994 -0.458621
v 0.029811 7.606424 -0.587634
v -0.451652 7.846748 -0.753539
v -0.025801 7.735178 -0.882552
v -0.458429 7.707568 -0.655562
v -0.032578 7.595998 -0.784575
v -0.569711 7.658701 -0.980678
v -0.143865 7.547132 -1.109661
v -0.549843 7.579279 -0.846400
v -0.123992 7.467710 -0.975413
v -0.583811 7.258066 -0.680653
v -0.157965 7.146498 -0.809636
v -0.647029 7.146340 -0.792604
v -0.221149 7.034766 -0.921612
v -0.541475 7.196678 -0.487721
v -0.115599 7.085105 -0.616699
v -0.600367 7.032408 -0.540130
v -0.174517 6.920838 -0.669143
v -0.481082 7.208631 -0.298730
v -0.055232 7.097061 -0.427743
v -0.543203 7.032870 -0.351815
v -0.117357 6.921301 -0.480797
v -0.370607 7.406846 -0.105407
v -0.023316 7.013579 -0.250151
v -0.449166 7.125149 -0.121138
v -0.369736 7.249722 0.033184
v 0.056114 7.138153 -0.095829
v -0.218666 7.279045 -1.124629
v -0.644517 7.390615 -0.995616
v -0.164526 7.322465 -0.983523
v -0.590377 7.434035 -0.854510
vt 0.044840 0.076330
vt 0.011983 0.043464
vt 0.044304 0.011151
vt 0.077158 0.044020
vt 0.299940 0.462167
vt 0.228475 0.462162
vt 0.228485 0.353002
vt 0.299944 0.353004
vt 0.299940 0.541322
vt 0.299940 0.616799
vt 0.228480 0.616794
vt 0.228475 0.541322
vt 0.957372 0.988836
vt 0.935862 0.967328
vt 0.968168 0.935019
vt 0.989679 0.956527
vt 0.117388 0.148892
vt 0.149699 0.116584
vt 0.172422 0.139298
vt 0.140105 0.171612
vt 0.250823 0.282324
vt 0.283131 0.250016
vt 0.322332 0.289214
vt 0.290021 0.321525
vt 0.706100 0.380754
vt 0.777265 0.380752
vt 0.777274 0.455921
vt 0.706090 0.455923
vt 0.299935 0.692918
vt 0.228480 0.692915
vt 0.741678 0.080940
vt 0.777265 0.114371
vt 0.777265 0.175238
vt 0.706090 0.175239
vt 0.706090 0.114372
vt 0.093030 0.124523
vt 0.069200 0.100696
vt 0.101516 0.068387
vt 0.125343 0.092217
vt 0.184007 0.215511
vt 0.216318 0.183203
vt 0.239235 0.206111
vt 0.206920 0.238424
vt 0.147550 0.541319
vt 0.147540 0.462162
vt 0.082627 0.692918
vt 0.082632 0.616792
vt 0.706109 0.534759
vt 0.625493 0.534761
vt 0.625483 0.455925
vt 0.706100 0.304940
vt 0.560833 0.380756
vt 0.560833 0.304943
vt 0.228470 0.884256
vt 0.264203 0.917828
vt 0.228475 0.952792
vt 0.228475 0.823144
vt 0.184285 0.833470
vt 0.186291 0.796494
vt 0.438832 0.405703
vt 0.406518 0.438016
vt 0.384151 0.415641
vt 0.416459 0.383330
vt 0.979788 0.670458
vt 0.895721 0.670451
vt 0.895725 0.633249
vt 0.979784 0.633242
vt 0.662075 0.164959
vt 0.664054 0.201783
vt 0.606156 0.212729
vt 0.616610 0.178107
vt 0.337356 0.304232
vt 0.305048 0.336544
vt 0.979792 0.723178
vt 0.895725 0.723178
vt 0.543664 0.199806
vt 0.569195 0.169408
vt 0.355162 0.322044
vt 0.322856 0.354354
vt 0.138636 0.820268
vt 0.128148 0.785505
vt 0.895719 0.595340
vt 0.979782 0.595332
vt 0.374453 0.341332
vt 0.342144 0.373640
vt 0.091027 0.829001
vt 0.065393 0.798479
vt 0.184280 0.938235
vt 0.173793 0.982354
vt 0.128143 0.988413
vt 0.138640 0.947090
vt 0.491353 0.147433
vt 0.524848 0.132550
vt 0.895721 0.549984
vt 0.979781 0.549992
vt 0.396823 0.363702
vt 0.364516 0.396011
vt 0.046505 0.866007
vt 0.012869 0.851067
vt 0.543664 0.030105
vt 0.569205 0.060500
vt 0.524848 0.097358
vt 0.491353 0.082476
vt 0.091023 0.938352
vt 0.065388 0.968869
vt 0.012878 0.916285
vt 0.046500 0.901345
vt 0.895725 0.476973
vt 0.979792 0.476966
vt 0.979788 0.522314
vt 0.895727 0.522307
vt 0.895723 0.439064
vt 0.979786 0.439057
vt 0.651629 0.016671
vt 0.662084 0.060617
vt 0.616601 0.051800
vt 0.606165 0.010639
vt 0.458618 0.425486
vt 0.426308 0.457795
vt 0.706090 0.046122
vt 0.979788 0.777812
vt 0.895725 0.777797
vt 0.491193 0.458058
vt 0.458885 0.490369
vt 0.440167 0.471662
vt 0.472479 0.439347
vt 0.299935 0.823144
vt 0.777274 0.304938
vt 0.777284 0.534758
vt 0.777274 0.643475
vt 0.706109 0.643475
vt 0.473924 0.505422
vt 0.506237 0.473107
vt 0.979790 0.814232
vt 0.895727 0.814224
vt 0.488978 0.520462
vt 0.521284 0.488154
vt 0.903008 0.934469
vt 0.935311 0.902162
vt 0.830455 0.861927
vt 0.807736 0.839214
vt 0.840045 0.806904
vt 0.862760 0.829622
vt 0.697024 0.728508
vt 0.657828 0.689307
vt 0.690136 0.656998
vt 0.729336 0.696195
vt 0.854815 0.886288
vt 0.887120 0.853981
vt 0.910950 0.877803
vt 0.878640 0.910115
vt 0.763838 0.795316
vt 0.740925 0.772406
vt 0.773237 0.740094
vt 0.796146 0.763008
vt 0.380870 0.462165
vt 0.380875 0.541322
vt 0.445783 0.616801
vt 0.445783 0.692925
vt 0.857872 0.455918
vt 0.857881 0.534754
vt 0.922531 0.304928
vt 0.922531 0.380742
vt 0.299935 0.884263
vt 0.299930 0.952785
vt 0.342124 0.796497
vt 0.344130 0.833470
vt 0.573646 0.540505
vt 0.596015 0.562880
vt 0.563710 0.595188
vt 0.541333 0.572820
vt 0.115513 0.382093
vt 0.115516 0.418780
vt 0.032651 0.418780
vt 0.032651 0.382086
vt 0.821262 0.164956
vt 0.866735 0.178104
vt 0.877181 0.212724
vt 0.819273 0.201778
vt 0.642806 0.674287
vt 0.675116 0.641975
vt 0.115526 0.330116
vt 0.032652 0.330116
vt 0.914151 0.169403
vt 0.939672 0.199797
vt 0.625001 0.656473
vt 0.657304 0.624169
vt 0.400267 0.785505
vt 0.389775 0.820263
vt 0.115516 0.456143
vt 0.032647 0.456150
vt 0.605707 0.637191
vt 0.638015 0.604882
vt 0.463013 0.798481
vt 0.437388 0.829003
vt 0.344125 0.938235
vt 0.389775 0.947090
vt 0.400262 0.988413
vt 0.354622 0.982356
vt 0.958507 0.132544
vt 0.991983 0.147424
vt 0.115514 0.500846
vt 0.032649 0.500846
vt 0.583342 0.614818
vt 0.615647 0.582509
vt 0.515546 0.851065
vt 0.481910 0.866005
vt 0.939672 0.030101
vt 0.991983 0.082471
vt 0.958507 0.097353
vt 0.914132 0.060496
vt 0.437383 0.938352
vt 0.481920 0.901340
vt 0.515541 0.916283
vt 0.463017 0.968871
vt 0.032658 0.572833
vt 0.032656 0.528130
vt 0.115526 0.528123
vt 0.115520 0.572826
vt 0.032658 0.240372
vt 0.032654 0.203010
vt 0.115516 0.202995
vt 0.115524 0.240365
vt 0.831716 0.016673
vt 0.877171 0.010639
vt 0.866735 0.051797
vt 0.821271 0.060615
vt 0.553858 0.520725
vt 0.521553 0.553034
vt 0.777265 0.046121
vt 0.032660 0.276267
vt 0.115522 0.276267
vt 0.539999 0.506861
vt 0.507689 0.539170
vn 0.2575 -0.1252 0.9581
vn -0.9283 0.2432 0.2812
vn 0.2683 0.9619 0.0537
vn 0.2575 -0.1253 0.9581
vn 0.9283 -0.2432 -0.2811
vn 0.9283 -0.2432 -0.2812
vn 0.2574 -0.1252 0.9582
vn 0.2574 -0.1252 0.9581
vn 0.9283 -0.2433 -0.2812
vn -0.2683 -0.9619 -0.0537
vn -0.9284 0.2432 0.2810
vn -0.9283 0.2433 0.2813
vn -0.0074 -0.7683 0.6400
vn -0.1862 -0.9588 0.2146
vn 0.0893 0.8801 -0.4663
vn 0.0181 -0.7258 0.6877
vn 0.2158 0.9684 -0.1252
vn -0.3103 -0.9235 -0.2257
vn 0.3148 0.9166 0.2466
vn -0.9283 0.2431 0.2812
vn -0.9283 0.2432 0.2813
vn -0.3708 -0.6597 -0.6537
vn 0.3717 0.5911 0.7159
vn 0.0418 0.8198 -0.5711
vn 0.2174 0.9687 -0.1201
vn -0.1796 -0.9556 0.2337
vn 0.3691 0.5124 0.7754
vn -0.3584 -0.7865 -0.5030
vn -0.2998 -0.9370 -0.1792
vn -0.3718 -0.5999 -0.7085
vn 0.3123 0.9204 0.2351
vn -0.2574 0.1253 -0.9581
vn -0.9283 0.2434 0.2811
vn 0.9283 -0.2433 -0.2811
vn -0.0117 -0.7751 0.6317
vn -0.2574 0.1252 -0.9581
vn -0.2575 0.1253 -0.9581
vn -0.9282 0.2431 0.2815
vn -0.9283 0.2432 0.2811
vn -0.3717 -0.5911 -0.7158
vn -0.3292 -0.8892 -0.3177
vn 0.3643 0.7463 0.5571
vn -0.3703 -0.5368 -0.7581
vn 0.3114 0.9219 0.2307
vn -0.9284 0.2431 0.2812
vn -0.2174 -0.9687 0.1201
vn 0.2106 0.9673 -0.1415
vn -0.0418 -0.8198 0.5711
vn 0.0074 0.7683 -0.6400
vn 0.3708 0.6597 0.6537
vn 0.3103 0.9235 0.2257
vn -0.3327 -0.8811 -0.3361
vn -0.0293 0.7062 -0.7074
vn -0.1135 -0.9056 0.4086
vn -0.2321 -0.9700 0.0728
vn 0.2143 0.9681 -0.1297
vn 0.2574 -0.1253 0.9581
vn 0.9283 -0.2433 -0.2813
vn 0.9282 -0.2432 -0.2814
usemtl Material.054
s off
f 5/1/1 2/2/1 4/3/1 6/4/1
f 62/5/2 6/6/2 4/7/2 60/8/2
f 59/9/2 64/10/2 8/11/2 3/12/2
f 2/13/3 58/14/3 60/15/3 4/16/3
f 1/17/1 3/18/1 8/19/1 7/20/1
f 59/9/2 3/12/2 6/6/2 62/5/2
f 9/21/4 10/22/4 12/23/4 11/24/4
f 7/25/5 63/26/5 57/27/5 1/28/5
f 64/10/2 66/29/2 10/30/2 8/11/2
f 110/31/6 77/32/6 67/33/6 11/34/6 21/35/6
f 14/36/7 16/37/7 15/38/7 13/39/7
f 18/40/8 17/41/8 19/42/8 20/43/8
f 6/6/2 3/12/2 13/44/2 15/45/2
f 5/1/3 6/4/3 15/38/3 16/37/3
f 8/11/2 10/30/2 19/46/2 17/47/2
f 1/28/9 5/48/9 16/49/9 14/50/9
f 7/20/3 8/19/3 17/41/3 18/40/3
f 9/51/6 7/25/6 18/52/6 20/53/6
f 10/22/10 9/21/10 20/43/10 19/42/10
f 3/18/10 1/17/10 14/36/10 13/39/10
f 50/54/11 109/55/11 52/56/11
f 12/57/12 50/54/12 24/58/12 22/59/12
f 40/60/13 41/61/13 53/62/13 54/63/13
f 24/64/14 25/65/14 29/66/14 28/67/14
f 25/68/6 23/69/6 27/70/6 29/71/6
f 21/35/6 11/34/6 23/69/6 25/68/6
f 11/24/15 12/23/15 22/72/15 23/73/15
f 50/74/16 21/75/16 25/65/16 24/64/16
f 29/71/6 27/70/6 31/76/6 33/77/6
f 23/73/17 22/72/17 26/78/17 27/79/17
f 22/59/2 24/58/2 28/80/2 26/81/2
f 28/67/18 29/66/18 33/82/18 32/83/18
f 27/79/19 26/78/19 30/84/19 31/85/19
f 26/81/20 28/80/20 32/86/20 30/87/20
f 46/88/21 48/89/21 44/90/21 42/91/21
f 33/77/5 31/76/5 35/92/5 37/93/5
f 32/83/22 33/82/22 37/94/22 36/95/22
f 31/85/23 30/84/23 34/96/23 35/97/23
f 30/87/2 32/86/2 36/98/2 34/99/2
f 41/100/9 39/101/9 55/102/9 53/103/9
f 38/104/2 40/105/2 54/106/2 56/107/2
f 39/108/24 38/109/24 56/110/24 55/111/24
f 42/91/20 44/90/20 40/105/20 38/104/20
f 43/112/25 42/113/25 38/109/25 39/108/25
f 49/114/6 47/115/6 43/116/6 45/117/6
f 45/117/9 43/116/9 39/101/9 41/100/9
f 44/118/26 45/119/26 41/61/26 40/60/26
f 51/120/6 21/35/6 47/115/6 49/114/6
f 21/75/27 50/74/27 46/121/27 47/122/27
f 52/123/28 51/124/28 49/125/28 48/126/28
f 48/126/29 49/125/29 45/119/29 44/118/29
f 66/29/2 68/127/2 12/57/2 10/30/2
f 11/34/6 67/33/6 65/128/6 9/51/6
f 9/51/6 65/128/6 63/26/6 7/25/6
f 1/28/6 57/27/6 61/129/6 5/48/6
f 5/48/6 61/129/6 58/130/6 2/131/6
f 110/132/30 51/124/30 52/123/30 109/133/30
f 50/54/2 52/56/2 48/89/2 46/88/2
f 47/122/31 46/121/31 42/134/31 43/135/31
f 36/95/32 37/94/32 55/111/32 56/110/32
f 34/99/33 36/98/33 56/107/33 54/106/33
f 35/97/8 34/96/8 54/63/8 53/62/8
f 37/93/9 35/92/9 53/103/9 55/102/9
f 110/31/34 21/35/34 51/120/34
f 107/136/35 110/132/35 109/133/35 108/137/35
f 61/138/36 62/139/36 60/15/36 58/14/36
f 57/140/36 63/141/36 64/142/36 59/143/36
f 65/144/37 67/145/37 68/146/37 66/147/37
f 70/148/32 69/149/32 71/150/32 72/151/32
f 74/152/32 76/153/32 75/154/32 73/155/32
f 62/5/2 71/156/2 69/157/2 59/9/2
f 61/138/3 72/151/3 71/150/3 62/139/3
f 64/10/2 73/158/2 75/159/2 66/29/2
f 57/27/6 70/160/6 72/161/6 61/129/6
f 63/141/3 74/152/3 73/155/3 64/142/3
f 65/128/6 76/162/6 74/163/6 63/26/6
f 66/147/10 75/154/10 76/153/10 65/144/10
f 59/143/10 69/149/10 70/148/10 57/140/10
f 106/164/38 108/165/38 109/55/38
f 68/127/39 78/166/39 80/167/39 106/164/39
f 96/168/40 112/169/40 111/170/40 97/171/40
f 80/172/41 84/173/41 85/174/41 81/175/41
f 81/176/6 85/177/6 83/178/6 79/179/6
f 77/32/9 81/176/9 79/179/9 67/33/9
f 67/145/42 79/180/42 78/181/42 68/146/42
f 106/182/43 80/172/43 81/175/43 77/183/43
f 85/177/6 89/184/6 87/185/6 83/178/6
f 79/180/44 83/186/44 82/187/44 78/181/44
f 78/166/45 82/188/45 84/189/45 80/167/45
f 84/173/46 88/190/46 89/191/46 85/174/46
f 83/186/47 87/192/47 86/193/47 82/187/47
f 82/188/2 86/194/2 88/195/2 84/189/2
f 102/196/20 98/197/20 100/198/20 104/199/20
f 89/184/6 93/200/6 91/201/6 87/185/6
f 88/190/48 92/202/48 93/203/48 89/191/48
f 87/192/49 91/204/49 90/205/49 86/193/49
f 86/194/2 90/206/2 92/207/2 88/195/2
f 97/208/6 111/209/6 113/210/6 95/211/6
f 94/212/12 114/213/12 112/214/12 96/215/12
f 95/216/50 113/217/50 114/218/50 94/219/50
f 98/197/2 94/212/2 96/215/2 100/198/2
f 99/220/51 95/221/51 94/222/51 98/223/51
f 105/224/6 101/225/6 99/226/6 103/227/6
f 101/225/6 97/208/6 95/211/6 99/226/6
f 100/228/52 96/168/52 97/171/52 101/229/52
f 107/230/9 105/224/9 103/227/9 77/32/9
f 77/183/53 103/231/53 102/232/53 106/182/53
f 108/137/54 104/233/54 105/234/54 107/136/54
f 104/233/55 100/228/55 101/229/55 105/234/55
f 106/164/2 102/196/2 104/199/2 108/165/2
f 103/231/56 99/220/56 98/223/56 102/232/56
f 92/202/57 114/218/57 113/217/57 93/203/57
f 90/206/12 112/214/12 114/213/12 92/207/12
f 91/204/32 111/170/32 112/169/32 90/205/32
f 93/200/58 113/210/58 111/209/58 91/201/58
f 110/31/59 107/230/59 77/32/59
f 68/127/2 106/164/2 109/55/2 50/54/2 12/57/2
