# Blender v2.82 (sub 7) OBJ File: 'AnimacionSimbolo.blend'
# www.blender.org
mtllib AnimacionSimbolo_000141.mtl
o Brimstone_Cube.008
v 0.211422 7.618743 -0.501803
v 0.285307 8.392847 -0.709204
v 0.277651 7.730313 -0.061795
v 0.351536 8.504416 -0.269197
v 0.242495 7.944127 -0.588994
v 0.308724 8.055696 -0.148987
v 0.181817 7.308506 -0.418676
v 0.248046 7.420075 0.021331
v 0.151954 6.995596 -0.334861
v 0.218182 7.107166 0.105147
v 0.100861 6.460270 -0.191421
v 0.167090 6.571840 0.248587
v 0.618432 7.686988 -0.102102
v 0.552233 7.575420 -0.542100
v 0.649496 8.012373 -0.189263
v 0.583276 7.900800 -0.629300
v 0.862160 7.342000 -0.051293
v 0.795931 7.230431 -0.491300
v 0.832297 7.029092 0.032523
v 0.766097 6.917523 -0.407476
v 0.076897 6.209049 -0.124109
v 0.355194 6.658804 0.198216
v 0.288994 6.547239 -0.241783
v 0.349086 6.505752 0.237942
v 0.282886 6.394183 -0.202056
v 0.604293 6.672859 0.157181
v 0.538102 6.561286 -0.282847
v 0.546509 6.535583 0.200675
v 0.480280 6.424014 -0.239333
v 0.863460 6.585926 0.140216
v 0.797231 6.474357 -0.299791
v 0.743539 6.474191 0.186586
v 0.677310 6.362621 -0.253422
v 1.063956 6.341647 0.171981
v 0.997756 6.230078 -0.268017
v 0.916525 6.298222 0.205170
v 0.850325 6.186653 -0.234829
v 0.700643 6.024695 0.307075
v 0.634423 5.913121 -0.132962
v 0.796588 5.885517 0.327905
v 0.730388 5.773948 -0.112093
v 0.496732 6.014271 0.340391
v 0.430541 5.902698 -0.099637
v 0.524691 5.838770 0.380673
v 0.458491 5.727201 -0.059326
v 0.308000 6.075098 0.353364
v 0.241771 5.963528 -0.086644
v 0.334854 5.888112 0.396751
v 0.268634 5.776538 -0.043285
v 0.143117 6.320622 0.315928
v 0.049988 5.927355 -0.048612
v 0.116217 6.038925 0.391395
v 0.972163 5.961990 -0.196187
v 1.038383 6.073564 0.243849
v 0.836452 6.041413 -0.195890
v 0.902681 6.152983 0.244118
v -0.089462 7.656991 -0.466243
v -0.015577 8.431095 -0.673644
v -0.023242 7.768565 -0.026206
v 0.050643 8.542669 -0.233608
v -0.058398 7.982380 -0.553405
v 0.007831 8.093950 -0.113398
v -0.119067 7.346755 -0.383116
v -0.052838 7.458324 0.056891
v -0.148939 7.033849 -0.299272
v -0.082710 7.145419 0.140736
v -0.200032 6.498524 -0.155832
v -0.133803 6.610093 0.284176
v -0.364014 7.811889 0.014070
v -0.430243 7.700319 -0.425937
v -0.332950 8.137274 -0.073092
v -0.399179 8.025703 -0.513099
v -0.666953 7.536399 0.129515
v -0.733181 7.424829 -0.310492
v -0.696825 7.223494 0.213360
v -0.763054 7.111924 -0.226648
v -0.223996 6.247302 -0.088520
v -0.301010 6.742233 0.275841
v -0.367230 6.630660 -0.164196
v -0.323928 6.591314 0.317525
v -0.390128 6.479745 -0.122473
v -0.541496 6.818526 0.292667
v -0.607725 6.706956 -0.147341
v -0.510964 6.670023 0.325727
v -0.577192 6.558454 -0.114281
v -0.810820 6.798778 0.338212
v -0.877048 6.687208 -0.101796
v -0.714845 6.659597 0.359052
v -0.781074 6.548027 -0.080955
v -1.052614 6.610730 0.422268
v -1.118814 6.499162 -0.017731
v -0.916875 6.531309 0.421979
v -0.983103 6.419739 -0.018028
v -0.757762 6.210095 0.479503
v -0.823961 6.098527 0.039504
v -0.877662 6.098369 0.525910
v -0.943882 5.986795 0.085873
v -0.560740 6.148707 0.465443
v -0.626931 6.037134 0.025416
v -0.621097 5.984437 0.516159
v -0.687326 5.872867 0.076151
v -0.365014 6.160660 0.432947
v -0.431243 6.049090 -0.007061
v -0.426505 5.984899 0.486759
v -0.492705 5.873331 0.046761
v -0.157776 6.358875 0.351517
v -0.250904 5.965608 -0.013023
v -0.184676 6.077178 0.426984
v -0.020509 6.201751 0.370649
v -0.086738 6.090182 -0.069359
v -1.144417 6.231074 0.054129
v -1.078188 6.342644 0.494137
v -0.996977 6.274495 0.020912
v -0.930748 6.386065 0.460919
vt 0.044840 0.076330
vt 0.011983 0.043464
vt 0.044304 0.011151
vt 0.077158 0.044020
vt 0.299940 0.462167
vt 0.228475 0.462162
vt 0.228485 0.353002
vt 0.299944 0.353004
vt 0.299940 0.541322
vt 0.299940 0.616799
vt 0.228480 0.616794
vt 0.228475 0.541322
vt 0.957372 0.988836
vt 0.935862 0.967328
vt 0.968168 0.935019
vt 0.989679 0.956527
vt 0.117388 0.148892
vt 0.149699 0.116584
vt 0.172422 0.139298
vt 0.140105 0.171612
vt 0.250823 0.282324
vt 0.283131 0.250016
vt 0.322332 0.289214
vt 0.290021 0.321525
vt 0.706100 0.380754
vt 0.777265 0.380752
vt 0.777274 0.455921
vt 0.706090 0.455923
vt 0.299935 0.692918
vt 0.228480 0.692915
vt 0.741678 0.080940
vt 0.777265 0.114371
vt 0.777265 0.175238
vt 0.706090 0.175239
vt 0.706090 0.114372
vt 0.093030 0.124523
vt 0.069200 0.100696
vt 0.101516 0.068387
vt 0.125343 0.092217
vt 0.184007 0.215511
vt 0.216318 0.183203
vt 0.239235 0.206111
vt 0.206920 0.238424
vt 0.147550 0.541319
vt 0.147540 0.462162
vt 0.082627 0.692918
vt 0.082632 0.616792
vt 0.706109 0.534759
vt 0.625493 0.534761
vt 0.625483 0.455925
vt 0.706100 0.304940
vt 0.560833 0.380756
vt 0.560833 0.304943
vt 0.228470 0.884256
vt 0.264203 0.917828
vt 0.228475 0.952792
vt 0.228475 0.823144
vt 0.184285 0.833470
vt 0.186291 0.796494
vt 0.438832 0.405703
vt 0.406518 0.438016
vt 0.384151 0.415641
vt 0.416459 0.383330
vt 0.979788 0.670458
vt 0.895721 0.670451
vt 0.895725 0.633249
vt 0.979784 0.633242
vt 0.662075 0.164959
vt 0.664054 0.201783
vt 0.606156 0.212729
vt 0.616610 0.178107
vt 0.337356 0.304232
vt 0.305048 0.336544
vt 0.979792 0.723178
vt 0.895725 0.723178
vt 0.543664 0.199806
vt 0.569195 0.169408
vt 0.355162 0.322044
vt 0.322856 0.354354
vt 0.138636 0.820268
vt 0.128148 0.785505
vt 0.895719 0.595340
vt 0.979782 0.595332
vt 0.374453 0.341332
vt 0.342144 0.373640
vt 0.091027 0.829001
vt 0.065393 0.798479
vt 0.184280 0.938235
vt 0.173793 0.982354
vt 0.128143 0.988413
vt 0.138640 0.947090
vt 0.491353 0.147433
vt 0.524848 0.132550
vt 0.895721 0.549984
vt 0.979781 0.549992
vt 0.396823 0.363702
vt 0.364516 0.396011
vt 0.046505 0.866007
vt 0.012869 0.851067
vt 0.543664 0.030105
vt 0.569205 0.060500
vt 0.524848 0.097358
vt 0.491353 0.082476
vt 0.091023 0.938352
vt 0.065388 0.968869
vt 0.012878 0.916285
vt 0.046500 0.901345
vt 0.895725 0.476973
vt 0.979792 0.476966
vt 0.979788 0.522314
vt 0.895727 0.522307
vt 0.895723 0.439064
vt 0.979786 0.439057
vt 0.651629 0.016671
vt 0.662084 0.060617
vt 0.616601 0.051800
vt 0.606165 0.010639
vt 0.458618 0.425486
vt 0.426308 0.457795
vt 0.706090 0.046122
vt 0.979788 0.777812
vt 0.895725 0.777797
vt 0.491193 0.458058
vt 0.458885 0.490369
vt 0.440167 0.471662
vt 0.472479 0.439347
vt 0.299935 0.823144
vt 0.777274 0.304938
vt 0.777284 0.534758
vt 0.777274 0.643475
vt 0.706109 0.643475
vt 0.473924 0.505422
vt 0.506237 0.473107
vt 0.979790 0.814232
vt 0.895727 0.814224
vt 0.488978 0.520462
vt 0.521284 0.488154
vt 0.903008 0.934469
vt 0.935311 0.902162
vt 0.830455 0.861927
vt 0.807736 0.839214
vt 0.840045 0.806904
vt 0.862760 0.829622
vt 0.697024 0.728508
vt 0.657828 0.689307
vt 0.690136 0.656998
vt 0.729336 0.696195
vt 0.854815 0.886288
vt 0.887120 0.853981
vt 0.910950 0.877803
vt 0.878640 0.910115
vt 0.763838 0.795316
vt 0.740925 0.772406
vt 0.773237 0.740094
vt 0.796146 0.763008
vt 0.380870 0.462165
vt 0.380875 0.541322
vt 0.445783 0.616801
vt 0.445783 0.692925
vt 0.857872 0.455918
vt 0.857881 0.534754
vt 0.922531 0.304928
vt 0.922531 0.380742
vt 0.299935 0.884263
vt 0.299930 0.952785
vt 0.342124 0.796497
vt 0.344130 0.833470
vt 0.573646 0.540505
vt 0.596015 0.562880
vt 0.563710 0.595188
vt 0.541333 0.572820
vt 0.115513 0.382093
vt 0.115516 0.418780
vt 0.032651 0.418780
vt 0.032651 0.382086
vt 0.821262 0.164956
vt 0.866735 0.178104
vt 0.877181 0.212724
vt 0.819273 0.201778
vt 0.642806 0.674287
vt 0.675116 0.641975
vt 0.115526 0.330116
vt 0.032652 0.330116
vt 0.914151 0.169403
vt 0.939672 0.199797
vt 0.625001 0.656473
vt 0.657304 0.624169
vt 0.400267 0.785505
vt 0.389775 0.820263
vt 0.115516 0.456143
vt 0.032647 0.456150
vt 0.605707 0.637191
vt 0.638015 0.604882
vt 0.463013 0.798481
vt 0.437388 0.829003
vt 0.344125 0.938235
vt 0.389775 0.947090
vt 0.400262 0.988413
vt 0.354622 0.982356
vt 0.958507 0.132544
vt 0.991983 0.147424
vt 0.115514 0.500846
vt 0.032649 0.500846
vt 0.583342 0.614818
vt 0.615647 0.582509
vt 0.515546 0.851065
vt 0.481910 0.866005
vt 0.939672 0.030101
vt 0.991983 0.082471
vt 0.958507 0.097353
vt 0.914132 0.060496
vt 0.437383 0.938352
vt 0.481920 0.901340
vt 0.515541 0.916283
vt 0.463017 0.968871
vt 0.032658 0.572833
vt 0.032656 0.528130
vt 0.115526 0.528123
vt 0.115520 0.572826
vt 0.032658 0.240372
vt 0.032654 0.203010
vt 0.115516 0.202995
vt 0.115524 0.240365
vt 0.831716 0.016673
vt 0.877171 0.010639
vt 0.866735 0.051797
vt 0.821271 0.060615
vt 0.553858 0.520725
vt 0.521553 0.553034
vt 0.777265 0.046121
vt 0.032660 0.276267
vt 0.115522 0.276267
vt 0.539999 0.506861
vt 0.507689 0.539170
vn 0.9853 -0.1252 -0.1165
vn 0.1444 0.2432 0.9592
vn 0.1443 0.2432 0.9592
vn 0.0918 0.9619 -0.2577
vn 0.9853 -0.1253 -0.1165
vn -0.1443 -0.2432 -0.9592
vn -0.1444 -0.2432 -0.9592
vn -0.1444 -0.2433 -0.9592
vn -0.0918 -0.9619 0.2577
vn 0.1441 0.2432 0.9592
vn 0.1444 0.2433 0.9591
vn 0.6322 -0.7683 0.0997
vn 0.1855 -0.9588 0.2152
vn -0.4485 0.8801 -0.1557
vn 0.6831 -0.7258 0.0812
vn -0.0928 0.9684 -0.2316
vn -0.2681 -0.9235 0.2745
vn 0.2894 0.9166 -0.2760
vn 0.1443 0.2431 0.9592
vn -0.7003 -0.6597 0.2727
vn 0.7620 0.5911 -0.2645
vn -0.5591 0.8198 -0.1237
vn -0.0875 0.9687 -0.2324
vn -0.1443 -0.2433 -0.9591
vn 0.2053 -0.9556 0.2114
vn 0.8205 0.5124 -0.2534
vn -0.5494 -0.7865 0.2821
vn -0.2206 -0.9370 0.2708
vn -0.7547 -0.5999 0.2657
vn 0.2777 0.9204 -0.2752
vn -0.9853 0.1253 0.1165
vn 0.1443 0.2434 0.9591
vn -0.1442 -0.2433 -0.9592
vn 0.6234 -0.7751 0.1027
vn -0.9853 0.1252 0.1165
vn 0.1446 0.2431 0.9591
vn 0.1442 0.2432 0.9592
vn -0.7620 -0.5911 0.2646
vn -0.3619 -0.8892 0.2799
vn -0.1443 -0.2433 -0.9592
vn 0.6038 0.7463 -0.2801
vn -0.8036 -0.5368 0.2570
vn 0.2732 0.9219 -0.2749
vn 0.0875 -0.9687 0.2324
vn -0.1096 0.9673 -0.2288
vn 0.1444 0.2431 0.9592
vn 0.5591 -0.8198 0.1237
vn -0.6322 0.7683 -0.0997
vn 0.1445 0.2433 0.9591
vn 0.7003 0.6597 -0.2727
vn 0.2681 0.9235 -0.2745
vn -0.3806 -0.8811 0.2807
vn -0.7042 0.7062 -0.0731
vn 0.3879 -0.9056 0.1713
vn 0.0386 -0.9700 0.2401
vn -0.0974 0.9681 -0.2308
vn 0.9852 -0.1253 -0.1165
vn -0.1445 -0.2433 -0.9591
vn -0.1446 -0.2432 -0.9591
usemtl Material.054
s off
f 5/1/1 2/2/1 4/3/1 6/4/1
f 62/5/2 6/6/2 4/7/2 60/8/2
f 59/9/3 64/10/3 8/11/3 3/12/3
f 2/13/4 58/14/4 60/15/4 4/16/4
f 1/17/1 3/18/1 8/19/1 7/20/1
f 59/9/2 3/12/2 6/6/2 62/5/2
f 9/21/5 10/22/5 12/23/5 11/24/5
f 7/25/6 63/26/6 57/27/6 1/28/6
f 64/10/3 66/29/3 10/30/3 8/11/3
f 110/31/7 77/32/7 67/33/7 11/34/7 21/35/7
f 14/36/1 16/37/1 15/38/1 13/39/1
f 18/40/1 17/41/1 19/42/1 20/43/1
f 6/6/3 3/12/3 13/44/3 15/45/3
f 5/1/4 6/4/4 15/38/4 16/37/4
f 8/11/3 10/30/3 19/46/3 17/47/3
f 1/28/8 5/48/8 16/49/8 14/50/8
f 7/20/4 8/19/4 17/41/4 18/40/4
f 9/51/6 7/25/6 18/52/6 20/53/6
f 10/22/9 9/21/9 20/43/9 19/42/9
f 3/18/9 1/17/9 14/36/9 13/39/9
f 50/54/10 109/55/10 52/56/10
f 12/57/11 50/54/11 24/58/11 22/59/11
f 40/60/12 41/61/12 53/62/12 54/63/12
f 24/64/13 25/65/13 29/66/13 28/67/13
f 25/68/7 23/69/7 27/70/7 29/71/7
f 21/35/6 11/34/6 23/69/6 25/68/6
f 11/24/14 12/23/14 22/72/14 23/73/14
f 50/74/15 21/75/15 25/65/15 24/64/15
f 29/71/6 27/70/6 31/76/6 33/77/6
f 23/73/16 22/72/16 26/78/16 27/79/16
f 22/59/3 24/58/3 28/80/3 26/81/3
f 28/67/17 29/66/17 33/82/17 32/83/17
f 27/79/18 26/78/18 30/84/18 31/85/18
f 26/81/19 28/80/19 32/86/19 30/87/19
f 46/88/2 48/89/2 44/90/2 42/91/2
f 33/77/6 31/76/6 35/92/6 37/93/6
f 32/83/20 33/82/20 37/94/20 36/95/20
f 31/85/21 30/84/21 34/96/21 35/97/21
f 30/87/3 32/86/3 36/98/3 34/99/3
f 41/100/8 39/101/8 55/102/8 53/103/8
f 38/104/2 40/105/2 54/106/2 56/107/2
f 39/108/22 38/109/22 56/110/22 55/111/22
f 42/91/19 44/90/19 40/105/19 38/104/19
f 43/112/23 42/113/23 38/109/23 39/108/23
f 49/114/6 47/115/6 43/116/6 45/117/6
f 45/117/24 43/116/24 39/101/24 41/100/24
f 44/118/25 45/119/25 41/61/25 40/60/25
f 51/120/6 21/35/6 47/115/6 49/114/6
f 21/75/26 50/74/26 46/121/26 47/122/26
f 52/123/27 51/124/27 49/125/27 48/126/27
f 48/126/28 49/125/28 45/119/28 44/118/28
f 66/29/2 68/127/2 12/57/2 10/30/2
f 11/34/7 67/33/7 65/128/7 9/51/7
f 9/51/6 65/128/6 63/26/6 7/25/6
f 1/28/6 57/27/6 61/129/6 5/48/6
f 5/48/6 61/129/6 58/130/6 2/131/6
f 110/132/29 51/124/29 52/123/29 109/133/29
f 50/54/3 52/56/3 48/89/3 46/88/3
f 47/122/30 46/121/30 42/134/30 43/135/30
f 36/95/31 37/94/31 55/111/31 56/110/31
f 34/99/32 36/98/32 56/107/32 54/106/32
f 35/97/1 34/96/1 54/63/1 53/62/1
f 37/93/8 35/92/8 53/103/8 55/102/8
f 110/31/33 21/35/33 51/120/33
f 107/136/34 110/132/34 109/133/34 108/137/34
f 61/138/35 62/139/35 60/15/35 58/14/35
f 57/140/35 63/141/35 64/142/35 59/143/35
f 65/144/31 67/145/31 68/146/31 66/147/31
f 70/148/31 69/149/31 71/150/31 72/151/31
f 74/152/31 76/153/31 75/154/31 73/155/31
f 62/5/3 71/156/3 69/157/3 59/9/3
f 61/138/4 72/151/4 71/150/4 62/139/4
f 64/10/2 73/158/2 75/159/2 66/29/2
f 57/27/7 70/160/7 72/161/7 61/129/7
f 63/141/4 74/152/4 73/155/4 64/142/4
f 65/128/7 76/162/7 74/163/7 63/26/7
f 66/147/9 75/154/9 76/153/9 65/144/9
f 59/143/9 69/149/9 70/148/9 57/140/9
f 106/164/36 108/165/36 109/55/36
f 68/127/37 78/166/37 80/167/37 106/164/37
f 96/168/38 112/169/38 111/170/38 97/171/38
f 80/172/39 84/173/39 85/174/39 81/175/39
f 81/176/7 85/177/7 83/178/7 79/179/7
f 77/32/40 81/176/40 79/179/40 67/33/40
f 67/145/41 79/180/41 78/181/41 68/146/41
f 106/182/42 80/172/42 81/175/42 77/183/42
f 85/177/7 89/184/7 87/185/7 83/178/7
f 79/180/43 83/186/43 82/187/43 78/181/43
f 78/166/19 82/188/19 84/189/19 80/167/19
f 84/173/44 88/190/44 89/191/44 85/174/44
f 83/186/45 87/192/45 86/193/45 82/187/45
f 82/188/2 86/194/2 88/195/2 84/189/2
f 102/196/46 98/197/46 100/198/46 104/199/46
f 89/184/7 93/200/7 91/201/7 87/185/7
f 88/190/47 92/202/47 93/203/47 89/191/47
f 87/192/48 91/204/48 90/205/48 86/193/48
f 86/194/3 90/206/3 92/207/3 88/195/3
f 97/208/7 111/209/7 113/210/7 95/211/7
f 94/212/49 114/213/49 112/214/49 96/215/49
f 95/216/50 113/217/50 114/218/50 94/219/50
f 98/197/2 94/212/2 96/215/2 100/198/2
f 99/220/51 95/221/51 94/222/51 98/223/51
f 105/224/6 101/225/6 99/226/6 103/227/6
f 101/225/6 97/208/6 95/211/6 99/226/6
f 100/228/52 96/168/52 97/171/52 101/229/52
f 107/230/40 105/224/40 103/227/40 77/32/40
f 77/183/53 103/231/53 102/232/53 106/182/53
f 108/137/54 104/233/54 105/234/54 107/136/54
f 104/233/55 100/228/55 101/229/55 105/234/55
f 106/164/3 102/196/3 104/199/3 108/165/3
f 103/231/56 99/220/56 98/223/56 102/232/56
f 92/202/57 114/218/57 113/217/57 93/203/57
f 90/206/11 112/214/11 114/213/11 92/207/11
f 91/204/31 111/170/31 112/169/31 90/205/31
f 93/200/58 113/210/58 111/209/58 91/201/58
f 110/31/59 107/230/59 77/32/59
f 68/127/2 106/164/2 109/55/2 50/54/2 12/57/2
