# Blender v2.82 (sub 7) OBJ File: 'AnimacionSimbolo.blend'
# www.blender.org
mtllib AnimacionSimbolo_000063.mtl
o Brimstone_Cube.008
v -0.373336 9.092836 0.396402
v -0.514985 9.866940 0.564954
v -0.281768 9.204407 -0.039038
v -0.423418 9.978510 0.129514
v -0.432896 9.418221 0.467257
v -0.341328 9.529791 0.031817
v -0.316570 8.782599 0.328844
v -0.225002 8.894169 -0.106596
v -0.259322 8.469690 0.260730
v -0.167754 8.581260 -0.174710
v -0.161363 7.934364 0.144156
v -0.069796 8.045934 -0.291284
v -0.615176 9.161082 -0.120252
v -0.706768 9.049514 0.315170
v -0.674717 9.486467 -0.049422
v -0.766303 9.374893 0.386043
v -0.825825 8.816094 -0.252961
v -0.917393 8.704524 0.182480
v -0.768577 8.503185 -0.321075
v -0.860169 8.391617 0.114347
v -0.115405 7.683143 0.089447
v -0.263648 8.132897 -0.309760
v -0.355240 8.021333 0.125663
v -0.244054 7.979846 -0.344854
v -0.335646 7.868277 0.090568
v -0.511398 8.146953 -0.358280
v -0.603008 8.035379 0.077166
v -0.442065 8.009677 -0.378861
v -0.533632 7.898108 0.056579
v -0.760178 8.060019 -0.432871
v -0.851745 7.948450 0.002569
v -0.631614 7.948284 -0.434453
v -0.723182 7.836715 0.000988
v -0.936966 7.815741 -0.532641
v -1.028558 7.704172 -0.097219
v -0.787225 7.772315 -0.512265
v -0.878817 7.660747 -0.076843
v -0.549349 7.498789 -0.532381
v -0.640935 7.387215 -0.096917
v -0.631983 7.359611 -0.585401
v -0.723575 7.248041 -0.149979
v -0.346639 7.488364 -0.492405
v -0.438249 7.376792 -0.056959
v -0.358774 7.312863 -0.539914
v -0.450366 7.201295 -0.104492
v -0.165254 7.549191 -0.438666
v -0.256822 7.437622 -0.003226
v -0.175270 7.362206 -0.488699
v -0.266856 7.250631 -0.053235
v -0.023819 7.794716 -0.346017
v -0.063830 7.401448 0.028097
v 0.027737 7.513019 -0.407343
v -0.979495 7.436084 -0.155593
v -0.887909 7.547658 -0.591057
v -0.852221 7.515507 -0.108488
v -0.760654 7.627076 -0.543929
v -0.078972 9.131085 0.468134
v -0.220621 9.905190 0.636686
v 0.012614 9.242659 0.032669
v -0.129035 10.016764 0.201221
v -0.138513 9.456474 0.538965
v -0.046946 9.568044 0.103524
v -0.022206 8.820848 0.400575
v 0.069362 8.932418 -0.034865
v 0.035061 8.507943 0.332437
v 0.126628 8.619513 -0.103003
v 0.133020 7.972617 0.215863
v 0.224587 8.084187 -0.219577
v 0.346004 9.285982 0.113908
v 0.254436 9.174413 0.549348
v 0.286462 9.611367 0.184739
v 0.194894 9.499798 0.620179
v 0.670185 9.010492 0.111499
v 0.578617 8.898923 0.546940
v 0.727451 8.697588 0.043361
v 0.635883 8.586018 0.478802
v 0.178978 7.721395 0.161154
v 0.378362 8.216327 -0.153386
v 0.286776 8.104753 0.282078
v 0.414391 8.065408 -0.184446
v 0.322799 7.953839 0.250976
v 0.609587 8.292620 -0.085188
v 0.518020 8.181049 0.350252
v 0.592520 8.144117 -0.126828
v 0.500952 8.032547 0.308613
v 0.877864 8.272871 -0.033832
v 0.786296 8.161302 0.401608
v 0.795206 8.133691 -0.086871
v 0.703638 8.022120 0.348570
v 1.133790 8.084824 -0.028176
v 1.042198 7.973255 0.407246
v 1.006492 8.005403 -0.075299
v 0.914924 7.893832 0.360141
v 0.877477 7.684189 -0.184757
v 0.785885 7.572620 0.250665
v 1.006034 7.572463 -0.186380
v 0.914448 7.460889 0.249084
v 0.687946 7.622801 -0.240372
v 0.596336 7.511228 0.195074
v 0.762212 7.458530 -0.266822
v 0.670644 7.346961 0.168618
v 0.493191 7.634753 -0.278258
v 0.401624 7.523184 0.157182
v 0.569601 7.458993 -0.307215
v 0.478009 7.347425 0.128207
v 0.270564 7.832969 -0.274310
v 0.230552 7.439702 0.099804
v 0.322120 7.551271 -0.335636
v 0.148615 7.675845 -0.340164
v 0.057048 7.564276 0.095276
v 1.091279 7.705168 0.348848
v 1.182847 7.816737 -0.086593
v 0.941520 7.748589 0.328496
v 1.033088 7.860158 -0.106945
vt 0.044840 0.076330
vt 0.011983 0.043464
vt 0.044304 0.011151
vt 0.077158 0.044020
vt 0.299940 0.462167
vt 0.228475 0.462162
vt 0.228485 0.353002
vt 0.299944 0.353004
vt 0.299940 0.541322
vt 0.299940 0.616799
vt 0.228480 0.616794
vt 0.228475 0.541322
vt 0.957372 0.988836
vt 0.935862 0.967328
vt 0.968168 0.935019
vt 0.989679 0.956527
vt 0.117388 0.148892
vt 0.149699 0.116584
vt 0.172422 0.139298
vt 0.140105 0.171612
vt 0.250823 0.282324
vt 0.283131 0.250016
vt 0.322332 0.289214
vt 0.290021 0.321525
vt 0.706100 0.380754
vt 0.777265 0.380752
vt 0.777274 0.455921
vt 0.706090 0.455923
vt 0.299935 0.692918
vt 0.228480 0.692915
vt 0.741678 0.080940
vt 0.777265 0.114371
vt 0.777265 0.175238
vt 0.706090 0.175239
vt 0.706090 0.114372
vt 0.093030 0.124523
vt 0.069200 0.100696
vt 0.101516 0.068387
vt 0.125343 0.092217
vt 0.184007 0.215511
vt 0.216318 0.183203
vt 0.239235 0.206111
vt 0.206920 0.238424
vt 0.147550 0.541319
vt 0.147540 0.462162
vt 0.082627 0.692918
vt 0.082632 0.616792
vt 0.706109 0.534759
vt 0.625493 0.534761
vt 0.625483 0.455925
vt 0.706100 0.304940
vt 0.560833 0.380756
vt 0.560833 0.304943
vt 0.228470 0.884256
vt 0.264203 0.917828
vt 0.228475 0.952792
vt 0.228475 0.823144
vt 0.184285 0.833470
vt 0.186291 0.796494
vt 0.438832 0.405703
vt 0.406518 0.438016
vt 0.384151 0.415641
vt 0.416459 0.383330
vt 0.979788 0.670458
vt 0.895721 0.670451
vt 0.895725 0.633249
vt 0.979784 0.633242
vt 0.662075 0.164959
vt 0.664054 0.201783
vt 0.606156 0.212729
vt 0.616610 0.178107
vt 0.337356 0.304232
vt 0.305048 0.336544
vt 0.979792 0.723178
vt 0.895725 0.723178
vt 0.543664 0.199806
vt 0.569195 0.169408
vt 0.355162 0.322044
vt 0.322856 0.354354
vt 0.138636 0.820268
vt 0.128148 0.785505
vt 0.895719 0.595340
vt 0.979782 0.595332
vt 0.374453 0.341332
vt 0.342144 0.373640
vt 0.091027 0.829001
vt 0.065393 0.798479
vt 0.184280 0.938235
vt 0.173793 0.982354
vt 0.128143 0.988413
vt 0.138640 0.947090
vt 0.491353 0.147433
vt 0.524848 0.132550
vt 0.895721 0.549984
vt 0.979781 0.549992
vt 0.396823 0.363702
vt 0.364516 0.396011
vt 0.046505 0.866007
vt 0.012869 0.851067
vt 0.543664 0.030105
vt 0.569205 0.060500
vt 0.524848 0.097358
vt 0.491353 0.082476
vt 0.091023 0.938352
vt 0.065388 0.968869
vt 0.012878 0.916285
vt 0.046500 0.901345
vt 0.895725 0.476973
vt 0.979792 0.476966
vt 0.979788 0.522314
vt 0.895727 0.522307
vt 0.895723 0.439064
vt 0.979786 0.439057
vt 0.651629 0.016671
vt 0.662084 0.060617
vt 0.616601 0.051800
vt 0.606165 0.010639
vt 0.458618 0.425486
vt 0.426308 0.457795
vt 0.706090 0.046122
vt 0.979788 0.777812
vt 0.895725 0.777797
vt 0.491193 0.458058
vt 0.458885 0.490369
vt 0.440167 0.471662
vt 0.472479 0.439347
vt 0.299935 0.823144
vt 0.777274 0.304938
vt 0.777284 0.534758
vt 0.777274 0.643475
vt 0.706109 0.643475
vt 0.473924 0.505422
vt 0.506237 0.473107
vt 0.979790 0.814232
vt 0.895727 0.814224
vt 0.488978 0.520462
vt 0.521284 0.488154
vt 0.903008 0.934469
vt 0.935311 0.902162
vt 0.830455 0.861927
vt 0.807736 0.839214
vt 0.840045 0.806904
vt 0.862760 0.829622
vt 0.697024 0.728508
vt 0.657828 0.689307
vt 0.690136 0.656998
vt 0.729336 0.696195
vt 0.854815 0.886288
vt 0.887120 0.853981
vt 0.910950 0.877803
vt 0.878640 0.910115
vt 0.763838 0.795316
vt 0.740925 0.772406
vt 0.773237 0.740094
vt 0.796146 0.763008
vt 0.380870 0.462165
vt 0.380875 0.541322
vt 0.445783 0.616801
vt 0.445783 0.692925
vt 0.857872 0.455918
vt 0.857881 0.534754
vt 0.922531 0.304928
vt 0.922531 0.380742
vt 0.299935 0.884263
vt 0.299930 0.952785
vt 0.342124 0.796497
vt 0.344130 0.833470
vt 0.573646 0.540505
vt 0.596015 0.562880
vt 0.563710 0.595188
vt 0.541333 0.572820
vt 0.115513 0.382093
vt 0.115516 0.418780
vt 0.032651 0.418780
vt 0.032651 0.382086
vt 0.821262 0.164956
vt 0.866735 0.178104
vt 0.877181 0.212724
vt 0.819273 0.201778
vt 0.642806 0.674287
vt 0.675116 0.641975
vt 0.115526 0.330116
vt 0.032652 0.330116
vt 0.914151 0.169403
vt 0.939672 0.199797
vt 0.625001 0.656473
vt 0.657304 0.624169
vt 0.400267 0.785505
vt 0.389775 0.820263
vt 0.115516 0.456143
vt 0.032647 0.456150
vt 0.605707 0.637191
vt 0.638015 0.604882
vt 0.463013 0.798481
vt 0.437388 0.829003
vt 0.344125 0.938235
vt 0.389775 0.947090
vt 0.400262 0.988413
vt 0.354622 0.982356
vt 0.958507 0.132544
vt 0.991983 0.147424
vt 0.115514 0.500846
vt 0.032649 0.500846
vt 0.583342 0.614818
vt 0.615647 0.582509
vt 0.515546 0.851065
vt 0.481910 0.866005
vt 0.939672 0.030101
vt 0.991983 0.082471
vt 0.958507 0.097353
vt 0.914132 0.060496
vt 0.437383 0.938352
vt 0.481920 0.901340
vt 0.515541 0.916283
vt 0.463017 0.968871
vt 0.032658 0.572833
vt 0.032656 0.528130
vt 0.115526 0.528123
vt 0.115520 0.572826
vt 0.032658 0.240372
vt 0.032654 0.203010
vt 0.115516 0.202995
vt 0.115524 0.240365
vt 0.831716 0.016673
vt 0.877171 0.010639
vt 0.866735 0.051797
vt 0.821271 0.060615
vt 0.553858 0.520725
vt 0.521553 0.553034
vt 0.777265 0.046121
vt 0.032660 0.276267
vt 0.115522 0.276267
vt 0.539999 0.506861
vt 0.507689 0.539170
vn -0.9639 -0.1252 -0.2348
vn 0.1996 0.2432 -0.9492
vn 0.1997 0.2432 -0.9492
vn -0.1760 0.9619 0.2094
vn -0.9639 -0.1253 -0.2348
vn -0.1997 -0.2432 0.9492
vn -0.1996 -0.2432 0.9492
vn -0.1996 -0.2433 0.9492
vn 0.1760 -0.9619 -0.2094
vn 0.1999 0.2432 -0.9492
vn 0.1995 0.2433 -0.9492
vn -0.5576 -0.7683 -0.3142
vn -0.0987 -0.9588 -0.2664
vn 0.3660 0.8801 0.3025
vn -0.6117 -0.7258 -0.3146
vn 0.0061 0.9684 0.2494
vn 0.3471 -0.9235 -0.1636
vn -0.3675 0.9166 0.1575
vn 0.1996 0.2431 -0.9492
vn 0.7514 -0.6597 -0.0110
vn -0.8064 0.5911 -0.0182
vn 0.4807 0.8198 0.3112
vn 0.1997 0.2431 -0.9492
vn 0.0008 0.9687 0.2484
vn -0.1186 -0.9556 -0.2698
vn -0.8574 0.5124 -0.0490
vn 0.6133 -0.7865 -0.0725
vn 0.3013 -0.9370 -0.1767
vn 0.8000 -0.5999 0.0145
vn -0.3563 0.9204 0.1609
vn 0.9639 0.1253 0.2348
vn 0.1997 0.2434 -0.9491
vn -0.1998 -0.2433 0.9492
vn -0.5483 -0.7751 -0.3139
vn 0.9639 0.1252 0.2348
vn 0.1994 0.2431 -0.9493
vn 0.8064 -0.5911 0.0181
vn 0.4369 -0.8892 -0.1360
vn -0.1997 -0.2433 0.9492
vn -0.6636 0.7463 0.0517
vn 0.8428 -0.5368 0.0397
vn -0.3520 0.9219 0.1622
vn -0.0009 -0.9687 -0.2484
vn 0.0228 0.9673 0.2526
vn -0.4807 -0.8198 -0.3111
vn 0.5576 0.7683 0.3142
vn -0.7514 0.6597 0.0110
vn -0.3471 0.9235 0.1636
vn 0.4547 -0.8811 -0.1301
vn 0.6344 0.7062 0.3144
vn -0.3037 -0.9056 -0.2959
vn 0.0477 -0.9700 -0.2385
vn 0.0107 0.9681 0.2503
vn -0.1995 -0.2433 0.9492
vn -0.1994 -0.2432 0.9492
usemtl Material.054
s off
f 5/1/1 2/2/1 4/3/1 6/4/1
f 62/5/2 6/6/2 4/7/2 60/8/2
f 59/9/3 64/10/3 8/11/3 3/12/3
f 2/13/4 58/14/4 60/15/4 4/16/4
f 1/17/1 3/18/1 8/19/1 7/20/1
f 59/9/2 3/12/2 6/6/2 62/5/2
f 9/21/5 10/22/5 12/23/5 11/24/5
f 7/25/6 63/26/6 57/27/6 1/28/6
f 64/10/3 66/29/3 10/30/3 8/11/3
f 110/31/7 77/32/7 67/33/7 11/34/7 21/35/7
f 14/36/1 16/37/1 15/38/1 13/39/1
f 18/40/1 17/41/1 19/42/1 20/43/1
f 6/6/3 3/12/3 13/44/3 15/45/3
f 5/1/4 6/4/4 15/38/4 16/37/4
f 8/11/2 10/30/2 19/46/2 17/47/2
f 1/28/8 5/48/8 16/49/8 14/50/8
f 7/20/4 8/19/4 17/41/4 18/40/4
f 9/51/7 7/25/7 18/52/7 20/53/7
f 10/22/9 9/21/9 20/43/9 19/42/9
f 3/18/9 1/17/9 14/36/9 13/39/9
f 50/54/10 109/55/10 52/56/10
f 12/57/11 50/54/11 24/58/11 22/59/11
f 40/60/12 41/61/12 53/62/12 54/63/12
f 24/64/13 25/65/13 29/66/13 28/67/13
f 25/68/7 23/69/7 27/70/7 29/71/7
f 21/35/7 11/34/7 23/69/7 25/68/7
f 11/24/14 12/23/14 22/72/14 23/73/14
f 50/74/15 21/75/15 25/65/15 24/64/15
f 29/71/7 27/70/7 31/76/7 33/77/7
f 23/73/16 22/72/16 26/78/16 27/79/16
f 22/59/3 24/58/3 28/80/3 26/81/3
f 28/67/17 29/66/17 33/82/17 32/83/17
f 27/79/18 26/78/18 30/84/18 31/85/18
f 26/81/19 28/80/19 32/86/19 30/87/19
f 46/88/2 48/89/2 44/90/2 42/91/2
f 33/77/6 31/76/6 35/92/6 37/93/6
f 32/83/20 33/82/20 37/94/20 36/95/20
f 31/85/21 30/84/21 34/96/21 35/97/21
f 30/87/3 32/86/3 36/98/3 34/99/3
f 41/100/8 39/101/8 55/102/8 53/103/8
f 38/104/2 40/105/2 54/106/2 56/107/2
f 39/108/22 38/109/22 56/110/22 55/111/22
f 42/91/23 44/90/23 40/105/23 38/104/23
f 43/112/24 42/113/24 38/109/24 39/108/24
f 49/114/6 47/115/6 43/116/6 45/117/6
f 45/117/8 43/116/8 39/101/8 41/100/8
f 44/118/25 45/119/25 41/61/25 40/60/25
f 51/120/7 21/35/7 47/115/7 49/114/7
f 21/75/26 50/74/26 46/121/26 47/122/26
f 52/123/27 51/124/27 49/125/27 48/126/27
f 48/126/28 49/125/28 45/119/28 44/118/28
f 66/29/2 68/127/2 12/57/2 10/30/2
f 11/34/7 67/33/7 65/128/7 9/51/7
f 9/51/6 65/128/6 63/26/6 7/25/6
f 1/28/6 57/27/6 61/129/6 5/48/6
f 5/48/6 61/129/6 58/130/6 2/131/6
f 110/132/29 51/124/29 52/123/29 109/133/29
f 50/54/2 52/56/2 48/89/2 46/88/2
f 47/122/30 46/121/30 42/134/30 43/135/30
f 36/95/31 37/94/31 55/111/31 56/110/31
f 34/99/32 36/98/32 56/107/32 54/106/32
f 35/97/1 34/96/1 54/63/1 53/62/1
f 37/93/8 35/92/8 53/103/8 55/102/8
f 110/31/33 21/35/33 51/120/33
f 107/136/34 110/132/34 109/133/34 108/137/34
f 61/138/35 62/139/35 60/15/35 58/14/35
f 57/140/35 63/141/35 64/142/35 59/143/35
f 65/144/31 67/145/31 68/146/31 66/147/31
f 70/148/31 69/149/31 71/150/31 72/151/31
f 74/152/31 76/153/31 75/154/31 73/155/31
f 62/5/3 71/156/3 69/157/3 59/9/3
f 61/138/4 72/151/4 71/150/4 62/139/4
f 64/10/2 73/158/2 75/159/2 66/29/2
f 57/27/7 70/160/7 72/161/7 61/129/7
f 63/141/4 74/152/4 73/155/4 64/142/4
f 65/128/7 76/162/7 74/163/7 63/26/7
f 66/147/9 75/154/9 76/153/9 65/144/9
f 59/143/9 69/149/9 70/148/9 57/140/9
f 106/164/36 108/165/36 109/55/36
f 68/127/3 78/166/3 80/167/3 106/164/3
f 96/168/37 112/169/37 111/170/37 97/171/37
f 80/172/38 84/173/38 85/174/38 81/175/38
f 81/176/7 85/177/7 83/178/7 79/179/7
f 77/32/39 81/176/39 79/179/39 67/33/39
f 67/145/40 79/180/40 78/181/40 68/146/40
f 106/182/41 80/172/41 81/175/41 77/183/41
f 85/177/7 89/184/7 87/185/7 83/178/7
f 79/180/42 83/186/42 82/187/42 78/181/42
f 78/166/23 82/188/23 84/189/23 80/167/23
f 84/173/43 88/190/43 89/191/43 85/174/43
f 83/186/44 87/192/44 86/193/44 82/187/44
f 82/188/2 86/194/2 88/195/2 84/189/2
f 102/196/19 98/197/19 100/198/19 104/199/19
f 89/184/7 93/200/7 91/201/7 87/185/7
f 88/190/45 92/202/45 93/203/45 89/191/45
f 87/192/46 91/204/46 90/205/46 86/193/46
f 86/194/2 90/206/2 92/207/2 88/195/2
f 97/208/7 111/209/7 113/210/7 95/211/7
f 94/212/11 114/213/11 112/214/11 96/215/11
f 95/216/47 113/217/47 114/218/47 94/219/47
f 98/197/2 94/212/2 96/215/2 100/198/2
f 99/220/48 95/221/48 94/222/48 98/223/48
f 105/224/6 101/225/6 99/226/6 103/227/6
f 101/225/7 97/208/7 95/211/7 99/226/7
f 100/228/49 96/168/49 97/171/49 101/229/49
f 107/230/8 105/224/8 103/227/8 77/32/8
f 77/183/50 103/231/50 102/232/50 106/182/50
f 108/137/51 104/233/51 105/234/51 107/136/51
f 104/233/52 100/228/52 101/229/52 105/234/52
f 106/164/3 102/196/3 104/199/3 108/165/3
f 103/231/53 99/220/53 98/223/53 102/232/53
f 92/202/5 114/218/5 113/217/5 93/203/5
f 90/206/11 112/214/11 114/213/11 92/207/11
f 91/204/31 111/170/31 112/169/31 90/205/31
f 93/200/54 113/210/54 111/209/54 91/201/54
f 110/31/55 107/230/55 77/32/55
f 68/127/2 106/164/2 109/55/2 50/54/2 12/57/2
