# Blender v2.82 (sub 7) OBJ File: 'AnimacionSimbolo.blend'
# www.blender.org
mtllib AnimacionSimbolo_000009.mtl
o Brimstone_Cube.008
v 0.008734 7.435321 -0.544456
v -0.000177 8.209425 -0.764445
v 0.234487 7.546891 -0.161013
v 0.225576 8.320994 -0.381001
v 0.004999 7.760705 -0.636943
v 0.230752 7.872275 -0.253500
v 0.012314 7.125084 -0.456288
v 0.238066 7.236653 -0.072844
v 0.015911 6.812175 -0.367383
v 0.241663 6.923745 0.016060
v 0.022080 6.276849 -0.215241
v 0.247833 6.388419 0.168202
v 0.535563 7.503567 -0.325664
v 0.309841 7.391998 -0.709109
v 0.531830 7.828952 -0.418120
v 0.306075 7.717378 -0.801593
v 0.780632 7.158579 -0.369547
v 0.554880 7.047009 -0.752991
v 0.784229 6.845670 -0.280643
v 0.558507 6.734101 -0.664089
v 0.024987 6.025627 -0.143849
v 0.403518 6.475382 0.051231
v 0.177795 6.363818 -0.332216
v 0.412688 6.322330 0.090364
v 0.186965 6.210762 -0.293082
v 0.619272 6.489437 -0.079859
v 0.393547 6.377864 -0.463335
v 0.581911 6.352162 -0.017933
v 0.356158 6.240592 -0.401376
v 0.853354 6.402504 -0.192378
v 0.627602 6.290935 -0.575821
v 0.759426 6.290769 -0.104581
v 0.533673 6.179199 -0.488024
v 1.051208 6.158225 -0.237784
v 0.825486 6.046657 -0.621230
v 0.926837 6.114800 -0.151941
v 0.701115 6.003232 -0.535387
v 0.764628 5.841273 0.023210
v 0.538872 5.729699 -0.360263
v 0.861411 5.702095 0.006705
v 0.635688 5.590526 -0.376741
v 0.587910 5.830849 0.130264
v 0.362185 5.719276 -0.253212
v 0.628889 5.655348 0.157191
v 0.403167 5.543780 -0.226255
v 0.417676 5.891676 0.212778
v 0.191924 5.780107 -0.170665
v 0.458790 5.704690 0.242999
v 0.233035 5.593116 -0.140474
v 0.250742 6.137201 0.239624
v 0.028218 5.743933 -0.063766
v 0.253971 5.855503 0.319677
v 0.828568 5.778568 -0.545038
v 1.054323 5.890142 -0.161565
v 0.702787 5.857991 -0.494083
v 0.928539 5.969561 -0.110640
v -0.257103 7.473570 -0.399107
v -0.266014 8.247674 -0.619096
v -0.031347 7.585144 -0.015634
v -0.040259 8.359248 -0.235622
v -0.260836 7.798959 -0.491564
v -0.035083 7.910529 -0.108121
v -0.253524 7.163333 -0.310939
v -0.027771 7.274903 0.072504
v -0.249924 6.850428 -0.222004
v -0.024171 6.961998 0.161439
v -0.243754 6.315102 -0.069862
v -0.018002 6.426672 0.313581
v -0.332426 7.628467 0.148986
v -0.558179 7.516897 -0.234457
v -0.336159 7.953852 0.056530
v -0.561912 7.842282 -0.326914
v -0.570337 7.352977 0.369207
v -0.796090 7.241407 -0.014236
v -0.566737 7.040072 0.458142
v -0.792490 6.928503 0.074699
v -0.240848 6.063880 0.001530
v -0.176225 6.558812 0.368291
v -0.401981 6.447238 -0.015182
v -0.181918 6.407893 0.415518
v -0.407641 6.296324 0.032072
v -0.393029 6.635104 0.473706
v -0.618782 6.523534 0.090262
v -0.352360 6.486602 0.492972
v -0.578113 6.375032 0.109529
v -0.625861 6.615356 0.616532
v -0.851614 6.503786 0.233088
v -0.529047 6.476176 0.600024
v -0.754800 6.364605 0.216581
v -0.818773 6.427309 0.784802
v -1.044496 6.315740 0.401356
v -0.692962 6.347887 0.733844
v -0.918714 6.236317 0.350400
v -0.523878 6.026674 0.727787
v -0.749601 5.915105 0.344341
v -0.617774 5.914948 0.815612
v -0.843529 5.803374 0.432139
v -0.346361 5.965285 0.641169
v -0.572086 5.853713 0.257694
v -0.383412 5.801015 0.710756
v -0.609165 5.689445 0.327312
v -0.176930 5.977238 0.537932
v -0.402682 5.865668 0.154489
v -0.213876 5.801477 0.610815
v -0.439599 5.689909 0.227369
v -0.015093 6.175454 0.385003
v -0.237617 5.782187 0.081613
v -0.011864 5.893756 0.465056
v 0.119388 6.018330 0.351490
v -0.106365 5.906760 -0.031953
v -1.041411 6.047652 0.477578
v -0.815658 6.159222 0.861021
v -0.917042 6.091073 0.391704
v -0.691289 6.202643 0.775148
vt 0.044840 0.076330
vt 0.011983 0.043464
vt 0.044304 0.011151
vt 0.077158 0.044020
vt 0.299940 0.462167
vt 0.228475 0.462162
vt 0.228485 0.353002
vt 0.299944 0.353004
vt 0.299940 0.541322
vt 0.299940 0.616799
vt 0.228480 0.616794
vt 0.228475 0.541322
vt 0.957372 0.988836
vt 0.935862 0.967328
vt 0.968168 0.935019
vt 0.989679 0.956527
vt 0.117388 0.148892
vt 0.149699 0.116584
vt 0.172422 0.139298
vt 0.140105 0.171612
vt 0.250823 0.282324
vt 0.283131 0.250016
vt 0.322332 0.289214
vt 0.290021 0.321525
vt 0.706100 0.380754
vt 0.777265 0.380752
vt 0.777274 0.455921
vt 0.706090 0.455923
vt 0.299935 0.692918
vt 0.228480 0.692915
vt 0.741678 0.080940
vt 0.777265 0.114371
vt 0.777265 0.175238
vt 0.706090 0.175239
vt 0.706090 0.114372
vt 0.093030 0.124523
vt 0.069200 0.100696
vt 0.101516 0.068387
vt 0.125343 0.092217
vt 0.184007 0.215511
vt 0.216318 0.183203
vt 0.239235 0.206111
vt 0.206920 0.238424
vt 0.147550 0.541319
vt 0.147540 0.462162
vt 0.082627 0.692918
vt 0.082632 0.616792
vt 0.706109 0.534759
vt 0.625493 0.534761
vt 0.625483 0.455925
vt 0.706100 0.304940
vt 0.560833 0.380756
vt 0.560833 0.304943
vt 0.228470 0.884256
vt 0.264203 0.917828
vt 0.228475 0.952792
vt 0.228475 0.823144
vt 0.184285 0.833470
vt 0.186291 0.796494
vt 0.438832 0.405703
vt 0.406518 0.438016
vt 0.384151 0.415641
vt 0.416459 0.383330
vt 0.979788 0.670458
vt 0.895721 0.670451
vt 0.895725 0.633249
vt 0.979784 0.633242
vt 0.662075 0.164959
vt 0.664054 0.201783
vt 0.606156 0.212729
vt 0.616610 0.178107
vt 0.337356 0.304232
vt 0.305048 0.336544
vt 0.979792 0.723178
vt 0.895725 0.723178
vt 0.543664 0.199806
vt 0.569195 0.169408
vt 0.355162 0.322044
vt 0.322856 0.354354
vt 0.138636 0.820268
vt 0.128148 0.785505
vt 0.895719 0.595340
vt 0.979782 0.595332
vt 0.374453 0.341332
vt 0.342144 0.373640
vt 0.091027 0.829001
vt 0.065393 0.798479
vt 0.184280 0.938235
vt 0.173793 0.982354
vt 0.128143 0.988413
vt 0.138640 0.947090
vt 0.491353 0.147433
vt 0.524848 0.132550
vt 0.895721 0.549984
vt 0.979781 0.549992
vt 0.396823 0.363702
vt 0.364516 0.396011
vt 0.046505 0.866007
vt 0.012869 0.851067
vt 0.543664 0.030105
vt 0.569205 0.060500
vt 0.524848 0.097358
vt 0.491353 0.082476
vt 0.091023 0.938352
vt 0.065388 0.968869
vt 0.012878 0.916285
vt 0.046500 0.901345
vt 0.895725 0.476973
vt 0.979792 0.476966
vt 0.979788 0.522314
vt 0.895727 0.522307
vt 0.895723 0.439064
vt 0.979786 0.439057
vt 0.651629 0.016671
vt 0.662084 0.060617
vt 0.616601 0.051800
vt 0.606165 0.010639
vt 0.458618 0.425486
vt 0.426308 0.457795
vt 0.706090 0.046122
vt 0.979788 0.777812
vt 0.895725 0.777797
vt 0.491193 0.458058
vt 0.458885 0.490369
vt 0.440167 0.471662
vt 0.472479 0.439347
vt 0.299935 0.823144
vt 0.777274 0.304938
vt 0.777284 0.534758
vt 0.777274 0.643475
vt 0.706109 0.643475
vt 0.473924 0.505422
vt 0.506237 0.473107
vt 0.979790 0.814232
vt 0.895727 0.814224
vt 0.488978 0.520462
vt 0.521284 0.488154
vt 0.903008 0.934469
vt 0.935311 0.902162
vt 0.830455 0.861927
vt 0.807736 0.839214
vt 0.840045 0.806904
vt 0.862760 0.829622
vt 0.697024 0.728508
vt 0.657828 0.689307
vt 0.690136 0.656998
vt 0.729336 0.696195
vt 0.854815 0.886288
vt 0.887120 0.853981
vt 0.910950 0.877803
vt 0.878640 0.910115
vt 0.763838 0.795316
vt 0.740925 0.772406
vt 0.773237 0.740094
vt 0.796146 0.763008
vt 0.380870 0.462165
vt 0.380875 0.541322
vt 0.445783 0.616801
vt 0.445783 0.692925
vt 0.857872 0.455918
vt 0.857881 0.534754
vt 0.922531 0.304928
vt 0.922531 0.380742
vt 0.299935 0.884263
vt 0.299930 0.952785
vt 0.342124 0.796497
vt 0.344130 0.833470
vt 0.573646 0.540505
vt 0.596015 0.562880
vt 0.563710 0.595188
vt 0.541333 0.572820
vt 0.115513 0.382093
vt 0.115516 0.418780
vt 0.032651 0.418780
vt 0.032651 0.382086
vt 0.821262 0.164956
vt 0.866735 0.178104
vt 0.877181 0.212724
vt 0.819273 0.201778
vt 0.642806 0.674287
vt 0.675116 0.641975
vt 0.115526 0.330116
vt 0.032652 0.330116
vt 0.914151 0.169403
vt 0.939672 0.199797
vt 0.625001 0.656473
vt 0.657304 0.624169
vt 0.400267 0.785505
vt 0.389775 0.820263
vt 0.115516 0.456143
vt 0.032647 0.456150
vt 0.605707 0.637191
vt 0.638015 0.604882
vt 0.463013 0.798481
vt 0.437388 0.829003
vt 0.344125 0.938235
vt 0.389775 0.947090
vt 0.400262 0.988413
vt 0.354622 0.982356
vt 0.958507 0.132544
vt 0.991983 0.147424
vt 0.115514 0.500846
vt 0.032649 0.500846
vt 0.583342 0.614818
vt 0.615647 0.582509
vt 0.515546 0.851065
vt 0.481910 0.866005
vt 0.939672 0.030101
vt 0.991983 0.082471
vt 0.958507 0.097353
vt 0.914132 0.060496
vt 0.437383 0.938352
vt 0.481920 0.901340
vt 0.515541 0.916283
vt 0.463017 0.968871
vt 0.032658 0.572833
vt 0.032656 0.528130
vt 0.115526 0.528123
vt 0.115520 0.572826
vt 0.032658 0.240372
vt 0.032654 0.203010
vt 0.115516 0.202995
vt 0.115524 0.240365
vt 0.831716 0.016673
vt 0.877171 0.010639
vt 0.866735 0.051797
vt 0.821271 0.060615
vt 0.553858 0.520725
vt 0.521553 0.553034
vt 0.777265 0.046121
vt 0.032660 0.276267
vt 0.115522 0.276267
vt 0.539999 0.506861
vt 0.507689 0.539170
vn 0.8705 -0.1252 -0.4760
vn 0.4921 0.2432 0.8359
vn -0.0111 0.9619 -0.2733
vn 0.8705 -0.1253 -0.4760
vn -0.4920 -0.2432 -0.8359
vn -0.4921 -0.2432 -0.8359
vn -0.0111 0.9619 -0.2734
vn -0.4921 -0.2433 -0.8359
vn 0.0111 -0.9619 0.2733
vn 0.4919 0.2432 0.8360
vn 0.4922 0.2433 0.8358
vn 0.6237 -0.7683 -0.1436
vn 0.2525 -0.9588 0.1304
vn -0.4742 0.8801 0.0231
vn 0.6640 -0.7258 -0.1797
vn -0.1726 0.9684 -0.1802
vn -0.1462 -0.9235 0.3548
vn 0.1654 0.9166 -0.3641
vn 0.4921 0.2431 0.8359
vn -0.5478 -0.6597 0.5145
vn 0.6081 0.5911 -0.5300
vn -0.5649 0.8198 0.0940
vn -0.1680 0.9687 -0.1830
vn 0.2694 -0.9556 0.1194
vn 0.6665 0.5124 -0.5415
vn -0.4043 -0.7865 0.4669
vn -0.1035 -0.9370 0.3336
vn -0.6009 -0.5999 0.5283
vn 0.1548 0.9204 -0.3590
vn -0.8705 0.1253 0.4760
vn 0.4920 0.2434 0.8359
vn -0.4920 -0.2433 -0.8359
vn 0.6167 -0.7751 -0.1375
vn -0.8705 0.1252 0.4760
vn 0.0111 -0.9619 0.2734
vn 0.4924 0.2431 0.8357
vn 0.4920 0.2432 0.8359
vn -0.6080 -0.5911 0.5300
vn -0.2312 -0.8892 0.3948
vn 0.4555 0.7463 -0.4853
vn -0.6495 -0.5368 0.5385
vn 0.1508 0.9219 -0.3570
vn 0.1680 -0.9687 0.1829
vn -0.1871 0.9673 -0.1713
vn 0.5649 -0.8198 -0.0940
vn -0.6237 0.7683 0.1436
vn 0.5478 0.6597 -0.5145
vn 0.1462 0.9235 -0.3548
vn -0.2483 -0.8811 0.4025
vn -0.6805 0.7062 0.1952
vn 0.4238 -0.9056 0.0140
vn 0.1255 -0.9700 0.2084
vn -0.1766 0.9681 -0.1777
vn 0.4921 0.2433 0.8358
vn -0.4922 -0.2433 -0.8358
vn -0.4923 -0.2432 -0.8358
usemtl Material.054
s off
f 5/1/1 2/2/1 4/3/1 6/4/1
f 62/5/2 6/6/2 4/7/2 60/8/2
f 59/9/2 64/10/2 8/11/2 3/12/2
f 2/13/3 58/14/3 60/15/3 4/16/3
f 1/17/1 3/18/1 8/19/1 7/20/1
f 59/9/2 3/12/2 6/6/2 62/5/2
f 9/21/4 10/22/4 12/23/4 11/24/4
f 7/25/5 63/26/5 57/27/5 1/28/5
f 64/10/2 66/29/2 10/30/2 8/11/2
f 110/31/6 77/32/6 67/33/6 11/34/6 21/35/6
f 14/36/1 16/37/1 15/38/1 13/39/1
f 18/40/1 17/41/1 19/42/1 20/43/1
f 6/6/2 3/12/2 13/44/2 15/45/2
f 5/1/7 6/4/7 15/38/7 16/37/7
f 8/11/2 10/30/2 19/46/2 17/47/2
f 1/28/8 5/48/8 16/49/8 14/50/8
f 7/20/3 8/19/3 17/41/3 18/40/3
f 9/51/6 7/25/6 18/52/6 20/53/6
f 10/22/9 9/21/9 20/43/9 19/42/9
f 3/18/9 1/17/9 14/36/9 13/39/9
f 50/54/10 109/55/10 52/56/10
f 12/57/11 50/54/11 24/58/11 22/59/11
f 40/60/12 41/61/12 53/62/12 54/63/12
f 24/64/13 25/65/13 29/66/13 28/67/13
f 25/68/6 23/69/6 27/70/6 29/71/6
f 21/35/6 11/34/6 23/69/6 25/68/6
f 11/24/14 12/23/14 22/72/14 23/73/14
f 50/74/15 21/75/15 25/65/15 24/64/15
f 29/71/6 27/70/6 31/76/6 33/77/6
f 23/73/16 22/72/16 26/78/16 27/79/16
f 22/59/2 24/58/2 28/80/2 26/81/2
f 28/67/17 29/66/17 33/82/17 32/83/17
f 27/79/18 26/78/18 30/84/18 31/85/18
f 26/81/19 28/80/19 32/86/19 30/87/19
f 46/88/2 48/89/2 44/90/2 42/91/2
f 33/77/5 31/76/5 35/92/5 37/93/5
f 32/83/20 33/82/20 37/94/20 36/95/20
f 31/85/21 30/84/21 34/96/21 35/97/21
f 30/87/2 32/86/2 36/98/2 34/99/2
f 41/100/8 39/101/8 55/102/8 53/103/8
f 38/104/2 40/105/2 54/106/2 56/107/2
f 39/108/22 38/109/22 56/110/22 55/111/22
f 42/91/19 44/90/19 40/105/19 38/104/19
f 43/112/23 42/113/23 38/109/23 39/108/23
f 49/114/6 47/115/6 43/116/6 45/117/6
f 45/117/8 43/116/8 39/101/8 41/100/8
f 44/118/24 45/119/24 41/61/24 40/60/24
f 51/120/6 21/35/6 47/115/6 49/114/6
f 21/75/25 50/74/25 46/121/25 47/122/25
f 52/123/26 51/124/26 49/125/26 48/126/26
f 48/126/27 49/125/27 45/119/27 44/118/27
f 66/29/2 68/127/2 12/57/2 10/30/2
f 11/34/6 67/33/6 65/128/6 9/51/6
f 9/51/6 65/128/6 63/26/6 7/25/6
f 1/28/6 57/27/6 61/129/6 5/48/6
f 5/48/6 61/129/6 58/130/6 2/131/6
f 110/132/28 51/124/28 52/123/28 109/133/28
f 50/54/2 52/56/2 48/89/2 46/88/2
f 47/122/29 46/121/29 42/134/29 43/135/29
f 36/95/30 37/94/30 55/111/30 56/110/30
f 34/99/31 36/98/31 56/107/31 54/106/31
f 35/97/1 34/96/1 54/63/1 53/62/1
f 37/93/8 35/92/8 53/103/8 55/102/8
f 110/31/32 21/35/32 51/120/32
f 107/136/33 110/132/33 109/133/33 108/137/33
f 61/138/34 62/139/34 60/15/34 58/14/34
f 57/140/34 63/141/34 64/142/34 59/143/34
f 65/144/30 67/145/30 68/146/30 66/147/30
f 70/148/30 69/149/30 71/150/30 72/151/30
f 74/152/30 76/153/30 75/154/30 73/155/30
f 62/5/2 71/156/2 69/157/2 59/9/2
f 61/138/3 72/151/3 71/150/3 62/139/3
f 64/10/2 73/158/2 75/159/2 66/29/2
f 57/27/6 70/160/6 72/161/6 61/129/6
f 63/141/3 74/152/3 73/155/3 64/142/3
f 65/128/6 76/162/6 74/163/6 63/26/6
f 66/147/9 75/154/9 76/153/9 65/144/9
f 59/143/35 69/149/35 70/148/35 57/140/35
f 106/164/36 108/165/36 109/55/36
f 68/127/37 78/166/37 80/167/37 106/164/37
f 96/168/38 112/169/38 111/170/38 97/171/38
f 80/172/39 84/173/39 85/174/39 81/175/39
f 81/176/6 85/177/6 83/178/6 79/179/6
f 77/32/32 81/176/32 79/179/32 67/33/32
f 67/145/40 79/180/40 78/181/40 68/146/40
f 106/182/41 80/172/41 81/175/41 77/183/41
f 85/177/6 89/184/6 87/185/6 83/178/6
f 79/180/42 83/186/42 82/187/42 78/181/42
f 78/166/19 82/188/19 84/189/19 80/167/19
f 84/173/43 88/190/43 89/191/43 85/174/43
f 83/186/44 87/192/44 86/193/44 82/187/44
f 82/188/2 86/194/2 88/195/2 84/189/2
f 102/196/19 98/197/19 100/198/19 104/199/19
f 89/184/6 93/200/6 91/201/6 87/185/6
f 88/190/45 92/202/45 93/203/45 89/191/45
f 87/192/46 91/204/46 90/205/46 86/193/46
f 86/194/2 90/206/2 92/207/2 88/195/2
f 97/208/6 111/209/6 113/210/6 95/211/6
f 94/212/11 114/213/11 112/214/11 96/215/11
f 95/216/47 113/217/47 114/218/47 94/219/47
f 98/197/2 94/212/2 96/215/2 100/198/2
f 99/220/48 95/221/48 94/222/48 98/223/48
f 105/224/5 101/225/5 99/226/5 103/227/5
f 101/225/6 97/208/6 95/211/6 99/226/6
f 100/228/49 96/168/49 97/171/49 101/229/49
f 107/230/8 105/224/8 103/227/8 77/32/8
f 77/183/50 103/231/50 102/232/50 106/182/50
f 108/137/51 104/233/51 105/234/51 107/136/51
f 104/233/52 100/228/52 101/229/52 105/234/52
f 106/164/37 102/196/37 104/199/37 108/165/37
f 103/231/53 99/220/53 98/223/53 102/232/53
f 92/202/4 114/218/4 113/217/4 93/203/4
f 90/206/54 112/214/54 114/213/54 92/207/54
f 91/204/30 111/170/30 112/169/30 90/205/30
f 93/200/55 113/210/55 111/209/55 91/201/55
f 110/31/56 107/230/56 77/32/56
f 68/127/2 106/164/2 109/55/2 50/54/2 12/57/2
