# Blender v2.82 (sub 7) OBJ File: 'BalaIzquierda.blend'
# www.blender.org
mtllib BalaIzquierda_000012.mtl
o Bala_Cylinder.003
v 0.415064 3.936796 2.531898
v 0.510142 3.956815 3.202440
v 0.429641 4.043159 2.531491
v 0.516517 4.003331 3.202262
v 0.515130 4.108057 2.529107
v 0.553904 4.031713 3.201219
v 0.621452 4.093474 2.526141
v 0.600402 4.025336 3.199922
v 0.686325 4.007953 2.524332
v 0.628774 3.987934 3.199131
v 0.671748 3.901589 2.524738
v 0.622399 3.941417 3.199308
v 0.586259 3.836691 2.527123
v 0.585011 3.913035 3.200351
v 0.479937 3.851274 2.530088
v 0.538513 3.919413 3.201648
v 0.426028 3.936796 2.924990
v 0.440606 4.043159 2.924583
v 0.526094 4.108057 2.922199
v 0.632416 4.093474 2.919233
v 0.697290 4.007953 2.917424
v 0.682712 3.901589 2.917830
v 0.597223 3.836691 2.920215
v 0.490902 3.851274 2.923181
v 0.553635 3.968224 3.201226
v 0.555335 3.980632 3.201179
v 0.565309 3.988203 3.200901
v 0.577712 3.986502 3.200555
v 0.585281 3.976525 3.200344
v 0.583580 3.964116 3.200391
v 0.573607 3.956545 3.200670
v 0.561203 3.958246 3.201015
v 0.496423 3.958138 2.529629
v 0.502256 4.000699 2.529466
v 0.536464 4.026667 2.528512
v 0.579008 4.020832 2.527325
v 0.604967 3.986611 2.526601
v 0.599133 3.944050 2.526764
v 0.564926 3.918081 2.527718
v 0.522382 3.923917 2.528904
vt 0.571177 0.819618
vt 0.793679 0.842301
vt 0.792020 0.881992
vt 0.561213 0.895770
vt 0.797677 0.921414
vt 0.558627 0.981594
vt 0.784882 0.431415
vt 0.915080 0.649522
vt 0.882098 0.673287
vt 0.725706 0.494938
vt 0.854120 0.701371
vt 0.679164 0.556598
vt 0.830961 0.732764
vt 0.641960 0.618211
vt 0.812842 0.767023
vt 0.611028 0.684809
vt 0.982776 0.396146
vt 0.982776 0.463263
vt 0.923370 0.438657
vt 0.923370 0.420752
vt 0.801537 0.803928
vt 0.587762 0.749802
vt 0.227995 0.416724
vt 0.323726 0.422389
vt 0.291268 0.488982
vt 0.253411 0.486967
vt 0.320555 0.647466
vt 0.289883 0.730852
vt 0.370361 0.577645
vt 0.385540 0.494831
vt 0.426017 0.417005
vt 0.470066 0.340997
vt 0.514875 0.267284
vt 0.263759 0.816919
vt 0.241100 0.904987
vt 0.880146 0.438657
vt 0.880146 0.420752
vt 0.892805 0.408092
vt 0.910710 0.408092
vt 0.910710 0.451317
vt 0.892805 0.451317
vt 0.820740 0.396146
vt 0.868199 0.348686
vt 0.820740 0.463263
vt 0.935317 0.510722
vt 0.868199 0.510722
vt 0.935317 0.348686
vt 0.250323 0.578435
vt 0.223959 0.551121
vt 0.225364 0.512930
vt 0.316167 0.516903
vt 0.313787 0.552663
vt 0.287795 0.578888
vt 0.153818 0.578578
vt 0.156940 0.481709
vt 0.221449 0.648464
vn -0.9513 0.1314 0.2789
vn -0.5777 0.7708 0.2685
vn 0.1384 0.9587 0.2485
vn 0.7776 0.5850 0.2307
vn 0.9653 -0.1314 0.2254
vn 0.5918 -0.7708 0.2359
vn 0.0279 -0.0000 0.9996
vn -0.1244 -0.9587 0.2558
vn -0.7635 -0.5849 0.2737
vn -0.0279 0.0000 -0.9996
vn -0.7963 -0.6045 0.0222
vn -0.1358 -0.9907 0.0038
vn 0.6043 -0.7966 -0.0169
vn 0.9903 -0.1358 -0.0276
vn 0.7963 0.6045 -0.0222
vn 0.1358 0.9907 -0.0038
vn -0.6043 0.7966 0.0169
vn -0.9903 0.1358 0.0276
usemtl Material.002
s off
f 17/1/1 2/2/1 4/3/1 18/4/1
f 18/4/2 4/3/2 6/5/2 19/6/2
f 19/7/3 6/8/3 8/9/3 20/10/3
f 20/10/4 8/9/4 10/11/4 21/12/4
f 21/12/5 10/11/5 12/13/5 22/14/5
f 22/14/6 12/13/6 14/15/6 23/16/6
f 12/17/7 10/18/7 29/19/7 30/20/7
f 23/16/8 14/15/8 16/21/8 24/22/8
f 24/22/9 16/21/9 2/2/9 17/1/9
f 7/23/10 9/24/10 37/25/10 36/26/10
f 15/27/11 24/22/11 17/1/11 1/28/11
f 13/29/12 23/16/12 24/22/12 15/27/12
f 11/30/13 22/14/13 23/16/13 13/29/13
f 9/31/14 21/12/14 22/14/14 11/30/14
f 7/32/15 20/10/15 21/12/15 9/31/15
f 5/33/16 19/7/16 20/10/16 7/32/16
f 3/34/17 18/4/17 19/6/17 5/35/17
f 1/28/18 17/1/18 18/4/18 3/34/18
f 26/36/7 25/37/7 32/38/7 31/39/7 30/20/7 29/19/7 28/40/7 27/41/7
f 2/42/7 16/43/7 32/38/7 25/37/7
f 4/44/7 2/42/7 25/37/7 26/36/7
f 8/45/7 6/46/7 27/41/7 28/40/7
f 14/47/7 12/17/7 30/20/7 31/39/7
f 10/18/7 8/45/7 28/40/7 29/19/7
f 16/43/7 14/47/7 31/39/7 32/38/7
f 6/46/7 4/44/7 26/36/7 27/41/7
f 33/48/10 34/49/10 35/50/10 36/26/10 37/25/10 38/51/10 39/52/10 40/53/10
f 13/29/10 15/27/10 40/53/10 39/52/10
f 3/54/10 5/55/10 35/50/10 34/49/10
f 9/24/10 11/30/10 38/51/10 37/25/10
f 15/27/10 1/56/10 33/48/10 40/53/10
f 1/56/10 3/54/10 34/49/10 33/48/10
f 5/55/10 7/23/10 36/26/10 35/50/10
f 11/30/10 13/29/10 39/52/10 38/51/10
o Estela_1_Cube.006
v 0.587291 3.998195 2.573427
v 0.586852 4.023391 2.573437
v 0.566132 3.998195 1.670675
v 0.565692 4.023391 1.670685
v 0.612480 3.998634 2.572836
v 0.612041 4.023830 2.572846
v 0.591321 3.998634 1.670084
v 0.590882 4.023830 1.670094
vt 0.029882 0.343262
vt 0.025420 0.338800
vt 0.185305 0.178913
vt 0.189767 0.183375
vt 0.189767 0.174452
vt 0.194229 0.178913
vt 0.349650 0.014568
vt 0.354112 0.019030
vt 0.354112 0.338796
vt 0.349650 0.343258
vt 0.025422 0.019030
vt 0.029884 0.014568
vn -0.9996 -0.0174 0.0234
vn -0.0234 -0.0000 -0.9997
vn 0.9996 0.0174 -0.0234
vn 0.0174 -0.9998 -0.0004
vn -0.0174 0.9998 0.0004
usemtl Material.002
s off
f 41/57/19 42/58/19 44/59/19 43/60/19
f 43/60/20 44/59/20 48/61/20 47/62/20
f 47/62/21 48/61/21 46/63/21 45/64/21
f 43/60/22 47/62/22 45/65/22 41/66/22
f 48/61/23 44/59/23 42/67/23 46/68/23
o Estela_2_Cube.007
v 0.510201 3.970366 2.574881
v 0.497170 3.991933 2.575187
v 0.501763 3.970366 2.214867
v 0.488732 3.991933 2.215173
v 0.531762 3.983400 2.574376
v 0.518732 4.004967 2.574681
v 0.523324 3.983400 2.214362
v 0.510293 4.004967 2.214667
vt 0.744001 0.084237
vt 0.751716 0.076522
vt 0.861958 0.186765
vt 0.854244 0.194479
vt 0.869673 0.194479
vt 0.861958 0.202194
vt 0.979915 0.304722
vt 0.972201 0.312436
vt 0.751716 0.312436
vt 0.744002 0.304722
vt 0.972201 0.076522
vt 0.979915 0.084237
vn -0.8556 -0.5172 0.0201
vn -0.0234 -0.0000 -0.9997
vn 0.8556 0.5172 -0.0201
vn 0.5171 -0.8558 -0.0121
vn -0.5171 0.8558 0.0121
usemtl Material.002
s off
f 49/69/24 50/70/24 52/71/24 51/72/24
f 51/72/25 52/71/25 56/73/25 55/74/25
f 55/74/26 56/73/26 54/75/26 53/76/26
f 51/72/27 55/74/27 53/77/27 49/78/27
f 56/73/28 52/71/28 50/79/28 54/80/28
o Estela_3_Cube.008
v 0.574986 3.946880 2.573773
v 0.595139 3.931758 2.573301
v 0.559082 3.946880 1.895234
v 0.579235 3.931758 1.894762
v 0.559868 3.926721 2.574127
v 0.580022 3.911600 2.573655
v 0.543964 3.926721 1.895589
v 0.564118 3.911600 1.895116
vt 0.390874 0.024965
vt 0.396746 0.019093
vt 0.554902 0.177249
vt 0.549030 0.183121
vt 0.560774 0.183121
vt 0.554902 0.188993
vt 0.718924 0.341271
vt 0.713052 0.347142
vt 0.396753 0.347142
vt 0.390881 0.341270
vt 0.713052 0.019100
vt 0.718924 0.024972
vn 0.5999 0.8000 -0.0141
vn -0.0234 -0.0000 -0.9997
vn -0.5999 -0.8000 0.0141
vn -0.7997 0.6001 0.0187
vn 0.7997 -0.6001 -0.0187
usemtl Material.002
s off
f 57/81/29 58/82/29 60/83/29 59/84/29
f 59/84/30 60/83/30 64/85/30 63/86/30
f 63/86/31 64/85/31 62/87/31 61/88/31
f 59/84/32 63/86/32 61/89/32 57/90/32
f 64/85/33 60/83/33 58/91/33 62/92/33
o Fogonazo_Cylinder.004
v 0.563299 3.963863 2.504492
v 0.750523 3.929779 2.466657
v 0.686280 3.941842 2.543280
v 0.669332 3.814730 2.467556
v 0.634949 3.862064 2.544615
v 0.521349 3.768099 2.472299
v 0.542264 3.841962 2.547024
v 0.393725 3.851404 2.474409
v 0.462518 3.893312 2.549098
v 0.374361 3.997947 2.476437
v 0.442426 3.986033 2.549620
v 0.465005 4.109354 2.477247
v 0.493757 4.065811 2.548285
v 0.594821 4.142544 2.471469
v 0.586443 4.085913 2.545876
v 0.734028 4.086542 2.467958
v 0.666188 4.034564 2.543803
v 0.820587 4.033127 2.333418
v 0.709378 4.181336 2.351689
v 0.359929 4.093120 2.355978
v 0.513985 4.189408 2.373933
v 0.300970 3.908711 2.359805
v 0.404602 3.740412 2.372386
v 0.600976 3.718864 2.330448
v 0.769292 3.837707 2.344611
vt 0.850869 0.849468
vt 0.865642 0.889005
vt 0.820524 0.881111
vt 0.876722 0.851123
vt 0.884768 0.872295
vt 0.906749 0.910006
vt 0.869594 0.940029
vt 0.905573 0.882033
vt 0.947428 0.894084
vt 0.941664 0.935426
vt 0.927580 0.874303
vt 0.962746 0.854657
vt 0.990508 0.890076
vt 0.936703 0.853058
vt 0.944794 0.815568
vt 0.990508 0.820665
vt 0.928389 0.832052
vt 0.908294 0.798729
vt 0.939540 0.775883
vt 0.907920 0.822792
vt 0.866867 0.807937
vt 0.873982 0.767631
vt 0.886038 0.829976
vt 0.821646 0.809632
vt 0.126448 0.773829
vt 0.125686 0.680795
vt 0.173820 0.655586
vt 0.187849 0.714236
vt 0.081641 0.659384
vt 0.069454 0.714850
vt 0.047074 0.770080
vt 0.018590 0.815527
vt 0.065491 0.834048
vt 0.026885 0.728253
vt 0.077230 0.886821
vt 0.123271 0.863849
vt 0.164572 0.891121
vt 0.182364 0.842979
vt 0.235552 0.829027
vt 0.209102 0.775466
vt 0.235552 0.729784
vn 0.7150 -0.5008 0.4878
vn 0.6652 -0.4456 0.5991
vn 0.2813 -0.8467 0.4517
vn 0.2267 -0.7512 0.6199
vn -0.4067 -0.6395 0.6524
vn -0.3799 -0.6068 0.6982
vn -0.7993 -0.1138 0.5900
vn -0.7153 -0.1253 0.6875
vn -0.6699 0.5414 0.5080
vn -0.6359 0.4739 0.6091
vn -0.1847 0.8173 0.5458
vn -0.1705 0.8002 0.5750
vn 0.3222 0.7660 0.5562
vn 0.3448 0.6690 0.6585
vn 0.8530 0.0855 0.5149
vn 0.7382 0.1034 0.6666
vn -0.5509 0.5912 -0.5891
vn -0.2619 -0.6910 -0.6737
vn 0.3568 -0.6856 -0.6346
vn -0.7226 -0.0003 -0.6912
vn 0.6864 0.3438 -0.6408
vn -0.0505 -0.7866 -0.6154
vn 0.6842 -0.2475 -0.6860
vn -0.5624 -0.5029 -0.6563
vn 0.2268 0.6994 -0.6778
vn 0.4880 -0.5559 -0.6729
vn -0.2915 0.6317 -0.7183
vn 0.6522 -0.0151 -0.7579
vn -0.8006 0.2603 -0.5397
vn 0.5369 0.5419 -0.6466
vn 0.0244 0.7999 -0.5997
vn -0.6976 -0.3398 -0.6307
vn 0.0260 -0.0000 0.9997
usemtl Material.002
s off
f 66/93/34 68/94/34 89/95/34
f 66/93/35 67/96/35 69/97/35 68/94/35
f 68/94/36 70/98/36 88/99/36
f 68/94/37 69/97/37 71/100/37 70/98/37
f 70/98/38 72/101/38 87/102/38
f 70/98/39 71/100/39 73/103/39 72/101/39
f 72/101/40 74/104/40 86/105/40
f 72/101/41 73/103/41 75/106/41 74/104/41
f 74/104/42 76/107/42 84/108/42
f 74/104/43 75/106/43 77/109/43 76/107/43
f 76/107/44 78/110/44 85/111/44
f 76/107/45 77/109/45 79/112/45 78/110/45
f 78/110/46 80/113/46 83/114/46
f 78/110/47 79/112/47 81/115/47 80/113/47
f 80/113/48 66/93/48 82/116/48
f 80/113/49 81/115/49 67/96/49 66/93/49
f 65/117/50 80/118/50 82/119/50
f 66/120/51 65/117/51 82/119/51
f 80/118/52 65/117/52 83/121/52
f 65/117/53 78/122/53 83/121/53
f 76/123/54 65/117/54 84/124/54
f 65/117/55 74/125/55 84/124/55
f 78/122/56 65/117/56 85/126/56
f 65/117/57 76/123/57 85/126/57
f 74/125/58 65/117/58 86/127/58
f 65/117/59 72/128/59 86/127/59
f 72/128/60 65/117/60 87/129/60
f 65/117/61 70/130/61 87/129/61
f 70/130/62 65/117/62 88/131/62
f 65/117/63 68/132/63 88/131/63
f 65/117/64 66/120/64 89/133/64
f 68/132/65 65/117/65 89/133/65
f 69/97/66 67/96/66 81/115/66 79/112/66 77/109/66 75/106/66 73/103/66 71/100/66
