# Blender v2.82 (sub 7) OBJ File: 'BalaIzquierda.blend'
# www.blender.org
mtllib BalaIzquierda_000017.mtl
o Bala_Cylinder.003
v 0.420727 4.025015 2.531740
v 0.512618 3.995396 3.202371
v 0.496002 4.101533 2.529640
v 0.545539 4.028860 3.201452
v 0.603315 4.102393 2.526647
v 0.592470 4.029235 3.200143
v 0.679804 4.027089 2.524513
v 0.625922 3.996302 3.199210
v 0.680662 3.919734 2.524490
v 0.626297 3.949352 3.199200
v 0.605388 3.843215 2.526589
v 0.593377 3.915888 3.200118
v 0.498074 3.842356 2.529583
v 0.546445 3.915512 3.201427
v 0.421585 3.917660 2.531716
v 0.512994 3.948446 3.202360
v 0.431691 4.025015 2.924832
v 0.506966 4.101533 2.922732
v 0.614279 4.102393 2.919739
v 0.690768 4.027089 2.917606
v 0.691627 3.919734 2.917582
v 0.616352 3.843215 2.919681
v 0.509039 3.842356 2.922675
v 0.432550 3.917660 2.924808
v 0.554295 3.978515 3.201208
v 0.563077 3.987442 3.200963
v 0.575596 3.987542 3.200614
v 0.584520 3.978757 3.200365
v 0.584620 3.966233 3.200362
v 0.575838 3.957306 3.200607
v 0.563319 3.957206 3.200956
v 0.554396 3.965991 3.201205
v 0.498689 3.993438 2.529565
v 0.528810 4.024056 2.528725
v 0.571750 4.024400 2.527527
v 0.602357 3.994268 2.526674
v 0.602701 3.951310 2.526664
v 0.572580 3.920692 2.527504
v 0.529639 3.920348 2.528702
v 0.499032 3.950480 2.529556
vt 0.571177 0.819618
vt 0.793679 0.842301
vt 0.792020 0.881992
vt 0.561213 0.895770
vt 0.797677 0.921414
vt 0.558627 0.981594
vt 0.784882 0.431415
vt 0.915080 0.649522
vt 0.882098 0.673287
vt 0.725706 0.494938
vt 0.854120 0.701371
vt 0.679164 0.556598
vt 0.830961 0.732764
vt 0.641960 0.618211
vt 0.812842 0.767023
vt 0.611028 0.684809
vt 0.982776 0.396146
vt 0.982776 0.463263
vt 0.923370 0.438657
vt 0.923370 0.420752
vt 0.801537 0.803928
vt 0.587762 0.749802
vt 0.227995 0.416724
vt 0.323726 0.422389
vt 0.291268 0.488982
vt 0.253411 0.486967
vt 0.320555 0.647466
vt 0.289883 0.730852
vt 0.370361 0.577645
vt 0.385540 0.494831
vt 0.426017 0.417005
vt 0.470066 0.340997
vt 0.514875 0.267284
vt 0.263759 0.816919
vt 0.241100 0.904987
vt 0.880146 0.438657
vt 0.880146 0.420752
vt 0.892805 0.408092
vt 0.910710 0.408092
vt 0.910710 0.451317
vt 0.892805 0.451317
vt 0.820740 0.396146
vt 0.868199 0.348686
vt 0.820740 0.463263
vt 0.935317 0.510722
vt 0.868199 0.510722
vt 0.935317 0.348686
vt 0.250323 0.578435
vt 0.223959 0.551121
vt 0.225364 0.512930
vt 0.316167 0.516903
vt 0.313787 0.552663
vt 0.287795 0.578888
vt 0.153818 0.578578
vt 0.156940 0.481709
vt 0.221449 0.648464
vn -0.6824 0.6787 0.2714
vn -0.0007 0.9676 0.2524
vn 0.6855 0.6897 0.2333
vn 0.9743 0.0077 0.2252
vn 0.6965 -0.6787 0.2329
vn 0.0148 -0.9676 0.2520
vn 0.0279 0.0000 0.9996
vn -0.6714 -0.6897 0.2711
vn -0.9602 -0.0077 0.2792
vn -0.0279 -0.0000 -0.9996
vn -0.9996 -0.0080 0.0279
vn -0.7012 -0.7127 0.0196
vn 0.0080 -1.0000 -0.0002
vn 0.7125 -0.7014 -0.0199
vn 0.9996 0.0080 -0.0279
vn 0.7012 0.7127 -0.0196
vn -0.0080 1.0000 0.0002
vn -0.7125 0.7014 0.0199
usemtl Material.002
s off
f 17/1/1 2/2/1 4/3/1 18/4/1
f 18/4/2 4/3/2 6/5/2 19/6/2
f 19/7/3 6/8/3 8/9/3 20/10/3
f 20/10/4 8/9/4 10/11/4 21/12/4
f 21/12/5 10/11/5 12/13/5 22/14/5
f 22/14/6 12/13/6 14/15/6 23/16/6
f 12/17/7 10/18/7 29/19/7 30/20/7
f 23/16/8 14/15/8 16/21/8 24/22/8
f 24/22/9 16/21/9 2/2/9 17/1/9
f 7/23/10 9/24/10 37/25/10 36/26/10
f 15/27/11 24/22/11 17/1/11 1/28/11
f 13/29/12 23/16/12 24/22/12 15/27/12
f 11/30/13 22/14/13 23/16/13 13/29/13
f 9/31/14 21/12/14 22/14/14 11/30/14
f 7/32/15 20/10/15 21/12/15 9/31/15
f 5/33/16 19/7/16 20/10/16 7/32/16
f 3/34/17 18/4/17 19/6/17 5/35/17
f 1/28/18 17/1/18 18/4/18 3/34/18
f 26/36/7 25/37/7 32/38/7 31/39/7 30/20/7 29/19/7 28/40/7 27/41/7
f 2/42/7 16/43/7 32/38/7 25/37/7
f 4/44/7 2/42/7 25/37/7 26/36/7
f 8/45/7 6/46/7 27/41/7 28/40/7
f 14/47/7 12/17/7 30/20/7 31/39/7
f 10/18/7 8/45/7 28/40/7 29/19/7
f 16/43/7 14/47/7 31/39/7 32/38/7
f 6/46/7 4/44/7 26/36/7 27/41/7
f 33/48/10 34/49/10 35/50/10 36/26/10 37/25/10 38/51/10 39/52/10 40/53/10
f 13/29/10 15/27/10 40/53/10 39/52/10
f 3/54/10 5/55/10 35/50/10 34/49/10
f 9/24/10 11/30/10 38/51/10 37/25/10
f 15/27/10 1/56/10 33/48/10 40/53/10
f 1/56/10 3/54/10 34/49/10 33/48/10
f 5/55/10 7/23/10 36/26/10 35/50/10
f 11/30/10 13/29/10 39/52/10 38/51/10
o Estela_1_Cube.006
v 0.606704 4.001934 2.556089
v 0.614297 4.037123 2.555911
v 0.576476 4.001934 1.266443
v 0.584070 4.037123 1.266266
v 0.641884 3.994338 2.555265
v 0.649477 4.029528 2.555087
v 0.611656 3.994338 1.265619
v 0.619250 4.029528 1.265441
vt 0.029882 0.343262
vt 0.025420 0.338800
vt 0.185305 0.178913
vt 0.189767 0.183375
vt 0.189767 0.174452
vt 0.194229 0.178913
vt 0.349650 0.014568
vt 0.354112 0.019030
vt 0.354112 0.338796
vt 0.349650 0.343258
vt 0.025422 0.019030
vt 0.029884 0.014568
vn -0.9772 0.2110 0.0229
vn -0.0234 0.0000 -0.9997
vn 0.9772 -0.2110 -0.0229
vn -0.2109 -0.9775 0.0049
vn 0.2109 0.9775 -0.0049
usemtl Material.002
s off
f 41/57/19 42/58/19 44/59/19 43/60/19
f 43/60/20 44/59/20 48/61/20 47/62/20
f 47/62/21 48/61/21 46/63/21 45/64/21
f 43/60/22 47/62/22 45/65/22 41/66/22
f 48/61/23 44/59/23 42/67/23 46/68/23
o Estela_2_Cube.007
v 0.490414 3.988338 2.558312
v 0.479311 4.022583 2.558572
v 0.478359 3.988338 2.044006
v 0.467257 4.022583 2.044266
v 0.524648 3.999444 2.557509
v 0.513546 4.033688 2.557770
v 0.512594 3.999444 2.043203
v 0.501492 4.033688 2.043463
vt 0.744001 0.084237
vt 0.751716 0.076522
vt 0.861958 0.186765
vt 0.854244 0.194479
vt 0.869673 0.194479
vt 0.861958 0.202194
vt 0.979915 0.304722
vt 0.972201 0.312436
vt 0.751716 0.312436
vt 0.744002 0.304722
vt 0.972201 0.076522
vt 0.979915 0.084237
vn -0.9510 -0.3085 0.0223
vn -0.0234 0.0000 -0.9997
vn 0.9510 0.3085 -0.0223
vn 0.3084 -0.9512 -0.0072
vn -0.3084 0.9512 0.0072
usemtl Material.002
s off
f 49/69/24 50/70/24 52/71/24 51/72/24
f 51/72/25 52/71/25 56/73/25 55/74/25
f 55/74/26 56/73/26 54/75/26 53/76/26
f 51/72/27 55/74/27 53/77/27 49/78/27
f 56/73/28 52/71/28 50/79/28 54/80/28
o Estela_3_Cube.008
v 0.572878 3.934567 2.556965
v 0.595986 3.906968 2.556423
v 0.550158 3.934567 1.587624
v 0.573266 3.906968 1.587082
v 0.545286 3.911453 2.557611
v 0.568394 3.883853 2.557070
v 0.522566 3.911453 1.588271
v 0.545675 3.883853 1.587729
vt 0.390874 0.024965
vt 0.396746 0.019093
vt 0.554902 0.177249
vt 0.549030 0.183121
vt 0.560774 0.183121
vt 0.554902 0.188993
vt 0.718924 0.341271
vt 0.713052 0.347142
vt 0.396753 0.347142
vt 0.390881 0.341270
vt 0.713052 0.019100
vt 0.718924 0.024972
vn 0.7664 0.6421 -0.0180
vn -0.0234 -0.0000 -0.9997
vn -0.7664 -0.6421 0.0180
vn -0.6419 0.7666 0.0150
vn 0.6419 -0.7666 -0.0150
usemtl Material.002
s off
f 57/81/29 58/82/29 60/83/29 59/84/29
f 59/84/30 60/83/30 64/85/30 63/86/30
f 63/86/31 64/85/31 62/87/31 61/88/31
f 59/84/32 63/86/32 61/89/32 57/90/32
f 64/85/33 60/83/33 58/91/33 62/92/33
o Fogonazo_Cylinder.004
v 0.566084 3.960609 2.466687
v 0.641284 3.848874 2.443280
v 0.615967 3.888230 2.492540
v 0.543150 3.832956 2.445160
v 0.550379 3.874696 2.494322
v 0.446506 3.884578 2.448365
v 0.494435 3.911520 2.495841
v 0.425415 3.990123 2.448155
v 0.480906 3.977133 2.496209
v 0.489725 4.072343 2.447397
v 0.517717 4.033097 2.495209
v 0.590703 4.081717 2.446706
v 0.583305 4.046632 2.493428
v 0.671586 4.032598 2.442952
v 0.639249 4.009807 2.491908
v 0.712160 3.934689 2.441920
v 0.652778 3.944195 2.491540
v 0.727388 3.862885 2.355777
v 0.747208 3.992445 2.365205
v 0.529995 4.125080 2.367997
v 0.654784 4.095237 2.378839
v 0.407903 4.063710 2.372800
v 0.374355 3.928444 2.383610
v 0.460379 3.818239 2.357404
v 0.603569 3.792305 2.365529
vt 0.850869 0.849468
vt 0.865642 0.889005
vt 0.820524 0.881111
vt 0.876722 0.851123
vt 0.884768 0.872295
vt 0.906749 0.910006
vt 0.869594 0.940029
vt 0.905573 0.882033
vt 0.947428 0.894084
vt 0.941664 0.935426
vt 0.927580 0.874303
vt 0.962746 0.854657
vt 0.990508 0.890076
vt 0.936703 0.853058
vt 0.944794 0.815568
vt 0.990508 0.820665
vt 0.928389 0.832052
vt 0.908294 0.798729
vt 0.939540 0.775883
vt 0.907920 0.822792
vt 0.866867 0.807937
vt 0.873982 0.767631
vt 0.886038 0.829976
vt 0.821646 0.809632
vt 0.126448 0.773829
vt 0.125686 0.680795
vt 0.173820 0.655586
vt 0.187849 0.714236
vt 0.081641 0.659384
vt 0.069454 0.714850
vt 0.047074 0.770080
vt 0.018590 0.815527
vt 0.065491 0.834048
vt 0.026885 0.728253
vt 0.077230 0.886821
vt 0.123271 0.863849
vt 0.164572 0.891121
vt 0.182364 0.842979
vt 0.235552 0.829027
vt 0.209102 0.775466
vt 0.235552 0.729784
vn 0.1452 -0.8322 0.5351
vn 0.1493 -0.7495 0.6450
vn -0.3946 -0.7700 0.5014
vn -0.3576 -0.6526 0.6680
vn -0.7071 -0.1399 0.6931
vn -0.6625 -0.1347 0.7369
vn -0.6158 0.4874 0.6191
vn -0.5595 0.4186 0.7153
vn -0.0751 0.8478 0.5250
vn -0.0969 0.7720 0.6281
vn 0.4483 0.6953 0.5618
vn 0.4451 0.6723 0.5915
vn 0.7566 0.3074 0.5771
vn 0.6980 0.2251 0.6798
vn 0.6470 -0.5256 0.5525
vn 0.5736 -0.4240 0.7009
vn 0.0287 0.7703 -0.6370
vn -0.6565 -0.2966 -0.6935
vn -0.2383 -0.7205 -0.6513
vn -0.4914 0.4807 -0.7263
vn 0.6940 -0.2523 -0.6743
vn -0.5835 -0.5081 -0.6335
vn 0.2830 -0.6479 -0.7072
vn -0.7302 0.0359 -0.6823
vn 0.6245 0.3025 -0.7200
vn -0.0604 -0.7211 -0.6902
vn 0.2277 0.6077 -0.7608
vn 0.4164 -0.4669 -0.7802
vn -0.3702 0.7228 -0.5836
vn 0.7287 -0.0154 -0.6847
vn 0.5627 0.5143 -0.6472
vn -0.7108 0.2392 -0.6614
vn 0.0272 0.0000 0.9996
usemtl Material.002
s off
f 66/93/34 68/94/34 89/95/34
f 66/93/35 67/96/35 69/97/35 68/94/35
f 68/94/36 70/98/36 88/99/36
f 68/94/37 69/97/37 71/100/37 70/98/37
f 70/98/38 72/101/38 87/102/38
f 70/98/39 71/100/39 73/103/39 72/101/39
f 72/101/40 74/104/40 86/105/40
f 72/101/41 73/103/41 75/106/41 74/104/41
f 74/104/42 76/107/42 84/108/42
f 74/104/43 75/106/43 77/109/43 76/107/43
f 76/107/44 78/110/44 85/111/44
f 76/107/45 77/109/45 79/112/45 78/110/45
f 78/110/46 80/113/46 83/114/46
f 78/110/47 79/112/47 81/115/47 80/113/47
f 80/113/48 66/93/48 82/116/48
f 80/113/49 81/115/49 67/96/49 66/93/49
f 65/117/50 80/118/50 82/119/50
f 66/120/51 65/117/51 82/119/51
f 80/118/52 65/117/52 83/121/52
f 65/117/53 78/122/53 83/121/53
f 76/123/54 65/117/54 84/124/54
f 65/117/55 74/125/55 84/124/55
f 78/122/56 65/117/56 85/126/56
f 65/117/57 76/123/57 85/126/57
f 74/125/58 65/117/58 86/127/58
f 65/117/59 72/128/59 86/127/59
f 72/128/60 65/117/60 87/129/60
f 65/117/61 70/130/61 87/129/61
f 70/130/62 65/117/62 88/131/62
f 65/117/63 68/132/63 88/131/63
f 65/117/64 66/120/64 89/133/64
f 68/132/65 65/117/65 89/133/65
f 69/97/66 67/96/66 81/115/66 79/112/66 77/109/66 75/106/66 73/103/66 71/100/66
