# Blender v2.82 (sub 7) OBJ File: 'BalaIzquierda.blend'
# www.blender.org
mtllib BalaIzquierda_000003.mtl
o Bala_Cylinder.003
v 0.528314 3.833902 2.528739
v 0.559670 3.911816 3.201058
v 0.436993 3.890291 2.531286
v 0.519731 3.936477 3.202172
v 0.412276 3.994763 2.531976
v 0.508922 3.982166 3.202474
v 0.468643 4.086120 2.530403
v 0.533573 4.022120 3.201786
v 0.573075 4.110847 2.527491
v 0.579245 4.032934 3.200512
v 0.664396 4.054457 2.524943
v 0.619183 4.008273 3.199398
v 0.689113 3.949985 2.524254
v 0.629992 3.962583 3.199097
v 0.632746 3.858628 2.525826
v 0.605341 3.922630 3.199784
v 0.539279 3.833902 2.921831
v 0.447957 3.890291 2.924378
v 0.423241 3.994763 2.925068
v 0.479608 4.086120 2.923496
v 0.584039 4.110847 2.920583
v 0.675361 4.054457 2.918036
v 0.700077 3.949985 2.917346
v 0.643710 3.858628 2.918918
v 0.566846 3.956220 3.200858
v 0.556193 3.962799 3.201155
v 0.553309 3.974987 3.201236
v 0.559885 3.985645 3.201052
v 0.572068 3.988529 3.200712
v 0.582722 3.981951 3.200415
v 0.585605 3.969763 3.200335
v 0.579030 3.959105 3.200518
v 0.541739 3.916965 2.528365
v 0.505198 3.939529 2.529384
v 0.495307 3.981333 2.529660
v 0.517862 4.017889 2.529031
v 0.559650 4.027783 2.527865
v 0.596192 4.005219 2.526846
v 0.606082 3.963416 2.526570
v 0.583527 3.926860 2.527199
vt 0.571177 0.819618
vt 0.793679 0.842301
vt 0.792020 0.881992
vt 0.561213 0.895770
vt 0.797677 0.921414
vt 0.558627 0.981594
vt 0.784882 0.431415
vt 0.915080 0.649522
vt 0.882098 0.673287
vt 0.725706 0.494938
vt 0.854120 0.701371
vt 0.679164 0.556598
vt 0.830961 0.732764
vt 0.641960 0.618211
vt 0.812842 0.767023
vt 0.611028 0.684809
vt 0.982776 0.396146
vt 0.982776 0.463263
vt 0.923370 0.438657
vt 0.923370 0.420752
vt 0.801537 0.803928
vt 0.587762 0.749802
vt 0.227995 0.416724
vt 0.323726 0.422389
vt 0.291268 0.488982
vt 0.253411 0.486967
vt 0.320555 0.647466
vt 0.289883 0.730852
vt 0.370361 0.577645
vt 0.385540 0.494831
vt 0.426017 0.417005
vt 0.470066 0.340997
vt 0.514875 0.267284
vt 0.263759 0.816919
vt 0.241100 0.904987
vt 0.880146 0.438657
vt 0.880146 0.420752
vt 0.892805 0.408092
vt 0.910710 0.408092
vt 0.910710 0.451317
vt 0.892805 0.451317
vt 0.820740 0.396146
vt 0.868199 0.348686
vt 0.820740 0.463263
vt 0.935317 0.510722
vt 0.868199 0.510722
vt 0.935317 0.348686
vt 0.250323 0.578435
vt 0.223959 0.551121
vt 0.225364 0.512930
vt 0.316167 0.516903
vt 0.313787 0.552663
vt 0.287795 0.578888
vt 0.153818 0.578578
vt 0.156940 0.481709
vt 0.221449 0.648464
vn -0.5010 -0.8234 0.2664
vn -0.9342 -0.2229 0.2784
vn -0.8161 0.5083 0.2751
vn -0.2157 0.9416 0.2584
vn 0.5151 0.8234 0.2380
vn 0.9483 0.2229 0.2259
vn 0.0279 -0.0000 0.9996
vn 0.8301 -0.5083 0.2292
vn 0.2298 -0.9416 0.2460
vn -0.0279 0.0000 -0.9996
vn 0.2302 -0.9731 -0.0064
vn 0.8506 -0.5252 -0.0237
vn 0.9727 0.2303 -0.0271
vn 0.5250 0.8510 -0.0146
vn -0.2302 0.9731 0.0064
vn -0.8506 0.5252 0.0237
vn -0.9727 -0.2303 0.0271
vn -0.5250 -0.8510 0.0146
usemtl Material.002
s off
f 17/1/1 2/2/1 4/3/1 18/4/1
f 18/4/2 4/3/2 6/5/2 19/6/2
f 19/7/3 6/8/3 8/9/3 20/10/3
f 20/10/4 8/9/4 10/11/4 21/12/4
f 21/12/5 10/11/5 12/13/5 22/14/5
f 22/14/6 12/13/6 14/15/6 23/16/6
f 12/17/7 10/18/7 29/19/7 30/20/7
f 23/16/8 14/15/8 16/21/8 24/22/8
f 24/22/9 16/21/9 2/2/9 17/1/9
f 7/23/10 9/24/10 37/25/10 36/26/10
f 15/27/11 24/22/11 17/1/11 1/28/11
f 13/29/12 23/16/12 24/22/12 15/27/12
f 11/30/13 22/14/13 23/16/13 13/29/13
f 9/31/14 21/12/14 22/14/14 11/30/14
f 7/32/15 20/10/15 21/12/15 9/31/15
f 5/33/16 19/7/16 20/10/16 7/32/16
f 3/34/17 18/4/17 19/6/17 5/35/17
f 1/28/18 17/1/18 18/4/18 3/34/18
f 26/36/7 25/37/7 32/38/7 31/39/7 30/20/7 29/19/7 28/40/7 27/41/7
f 2/42/7 16/43/7 32/38/7 25/37/7
f 4/44/7 2/42/7 25/37/7 26/36/7
f 8/45/7 6/46/7 27/41/7 28/40/7
f 14/47/7 12/17/7 30/20/7 31/39/7
f 10/18/7 8/45/7 28/40/7 29/19/7
f 16/43/7 14/47/7 31/39/7 32/38/7
f 6/46/7 4/44/7 26/36/7 27/41/7
f 33/48/10 34/49/10 35/50/10 36/26/10 37/25/10 38/51/10 39/52/10 40/53/10
f 13/29/10 15/27/10 40/53/10 39/52/10
f 3/54/10 5/55/10 35/50/10 34/49/10
f 9/24/10 11/30/10 38/51/10 37/25/10
f 15/27/10 1/56/10 33/48/10 40/53/10
f 1/56/10 3/54/10 34/49/10 33/48/10
f 5/55/10 7/23/10 36/26/10 35/50/10
f 11/30/10 13/29/10 39/52/10 38/51/10
o Estela_1_Cube.006
v 0.563265 3.964195 2.612891
v 0.563265 3.964195 2.612891
v 0.563265 3.964195 2.612891
v 0.563265 3.964195 2.612891
v 0.563265 3.964195 2.612891
v 0.563265 3.964195 2.612891
v 0.563265 3.964195 2.612891
v 0.563265 3.964195 2.612891
vt 0.029882 0.343262
vt 0.025420 0.338800
vt 0.185305 0.178913
vt 0.189767 0.183375
vt 0.189767 0.174452
vt 0.194229 0.178913
vt 0.349650 0.014568
vt 0.354112 0.019030
vt 0.354112 0.338796
vt 0.349650 0.343258
vt 0.025422 0.019030
vt 0.029884 0.014568
vn 0.0000 0.0000 1.0000
usemtl Material.002
s off
f 41/57/19 42/58/19 44/59/19 43/60/19
f 43/60/19 44/59/19 48/61/19 47/62/19
f 47/62/19 48/61/19 46/63/19 45/64/19
f 43/60/19 47/62/19 45/65/19 41/66/19
f 48/61/19 44/59/19 42/67/19 46/68/19
o Estela_2_Cube.007
v 0.563265 3.964195 2.612892
v 0.563265 3.964195 2.612892
v 0.563265 3.964195 2.612892
v 0.563265 3.964195 2.612892
v 0.563265 3.964195 2.612892
v 0.563265 3.964195 2.612892
v 0.563265 3.964195 2.612892
v 0.563265 3.964195 2.612892
vt 0.744001 0.084237
vt 0.751716 0.076522
vt 0.861958 0.186765
vt 0.854244 0.194479
vt 0.869673 0.194479
vt 0.861958 0.202194
vt 0.979915 0.304722
vt 0.972201 0.312436
vt 0.751716 0.312436
vt 0.744002 0.304722
vt 0.972201 0.076522
vt 0.979915 0.084237
vn 0.0000 0.0000 1.0000
usemtl Material.002
s off
f 49/69/20 50/70/20 52/71/20 51/72/20
f 51/72/20 52/71/20 56/73/20 55/74/20
f 55/74/20 56/73/20 54/75/20 53/76/20
f 51/72/20 55/74/20 53/77/20 49/78/20
f 56/73/20 52/71/20 50/79/20 54/80/20
o Estela_3_Cube.008
v 0.563265 3.964195 2.612891
v 0.563265 3.964195 2.612891
v 0.563265 3.964195 2.612891
v 0.563265 3.964195 2.612891
v 0.563265 3.964195 2.612891
v 0.563265 3.964195 2.612891
v 0.563265 3.964195 2.612891
v 0.563265 3.964195 2.612891
vt 0.390874 0.024965
vt 0.396746 0.019093
vt 0.554902 0.177249
vt 0.549030 0.183121
vt 0.560774 0.183121
vt 0.554902 0.188993
vt 0.718924 0.341271
vt 0.713052 0.347142
vt 0.396753 0.347142
vt 0.390881 0.341270
vt 0.713052 0.019100
vt 0.718924 0.024972
vn 0.0000 0.0000 1.0000
usemtl Material.002
s off
f 57/81/21 58/82/21 60/83/21 59/84/21
f 59/84/21 60/83/21 64/85/21 63/86/21
f 63/86/21 64/85/21 62/87/21 61/88/21
f 59/84/21 63/86/21 61/89/21 57/90/21
f 64/85/21 60/83/21 58/91/21 62/92/21
o Fogonazo_Cylinder.004
v 0.556357 3.969850 2.504497
v 0.599267 4.102556 2.470510
v 0.585630 4.055860 2.545776
v 0.674283 4.032148 2.467505
v 0.638169 4.010619 2.544521
v 0.693073 3.920279 2.467951
v 0.643337 3.941485 2.544397
v 0.619848 3.836348 2.468493
v 0.598108 3.888955 2.545478
v 0.511872 3.837143 2.472599
v 0.528975 3.883802 2.547131
v 0.440490 3.913988 2.477472
v 0.476436 3.929043 2.548387
v 0.429556 4.011373 2.475330
v 0.471267 3.998177 2.548510
v 0.484172 4.106476 2.474132
v 0.516497 4.050706 2.547429
v 0.528774 4.166217 2.340798
v 0.410593 4.100431 2.359001
v 0.438969 3.838608 2.353527
v 0.385344 3.959474 2.376766
v 0.566503 3.777204 2.352773
v 0.699108 3.834893 2.364875
v 0.733789 3.975565 2.327219
v 0.665212 4.109103 2.347394
vt 0.850869 0.849468
vt 0.865642 0.889005
vt 0.820524 0.881111
vt 0.876722 0.851123
vt 0.884768 0.872295
vt 0.906749 0.910006
vt 0.869594 0.940029
vt 0.905573 0.882033
vt 0.947428 0.894084
vt 0.941664 0.935426
vt 0.927580 0.874303
vt 0.962746 0.854657
vt 0.990508 0.890076
vt 0.936703 0.853058
vt 0.944794 0.815568
vt 0.990508 0.820665
vt 0.928389 0.832052
vt 0.908294 0.798729
vt 0.939540 0.775883
vt 0.907920 0.822792
vt 0.866867 0.807937
vt 0.873982 0.767631
vt 0.886038 0.829976
vt 0.821646 0.809632
vt 0.126448 0.773829
vt 0.125686 0.680795
vt 0.173820 0.655586
vt 0.187849 0.714236
vt 0.081641 0.659384
vt 0.069454 0.714850
vt 0.047074 0.770080
vt 0.018590 0.815527
vt 0.065491 0.834048
vt 0.026885 0.728253
vt 0.077230 0.886821
vt 0.123271 0.863849
vt 0.164572 0.891121
vt 0.182364 0.842979
vt 0.235552 0.829027
vt 0.209102 0.775466
vt 0.235552 0.729784
vn 0.6413 0.6671 0.3790
vn 0.5972 0.6409 0.4823
vn 0.9304 0.1576 0.3311
vn 0.8668 0.1156 0.4851
vn 0.6515 -0.5651 0.5062
vn 0.6316 -0.5416 0.5548
vn 0.0106 -0.8924 0.4512
vn 0.0384 -0.8353 0.5484
vn -0.6600 -0.6382 0.3963
vn -0.6003 -0.6338 0.4878
vn -0.8901 -0.0901 0.4467
vn -0.8771 -0.0791 0.4737
vn -0.7649 0.4452 0.4655
vn -0.6798 0.4685 0.5642
vn 0.0441 0.9061 0.4207
vn 0.0107 0.8238 0.5668
vn -0.7351 -0.4920 -0.4664
vn 0.7208 -0.3813 -0.5789
vn 0.7955 0.3038 -0.5243
vn -0.1254 -0.7975 -0.5901
vn -0.2804 0.8216 -0.4963
vn 0.8413 -0.1577 -0.5170
vn 0.3714 0.7425 -0.5575
vn 0.4618 -0.6857 -0.5626
vn -0.7542 0.3813 -0.5346
vn 0.6818 0.4744 -0.5568
vn -0.7779 -0.2103 -0.5921
vn 0.1102 0.7686 -0.6302
vn -0.4073 -0.8038 -0.4336
vn -0.5219 0.6910 -0.5001
vn -0.8731 0.1648 -0.4589
vn 0.2573 -0.8047 -0.5350
vn 0.0239 -0.0000 0.9997
usemtl Material.002
s off
f 66/93/22 68/94/22 89/95/22
f 66/93/23 67/96/23 69/97/23 68/94/23
f 68/94/24 70/98/24 88/99/24
f 68/94/25 69/97/25 71/100/25 70/98/25
f 70/98/26 72/101/26 87/102/26
f 70/98/27 71/100/27 73/103/27 72/101/27
f 72/101/28 74/104/28 86/105/28
f 72/101/29 73/103/29 75/106/29 74/104/29
f 74/104/30 76/107/30 84/108/30
f 74/104/31 75/106/31 77/109/31 76/107/31
f 76/107/32 78/110/32 85/111/32
f 76/107/33 77/109/33 79/112/33 78/110/33
f 78/110/34 80/113/34 83/114/34
f 78/110/35 79/112/35 81/115/35 80/113/35
f 80/113/36 66/93/36 82/116/36
f 80/113/37 81/115/37 67/96/37 66/93/37
f 65/117/38 80/118/38 82/119/38
f 66/120/39 65/117/39 82/119/39
f 80/118/40 65/117/40 83/121/40
f 65/117/41 78/122/41 83/121/41
f 76/123/42 65/117/42 84/124/42
f 65/117/43 74/125/43 84/124/43
f 78/122/44 65/117/44 85/126/44
f 65/117/45 76/123/45 85/126/45
f 74/125/46 65/117/46 86/127/46
f 65/117/47 72/128/47 86/127/47
f 72/128/48 65/117/48 87/129/48
f 65/117/49 70/130/49 87/129/49
f 70/130/50 65/117/50 88/131/50
f 65/117/51 68/132/51 88/131/51
f 65/117/52 66/120/52 89/133/52
f 68/132/53 65/117/53 89/133/53
f 69/97/54 67/96/54 81/115/54 79/112/54 77/109/54 75/106/54 73/103/54 71/100/54
