# Blender v2.82 (sub 7) OBJ File: 'BalaIzquierda.blend'
# www.blender.org
mtllib BalaIzquierda_000030.mtl
o Bala_Cylinder.003
v 0.615552 4.096737 2.526306
v 0.597821 4.026762 3.199994
v 0.684459 4.014433 2.524384
v 0.627957 3.990768 3.199154
v 0.675009 3.907492 2.524647
v 0.623824 3.943998 3.199269
v 0.592737 3.838558 2.526942
v 0.587844 3.913851 3.200273
v 0.485838 3.848011 2.529924
v 0.541093 3.917985 3.201576
v 0.416930 3.930315 2.531846
v 0.510957 3.953980 3.202417
v 0.426380 4.037256 2.531582
v 0.515090 4.000749 3.202302
v 0.508652 4.106191 2.529287
v 0.551070 4.030896 3.201298
v 0.626516 4.096737 2.919398
v 0.695423 4.014433 2.917476
v 0.685973 3.907492 2.917739
v 0.603702 3.838558 2.920034
v 0.496802 3.848011 2.923016
v 0.427895 3.930315 2.924938
v 0.437345 4.037256 2.924675
v 0.519616 4.106191 2.922380
v 0.577023 3.986882 3.200574
v 0.585062 3.977280 3.200350
v 0.583960 3.964804 3.200381
v 0.574362 3.956763 3.200649
v 0.561891 3.957865 3.200996
v 0.553852 3.967467 3.201221
v 0.554954 3.979943 3.201190
v 0.564552 3.987985 3.200922
v 0.576647 4.022137 2.527391
v 0.604220 3.989204 2.526622
v 0.600438 3.946412 2.526727
v 0.567518 3.918828 2.527646
v 0.524742 3.922611 2.528839
v 0.497170 3.955544 2.529608
v 0.500951 3.998336 2.529502
v 0.533871 4.025920 2.528584
vt 0.571177 0.819618
vt 0.793679 0.842301
vt 0.792020 0.881992
vt 0.561213 0.895770
vt 0.797677 0.921414
vt 0.558627 0.981594
vt 0.784882 0.431415
vt 0.915080 0.649522
vt 0.882098 0.673287
vt 0.725706 0.494938
vt 0.854120 0.701371
vt 0.679164 0.556598
vt 0.830961 0.732764
vt 0.641960 0.618211
vt 0.812842 0.767023
vt 0.611028 0.684809
vt 0.982776 0.396146
vt 0.982776 0.463263
vt 0.923370 0.438657
vt 0.923370 0.420752
vt 0.801537 0.803928
vt 0.587762 0.749802
vt 0.227995 0.416724
vt 0.323726 0.422389
vt 0.291268 0.488982
vt 0.253411 0.486967
vt 0.320555 0.647466
vt 0.289883 0.730852
vt 0.370361 0.577645
vt 0.385540 0.494831
vt 0.426017 0.417005
vt 0.470066 0.340997
vt 0.514875 0.267284
vt 0.263759 0.816919
vt 0.241100 0.904987
vt 0.880146 0.438657
vt 0.880146 0.420752
vt 0.892805 0.408092
vt 0.910710 0.408092
vt 0.910710 0.451317
vt 0.892805 0.451317
vt 0.820740 0.396146
vt 0.868199 0.348686
vt 0.820740 0.463263
vt 0.935317 0.510722
vt 0.868199 0.510722
vt 0.935317 0.348686
vt 0.250323 0.578435
vt 0.223959 0.551121
vt 0.225364 0.512930
vt 0.316167 0.516903
vt 0.313787 0.552663
vt 0.287795 0.578888
vt 0.153818 0.578578
vt 0.156940 0.481709
vt 0.221449 0.648464
vn 0.7486 0.6213 0.2315
vn 0.9706 -0.0852 0.2253
vn 0.6281 -0.7418 0.2349
vn -0.0781 -0.9639 0.2546
vn -0.7345 -0.6213 0.2729
vn -0.9565 0.0852 0.2791
vn 0.0279 0.0000 0.9996
vn -0.6141 0.7418 0.2695
vn 0.0922 0.9639 0.2498
vn -0.0279 0.0000 -0.9996
vn 0.0880 0.9961 -0.0025
vn -0.6418 0.7666 0.0179
vn -0.9957 0.0881 0.0278
vn -0.7663 -0.6421 0.0214
vn -0.0880 -0.9961 0.0025
vn 0.6418 -0.7666 -0.0179
vn 0.9957 -0.0881 -0.0278
vn 0.7663 0.6421 -0.0214
usemtl Material.002
s off
f 17/1/1 2/2/1 4/3/1 18/4/1
f 18/4/2 4/3/2 6/5/2 19/6/2
f 19/7/3 6/8/3 8/9/3 20/10/3
f 20/10/4 8/9/4 10/11/4 21/12/4
f 21/12/5 10/11/5 12/13/5 22/14/5
f 22/14/6 12/13/6 14/15/6 23/16/6
f 12/17/7 10/18/7 29/19/7 30/20/7
f 23/16/8 14/15/8 16/21/8 24/22/8
f 24/22/9 16/21/9 2/2/9 17/1/9
f 7/23/10 9/24/10 37/25/10 36/26/10
f 15/27/11 24/22/11 17/1/11 1/28/11
f 13/29/12 23/16/12 24/22/12 15/27/12
f 11/30/13 22/14/13 23/16/13 13/29/13
f 9/31/14 21/12/14 22/14/14 11/30/14
f 7/32/15 20/10/15 21/12/15 9/31/15
f 5/33/16 19/7/16 20/10/16 7/32/16
f 3/34/17 18/4/17 19/6/17 5/35/17
f 1/28/18 17/1/18 18/4/18 3/34/18
f 26/36/7 25/37/7 32/38/7 31/39/7 30/20/7 29/19/7 28/40/7 27/41/7
f 2/42/7 16/43/7 32/38/7 25/37/7
f 4/44/7 2/42/7 25/37/7 26/36/7
f 8/45/7 6/46/7 27/41/7 28/40/7
f 14/47/7 12/17/7 30/20/7 31/39/7
f 10/18/7 8/45/7 28/40/7 29/19/7
f 16/43/7 14/47/7 31/39/7 32/38/7
f 6/46/7 4/44/7 26/36/7 27/41/7
f 33/48/10 34/49/10 35/50/10 36/26/10 37/25/10 38/51/10 39/52/10 40/53/10
f 13/29/10 15/27/10 40/53/10 39/52/10
f 3/54/10 5/55/10 35/50/10 34/49/10
f 9/24/10 11/30/10 38/51/10 37/25/10
f 15/27/10 1/56/10 33/48/10 40/53/10
f 1/56/10 3/54/10 34/49/10 33/48/10
f 5/55/10 7/23/10 36/26/10 35/50/10
f 11/30/10 13/29/10 39/52/10 38/51/10
o Estela_1_Cube.006
v 0.616544 3.957862 2.554491
v 0.647992 3.975368 2.553753
v 0.586316 3.957862 1.264845
v 0.617764 3.975368 1.264108
v 0.634045 3.926405 2.554080
v 0.665493 3.943911 2.553343
v 0.603818 3.926405 1.264435
v 0.635266 3.943911 1.263698
vt 0.029882 0.343262
vt 0.025420 0.338800
vt 0.185305 0.178913
vt 0.189767 0.183375
vt 0.189767 0.174452
vt 0.194229 0.178913
vt 0.349650 0.014568
vt 0.354112 0.019030
vt 0.354112 0.338796
vt 0.349650 0.343258
vt 0.025422 0.019030
vt 0.029884 0.014568
vn -0.4862 0.8738 0.0114
vn -0.0234 0.0000 -0.9997
vn 0.4861 -0.8738 -0.0114
vn -0.8736 -0.4863 0.0205
vn 0.8736 0.4863 -0.0205
usemtl Material.002
s off
f 41/57/19 42/58/19 44/59/19 43/60/19
f 43/60/20 44/59/20 48/61/20 47/62/20
f 47/62/21 48/61/21 46/63/21 45/64/21
f 43/60/22 47/62/22 45/65/22 41/66/22
f 48/61/23 44/59/23 42/67/23 46/68/23
o Estela_2_Cube.007
v 0.529609 4.036304 2.556025
v 0.548013 4.067241 2.555593
v 0.517554 4.036304 2.041719
v 0.535959 4.067241 2.041288
v 0.560537 4.017894 2.555300
v 0.578941 4.048831 2.554869
v 0.548482 4.017894 2.040994
v 0.566887 4.048831 2.040563
vt 0.744001 0.084237
vt 0.751716 0.076522
vt 0.861958 0.186765
vt 0.854244 0.194479
vt 0.869673 0.194479
vt 0.861958 0.202194
vt 0.979915 0.304722
vt 0.972201 0.312436
vt 0.751716 0.312436
vt 0.744002 0.304722
vt 0.972201 0.076522
vt 0.979915 0.084237
vn -0.8591 0.5114 0.0201
vn -0.0234 -0.0000 -0.9997
vn 0.8591 -0.5114 -0.0201
vn -0.5112 -0.8594 0.0120
vn 0.5112 0.8594 -0.0120
usemtl Material.002
s off
f 49/69/24 50/70/24 52/71/24 51/72/24
f 51/72/25 52/71/25 56/73/25 55/74/25
f 55/74/26 56/73/26 54/75/26 53/76/26
f 51/72/27 55/74/27 53/77/27 49/78/27
f 56/73/28 52/71/28 50/79/28 54/80/28
o Estela_3_Cube.008
v 0.543615 3.938850 2.556283
v 0.538124 3.903271 2.556411
v 0.520895 3.938850 1.586942
v 0.515404 3.903271 1.587070
v 0.508047 3.944343 2.557116
v 0.502555 3.908764 2.557245
v 0.485327 3.944343 1.587775
v 0.479835 3.908764 1.587904
vt 0.390874 0.024965
vt 0.396746 0.019093
vt 0.554902 0.177249
vt 0.549030 0.183121
vt 0.560774 0.183121
vt 0.554902 0.188993
vt 0.718924 0.341271
vt 0.713052 0.347142
vt 0.396753 0.347142
vt 0.390881 0.341270
vt 0.713052 0.019100
vt 0.718924 0.024972
vn 0.9880 -0.1526 -0.0232
vn -0.0234 -0.0000 -0.9997
vn -0.9880 0.1526 0.0232
vn 0.1525 0.9883 -0.0036
vn -0.1525 -0.9883 0.0036
usemtl Material.002
s off
f 57/81/29 58/82/29 60/83/29 59/84/29
f 59/84/30 60/83/30 64/85/30 63/86/30
f 63/86/31 64/85/31 62/87/31 61/88/31
f 59/84/32 63/86/32 61/89/32 57/90/32
f 64/85/33 60/83/33 58/91/33 62/92/33
o Fogonazo_Cylinder.004
v 0.568792 3.952136 2.397081
v 0.568792 3.952136 2.397081
v 0.568792 3.952136 2.397081
v 0.568792 3.952136 2.397081
v 0.568792 3.952136 2.397081
v 0.568792 3.952136 2.397081
v 0.568792 3.952136 2.397081
v 0.568792 3.952136 2.397081
v 0.568792 3.952136 2.397081
v 0.568792 3.952136 2.397081
v 0.568792 3.952136 2.397081
v 0.568792 3.952136 2.397081
v 0.568792 3.952136 2.397081
v 0.568792 3.952136 2.397081
v 0.568792 3.952136 2.397081
v 0.568792 3.952136 2.397081
v 0.568792 3.952136 2.397081
v 0.568792 3.952136 2.397081
v 0.568792 3.952136 2.397081
v 0.568792 3.952136 2.397081
v 0.568792 3.952136 2.397081
v 0.568792 3.952136 2.397081
v 0.568792 3.952136 2.397081
v 0.568792 3.952136 2.397081
v 0.568792 3.952136 2.397081
vt 0.850869 0.849468
vt 0.865642 0.889005
vt 0.820524 0.881111
vt 0.876722 0.851123
vt 0.884768 0.872295
vt 0.906749 0.910006
vt 0.869594 0.940029
vt 0.905573 0.882033
vt 0.947428 0.894084
vt 0.941664 0.935426
vt 0.927580 0.874303
vt 0.962746 0.854657
vt 0.990508 0.890076
vt 0.936703 0.853058
vt 0.944794 0.815568
vt 0.990508 0.820665
vt 0.928389 0.832052
vt 0.908294 0.798729
vt 0.939540 0.775883
vt 0.907920 0.822792
vt 0.866867 0.807937
vt 0.873982 0.767631
vt 0.886038 0.829976
vt 0.821646 0.809632
vt 0.126448 0.773829
vt 0.125686 0.680795
vt 0.173820 0.655586
vt 0.187849 0.714236
vt 0.081641 0.659384
vt 0.069454 0.714850
vt 0.047074 0.770080
vt 0.018590 0.815527
vt 0.065491 0.834048
vt 0.026885 0.728253
vt 0.077230 0.886821
vt 0.123271 0.863849
vt 0.164572 0.891121
vt 0.182364 0.842979
vt 0.235552 0.829027
vt 0.209102 0.775466
vt 0.235552 0.729784
vn 0.0000 0.0000 1.0000
usemtl Material.002
s off
f 66/93/34 68/94/34 89/95/34
f 66/93/34 67/96/34 69/97/34 68/94/34
f 68/94/34 70/98/34 88/99/34
f 68/94/34 69/97/34 71/100/34 70/98/34
f 70/98/34 72/101/34 87/102/34
f 70/98/34 71/100/34 73/103/34 72/101/34
f 72/101/34 74/104/34 86/105/34
f 72/101/34 73/103/34 75/106/34 74/104/34
f 74/104/34 76/107/34 84/108/34
f 74/104/34 75/106/34 77/109/34 76/107/34
f 76/107/34 78/110/34 85/111/34
f 76/107/34 77/109/34 79/112/34 78/110/34
f 78/110/34 80/113/34 83/114/34
f 78/110/34 79/112/34 81/115/34 80/113/34
f 80/113/34 66/93/34 82/116/34
f 80/113/34 81/115/34 67/96/34 66/93/34
f 65/117/34 80/118/34 82/119/34
f 66/120/34 65/117/34 82/119/34
f 80/118/34 65/117/34 83/121/34
f 65/117/34 78/122/34 83/121/34
f 76/123/34 65/117/34 84/124/34
f 65/117/34 74/125/34 84/124/34
f 78/122/34 65/117/34 85/126/34
f 65/117/34 76/123/34 85/126/34
f 74/125/34 65/117/34 86/127/34
f 65/117/34 72/128/34 86/127/34
f 72/128/34 65/117/34 87/129/34
f 65/117/34 70/130/34 87/129/34
f 70/130/34 65/117/34 88/131/34
f 65/117/34 68/132/34 88/131/34
f 65/117/34 66/120/34 89/133/34
f 68/132/34 65/117/34 89/133/34
f 69/97/34 67/96/34 81/115/34 79/112/34 77/109/34 75/106/34 73/103/34 71/100/34
