# Blender v2.82 (sub 7) OBJ File: 'BalaIzquierda.blend'
# www.blender.org
mtllib BalaIzquierda_000004.mtl
o Bala_Cylinder.003
v 0.510798 3.837902 2.529227
v 0.552009 3.913565 3.201272
v 0.427434 3.905510 2.531553
v 0.515551 3.943133 3.202289
v 0.416275 4.012287 2.531864
v 0.510671 3.989830 3.202425
v 0.483857 4.095683 2.529979
v 0.540227 4.026302 3.201601
v 0.590592 4.106846 2.527002
v 0.586906 4.031184 3.200299
v 0.673955 4.039238 2.524677
v 0.623364 4.001616 3.199282
v 0.685115 3.932462 2.524365
v 0.628244 3.954920 3.199146
v 0.617532 3.849066 2.526250
v 0.598688 3.918447 3.199970
v 0.521762 3.837902 2.922320
v 0.438398 3.905510 2.924645
v 0.427239 4.012287 2.924956
v 0.494821 4.095683 2.923071
v 0.601556 4.106846 2.920094
v 0.684920 4.039238 2.917769
v 0.696079 3.932462 2.917458
v 0.628497 3.849066 2.919343
v 0.564803 3.956687 3.200915
v 0.555077 3.964574 3.201186
v 0.553776 3.977031 3.201223
v 0.561660 3.986760 3.201003
v 0.574112 3.988063 3.200655
v 0.583837 3.980175 3.200384
v 0.585139 3.967718 3.200348
v 0.577255 3.957989 3.200568
v 0.534730 3.918566 2.528560
v 0.501373 3.945619 2.529490
v 0.496907 3.988345 2.529615
v 0.523950 4.021716 2.528861
v 0.566659 4.026183 2.527669
v 0.600017 3.999130 2.526739
v 0.604482 3.956403 2.526614
v 0.577439 3.923033 2.527369
vt 0.571177 0.819618
vt 0.793679 0.842301
vt 0.792020 0.881992
vt 0.561213 0.895770
vt 0.797677 0.921414
vt 0.558627 0.981594
vt 0.784882 0.431415
vt 0.915080 0.649522
vt 0.882098 0.673287
vt 0.725706 0.494938
vt 0.854120 0.701371
vt 0.679164 0.556598
vt 0.830961 0.732764
vt 0.641960 0.618211
vt 0.812842 0.767023
vt 0.611028 0.684809
vt 0.982776 0.396146
vt 0.982776 0.463263
vt 0.923370 0.438657
vt 0.923370 0.420752
vt 0.801537 0.803928
vt 0.587762 0.749802
vt 0.227995 0.416724
vt 0.323726 0.422389
vt 0.291268 0.488982
vt 0.253411 0.486967
vt 0.320555 0.647466
vt 0.289883 0.730852
vt 0.370361 0.577645
vt 0.385540 0.494831
vt 0.426017 0.417005
vt 0.470066 0.340997
vt 0.514875 0.267284
vt 0.263759 0.816919
vt 0.241100 0.904987
vt 0.880146 0.438657
vt 0.880146 0.420752
vt 0.892805 0.408092
vt 0.910710 0.408092
vt 0.910710 0.451317
vt 0.892805 0.451317
vt 0.820740 0.396146
vt 0.868199 0.348686
vt 0.820740 0.463263
vt 0.935317 0.510722
vt 0.868199 0.510722
vt 0.935317 0.348686
vt 0.250323 0.578435
vt 0.223959 0.551121
vt 0.225364 0.512930
vt 0.316167 0.516903
vt 0.313787 0.552663
vt 0.287795 0.578888
vt 0.153818 0.578578
vt 0.156940 0.481709
vt 0.221449 0.648464
vn -0.6021 -0.7517 0.2692
vn -0.9550 -0.1006 0.2790
vn -0.7444 0.6094 0.2731
vn -0.0935 0.9624 0.2550
vn 0.6162 0.7517 0.2352
vn 0.9691 0.1006 0.2253
vn 0.0279 -0.0000 0.9996
vn 0.7584 -0.6094 0.2312
vn 0.1076 -0.9624 0.2494
vn -0.0279 -0.0000 -0.9996
vn 0.1039 -0.9946 -0.0029
vn 0.7765 -0.6297 -0.0217
vn 0.9942 0.1040 -0.0277
vn 0.6295 0.7768 -0.0176
vn -0.1039 0.9946 0.0029
vn -0.7765 0.6297 0.0217
vn -0.9942 -0.1040 0.0277
vn -0.6295 -0.7768 0.0176
usemtl Material.002
s off
f 17/1/1 2/2/1 4/3/1 18/4/1
f 18/4/2 4/3/2 6/5/2 19/6/2
f 19/7/3 6/8/3 8/9/3 20/10/3
f 20/10/4 8/9/4 10/11/4 21/12/4
f 21/12/5 10/11/5 12/13/5 22/14/5
f 22/14/6 12/13/6 14/15/6 23/16/6
f 12/17/7 10/18/7 29/19/7 30/20/7
f 23/16/8 14/15/8 16/21/8 24/22/8
f 24/22/9 16/21/9 2/2/9 17/1/9
f 7/23/10 9/24/10 37/25/10 36/26/10
f 15/27/11 24/22/11 17/1/11 1/28/11
f 13/29/12 23/16/12 24/22/12 15/27/12
f 11/30/13 22/14/13 23/16/13 13/29/13
f 9/31/14 21/12/14 22/14/14 11/30/14
f 7/32/15 20/10/15 21/12/15 9/31/15
f 5/33/16 19/7/16 20/10/16 7/32/16
f 3/34/17 18/4/17 19/6/17 5/35/17
f 1/28/18 17/1/18 18/4/18 3/34/18
f 26/36/7 25/37/7 32/38/7 31/39/7 30/20/7 29/19/7 28/40/7 27/41/7
f 2/42/7 16/43/7 32/38/7 25/37/7
f 4/44/7 2/42/7 25/37/7 26/36/7
f 8/45/7 6/46/7 27/41/7 28/40/7
f 14/47/7 12/17/7 30/20/7 31/39/7
f 10/18/7 8/45/7 28/40/7 29/19/7
f 16/43/7 14/47/7 31/39/7 32/38/7
f 6/46/7 4/44/7 26/36/7 27/41/7
f 33/48/10 34/49/10 35/50/10 36/26/10 37/25/10 38/51/10 39/52/10 40/53/10
f 13/29/10 15/27/10 40/53/10 39/52/10
f 3/54/10 5/55/10 35/50/10 34/49/10
f 9/24/10 11/30/10 38/51/10 37/25/10
f 15/27/10 1/56/10 33/48/10 40/53/10
f 1/56/10 3/54/10 34/49/10 33/48/10
f 5/55/10 7/23/10 36/26/10 35/50/10
f 11/30/10 13/29/10 39/52/10 38/51/10
o Estela_1_Cube.006
v 0.563265 3.964195 2.612891
v 0.563265 3.964195 2.612891
v 0.563265 3.964195 2.612891
v 0.563265 3.964195 2.612891
v 0.563265 3.964195 2.612891
v 0.563265 3.964195 2.612891
v 0.563265 3.964195 2.612891
v 0.563265 3.964195 2.612891
vt 0.029882 0.343262
vt 0.025420 0.338800
vt 0.185305 0.178913
vt 0.189767 0.183375
vt 0.189767 0.174452
vt 0.194229 0.178913
vt 0.349650 0.014568
vt 0.354112 0.019030
vt 0.354112 0.338796
vt 0.349650 0.343258
vt 0.025422 0.019030
vt 0.029884 0.014568
vn 0.0000 0.0000 1.0000
usemtl Material.002
s off
f 41/57/19 42/58/19 44/59/19 43/60/19
f 43/60/19 44/59/19 48/61/19 47/62/19
f 47/62/19 48/61/19 46/63/19 45/64/19
f 43/60/19 47/62/19 45/65/19 41/66/19
f 48/61/19 44/59/19 42/67/19 46/68/19
o Estela_2_Cube.007
v 0.563265 3.964195 2.612892
v 0.563265 3.964195 2.612892
v 0.563265 3.964195 2.612892
v 0.563265 3.964195 2.612892
v 0.563265 3.964195 2.612892
v 0.563265 3.964195 2.612892
v 0.563265 3.964195 2.612892
v 0.563265 3.964195 2.612892
vt 0.744001 0.084237
vt 0.751716 0.076522
vt 0.861958 0.186765
vt 0.854244 0.194479
vt 0.869673 0.194479
vt 0.861958 0.202194
vt 0.979915 0.304722
vt 0.972201 0.312436
vt 0.751716 0.312436
vt 0.744002 0.304722
vt 0.972201 0.076522
vt 0.979915 0.084237
vn 0.0000 0.0000 1.0000
usemtl Material.002
s off
f 49/69/20 50/70/20 52/71/20 51/72/20
f 51/72/20 52/71/20 56/73/20 55/74/20
f 55/74/20 56/73/20 54/75/20 53/76/20
f 51/72/20 55/74/20 53/77/20 49/78/20
f 56/73/20 52/71/20 50/79/20 54/80/20
o Estela_3_Cube.008
v 0.563265 3.964195 2.612891
v 0.563265 3.964195 2.612891
v 0.563265 3.964195 2.612891
v 0.563265 3.964195 2.612891
v 0.563265 3.964195 2.612891
v 0.563265 3.964195 2.612891
v 0.563265 3.964195 2.612891
v 0.563265 3.964195 2.612891
vt 0.390874 0.024965
vt 0.396746 0.019093
vt 0.554902 0.177249
vt 0.549030 0.183121
vt 0.560774 0.183121
vt 0.554902 0.188993
vt 0.718924 0.341271
vt 0.713052 0.347142
vt 0.396753 0.347142
vt 0.390881 0.341270
vt 0.713052 0.019100
vt 0.718924 0.024972
vn 0.0000 0.0000 1.0000
usemtl Material.002
s off
f 57/81/21 58/82/21 60/83/21 59/84/21
f 59/84/21 60/83/21 64/85/21 63/86/21
f 63/86/21 64/85/21 62/87/21 61/88/21
f 59/84/21 63/86/21 61/89/21 57/90/21
f 64/85/21 60/83/21 58/91/21 62/92/21
o Fogonazo_Cylinder.004
v 0.557135 3.969186 2.504497
v 0.623130 4.098373 2.469941
v 0.601384 4.052924 2.545408
v 0.688621 4.013631 2.467148
v 0.647922 3.997760 2.544285
v 0.689488 3.895557 2.468023
v 0.641835 3.925852 2.544432
v 0.600393 3.821366 2.468966
v 0.586689 3.879323 2.545763
v 0.489550 3.839999 2.473165
v 0.514788 3.885428 2.547498
v 0.428855 3.930765 2.477797
v 0.468250 3.940592 2.548621
v 0.433675 4.032650 2.475278
v 0.474336 4.012500 2.548475
v 0.505487 4.121389 2.473652
v 0.529482 4.059029 2.547143
v 0.561233 4.174912 2.340036
v 0.428919 4.126852 2.358608
v 0.414918 3.853052 2.354150
v 0.379722 3.986209 2.376957
v 0.535866 3.768916 2.353525
v 0.681656 3.806397 2.365278
v 0.740509 3.945114 2.327031
v 0.692037 4.093747 2.346737
vt 0.850869 0.849468
vt 0.865642 0.889005
vt 0.820524 0.881111
vt 0.876722 0.851123
vt 0.884768 0.872295
vt 0.906749 0.910006
vt 0.869594 0.940029
vt 0.905573 0.882033
vt 0.947428 0.894084
vt 0.941664 0.935426
vt 0.927580 0.874303
vt 0.962746 0.854657
vt 0.990508 0.890076
vt 0.936703 0.853058
vt 0.944794 0.815568
vt 0.990508 0.820665
vt 0.928389 0.832052
vt 0.908294 0.798729
vt 0.939540 0.775883
vt 0.907920 0.822792
vt 0.866867 0.807937
vt 0.873982 0.767631
vt 0.886038 0.829976
vt 0.821646 0.809632
vt 0.126448 0.773829
vt 0.125686 0.680795
vt 0.173820 0.655586
vt 0.187849 0.714236
vt 0.081641 0.659384
vt 0.069454 0.714850
vt 0.047074 0.770080
vt 0.018590 0.815527
vt 0.065491 0.834048
vt 0.026885 0.728253
vt 0.077230 0.886821
vt 0.123271 0.863849
vt 0.164572 0.891121
vt 0.182364 0.842979
vt 0.235552 0.829027
vt 0.209102 0.775466
vt 0.235552 0.729784
vn 0.7347 0.5550 0.3901
vn 0.6849 0.5346 0.4951
vn 0.9392 0.0094 0.3432
vn 0.8657 -0.0211 0.5001
vn 0.5483 -0.6518 0.5239
vn 0.5315 -0.6243 0.5725
vn -0.1291 -0.8737 0.4691
vn -0.0924 -0.8185 0.5670
vn -0.7477 -0.5210 0.4117
vn -0.6860 -0.5240 0.5049
vn -0.8858 0.0533 0.4609
vn -0.8705 0.0621 0.4883
vn -0.6785 0.5578 0.4780
vn -0.5889 0.5653 0.5776
vn 0.1863 0.8827 0.4313
vn 0.1400 0.8031 0.5791
vn -0.7968 -0.3676 -0.4797
vn 0.6420 -0.4865 -0.5926
vn 0.8240 0.1701 -0.5404
vn -0.2474 -0.7588 -0.6025
vn -0.1460 0.8449 -0.5146
vn 0.7968 -0.2880 -0.5312
vn 0.4775 0.6639 -0.5756
vn 0.3422 -0.7429 -0.5752
vn -0.6766 0.4877 -0.5517
vn 0.7386 0.3540 -0.5737
vn -0.7901 -0.0853 -0.6069
vn 0.2259 0.7272 -0.6482
vn -0.5259 -0.7248 -0.4451
vn -0.4023 0.7548 -0.5181
vn -0.8288 0.2964 -0.4746
vn 0.1244 -0.8277 -0.5472
vn 0.0241 0.0000 0.9997
usemtl Material.002
s off
f 66/93/22 68/94/22 89/95/22
f 66/93/23 67/96/23 69/97/23 68/94/23
f 68/94/24 70/98/24 88/99/24
f 68/94/25 69/97/25 71/100/25 70/98/25
f 70/98/26 72/101/26 87/102/26
f 70/98/27 71/100/27 73/103/27 72/101/27
f 72/101/28 74/104/28 86/105/28
f 72/101/29 73/103/29 75/106/29 74/104/29
f 74/104/30 76/107/30 84/108/30
f 74/104/31 75/106/31 77/109/31 76/107/31
f 76/107/32 78/110/32 85/111/32
f 76/107/33 77/109/33 79/112/33 78/110/33
f 78/110/34 80/113/34 83/114/34
f 78/110/35 79/112/35 81/115/35 80/113/35
f 80/113/36 66/93/36 82/116/36
f 80/113/37 81/115/37 67/96/37 66/93/37
f 65/117/38 80/118/38 82/119/38
f 66/120/39 65/117/39 82/119/39
f 80/118/40 65/117/40 83/121/40
f 65/117/41 78/122/41 83/121/41
f 76/123/42 65/117/42 84/124/42
f 65/117/43 74/125/43 84/124/43
f 78/122/44 65/117/44 85/126/44
f 65/117/45 76/123/45 85/126/45
f 74/125/46 65/117/46 86/127/46
f 65/117/47 72/128/47 86/127/47
f 72/128/48 65/117/48 87/129/48
f 65/117/49 70/130/49 87/129/49
f 70/130/50 65/117/50 88/131/50
f 65/117/51 68/132/51 88/131/51
f 65/117/52 66/120/52 89/133/52
f 68/132/53 65/117/53 89/133/53
f 69/97/54 67/96/54 81/115/54 79/112/54 77/109/54 75/106/54 73/103/54 71/100/54
