# Blender v2.82 (sub 7) OBJ File: 'BalaIzquierda.blend'
# www.blender.org
mtllib BalaIzquierda_000036.mtl
o Bala_Cylinder.003
v 0.683768 4.016572 2.524403
v 0.627654 3.991704 3.199162
v 0.676033 3.909493 2.524619
v 0.624271 3.944874 3.199256
v 0.594876 3.839249 2.526882
v 0.588779 3.914154 3.200246
v 0.487838 3.846987 2.529868
v 0.541967 3.917538 3.201552
v 0.417621 3.928176 2.531826
v 0.511259 3.953044 3.202409
v 0.425357 4.035255 2.531611
v 0.514642 3.999874 3.202314
v 0.506513 4.105499 2.529347
v 0.550135 4.030594 3.201324
v 0.613551 4.097761 2.526361
v 0.596946 4.027210 3.200018
v 0.694732 4.016572 2.917495
v 0.686997 3.909493 2.917711
v 0.605840 3.839249 2.919975
v 0.498803 3.846987 2.922960
v 0.428586 3.928176 2.924919
v 0.436321 4.035255 2.924703
v 0.517478 4.105499 2.922439
v 0.624515 4.097761 2.919454
v 0.584981 3.977530 3.200352
v 0.584079 3.965038 3.200377
v 0.574611 3.956843 3.200642
v 0.562124 3.957746 3.200990
v 0.553932 3.967218 3.201218
v 0.554834 3.979710 3.201193
v 0.564302 3.987905 3.200929
v 0.576789 3.987002 3.200581
v 0.603943 3.990060 2.526629
v 0.600848 3.947213 2.526716
v 0.568373 3.919105 2.527622
v 0.525543 3.922201 2.528816
v 0.497446 3.954688 2.529600
v 0.500541 3.997535 2.529514
v 0.533016 4.025643 2.528608
v 0.575846 4.022547 2.527413
vt 0.571177 0.819618
vt 0.793679 0.842301
vt 0.792020 0.881992
vt 0.561213 0.895770
vt 0.797677 0.921414
vt 0.558627 0.981594
vt 0.784882 0.431415
vt 0.915080 0.649522
vt 0.882098 0.673287
vt 0.725706 0.494938
vt 0.854120 0.701371
vt 0.679164 0.556598
vt 0.830961 0.732764
vt 0.641960 0.618211
vt 0.812842 0.767023
vt 0.611028 0.684809
vt 0.982776 0.396146
vt 0.982776 0.463263
vt 0.923370 0.438657
vt 0.923370 0.420752
vt 0.801537 0.803928
vt 0.587762 0.749802
vt 0.227995 0.416724
vt 0.323726 0.422389
vt 0.291268 0.488982
vt 0.253411 0.486967
vt 0.320555 0.647466
vt 0.289883 0.730852
vt 0.370361 0.577645
vt 0.385540 0.494831
vt 0.426017 0.417005
vt 0.470066 0.340997
vt 0.514875 0.267284
vt 0.263759 0.816919
vt 0.241100 0.904987
vt 0.880146 0.438657
vt 0.880146 0.420752
vt 0.892805 0.408092
vt 0.910710 0.408092
vt 0.910710 0.451317
vt 0.892805 0.451317
vt 0.820740 0.396146
vt 0.868199 0.348686
vt 0.820740 0.463263
vt 0.935317 0.510722
vt 0.868199 0.510722
vt 0.935317 0.348686
vt 0.250323 0.578435
vt 0.223959 0.551121
vt 0.225364 0.512930
vt 0.316167 0.516903
vt 0.313787 0.552663
vt 0.287795 0.578888
vt 0.153818 0.578578
vt 0.156940 0.481709
vt 0.221449 0.648464
vn 0.9718 -0.0697 0.2253
vn 0.6399 -0.7318 0.2345
vn -0.0627 -0.9651 0.2541
vn -0.7245 -0.6331 0.2726
vn -0.9577 0.0697 0.2791
vn -0.6259 0.7318 0.2698
vn 0.0279 0.0000 0.9996
vn 0.0768 0.9651 0.2502
vn 0.7385 0.6331 0.2318
vn -0.0279 0.0000 -0.9996
vn 0.7559 0.6543 -0.0211
vn 0.0720 0.9974 -0.0020
vn -0.6540 0.7562 0.0182
vn -0.9970 0.0721 0.0278
vn -0.7559 -0.6543 0.0211
vn -0.0721 -0.9974 0.0020
vn 0.6540 -0.7562 -0.0182
vn 0.9970 -0.0721 -0.0278
usemtl Material.002
s off
f 17/1/1 2/2/1 4/3/1 18/4/1
f 18/4/2 4/3/2 6/5/2 19/6/2
f 19/7/3 6/8/3 8/9/3 20/10/3
f 20/10/4 8/9/4 10/11/4 21/12/4
f 21/12/5 10/11/5 12/13/5 22/14/5
f 22/14/6 12/13/6 14/15/6 23/16/6
f 12/17/7 10/18/7 29/19/7 30/20/7
f 23/16/8 14/15/8 16/21/8 24/22/8
f 24/22/9 16/21/9 2/2/9 17/1/9
f 7/23/10 9/24/10 37/25/10 36/26/10
f 15/27/11 24/22/11 17/1/11 1/28/11
f 13/29/12 23/16/12 24/22/12 15/27/12
f 11/30/13 22/14/13 23/16/13 13/29/13
f 9/31/14 21/12/14 22/14/14 11/30/14
f 7/32/15 20/10/15 21/12/15 9/31/15
f 5/33/16 19/7/16 20/10/16 7/32/16
f 3/34/17 18/4/17 19/6/17 5/35/17
f 1/28/18 17/1/18 18/4/18 3/34/18
f 26/36/7 25/37/7 32/38/7 31/39/7 30/20/7 29/19/7 28/40/7 27/41/7
f 2/42/7 16/43/7 32/38/7 25/37/7
f 4/44/7 2/42/7 25/37/7 26/36/7
f 8/45/7 6/46/7 27/41/7 28/40/7
f 14/47/7 12/17/7 30/20/7 31/39/7
f 10/18/7 8/45/7 28/40/7 29/19/7
f 16/43/7 14/47/7 31/39/7 32/38/7
f 6/46/7 4/44/7 26/36/7 27/41/7
f 33/48/10 34/49/10 35/50/10 36/26/10 37/25/10 38/51/10 39/52/10 40/53/10
f 13/29/10 15/27/10 40/53/10 39/52/10
f 3/54/10 5/55/10 35/50/10 34/49/10
f 9/24/10 11/30/10 38/51/10 37/25/10
f 15/27/10 1/56/10 33/48/10 40/53/10
f 1/56/10 3/54/10 34/49/10 33/48/10
f 5/55/10 7/23/10 36/26/10 35/50/10
f 11/30/10 13/29/10 39/52/10 38/51/10
o Estela_1_Cube.006
v 0.606664 3.940875 2.554091
v 0.642415 3.945018 2.553253
v 0.576437 3.940875 1.264445
v 0.612188 3.945018 1.263607
v 0.610806 3.905114 2.553993
v 0.646557 3.909257 2.553156
v 0.580579 3.905114 1.264348
v 0.616330 3.909257 1.263510
vt 0.029882 0.343262
vt 0.025420 0.338800
vt 0.185305 0.178913
vt 0.189767 0.183375
vt 0.189767 0.174452
vt 0.194229 0.178913
vt 0.349650 0.014568
vt 0.354112 0.019030
vt 0.354112 0.338796
vt 0.349650 0.343258
vt 0.025422 0.019030
vt 0.029884 0.014568
vn -0.1151 0.9934 0.0027
vn -0.0234 0.0000 -0.9997
vn 0.1151 -0.9934 -0.0027
vn -0.9931 -0.1151 0.0233
vn 0.9931 0.1151 -0.0233
usemtl Material.002
s off
f 41/57/19 42/58/19 44/59/19 43/60/19
f 43/60/20 44/59/20 48/61/20 47/62/20
f 47/62/21 48/61/21 46/63/21 45/64/21
f 43/60/22 47/62/22 45/65/22 41/66/22
f 48/61/23 44/59/23 42/67/23 46/68/23
o Estela_2_Cube.007
v 0.556333 4.046608 2.554767
v 0.585168 4.068151 2.554091
v 0.544279 4.046608 2.040461
v 0.573113 4.068151 2.039785
v 0.577870 4.017766 2.554262
v 0.606705 4.039309 2.553586
v 0.565816 4.017766 2.039956
v 0.594650 4.039309 2.039280
vt 0.744001 0.084237
vt 0.751716 0.076522
vt 0.861958 0.186765
vt 0.854244 0.194479
vt 0.869673 0.194479
vt 0.861958 0.202194
vt 0.979915 0.304722
vt 0.972201 0.312436
vt 0.751716 0.312436
vt 0.744002 0.304722
vt 0.972201 0.076522
vt 0.979915 0.084237
vn -0.5983 0.8012 0.0140
vn -0.0234 0.0000 -0.9997
vn 0.5983 -0.8012 -0.0140
vn -0.8010 -0.5984 0.0188
vn 0.8010 0.5984 -0.0188
usemtl Material.002
s off
f 49/69/24 50/70/24 52/71/24 51/72/24
f 51/72/25 52/71/25 56/73/25 55/74/25
f 55/74/26 56/73/26 54/75/26 53/76/26
f 51/72/27 55/74/27 53/77/27 49/78/27
f 56/73/28 52/71/28 50/79/28 54/80/28
o Estela_3_Cube.008
v 0.532012 3.951211 2.555923
v 0.513333 3.920439 2.556361
v 0.509292 3.951211 1.586582
v 0.490613 3.920439 1.587020
v 0.501248 3.969894 2.556644
v 0.482569 3.939122 2.557082
v 0.478528 3.969894 1.587303
v 0.459849 3.939122 1.587741
vt 0.390874 0.024965
vt 0.396746 0.019093
vt 0.554902 0.177249
vt 0.549030 0.183121
vt 0.560774 0.183121
vt 0.554902 0.188993
vt 0.718924 0.341271
vt 0.713052 0.347142
vt 0.396753 0.347142
vt 0.390881 0.341270
vt 0.713052 0.019100
vt 0.718924 0.024972
vn 0.8545 -0.5190 -0.0200
vn -0.0234 0.0000 -0.9997
vn -0.8545 0.5190 0.0200
vn 0.5188 0.8548 -0.0122
vn -0.5188 -0.8548 0.0122
usemtl Material.002
s off
f 57/81/29 58/82/29 60/83/29 59/84/29
f 59/84/30 60/83/30 64/85/30 63/86/30
f 63/86/31 64/85/31 62/87/31 61/88/31
f 59/84/32 63/86/32 61/89/32 57/90/32
f 64/85/33 60/83/33 58/91/33 62/92/33
o Fogonazo_Cylinder.004
v 0.564637 3.948853 2.397074
v 0.564637 3.948853 2.397074
v 0.564637 3.948853 2.397074
v 0.564637 3.948853 2.397074
v 0.564637 3.948853 2.397074
v 0.564637 3.948853 2.397074
v 0.564637 3.948853 2.397074
v 0.564637 3.948853 2.397074
v 0.564637 3.948853 2.397074
v 0.564637 3.948853 2.397074
v 0.564637 3.948853 2.397074
v 0.564637 3.948853 2.397074
v 0.564637 3.948853 2.397074
v 0.564637 3.948853 2.397074
v 0.564637 3.948853 2.397074
v 0.564637 3.948853 2.397074
v 0.564637 3.948853 2.397074
v 0.564637 3.948853 2.397074
v 0.564637 3.948853 2.397074
v 0.564637 3.948853 2.397074
v 0.564637 3.948853 2.397074
v 0.564637 3.948853 2.397074
v 0.564637 3.948853 2.397074
v 0.564637 3.948853 2.397074
v 0.564637 3.948853 2.397074
vt 0.850869 0.849468
vt 0.865642 0.889005
vt 0.820524 0.881111
vt 0.876722 0.851123
vt 0.884768 0.872295
vt 0.906749 0.910006
vt 0.869594 0.940029
vt 0.905573 0.882033
vt 0.947428 0.894084
vt 0.941664 0.935426
vt 0.927580 0.874303
vt 0.962746 0.854657
vt 0.990508 0.890076
vt 0.936703 0.853058
vt 0.944794 0.815568
vt 0.990508 0.820665
vt 0.928389 0.832052
vt 0.908294 0.798729
vt 0.939540 0.775883
vt 0.907920 0.822792
vt 0.866867 0.807937
vt 0.873982 0.767631
vt 0.886038 0.829976
vt 0.821646 0.809632
vt 0.126448 0.773829
vt 0.125686 0.680795
vt 0.173820 0.655586
vt 0.187849 0.714236
vt 0.081641 0.659384
vt 0.069454 0.714850
vt 0.047074 0.770080
vt 0.018590 0.815527
vt 0.065491 0.834048
vt 0.026885 0.728253
vt 0.077230 0.886821
vt 0.123271 0.863849
vt 0.164572 0.891121
vt 0.182364 0.842979
vt 0.235552 0.829027
vt 0.209102 0.775466
vt 0.235552 0.729784
vn 0.0000 0.0000 1.0000
usemtl Material.002
s off
f 66/93/34 68/94/34 89/95/34
f 66/93/34 67/96/34 69/97/34 68/94/34
f 68/94/34 70/98/34 88/99/34
f 68/94/34 69/97/34 71/100/34 70/98/34
f 70/98/34 72/101/34 87/102/34
f 70/98/34 71/100/34 73/103/34 72/101/34
f 72/101/34 74/104/34 86/105/34
f 72/101/34 73/103/34 75/106/34 74/104/34
f 74/104/34 76/107/34 84/108/34
f 74/104/34 75/106/34 77/109/34 76/107/34
f 76/107/34 78/110/34 85/111/34
f 76/107/34 77/109/34 79/112/34 78/110/34
f 78/110/34 80/113/34 83/114/34
f 78/110/34 79/112/34 81/115/34 80/113/34
f 80/113/34 66/93/34 82/116/34
f 80/113/34 81/115/34 67/96/34 66/93/34
f 65/117/34 80/118/34 82/119/34
f 66/120/34 65/117/34 82/119/34
f 80/118/34 65/117/34 83/121/34
f 65/117/34 78/122/34 83/121/34
f 76/123/34 65/117/34 84/124/34
f 65/117/34 74/125/34 84/124/34
f 78/122/34 65/117/34 85/126/34
f 65/117/34 76/123/34 85/126/34
f 74/125/34 65/117/34 86/127/34
f 65/117/34 72/128/34 86/127/34
f 72/128/34 65/117/34 87/129/34
f 65/117/34 70/130/34 87/129/34
f 70/130/34 65/117/34 88/131/34
f 65/117/34 68/132/34 88/131/34
f 65/117/34 66/120/34 89/133/34
f 68/132/34 65/117/34 89/133/34
f 69/97/34 67/96/34 81/115/34 79/112/34 77/109/34 75/106/34 73/103/34 71/100/34
