# Blender v2.82 (sub 7) OBJ File: 'BalaIzquierda.blend'
# www.blender.org
mtllib BalaIzquierda_000007.mtl
o Bala_Cylinder.003
v 0.463270 3.862708 2.530553
v 0.531224 3.924414 3.201852
v 0.411360 3.956671 2.532001
v 0.508522 3.965507 3.202485
v 0.441071 4.059833 2.531173
v 0.521515 4.010623 3.202122
v 0.534997 4.111763 2.528553
v 0.562593 4.033334 3.200977
v 0.638119 4.082041 2.525676
v 0.607691 4.020336 3.199719
v 0.690029 3.988078 2.524228
v 0.630393 3.979242 3.199085
v 0.660319 3.884915 2.525057
v 0.617400 3.934126 3.199448
v 0.566392 3.832985 2.527677
v 0.576323 3.911415 3.200594
v 0.474234 3.862708 2.923645
v 0.422324 3.956671 2.925093
v 0.452035 4.059833 2.924265
v 0.545962 4.111763 2.921645
v 0.649084 4.082041 2.918768
v 0.700993 3.988078 2.917320
v 0.671283 3.884915 2.918149
v 0.577356 3.832985 2.920769
v 0.559258 3.959581 3.201070
v 0.553203 3.970543 3.201239
v 0.556669 3.982578 3.201142
v 0.567626 3.988636 3.200836
v 0.579657 3.985168 3.200501
v 0.585713 3.974207 3.200332
v 0.582246 3.962172 3.200428
v 0.571289 3.956113 3.200734
v 0.515712 3.928492 2.529090
v 0.494941 3.966091 2.529670
v 0.506829 4.007370 2.529338
v 0.544414 4.028150 2.528290
v 0.585677 4.016257 2.527139
v 0.606449 3.978658 2.526560
v 0.594560 3.937378 2.526891
v 0.556976 3.916599 2.527940
vt 0.571177 0.819618
vt 0.793679 0.842301
vt 0.792020 0.881992
vt 0.561213 0.895770
vt 0.797677 0.921414
vt 0.558627 0.981594
vt 0.784882 0.431415
vt 0.915080 0.649522
vt 0.882098 0.673287
vt 0.725706 0.494938
vt 0.854120 0.701371
vt 0.679164 0.556598
vt 0.830961 0.732764
vt 0.641960 0.618211
vt 0.812842 0.767023
vt 0.611028 0.684809
vt 0.982776 0.396146
vt 0.982776 0.463263
vt 0.923370 0.438657
vt 0.923370 0.420752
vt 0.801537 0.803928
vt 0.587762 0.749802
vt 0.227995 0.416724
vt 0.323726 0.422389
vt 0.291268 0.488982
vt 0.253411 0.486967
vt 0.320555 0.647466
vt 0.289883 0.730852
vt 0.370361 0.577645
vt 0.385540 0.494831
vt 0.426017 0.417005
vt 0.470066 0.340997
vt 0.514875 0.267284
vt 0.263759 0.816919
vt 0.241100 0.904987
vt 0.880146 0.438657
vt 0.880146 0.420752
vt 0.892805 0.408092
vt 0.910710 0.408092
vt 0.910710 0.451317
vt 0.892805 0.451317
vt 0.820740 0.396146
vt 0.868199 0.348686
vt 0.820740 0.463263
vt 0.935317 0.510722
vt 0.868199 0.510722
vt 0.935317 0.348686
vt 0.250323 0.578435
vt 0.223959 0.551121
vt 0.225364 0.512930
vt 0.316167 0.516903
vt 0.313787 0.552663
vt 0.287795 0.578888
vt 0.153818 0.578578
vt 0.156940 0.481709
vt 0.221449 0.648464
vn -0.8396 -0.4681 0.2758
vn -0.9224 0.2679 0.2781
vn -0.4608 0.8469 0.2652
vn 0.2748 0.9298 0.2447
vn 0.8536 0.4681 0.2286
vn 0.9365 -0.2679 0.2263
vn 0.0279 -0.0000 0.9996
vn 0.4749 -0.8469 0.2391
vn -0.2608 -0.9298 0.2597
vn -0.0279 -0.0000 -0.9996
vn -0.2767 -0.9609 0.0077
vn 0.4835 -0.8752 -0.0135
vn 0.9605 -0.2768 -0.0268
vn 0.8749 0.4837 -0.0244
vn 0.2767 0.9609 -0.0077
vn -0.4835 0.8752 0.0135
vn -0.9605 0.2768 0.0268
vn -0.8749 -0.4837 0.0244
usemtl Material.002
s off
f 17/1/1 2/2/1 4/3/1 18/4/1
f 18/4/2 4/3/2 6/5/2 19/6/2
f 19/7/3 6/8/3 8/9/3 20/10/3
f 20/10/4 8/9/4 10/11/4 21/12/4
f 21/12/5 10/11/5 12/13/5 22/14/5
f 22/14/6 12/13/6 14/15/6 23/16/6
f 12/17/7 10/18/7 29/19/7 30/20/7
f 23/16/8 14/15/8 16/21/8 24/22/8
f 24/22/9 16/21/9 2/2/9 17/1/9
f 7/23/10 9/24/10 37/25/10 36/26/10
f 15/27/11 24/22/11 17/1/11 1/28/11
f 13/29/12 23/16/12 24/22/12 15/27/12
f 11/30/13 22/14/13 23/16/13 13/29/13
f 9/31/14 21/12/14 22/14/14 11/30/14
f 7/32/15 20/10/15 21/12/15 9/31/15
f 5/33/16 19/7/16 20/10/16 7/32/16
f 3/34/17 18/4/17 19/6/17 5/35/17
f 1/28/18 17/1/18 18/4/18 3/34/18
f 26/36/7 25/37/7 32/38/7 31/39/7 30/20/7 29/19/7 28/40/7 27/41/7
f 2/42/7 16/43/7 32/38/7 25/37/7
f 4/44/7 2/42/7 25/37/7 26/36/7
f 8/45/7 6/46/7 27/41/7 28/40/7
f 14/47/7 12/17/7 30/20/7 31/39/7
f 10/18/7 8/45/7 28/40/7 29/19/7
f 16/43/7 14/47/7 31/39/7 32/38/7
f 6/46/7 4/44/7 26/36/7 27/41/7
f 33/48/10 34/49/10 35/50/10 36/26/10 37/25/10 38/51/10 39/52/10 40/53/10
f 13/29/10 15/27/10 40/53/10 39/52/10
f 3/54/10 5/55/10 35/50/10 34/49/10
f 9/24/10 11/30/10 38/51/10 37/25/10
f 15/27/10 1/56/10 33/48/10 40/53/10
f 1/56/10 3/54/10 34/49/10 33/48/10
f 5/55/10 7/23/10 36/26/10 35/50/10
f 11/30/10 13/29/10 39/52/10 38/51/10
o Estela_1_Cube.006
v 0.568667 3.975380 2.601650
v 0.567358 3.982460 2.601681
v 0.562621 3.975380 2.343721
v 0.561313 3.982460 2.343751
v 0.575745 3.976688 2.601484
v 0.574436 3.983768 2.601515
v 0.569699 3.976688 2.343555
v 0.568391 3.983768 2.343585
vt 0.029882 0.343262
vt 0.025420 0.338800
vt 0.185305 0.178913
vt 0.189767 0.183375
vt 0.189767 0.174452
vt 0.194229 0.178913
vt 0.349650 0.014568
vt 0.354112 0.019030
vt 0.354112 0.338796
vt 0.349650 0.343258
vt 0.025422 0.019030
vt 0.029884 0.014568
vn -0.9831 -0.1817 0.0230
vn -0.0234 -0.0000 -0.9997
vn 0.9831 0.1818 -0.0230
vn 0.1817 -0.9833 -0.0043
vn -0.1817 0.9833 0.0043
usemtl Material.002
s off
f 41/57/19 42/58/19 44/59/19 43/60/19
f 43/60/20 44/59/20 48/61/20 47/62/20
f 47/62/21 48/61/21 46/63/21 45/64/21
f 43/60/22 47/62/22 45/65/22 41/66/22
f 48/61/23 44/59/23 42/67/23 46/68/23
o Estela_2_Cube.007
v 0.548250 3.963912 2.602028
v 0.543563 3.969377 2.602138
v 0.545839 3.963912 2.499167
v 0.541153 3.969377 2.499277
v 0.553713 3.968599 2.601900
v 0.549027 3.974064 2.602010
v 0.551302 3.968599 2.499039
v 0.546616 3.974064 2.499149
vt 0.744001 0.084237
vt 0.751716 0.076522
vt 0.861958 0.186765
vt 0.854244 0.194479
vt 0.869673 0.194479
vt 0.861958 0.202194
vt 0.979915 0.304722
vt 0.972201 0.312436
vt 0.751716 0.312436
vt 0.744002 0.304722
vt 0.972201 0.076522
vt 0.979915 0.084237
vn -0.7588 -0.6510 0.0178
vn -0.0234 -0.0000 -0.9997
vn 0.7588 0.6510 -0.0178
vn 0.6508 -0.7591 -0.0153
vn -0.6509 0.7590 0.0153
usemtl Material.002
s off
f 49/69/24 50/70/24 52/71/24 51/72/24
f 51/72/25 52/71/25 56/73/25 55/74/25
f 55/74/26 56/73/26 54/75/26 53/76/26
f 51/72/27 55/74/27 53/77/27 49/78/27
f 56/73/28 52/71/28 50/79/28 54/80/28
o Estela_3_Cube.008
v 0.567611 3.960339 2.601691
v 0.574002 3.957026 2.601541
v 0.563067 3.960339 2.407823
v 0.569458 3.957026 2.407673
v 0.564299 3.953947 2.601769
v 0.570689 3.950634 2.601619
v 0.559755 3.953947 2.407901
v 0.566145 3.950634 2.407751
vt 0.390874 0.024965
vt 0.396746 0.019093
vt 0.554902 0.177249
vt 0.549030 0.183121
vt 0.560774 0.183121
vt 0.554902 0.188993
vt 0.718924 0.341271
vt 0.713052 0.347142
vt 0.396753 0.347142
vt 0.390881 0.341270
vt 0.713052 0.019100
vt 0.718924 0.024972
vn 0.4601 0.8878 -0.0108
vn -0.0234 -0.0000 -0.9997
vn -0.4601 -0.8878 0.0108
vn -0.8876 0.4602 0.0208
vn 0.8876 -0.4602 -0.0208
usemtl Material.002
s off
f 57/81/29 58/82/29 60/83/29 59/84/29
f 59/84/30 60/83/30 64/85/30 63/86/30
f 63/86/31 64/85/31 62/87/31 61/88/31
f 59/84/32 63/86/32 61/89/32 57/90/32
f 64/85/33 60/83/33 58/91/33 62/92/33
o Fogonazo_Cylinder.004
v 0.559461 3.967190 2.504494
v 0.691295 4.061170 2.468256
v 0.646430 4.028136 2.544316
v 0.712815 3.943366 2.466509
v 0.664318 3.949454 2.543872
v 0.653052 3.825682 2.468889
v 0.621354 3.881174 2.544939
v 0.526488 3.797755 2.470824
v 0.542705 3.863294 2.546892
v 0.425991 3.873209 2.474845
v 0.474442 3.906287 2.548588
v 0.412328 3.994556 2.478351
v 0.456554 3.984970 2.549032
v 0.469424 4.093225 2.474530
v 0.499518 4.053249 2.547965
v 0.586294 4.144461 2.471735
v 0.578167 4.071129 2.546012
v 0.669016 4.167339 2.337404
v 0.512967 4.187765 2.356658
v 0.358479 3.923008 2.355698
v 0.391918 4.073585 2.376827
v 0.435383 3.777365 2.356083
v 0.599408 3.739891 2.367283
v 0.729039 3.846955 2.327234
v 0.757238 4.019678 2.345071
vt 0.850869 0.849468
vt 0.865642 0.889005
vt 0.820524 0.881111
vt 0.876722 0.851123
vt 0.884768 0.872295
vt 0.906749 0.910006
vt 0.869594 0.940029
vt 0.905573 0.882033
vt 0.947428 0.894084
vt 0.941664 0.935426
vt 0.927580 0.874303
vt 0.962746 0.854657
vt 0.990508 0.890076
vt 0.936703 0.853058
vt 0.944794 0.815568
vt 0.990508 0.820665
vt 0.928389 0.832052
vt 0.908294 0.798729
vt 0.939540 0.775883
vt 0.907920 0.822792
vt 0.866867 0.807937
vt 0.873982 0.767631
vt 0.886038 0.829976
vt 0.821646 0.809632
vt 0.126448 0.773829
vt 0.125686 0.680795
vt 0.173820 0.655586
vt 0.187849 0.714236
vt 0.081641 0.659384
vt 0.069454 0.714850
vt 0.047074 0.770080
vt 0.018590 0.815527
vt 0.065491 0.834048
vt 0.026885 0.728253
vt 0.077230 0.886821
vt 0.123271 0.863849
vt 0.164572 0.891121
vt 0.182364 0.842979
vt 0.235552 0.829027
vt 0.209102 0.775466
vt 0.235552 0.729784
vn 0.8917 0.1566 0.4246
vn 0.8304 0.1606 0.5335
vn 0.8272 -0.4123 0.3818
vn 0.7380 -0.3975 0.5453
vn 0.1846 -0.7968 0.5753
vn 0.1816 -0.7604 0.6235
vn -0.4995 -0.6930 0.5198
vn -0.4373 -0.6529 0.6185
vn -0.8840 -0.1126 0.4538
vn -0.8227 -0.1406 0.5508
vn -0.7419 0.4486 0.4984
vn -0.7223 0.4483 0.5266
vn -0.3348 0.7916 0.5112
vn -0.2502 0.7499 0.6124
vn 0.5605 0.6872 0.4622
vn 0.4770 0.6294 0.6134
vn -0.8535 0.0331 -0.5200
vn 0.3298 -0.7048 -0.6280
vn 0.7808 -0.2258 -0.5825
vn -0.5473 -0.5425 -0.6373
vn 0.2469 0.7859 -0.5669
vn 0.5544 -0.6080 -0.5683
vn 0.6982 0.3504 -0.6243
vn -0.0392 -0.7923 -0.6089
vn -0.3661 0.7098 -0.6018
vn 0.7854 -0.0300 -0.6183
vn -0.7110 0.2676 -0.6503
vn 0.5051 0.5094 -0.6967
vn -0.7826 -0.3970 -0.4794
vn -0.0136 0.8214 -0.5702
vn -0.5855 0.6200 -0.5223
vn -0.2635 -0.7704 -0.5805
vn 0.0248 0.0000 0.9997
usemtl Material.002
s off
f 66/93/34 68/94/34 89/95/34
f 66/93/35 67/96/35 69/97/35 68/94/35
f 68/94/36 70/98/36 88/99/36
f 68/94/37 69/97/37 71/100/37 70/98/37
f 70/98/38 72/101/38 87/102/38
f 70/98/39 71/100/39 73/103/39 72/101/39
f 72/101/40 74/104/40 86/105/40
f 72/101/41 73/103/41 75/106/41 74/104/41
f 74/104/42 76/107/42 84/108/42
f 74/104/43 75/106/43 77/109/43 76/107/43
f 76/107/44 78/110/44 85/111/44
f 76/107/45 77/109/45 79/112/45 78/110/45
f 78/110/46 80/113/46 83/114/46
f 78/110/47 79/112/47 81/115/47 80/113/47
f 80/113/48 66/93/48 82/116/48
f 80/113/49 81/115/49 67/96/49 66/93/49
f 65/117/50 80/118/50 82/119/50
f 66/120/51 65/117/51 82/119/51
f 80/118/52 65/117/52 83/121/52
f 65/117/53 78/122/53 83/121/53
f 76/123/54 65/117/54 84/124/54
f 65/117/55 74/125/55 84/124/55
f 78/122/56 65/117/56 85/126/56
f 65/117/57 76/123/57 85/126/57
f 74/125/58 65/117/58 86/127/58
f 65/117/59 72/128/59 86/127/59
f 72/128/60 65/117/60 87/129/60
f 65/117/61 70/130/61 87/129/61
f 70/130/62 65/117/62 88/131/62
f 65/117/63 68/132/63 88/131/63
f 65/117/64 66/120/64 89/133/64
f 68/132/65 65/117/65 89/133/65
f 69/97/66 67/96/66 81/115/66 79/112/66 77/109/66 75/106/66 73/103/66 71/100/66
