# Blender v2.82 (sub 7) OBJ File: 'BalaIzquierda.blend'
# www.blender.org
mtllib BalaIzquierda_000009.mtl
o Bala_Cylinder.003
v 0.438323 3.888479 2.531249
v 0.520313 3.935684 3.202156
v 0.411935 3.992541 2.531985
v 0.508773 3.981194 3.202478
v 0.466832 4.084790 2.530454
v 0.532781 4.021538 3.201808
v 0.570854 4.111187 2.527552
v 0.578274 4.033082 3.200539
v 0.663067 4.056270 2.524980
v 0.618602 4.009065 3.199414
v 0.689454 3.952207 2.524244
v 0.630142 3.963555 3.199093
v 0.634558 3.859958 2.525776
v 0.606134 3.923211 3.199762
v 0.530536 3.833561 2.528677
v 0.560641 3.911667 3.201031
v 0.449287 3.888479 2.924341
v 0.422900 3.992541 2.925077
v 0.477796 4.084790 2.923546
v 0.581818 4.111187 2.920645
v 0.674031 4.056270 2.918072
v 0.700418 3.952207 2.917336
v 0.645522 3.859958 2.918868
v 0.541500 3.833561 2.921769
v 0.556348 3.962587 3.201151
v 0.553270 3.974727 3.201237
v 0.559674 3.985489 3.201058
v 0.571809 3.988569 3.200720
v 0.582567 3.982162 3.200419
v 0.585645 3.970022 3.200334
v 0.579241 3.959260 3.200512
v 0.567106 3.956180 3.200851
v 0.505730 3.938804 2.529369
v 0.495171 3.980444 2.529664
v 0.517137 4.017357 2.529051
v 0.558761 4.027920 2.527890
v 0.595660 4.005945 2.526860
v 0.606218 3.964305 2.526566
v 0.584252 3.927392 2.527179
v 0.542628 3.916829 2.528340
vt 0.571177 0.819618
vt 0.793679 0.842301
vt 0.792020 0.881992
vt 0.561213 0.895770
vt 0.797677 0.921414
vt 0.558627 0.981594
vt 0.784882 0.431415
vt 0.915080 0.649522
vt 0.882098 0.673287
vt 0.725706 0.494938
vt 0.854120 0.701371
vt 0.679164 0.556598
vt 0.830961 0.732764
vt 0.641960 0.618211
vt 0.812842 0.767023
vt 0.611028 0.684809
vt 0.982776 0.396146
vt 0.982776 0.463263
vt 0.923370 0.438657
vt 0.923370 0.420752
vt 0.801537 0.803928
vt 0.587762 0.749802
vt 0.227995 0.416724
vt 0.323726 0.422389
vt 0.291268 0.488982
vt 0.253411 0.486967
vt 0.320555 0.647466
vt 0.289883 0.730852
vt 0.370361 0.577645
vt 0.385540 0.494831
vt 0.426017 0.417005
vt 0.470066 0.340997
vt 0.514875 0.267284
vt 0.263759 0.816919
vt 0.241100 0.904987
vt 0.880146 0.438657
vt 0.880146 0.420752
vt 0.892805 0.408092
vt 0.910710 0.408092
vt 0.910710 0.451317
vt 0.892805 0.451317
vt 0.820740 0.396146
vt 0.868199 0.348686
vt 0.820740 0.463263
vt 0.935317 0.510722
vt 0.868199 0.510722
vt 0.935317 0.348686
vt 0.250323 0.578435
vt 0.223959 0.551121
vt 0.225364 0.512930
vt 0.316167 0.516903
vt 0.313787 0.552663
vt 0.287795 0.578888
vt 0.153818 0.578578
vt 0.156940 0.481709
vt 0.221449 0.648464
vn -0.9305 -0.2379 0.2783
vn -0.8241 0.4950 0.2754
vn -0.2308 0.9379 0.2588
vn 0.5018 0.8315 0.2384
vn 0.9446 0.2379 0.2260
vn 0.8382 -0.4950 0.2290
vn 0.0279 -0.0000 0.9996
vn 0.2449 -0.9379 0.2455
vn -0.4878 -0.8315 0.2660
vn -0.0279 -0.0000 -0.9996
vn -0.5113 -0.8593 0.0143
vn 0.2458 -0.9693 -0.0069
vn 0.8589 -0.5115 -0.0240
vn 0.9689 0.2459 -0.0270
vn 0.5113 0.8593 -0.0143
vn -0.2458 0.9693 0.0069
vn -0.8589 0.5115 0.0240
vn -0.9689 -0.2459 0.0270
usemtl Material.002
s off
f 17/1/1 2/2/1 4/3/1 18/4/1
f 18/4/2 4/3/2 6/5/2 19/6/2
f 19/7/3 6/8/3 8/9/3 20/10/3
f 20/10/4 8/9/4 10/11/4 21/12/4
f 21/12/5 10/11/5 12/13/5 22/14/5
f 22/14/6 12/13/6 14/15/6 23/16/6
f 12/17/7 10/18/7 29/19/7 30/20/7
f 23/16/8 14/15/8 16/21/8 24/22/8
f 24/22/9 16/21/9 2/2/9 17/1/9
f 7/23/10 9/24/10 37/25/10 36/26/10
f 15/27/11 24/22/11 17/1/11 1/28/11
f 13/29/12 23/16/12 24/22/12 15/27/12
f 11/30/13 22/14/13 23/16/13 13/29/13
f 9/31/14 21/12/14 22/14/14 11/30/14
f 7/32/15 20/10/15 21/12/15 9/31/15
f 5/33/16 19/7/16 20/10/16 7/32/16
f 3/34/17 18/4/17 19/6/17 5/35/17
f 1/28/18 17/1/18 18/4/18 3/34/18
f 26/36/7 25/37/7 32/38/7 31/39/7 30/20/7 29/19/7 28/40/7 27/41/7
f 2/42/7 16/43/7 32/38/7 25/37/7
f 4/44/7 2/42/7 25/37/7 26/36/7
f 8/45/7 6/46/7 27/41/7 28/40/7
f 14/47/7 12/17/7 30/20/7 31/39/7
f 10/18/7 8/45/7 28/40/7 29/19/7
f 16/43/7 14/47/7 31/39/7 32/38/7
f 6/46/7 4/44/7 26/36/7 27/41/7
f 33/48/10 34/49/10 35/50/10 36/26/10 37/25/10 38/51/10 39/52/10 40/53/10
f 13/29/10 15/27/10 40/53/10 39/52/10
f 3/54/10 5/55/10 35/50/10 34/49/10
f 9/24/10 11/30/10 38/51/10 37/25/10
f 15/27/10 1/56/10 33/48/10 40/53/10
f 1/56/10 3/54/10 34/49/10 33/48/10
f 5/55/10 7/23/10 36/26/10 35/50/10
f 11/30/10 13/29/10 39/52/10 38/51/10
o Estela_1_Cube.006
v 0.575297 3.985446 2.590380
v 0.573621 3.999749 2.590419
v 0.563206 3.985446 2.074522
v 0.561530 3.999749 2.074561
v 0.589595 3.987122 2.590045
v 0.587920 4.001424 2.590084
v 0.577504 3.987122 2.074187
v 0.575829 4.001424 2.074226
vt 0.029882 0.343262
vt 0.025420 0.338800
vt 0.185305 0.178913
vt 0.189767 0.183375
vt 0.189767 0.174452
vt 0.194229 0.178913
vt 0.349650 0.014568
vt 0.354112 0.019030
vt 0.354112 0.338796
vt 0.349650 0.343258
vt 0.025422 0.019030
vt 0.029884 0.014568
vn -0.9929 -0.1164 0.0233
vn -0.0234 0.0000 -0.9997
vn 0.9929 0.1164 -0.0233
vn 0.1163 -0.9932 -0.0027
vn -0.1163 0.9932 0.0027
usemtl Material.002
s off
f 41/57/19 42/58/19 44/59/19 43/60/19
f 43/60/20 44/59/20 48/61/20 47/62/20
f 47/62/21 48/61/21 46/63/21 45/64/21
f 43/60/22 47/62/22 45/65/22 41/66/22
f 48/61/23 44/59/23 42/67/23 46/68/23
o Estela_2_Cube.007
v 0.533037 3.965259 2.591169
v 0.524407 3.976785 2.591372
v 0.528215 3.965259 2.385447
v 0.519585 3.976785 2.385649
v 0.544559 3.973891 2.590899
v 0.535929 3.985417 2.591102
v 0.539737 3.973891 2.385177
v 0.531108 3.985417 2.385379
vt 0.744001 0.084237
vt 0.751716 0.076522
vt 0.861958 0.186765
vt 0.854244 0.194479
vt 0.869673 0.194479
vt 0.861958 0.202194
vt 0.979915 0.304722
vt 0.972201 0.312436
vt 0.751716 0.312436
vt 0.744002 0.304722
vt 0.972201 0.076522
vt 0.979915 0.084237
vn -0.8002 -0.5995 0.0188
vn -0.0234 -0.0000 -0.9997
vn 0.8002 0.5995 -0.0188
vn 0.5993 -0.8004 -0.0140
vn -0.5993 0.8004 0.0140
usemtl Material.002
s off
f 49/69/24 50/70/24 52/71/24 51/72/24
f 51/72/25 52/71/25 56/73/25 55/74/25
f 55/74/26 56/73/26 54/75/26 53/76/26
f 51/72/27 55/74/27 53/77/27 49/78/27
f 56/73/28 52/71/28 50/79/28 54/80/28
o Estela_3_Cube.008
v 0.571203 3.955571 2.590509
v 0.583518 3.948113 2.590220
v 0.562115 3.955571 2.202773
v 0.574430 3.948113 2.202484
v 0.563747 3.943253 2.590684
v 0.576063 3.935795 2.590395
v 0.554660 3.943253 2.202947
v 0.566975 3.935795 2.202659
vt 0.390874 0.024965
vt 0.396746 0.019093
vt 0.554902 0.177249
vt 0.549030 0.183121
vt 0.560774 0.183121
vt 0.554902 0.188993
vt 0.718924 0.341271
vt 0.713052 0.347142
vt 0.396753 0.347142
vt 0.390881 0.341270
vt 0.713052 0.019100
vt 0.718924 0.024972
vn 0.5178 0.8554 -0.0121
vn -0.0234 0.0000 -0.9997
vn -0.5177 -0.8555 0.0121
vn -0.8552 0.5179 0.0200
vn 0.8552 -0.5179 -0.0200
usemtl Material.002
s off
f 57/81/29 58/82/29 60/83/29 59/84/29
f 59/84/30 60/83/30 64/85/30 63/86/30
f 63/86/31 64/85/31 62/87/31 61/88/31
f 59/84/32 63/86/32 61/89/32 57/90/32
f 64/85/33 60/83/33 58/91/33 62/92/33
o Fogonazo_Cylinder.004
v 0.561002 3.965857 2.504493
v 0.726486 4.016968 2.467341
v 0.669821 3.999036 2.543724
v 0.708927 3.889993 2.466573
v 0.661666 3.913057 2.543930
v 0.608775 3.790380 2.470003
v 0.595131 3.858034 2.545613
v 0.470759 3.804369 2.472286
v 0.509189 3.866199 2.547787
v 0.393851 3.914746 2.475757
v 0.454185 3.932768 2.549179
v 0.420584 4.042708 2.478247
v 0.462339 4.018747 2.548973
v 0.511659 4.123871 2.473540
v 0.528875 4.073770 2.547289
v 0.647623 4.136816 2.470208
v 0.614817 4.065605 2.545115
v 0.739371 4.131269 2.335604
v 0.587568 4.204425 2.354824
v 0.341882 3.986978 2.356244
v 0.426285 4.129036 2.376068
v 0.371307 3.813181 2.357794
v 0.525514 3.720277 2.369166
v 0.693138 3.785394 2.328095
v 0.779628 3.951692 2.344445
vt 0.850869 0.849468
vt 0.865642 0.889005
vt 0.820524 0.881111
vt 0.876722 0.851123
vt 0.884768 0.872295
vt 0.906749 0.910006
vt 0.869594 0.940029
vt 0.905573 0.882033
vt 0.947428 0.894084
vt 0.941664 0.935426
vt 0.927580 0.874303
vt 0.962746 0.854657
vt 0.990508 0.890076
vt 0.936703 0.853058
vt 0.944794 0.815568
vt 0.990508 0.820665
vt 0.928389 0.832052
vt 0.908294 0.798729
vt 0.939540 0.775883
vt 0.907920 0.822792
vt 0.866867 0.807937
vt 0.873982 0.767631
vt 0.886038 0.829976
vt 0.821646 0.809632
vt 0.126448 0.773829
vt 0.125686 0.680795
vt 0.173820 0.655586
vt 0.187849 0.714236
vt 0.081641 0.659384
vt 0.069454 0.714850
vt 0.047074 0.770080
vt 0.018590 0.815527
vt 0.065491 0.834048
vt 0.026885 0.728253
vt 0.077230 0.886821
vt 0.123271 0.863849
vt 0.164572 0.891121
vt 0.182364 0.842979
vt 0.235552 0.829027
vt 0.209102 0.775466
vt 0.235552 0.729784
vn 0.8847 -0.1251 0.4490
vn 0.8227 -0.1008 0.5595
vn 0.6505 -0.6399 0.4092
vn 0.5656 -0.5907 0.5755
vn -0.0701 -0.7910 0.6078
vn -0.0614 -0.7529 0.6552
vn -0.6769 -0.4889 0.5503
vn -0.6014 -0.4662 0.6488
vn -0.8617 0.1707 0.4779
vn -0.8072 0.1255 0.5768
vn -0.5535 0.6512 0.5193
vn -0.5341 0.6438 0.5480
vn -0.0675 0.8451 0.5303
vn -0.0010 0.7748 0.6322
vn 0.7368 0.4733 0.4827
vn 0.6343 0.4410 0.6350
vn -0.7857 0.2883 -0.5474
vn 0.0882 -0.7566 -0.6479
vn 0.6541 -0.4529 -0.6058
vn -0.6714 -0.3388 -0.6592
vn 0.4678 0.6502 -0.5987
vn 0.3272 -0.7390 -0.5889
vn 0.7507 0.1067 -0.6519
vn -0.2796 -0.7256 -0.6287
vn -0.1245 0.7636 -0.6336
vn 0.7160 -0.2719 -0.6429
vn -0.5756 0.4569 -0.6782
vn 0.6160 0.3100 -0.7242
vn -0.8539 -0.1336 -0.5030
vn 0.2364 0.7622 -0.6027
vn -0.3567 0.7523 -0.5538
vn -0.4813 -0.6381 -0.6010
vn 0.0253 0.0000 0.9997
usemtl Material.002
s off
f 66/93/34 68/94/34 89/95/34
f 66/93/35 67/96/35 69/97/35 68/94/35
f 68/94/36 70/98/36 88/99/36
f 68/94/37 69/97/37 71/100/37 70/98/37
f 70/98/38 72/101/38 87/102/38
f 70/98/39 71/100/39 73/103/39 72/101/39
f 72/101/40 74/104/40 86/105/40
f 72/101/41 73/103/41 75/106/41 74/104/41
f 74/104/42 76/107/42 84/108/42
f 74/104/43 75/106/43 77/109/43 76/107/43
f 76/107/44 78/110/44 85/111/44
f 76/107/45 77/109/45 79/112/45 78/110/45
f 78/110/46 80/113/46 83/114/46
f 78/110/47 79/112/47 81/115/47 80/113/47
f 80/113/48 66/93/48 82/116/48
f 80/113/49 81/115/49 67/96/49 66/93/49
f 65/117/50 80/118/50 82/119/50
f 66/120/51 65/117/51 82/119/51
f 80/118/52 65/117/52 83/121/52
f 65/117/53 78/122/53 83/121/53
f 76/123/54 65/117/54 84/124/54
f 65/117/55 74/125/55 84/124/55
f 78/122/56 65/117/56 85/126/56
f 65/117/57 76/123/57 85/126/57
f 74/125/58 65/117/58 86/127/58
f 65/117/59 72/128/59 86/127/59
f 72/128/60 65/117/60 87/129/60
f 65/117/61 70/130/61 87/129/61
f 70/130/62 65/117/62 88/131/62
f 65/117/63 68/132/63 88/131/63
f 65/117/64 66/120/64 89/133/64
f 68/132/65 65/117/65 89/133/65
f 69/97/66 67/96/66 81/115/66 79/112/66 77/109/66 75/106/66 73/103/66 71/100/66
