# Blender v2.82 (sub 7) OBJ File: 'BalaIzquierda.blend'
# www.blender.org
mtllib BalaIzquierda_000010.mtl
o Bala_Cylinder.003
v 0.428521 3.903543 2.531523
v 0.516027 3.942272 3.202276
v 0.415652 4.010127 2.531881
v 0.510399 3.988885 3.202433
v 0.481890 4.094595 2.530034
v 0.539367 4.025826 3.201624
v 0.588432 4.107469 2.527062
v 0.585962 4.031456 3.200325
v 0.672868 4.041206 2.524707
v 0.622889 4.002477 3.199295
v 0.685737 3.934622 2.524348
v 0.628516 3.955864 3.199138
v 0.619499 3.850153 2.526196
v 0.599548 3.918923 3.199946
v 0.512957 3.837280 2.529167
v 0.552954 3.913293 3.201246
v 0.439485 3.903543 2.924615
v 0.426617 4.010127 2.924973
v 0.492854 4.094595 2.923126
v 0.599397 4.107469 2.920154
v 0.683833 4.041206 2.917799
v 0.696701 3.934622 2.917440
v 0.630464 3.850153 2.919288
v 0.523921 3.837280 2.922260
v 0.555205 3.964345 3.201183
v 0.553703 3.976779 3.201225
v 0.561431 3.986633 3.201009
v 0.573860 3.988135 3.200662
v 0.583711 3.980404 3.200388
v 0.585212 3.967970 3.200346
v 0.577485 3.958116 3.200561
v 0.565055 3.956614 3.200908
v 0.501808 3.944832 2.529478
v 0.496658 3.987481 2.529622
v 0.523163 4.021280 2.528883
v 0.565795 4.026432 2.527694
v 0.599582 3.999917 2.526751
v 0.604731 3.957268 2.526608
v 0.578227 3.923468 2.527347
v 0.535594 3.918317 2.528536
vt 0.571177 0.819618
vt 0.793679 0.842301
vt 0.792020 0.881992
vt 0.561213 0.895770
vt 0.797677 0.921414
vt 0.558627 0.981594
vt 0.784882 0.431415
vt 0.915080 0.649522
vt 0.882098 0.673287
vt 0.725706 0.494938
vt 0.854120 0.701371
vt 0.679164 0.556598
vt 0.830961 0.732764
vt 0.641960 0.618211
vt 0.812842 0.767023
vt 0.611028 0.684809
vt 0.982776 0.396146
vt 0.982776 0.463263
vt 0.923370 0.438657
vt 0.923370 0.420752
vt 0.801537 0.803928
vt 0.587762 0.749802
vt 0.227995 0.416724
vt 0.323726 0.422389
vt 0.291268 0.488982
vt 0.253411 0.486967
vt 0.320555 0.647466
vt 0.289883 0.730852
vt 0.370361 0.577645
vt 0.385540 0.494831
vt 0.426017 0.417005
vt 0.470066 0.340997
vt 0.514875 0.267284
vt 0.263759 0.816919
vt 0.241100 0.904987
vt 0.880146 0.438657
vt 0.880146 0.420752
vt 0.892805 0.408092
vt 0.910710 0.408092
vt 0.910710 0.451317
vt 0.892805 0.451317
vt 0.820740 0.396146
vt 0.868199 0.348686
vt 0.820740 0.463263
vt 0.935317 0.510722
vt 0.868199 0.510722
vt 0.935317 0.348686
vt 0.250323 0.578435
vt 0.223959 0.551121
vt 0.225364 0.512930
vt 0.316167 0.516903
vt 0.313787 0.552663
vt 0.287795 0.578888
vt 0.153818 0.578578
vt 0.156940 0.481709
vt 0.221449 0.648464
vn -0.9533 -0.1160 0.2790
vn -0.7540 0.5973 0.2734
vn -0.1090 0.9607 0.2554
vn 0.6041 0.7613 0.2355
vn 0.9673 0.1160 0.2254
vn 0.7681 -0.5972 0.2310
vn 0.0279 0.0000 0.9996
vn 0.1230 -0.9607 0.2489
vn -0.5900 -0.7613 0.2688
vn -0.0279 0.0000 -0.9996
vn -0.6170 -0.7868 0.0172
vn 0.1199 -0.9928 -0.0033
vn 0.7865 -0.6172 -0.0219
vn 0.9924 0.1199 -0.0277
vn 0.6170 0.7868 -0.0172
vn -0.1199 0.9928 0.0033
vn -0.7865 0.6172 0.0219
vn -0.9924 -0.1199 0.0277
usemtl Material.002
s off
f 17/1/1 2/2/1 4/3/1 18/4/1
f 18/4/2 4/3/2 6/5/2 19/6/2
f 19/7/3 6/8/3 8/9/3 20/10/3
f 20/10/4 8/9/4 10/11/4 21/12/4
f 21/12/5 10/11/5 12/13/5 22/14/5
f 22/14/6 12/13/6 14/15/6 23/16/6
f 12/17/7 10/18/7 29/19/7 30/20/7
f 23/16/8 14/15/8 16/21/8 24/22/8
f 24/22/9 16/21/9 2/2/9 17/1/9
f 7/23/10 9/24/10 37/25/10 36/26/10
f 15/27/11 24/22/11 17/1/11 1/28/11
f 13/29/12 23/16/12 24/22/12 15/27/12
f 11/30/13 22/14/13 23/16/13 13/29/13
f 9/31/14 21/12/14 22/14/14 11/30/14
f 7/32/15 20/10/15 21/12/15 9/31/15
f 5/33/16 19/7/16 20/10/16 7/32/16
f 3/34/17 18/4/17 19/6/17 5/35/17
f 1/28/18 17/1/18 18/4/18 3/34/18
f 26/36/7 25/37/7 32/38/7 31/39/7 30/20/7 29/19/7 28/40/7 27/41/7
f 2/42/7 16/43/7 32/38/7 25/37/7
f 4/44/7 2/42/7 25/37/7 26/36/7
f 8/45/7 6/46/7 27/41/7 28/40/7
f 14/47/7 12/17/7 30/20/7 31/39/7
f 10/18/7 8/45/7 28/40/7 29/19/7
f 16/43/7 14/47/7 31/39/7 32/38/7
f 6/46/7 4/44/7 26/36/7 27/41/7
f 33/48/10 34/49/10 35/50/10 36/26/10 37/25/10 38/51/10 39/52/10 40/53/10
f 13/29/10 15/27/10 40/53/10 39/52/10
f 3/54/10 5/55/10 35/50/10 34/49/10
f 9/24/10 11/30/10 38/51/10 37/25/10
f 15/27/10 1/56/10 33/48/10 40/53/10
f 1/56/10 3/54/10 34/49/10 33/48/10
f 5/55/10 7/23/10 36/26/10 35/50/10
f 11/30/10 13/29/10 39/52/10 38/51/10
o Estela_1_Cube.006
v 0.579037 3.990023 2.584735
v 0.577535 4.007961 2.584770
v 0.563923 3.990023 1.939912
v 0.562421 4.007961 1.939947
v 0.596969 3.991526 2.584315
v 0.595467 4.009463 2.584350
v 0.581855 3.991526 1.939492
v 0.580353 4.009463 1.939527
vt 0.029882 0.343262
vt 0.025420 0.338800
vt 0.185305 0.178913
vt 0.189767 0.183375
vt 0.189767 0.174452
vt 0.194229 0.178913
vt 0.349650 0.014568
vt 0.354112 0.019030
vt 0.354112 0.338796
vt 0.349650 0.343258
vt 0.025422 0.019030
vt 0.029884 0.014568
vn -0.9962 -0.0835 0.0234
vn -0.0234 0.0000 -0.9997
vn 0.9962 0.0835 -0.0234
vn 0.0835 -0.9965 -0.0020
vn -0.0834 0.9965 0.0020
usemtl Material.002
s off
f 41/57/19 42/58/19 44/59/19 43/60/19
f 43/60/20 44/59/20 48/61/20 47/62/20
f 47/62/21 48/61/21 46/63/21 45/64/21
f 43/60/22 47/62/22 45/65/22 41/66/22
f 48/61/23 44/59/23 42/67/23 46/68/23
o Estela_2_Cube.007
v 0.525406 3.966549 2.585741
v 0.515101 3.981305 2.585982
v 0.519379 3.966549 2.328588
v 0.509074 3.981305 2.328829
v 0.540159 3.976857 2.585395
v 0.529853 3.991613 2.585636
v 0.534131 3.976857 2.328242
v 0.523826 3.991613 2.328483
vt 0.744001 0.084237
vt 0.751716 0.076522
vt 0.861958 0.186765
vt 0.854244 0.194479
vt 0.869673 0.194479
vt 0.861958 0.202194
vt 0.979915 0.304722
vt 0.972201 0.312436
vt 0.751716 0.312436
vt 0.744002 0.304722
vt 0.972201 0.076522
vt 0.979915 0.084237
vn -0.8196 -0.5727 0.0192
vn -0.0234 0.0000 -0.9997
vn 0.8196 0.5727 -0.0192
vn 0.5725 -0.8198 -0.0134
vn -0.5725 0.8198 0.0134
usemtl Material.002
s off
f 49/69/24 50/70/24 52/71/24 51/72/24
f 51/72/25 52/71/25 56/73/25 55/74/25
f 55/74/26 56/73/26 54/75/26 53/76/26
f 51/72/27 55/74/27 53/77/27 49/78/27
f 56/73/28 52/71/28 50/79/28 54/80/28
o Estela_3_Cube.008
v 0.572688 3.952869 2.584925
v 0.587766 3.943043 2.584572
v 0.561328 3.952869 2.100255
v 0.576406 3.943043 2.099901
v 0.562865 3.937788 2.585155
v 0.577942 3.927962 2.584802
v 0.551505 3.937788 2.100485
v 0.566582 3.927962 2.100132
vt 0.390874 0.024965
vt 0.396746 0.019093
vt 0.554902 0.177249
vt 0.549030 0.183121
vt 0.560774 0.183121
vt 0.554902 0.188993
vt 0.718924 0.341271
vt 0.713052 0.347142
vt 0.396753 0.347142
vt 0.390881 0.341270
vt 0.713052 0.019100
vt 0.718924 0.024972
vn 0.5457 0.8379 -0.0128
vn -0.0234 -0.0000 -0.9997
vn -0.5457 -0.8379 0.0128
vn -0.8376 0.5459 0.0196
vn 0.8376 -0.5459 -0.0196
usemtl Material.002
s off
f 57/81/29 58/82/29 60/83/29 59/84/29
f 59/84/30 60/83/30 64/85/30 63/86/30
f 63/86/31 64/85/31 62/87/31 61/88/31
f 59/84/32 63/86/32 61/89/32 57/90/32
f 64/85/33 60/83/33 58/91/33 62/92/33
o Fogonazo_Cylinder.004
v 0.561769 3.965192 2.504493
v 0.738902 3.990093 2.467004
v 0.678161 3.981390 2.543505
v 0.700226 3.863472 2.466779
v 0.655781 3.895044 2.544077
v 0.581793 3.778283 2.470699
v 0.578926 3.849822 2.546039
v 0.443331 3.815134 2.473026
v 0.492616 3.872214 2.548243
v 0.382954 3.940290 2.476092
v 0.447411 3.949105 2.549397
v 0.431148 4.066423 2.478029
v 0.469792 4.035451 2.548825
v 0.537305 4.134277 2.472915
v 0.546647 4.080673 2.546863
v 0.678081 4.125225 2.469429
v 0.632956 4.058280 2.544659
v 0.770776 4.104004 2.334777
v 0.627927 4.203518 2.353804
v 0.341803 4.021958 2.356313
v 0.451111 4.153105 2.375482
v 0.343381 3.839913 2.358568
v 0.485443 3.719994 2.370214
v 0.667051 3.758812 2.328746
v 0.782453 3.914323 2.344338
vt 0.850869 0.849468
vt 0.865642 0.889005
vt 0.820524 0.881111
vt 0.876722 0.851123
vt 0.884768 0.872295
vt 0.906749 0.910006
vt 0.869594 0.940029
vt 0.905573 0.882033
vt 0.947428 0.894084
vt 0.941664 0.935426
vt 0.927580 0.874303
vt 0.962746 0.854657
vt 0.990508 0.890076
vt 0.936703 0.853058
vt 0.944794 0.815568
vt 0.990508 0.820665
vt 0.928389 0.832052
vt 0.908294 0.798729
vt 0.939540 0.775883
vt 0.907920 0.822792
vt 0.866867 0.807937
vt 0.873982 0.767631
vt 0.886038 0.829976
vt 0.821646 0.809632
vt 0.126448 0.773829
vt 0.125686 0.680795
vt 0.173820 0.655586
vt 0.187849 0.714236
vt 0.081641 0.659384
vt 0.069454 0.714850
vt 0.047074 0.770080
vt 0.018590 0.815527
vt 0.065491 0.834048
vt 0.026885 0.728253
vt 0.077230 0.886821
vt 0.123271 0.863849
vt 0.164572 0.891121
vt 0.182364 0.842979
vt 0.235552 0.829027
vt 0.209102 0.775466
vt 0.235552 0.729784
vn 0.8481 -0.2599 0.4616
vn 0.7883 -0.2251 0.5726
vn 0.5382 -0.7288 0.4232
vn 0.4604 -0.6628 0.5905
vn -0.1913 -0.7582 0.6233
vn -0.1765 -0.7209 0.6702
vn -0.7380 -0.3699 0.5644
vn -0.6580 -0.3577 0.6626
vn -0.8175 0.3048 0.4887
vn -0.7684 0.2515 0.5885
vn -0.4389 0.7265 0.5287
vn -0.4206 0.7156 0.5576
vn 0.0673 0.8395 0.5392
vn 0.1210 0.7577 0.6413
vn 0.7965 0.3497 0.4932
vn 0.6874 0.3328 0.6455
vn -0.7231 0.4026 -0.5613
vn -0.0331 -0.7533 -0.6569
vn 0.5667 -0.5469 -0.6162
vn -0.7068 -0.2274 -0.6699
vn 0.5576 0.5591 -0.6136
vn 0.2030 -0.7752 -0.5983
vn 0.7474 -0.0159 -0.6642
vn -0.3867 -0.6658 -0.6381
vn -0.0029 0.7609 -0.6489
vn 0.6546 -0.3796 -0.6538
vn -0.4891 0.5311 -0.6918
vn 0.6456 0.2023 -0.7364
vn -0.8572 0.0013 -0.5150
vn 0.3492 0.7044 -0.6180
vn -0.2314 0.7888 -0.5694
vn -0.5700 -0.5494 -0.6110
vn 0.0255 0.0000 0.9997
usemtl Material.002
s off
f 66/93/34 68/94/34 89/95/34
f 66/93/35 67/96/35 69/97/35 68/94/35
f 68/94/36 70/98/36 88/99/36
f 68/94/37 69/97/37 71/100/37 70/98/37
f 70/98/38 72/101/38 87/102/38
f 70/98/39 71/100/39 73/103/39 72/101/39
f 72/101/40 74/104/40 86/105/40
f 72/101/41 73/103/41 75/106/41 74/104/41
f 74/104/42 76/107/42 84/108/42
f 74/104/43 75/106/43 77/109/43 76/107/43
f 76/107/44 78/110/44 85/111/44
f 76/107/45 77/109/45 79/112/45 78/110/45
f 78/110/46 80/113/46 83/114/46
f 78/110/47 79/112/47 81/115/47 80/113/47
f 80/113/48 66/93/48 82/116/48
f 80/113/49 81/115/49 67/96/49 66/93/49
f 65/117/50 80/118/50 82/119/50
f 66/120/51 65/117/51 82/119/51
f 80/118/52 65/117/52 83/121/52
f 65/117/53 78/122/53 83/121/53
f 76/123/54 65/117/54 84/124/54
f 65/117/55 74/125/55 84/124/55
f 78/122/56 65/117/56 85/126/56
f 65/117/57 76/123/57 85/126/57
f 74/125/58 65/117/58 86/127/58
f 65/117/59 72/128/59 86/127/59
f 72/128/60 65/117/60 87/129/60
f 65/117/61 70/130/61 87/129/61
f 70/130/62 65/117/62 88/131/62
f 65/117/63 68/132/63 88/131/63
f 65/117/64 66/120/64 89/133/64
f 68/132/65 65/117/65 89/133/65
f 69/97/66 67/96/66 81/115/66 79/112/66 77/109/66 75/106/66 73/103/66 71/100/66
