# Blender v2.82 (sub 7) OBJ File: 'BalaDerecha.blend'
# www.blender.org
mtllib BalaDerecha_000011.mtl
o Bala_Cylinder.003
v -0.399493 4.012285 2.524735
v -0.458103 3.989828 3.199366
v -0.410654 3.905509 2.525017
v -0.462985 3.943131 3.199490
v -0.494024 3.837901 2.527128
v -0.499445 3.913564 3.200413
v -0.600766 3.849066 2.529830
v -0.546127 3.918447 3.201594
v -0.668352 3.932463 2.531540
v -0.575685 3.954920 3.202342
v -0.657191 4.039240 2.531258
v -0.570804 4.001616 3.202219
v -0.573821 4.106847 2.529148
v -0.534343 4.031184 3.201296
v -0.467079 4.095682 2.526445
v -0.487661 4.026301 3.200114
v -0.389541 4.012285 2.917854
v -0.400703 3.905509 2.918136
v -0.484073 3.837901 2.920247
v -0.590815 3.849066 2.922949
v -0.658401 3.932463 2.924660
v -0.647239 4.039240 2.924377
v -0.563869 4.106847 2.922267
v -0.457127 4.095682 2.919565
v -0.501211 3.977030 3.200457
v -0.502513 3.964573 3.200490
v -0.512239 3.956686 3.200736
v -0.524692 3.957989 3.201051
v -0.532577 3.967718 3.201251
v -0.531275 3.980175 3.201218
v -0.521549 3.988062 3.200972
v -0.509096 3.986759 3.200657
v -0.480131 3.988344 2.526776
v -0.484598 3.945618 2.526889
v -0.517958 3.918566 2.527733
v -0.560670 3.923033 2.528815
v -0.587714 3.956404 2.529499
v -0.583248 3.999130 2.529386
v -0.549888 4.026183 2.528542
v -0.507175 4.021715 2.527461
vt 0.571177 0.819618
vt 0.793679 0.842301
vt 0.792020 0.881992
vt 0.561213 0.895770
vt 0.797677 0.921414
vt 0.558627 0.981594
vt 0.784882 0.431415
vt 0.915080 0.649522
vt 0.882098 0.673287
vt 0.725706 0.494938
vt 0.854120 0.701371
vt 0.679164 0.556598
vt 0.830961 0.732764
vt 0.641960 0.618211
vt 0.812842 0.767023
vt 0.611028 0.684809
vt 0.982776 0.396146
vt 0.982776 0.463263
vt 0.923370 0.438657
vt 0.923370 0.420752
vt 0.801537 0.803928
vt 0.587762 0.749802
vt 0.227995 0.416724
vt 0.323726 0.422389
vt 0.291268 0.488982
vt 0.253411 0.486967
vt 0.320555 0.647466
vt 0.289883 0.730852
vt 0.370361 0.577645
vt 0.385540 0.494831
vt 0.426017 0.417005
vt 0.470066 0.340997
vt 0.514875 0.267284
vt 0.263759 0.816919
vt 0.241100 0.904987
vt 0.880146 0.438657
vt 0.880146 0.420752
vt 0.892805 0.408092
vt 0.910710 0.408092
vt 0.910710 0.451317
vt 0.892805 0.451317
vt 0.820740 0.396146
vt 0.868199 0.348686
vt 0.820740 0.463263
vt 0.935317 0.510722
vt 0.868199 0.510722
vt 0.935317 0.348686
vt 0.250323 0.578435
vt 0.223959 0.551121
vt 0.225364 0.512930
vt 0.316167 0.516903
vt 0.313787 0.552663
vt 0.287795 0.578888
vt 0.153818 0.578578
vt 0.156940 0.481709
vt 0.221449 0.648464
vn 0.9685 -0.1006 0.2278
vn 0.6156 -0.7517 0.2368
vn -0.0942 -0.9624 0.2547
vn -0.7451 -0.6094 0.2712
vn -0.9557 0.1006 0.2765
vn -0.6028 0.7517 0.2676
vn 0.0253 -0.0000 0.9997
vn 0.1070 0.9624 0.2497
vn 0.7578 0.6094 0.2332
vn -0.0253 -0.0000 -0.9997
vn 0.7766 0.6297 -0.0197
vn 0.1040 0.9946 -0.0026
vn -0.6295 0.7768 0.0159
vn -0.9943 0.1040 0.0252
vn -0.7766 -0.6297 0.0197
vn -0.1040 -0.9946 0.0026
vn 0.6295 -0.7768 -0.0159
vn 0.9943 -0.1040 -0.0252
usemtl Material
s off
f 17/1/1 2/2/1 4/3/1 18/4/1
f 18/4/2 4/3/2 6/5/2 19/6/2
f 19/7/3 6/8/3 8/9/3 20/10/3
f 20/10/4 8/9/4 10/11/4 21/12/4
f 21/12/5 10/11/5 12/13/5 22/14/5
f 22/14/6 12/13/6 14/15/6 23/16/6
f 12/17/7 10/18/7 29/19/7 30/20/7
f 23/16/8 14/15/8 16/21/8 24/22/8
f 24/22/9 16/21/9 2/2/9 17/1/9
f 7/23/10 9/24/10 37/25/10 36/26/10
f 15/27/11 24/22/11 17/1/11 1/28/11
f 13/29/12 23/16/12 24/22/12 15/27/12
f 11/30/13 22/14/13 23/16/13 13/29/13
f 9/31/14 21/12/14 22/14/14 11/30/14
f 7/32/15 20/10/15 21/12/15 9/31/15
f 5/33/16 19/7/16 20/10/16 7/32/16
f 3/34/17 18/4/17 19/6/17 5/35/17
f 1/28/18 17/1/18 18/4/18 3/34/18
f 26/36/7 25/37/7 32/38/7 31/39/7 30/20/7 29/19/7 28/40/7 27/41/7
f 2/42/7 16/43/7 32/38/7 25/37/7
f 4/44/7 2/42/7 25/37/7 26/36/7
f 8/45/7 6/46/7 27/41/7 28/40/7
f 14/47/7 12/17/7 30/20/7 31/39/7
f 10/18/7 8/45/7 28/40/7 29/19/7
f 16/43/7 14/47/7 31/39/7 32/38/7
f 6/46/7 4/44/7 26/36/7 27/41/7
f 33/48/10 34/49/10 35/50/10 36/26/10 37/25/10 38/51/10 39/52/10 40/53/10
f 13/29/10 15/27/10 40/53/10 39/52/10
f 3/54/10 5/55/10 35/50/10 34/49/10
f 9/24/10 11/30/10 38/51/10 37/25/10
f 15/27/10 1/56/10 33/48/10 40/53/10
f 1/56/10 3/54/10 34/49/10 33/48/10
f 5/55/10 7/23/10 36/26/10 35/50/10
f 11/30/10 13/29/10 39/52/10 38/51/10
o Estela_1_Cube.006
v -0.507286 3.967732 2.577700
v -0.495293 3.985694 2.577419
v -0.525423 3.967732 1.803912
v -0.513429 3.985694 1.803631
v -0.489329 3.955735 2.577279
v -0.477336 3.973697 2.576998
v -0.507465 3.955735 1.803491
v -0.495472 3.973697 1.803210
vt 0.029882 0.343262
vt 0.025420 0.338800
vt 0.185305 0.178913
vt 0.189767 0.183375
vt 0.189767 0.174452
vt 0.194229 0.178913
vt 0.349650 0.014568
vt 0.354112 0.019030
vt 0.354112 0.338796
vt 0.349650 0.343258
vt 0.025422 0.019030
vt 0.029884 0.014568
vn -0.8314 0.5554 0.0195
vn -0.0234 0.0000 -0.9997
vn 0.8314 -0.5554 -0.0195
vn -0.5553 -0.8316 0.0130
vn 0.5553 0.8316 -0.0130
usemtl Material
s off
f 41/57/19 42/58/19 44/59/19 43/60/19
f 43/60/20 44/59/20 48/61/20 47/62/20
f 47/62/21 48/61/21 46/63/21 45/64/21
f 43/60/22 47/62/22 45/65/22 41/66/22
f 48/61/23 44/59/23 42/67/23 46/68/23
o Estela_2_Cube.007
v -0.575176 3.985788 2.578989
v -0.573824 4.007346 2.578957
v -0.582409 3.985788 2.270406
v -0.581056 4.007346 2.270374
v -0.553624 3.984436 2.578484
v -0.552272 4.005993 2.578452
v -0.560857 3.984436 2.269900
v -0.559505 4.005993 2.269869
vt 0.744001 0.084237
vt 0.751716 0.076522
vt 0.861958 0.186765
vt 0.854244 0.194479
vt 0.869673 0.194479
vt 0.861958 0.202194
vt 0.979915 0.304722
vt 0.972201 0.312436
vt 0.751716 0.312436
vt 0.744002 0.304722
vt 0.972201 0.076522
vt 0.979915 0.084237
vn -0.9978 0.0626 0.0234
vn -0.0234 -0.0000 -0.9997
vn 0.9978 -0.0626 -0.0234
vn -0.0626 -0.9980 0.0015
vn 0.0626 0.9980 -0.0015
usemtl Material
s off
f 49/69/24 50/70/24 52/71/24 51/72/24
f 51/72/25 52/71/25 56/73/25 55/74/25
f 55/74/26 56/73/26 54/75/26 53/76/26
f 51/72/27 55/74/27 53/77/27 49/78/27
f 56/73/28 52/71/28 50/79/28 54/80/28
o Estela_3_Cube.008
v -0.541010 3.937600 2.578540
v -0.534198 3.917102 2.578380
v -0.554642 3.937600 1.996935
v -0.547830 3.917102 1.996776
v -0.561501 3.930786 2.579020
v -0.554690 3.910289 2.578860
v -0.575133 3.930786 1.997416
v -0.568322 3.910289 1.997256
vt 0.390874 0.024965
vt 0.396746 0.019093
vt 0.554902 0.177249
vt 0.549030 0.183121
vt 0.560774 0.183121
vt 0.554902 0.188993
vt 0.718924 0.341271
vt 0.713052 0.347142
vt 0.396753 0.347142
vt 0.390881 0.341270
vt 0.713052 0.019100
vt 0.718924 0.024972
vn 0.9487 0.3154 -0.0222
vn -0.0234 -0.0000 -0.9997
vn -0.9487 -0.3154 0.0222
vn -0.3154 0.9489 0.0074
vn 0.3154 -0.9489 -0.0074
usemtl Material
s off
f 57/81/29 58/82/29 60/83/29 59/84/29
f 59/84/30 60/83/30 64/85/30 63/86/30
f 63/86/31 64/85/31 62/87/31 61/88/31
f 59/84/32 63/86/32 61/89/32 57/90/32
f 64/85/33 60/83/33 58/91/33 62/92/33
o Fogonazo_Cylinder.004
v -0.526530 3.965814 2.504496
v -0.349601 4.018590 2.467051
v -0.410294 4.000075 2.543538
v -0.369605 3.883458 2.466345
v -0.419860 3.908536 2.543780
v -0.477352 3.778324 2.469968
v -0.491327 3.850578 2.545589
v -0.624289 3.794634 2.472480
v -0.582831 3.860152 2.547905
v -0.705127 3.913038 2.476050
v -0.640770 3.931650 2.549372
v -0.675340 4.049129 2.478463
v -0.631204 4.023189 2.549130
v -0.577451 4.134694 2.473583
v -0.559737 4.081147 2.547321
v -0.432425 4.147106 2.470019
v -0.468233 4.071573 2.545004
v -0.334489 4.140228 2.335254
v -0.495544 4.219733 2.354711
v -0.759575 3.990508 2.356598
v -0.668216 4.141039 2.376245
v -0.729991 3.805005 2.358144
v -0.566626 3.704440 2.369283
v -0.387268 3.772119 2.327911
v -0.293433 3.948457 2.344074
vt 0.850869 0.849468
vt 0.865642 0.889005
vt 0.820524 0.881111
vt 0.876722 0.851123
vt 0.884768 0.872295
vt 0.906749 0.910006
vt 0.869594 0.940029
vt 0.905573 0.882033
vt 0.947428 0.894084
vt 0.941664 0.935426
vt 0.927580 0.874303
vt 0.962746 0.854657
vt 0.990508 0.890076
vt 0.936703 0.853058
vt 0.944794 0.815568
vt 0.990508 0.820665
vt 0.928389 0.832052
vt 0.908294 0.798729
vt 0.939540 0.775883
vt 0.907920 0.822792
vt 0.866867 0.807937
vt 0.873982 0.767631
vt 0.886038 0.829976
vt 0.821646 0.809632
vt 0.126448 0.773829
vt 0.125686 0.680795
vt 0.173820 0.655586
vt 0.187849 0.714236
vt 0.081641 0.659384
vt 0.069454 0.714850
vt 0.047074 0.770080
vt 0.018590 0.815527
vt 0.065491 0.834048
vt 0.026885 0.728253
vt 0.077230 0.886821
vt 0.123271 0.863849
vt 0.164572 0.891121
vt 0.182364 0.842979
vt 0.235552 0.829027
vt 0.209102 0.775466
vt 0.235552 0.729784
vn 0.8713 -0.1314 0.4729
vn 0.8045 -0.1061 0.5844
vn 0.6373 -0.6382 0.4320
vn 0.5481 -0.5823 0.6004
vn -0.0748 -0.7712 0.6322
vn -0.0656 -0.7313 0.6789
vn -0.6678 -0.4733 0.5745
vn -0.5889 -0.4482 0.6725
vn -0.8474 0.1766 0.5008
vn -0.7886 0.1306 0.6009
vn -0.5372 0.6455 0.5430
vn -0.5171 0.6368 0.5720
vn -0.0574 0.8303 0.5544
vn 0.0072 0.7548 0.6560
vn 0.7298 0.4586 0.5070
vn 0.6219 0.4231 0.6589
vn -0.7672 0.2894 -0.5723
vn 0.0778 -0.7371 -0.6713
vn 0.6340 -0.4489 -0.6298
vn -0.6557 -0.3227 -0.6826
vn 0.4623 0.6310 -0.6230
vn 0.3121 -0.7258 -0.6130
vn 0.7311 0.0968 -0.6754
vn -0.2800 -0.7041 -0.6526
vn -0.1152 0.7444 -0.6577
vn 0.6942 -0.2718 -0.6665
vn -0.5546 0.4479 -0.7013
vn 0.5977 0.2941 -0.7458
vn -0.8405 -0.1233 -0.5276
vn 0.2370 0.7421 -0.6271
vn -0.3432 0.7399 -0.5787
vn -0.4764 -0.6181 -0.6253
vn 0.0253 0.0000 0.9997
usemtl Material
s off
f 66/93/34 68/94/34 89/95/34
f 66/93/35 67/96/35 69/97/35 68/94/35
f 68/94/36 70/98/36 88/99/36
f 68/94/37 69/97/37 71/100/37 70/98/37
f 70/98/38 72/101/38 87/102/38
f 70/98/39 71/100/39 73/103/39 72/101/39
f 72/101/40 74/104/40 86/105/40
f 72/101/41 73/103/41 75/106/41 74/104/41
f 74/104/42 76/107/42 84/108/42
f 74/104/43 75/106/43 77/109/43 76/107/43
f 76/107/44 78/110/44 85/111/44
f 76/107/45 77/109/45 79/112/45 78/110/45
f 78/110/46 80/113/46 83/114/46
f 78/110/47 79/112/47 81/115/47 80/113/47
f 80/113/48 66/93/48 82/116/48
f 80/113/49 81/115/49 67/96/49 66/93/49
f 65/117/50 80/118/50 82/119/50
f 66/120/51 65/117/51 82/119/51
f 80/118/52 65/117/52 83/121/52
f 65/117/53 78/122/53 83/121/53
f 76/123/54 65/117/54 84/124/54
f 65/117/55 74/125/55 84/124/55
f 78/122/56 65/117/56 85/126/56
f 65/117/57 76/123/57 85/126/57
f 74/125/58 65/117/58 86/127/58
f 65/117/59 72/128/59 86/127/59
f 72/128/60 65/117/60 87/129/60
f 65/117/61 70/130/61 87/129/61
f 70/130/62 65/117/62 88/131/62
f 65/117/63 68/132/63 88/131/63
f 65/117/64 66/120/64 89/133/64
f 68/132/65 65/117/65 89/133/65
f 69/97/66 67/96/66 81/115/66 79/112/66 77/109/66 75/106/66 73/103/66 71/100/66
