# Blender v2.82 (sub 7) OBJ File: 'BalaDerecha.blend'
# www.blender.org
mtllib BalaDerecha_000012.mtl
o Bala_Cylinder.003
v -0.395639 3.994761 2.524606
v -0.456372 3.982165 3.199305
v -0.420358 3.890290 2.525236
v -0.467183 3.936476 3.199581
v -0.511686 3.833902 2.527565
v -0.507124 3.911815 3.200600
v -0.616124 3.858629 2.530228
v -0.552799 3.922630 3.201764
v -0.672494 3.949987 2.531666
v -0.577451 3.962584 3.202393
v -0.647774 4.054459 2.531035
v -0.566640 4.008273 3.202117
v -0.556446 4.110847 2.528707
v -0.526699 4.032933 3.201099
v -0.452008 4.086119 2.526043
v -0.481025 4.022119 3.199934
v -0.385614 3.994761 2.917723
v -0.410333 3.890290 2.918353
v -0.501661 3.833902 2.920682
v -0.606099 3.858629 2.923346
v -0.662468 3.949987 2.924783
v -0.637749 4.054459 2.924153
v -0.546421 4.110847 2.921824
v -0.441983 4.086119 2.919161
v -0.500762 3.974986 3.200437
v -0.503646 3.962798 3.200511
v -0.514301 3.956220 3.200783
v -0.526485 3.959105 3.201093
v -0.533061 3.969762 3.201261
v -0.530177 3.981950 3.201188
v -0.519522 3.988528 3.200916
v -0.507339 3.985644 3.200605
v -0.478675 3.981332 2.526723
v -0.488567 3.939528 2.526976
v -0.525111 3.916965 2.527907
v -0.566901 3.926860 2.528973
v -0.589457 3.963416 2.529548
v -0.579566 4.005220 2.529296
v -0.543021 4.027783 2.528364
v -0.501231 4.017889 2.527298
vt 0.571177 0.819618
vt 0.793679 0.842301
vt 0.792020 0.881992
vt 0.561213 0.895770
vt 0.797677 0.921414
vt 0.558627 0.981594
vt 0.784882 0.431415
vt 0.915080 0.649522
vt 0.882098 0.673287
vt 0.725706 0.494938
vt 0.854120 0.701371
vt 0.679164 0.556598
vt 0.830961 0.732764
vt 0.641960 0.618211
vt 0.812842 0.767023
vt 0.611028 0.684809
vt 0.982776 0.396146
vt 0.982776 0.463263
vt 0.923370 0.438657
vt 0.923370 0.420752
vt 0.801537 0.803928
vt 0.587762 0.749802
vt 0.227995 0.416724
vt 0.323726 0.422389
vt 0.291268 0.488982
vt 0.253411 0.486967
vt 0.320555 0.647466
vt 0.289883 0.730852
vt 0.370361 0.577645
vt 0.385540 0.494831
vt 0.426017 0.417005
vt 0.470066 0.340997
vt 0.514875 0.267284
vt 0.263759 0.816919
vt 0.241100 0.904987
vt 0.880146 0.438657
vt 0.880146 0.420752
vt 0.892805 0.408092
vt 0.910710 0.408092
vt 0.910710 0.451317
vt 0.892805 0.451317
vt 0.820740 0.396146
vt 0.868199 0.348686
vt 0.820740 0.463263
vt 0.935317 0.510722
vt 0.868199 0.510722
vt 0.935317 0.348686
vt 0.250323 0.578435
vt 0.223959 0.551121
vt 0.225364 0.512930
vt 0.316167 0.516903
vt 0.313787 0.552663
vt 0.287795 0.578888
vt 0.153818 0.578578
vt 0.156940 0.481709
vt 0.221449 0.648464
vn 0.9478 -0.2229 0.2282
vn 0.5145 -0.8234 0.2392
vn -0.2164 -0.9416 0.2579
vn -0.8167 -0.5082 0.2732
vn -0.9349 0.2229 0.2762
vn -0.5016 0.8234 0.2652
vn 0.0255 -0.0000 0.9997
vn 0.2292 0.9416 0.2465
vn 0.8296 0.5082 0.2312
vn -0.0255 0.0000 -0.9997
vn 0.8507 0.5252 -0.0217
vn 0.2303 0.9731 -0.0059
vn -0.5251 0.8510 0.0134
vn -0.9728 0.2303 0.0248
vn -0.8507 -0.5252 0.0217
vn -0.2303 -0.9731 0.0059
vn 0.5251 -0.8510 -0.0134
vn 0.9728 -0.2303 -0.0248
usemtl Material
s off
f 17/1/1 2/2/1 4/3/1 18/4/1
f 18/4/2 4/3/2 6/5/2 19/6/2
f 19/7/3 6/8/3 8/9/3 20/10/3
f 20/10/4 8/9/4 10/11/4 21/12/4
f 21/12/5 10/11/5 12/13/5 22/14/5
f 22/14/6 12/13/6 14/15/6 23/16/6
f 12/17/7 10/18/7 29/19/7 30/20/7
f 23/16/8 14/15/8 16/21/8 24/22/8
f 24/22/9 16/21/9 2/2/9 17/1/9
f 7/23/10 9/24/10 37/25/10 36/26/10
f 15/27/11 24/22/11 17/1/11 1/28/11
f 13/29/12 23/16/12 24/22/12 15/27/12
f 11/30/13 22/14/13 23/16/13 13/29/13
f 9/31/14 21/12/14 22/14/14 11/30/14
f 7/32/15 20/10/15 21/12/15 9/31/15
f 5/33/16 19/7/16 20/10/16 7/32/16
f 3/34/17 18/4/17 19/6/17 5/35/17
f 1/28/18 17/1/18 18/4/18 3/34/18
f 26/36/7 25/37/7 32/38/7 31/39/7 30/20/7 29/19/7 28/40/7 27/41/7
f 2/42/7 16/43/7 32/38/7 25/37/7
f 4/44/7 2/42/7 25/37/7 26/36/7
f 8/45/7 6/46/7 27/41/7 28/40/7
f 14/47/7 12/17/7 30/20/7 31/39/7
f 10/18/7 8/45/7 28/40/7 29/19/7
f 16/43/7 14/47/7 31/39/7 32/38/7
f 6/46/7 4/44/7 26/36/7 27/41/7
f 33/48/10 34/49/10 35/50/10 36/26/10 37/25/10 38/51/10 39/52/10 40/53/10
f 13/29/10 15/27/10 40/53/10 39/52/10
f 3/54/10 5/55/10 35/50/10 34/49/10
f 9/24/10 11/30/10 38/51/10 37/25/10
f 15/27/10 1/56/10 33/48/10 40/53/10
f 1/56/10 3/54/10 34/49/10 33/48/10
f 5/55/10 7/23/10 36/26/10 35/50/10
f 11/30/10 13/29/10 39/52/10 38/51/10
o Estela_1_Cube.006
v -0.501171 3.962190 2.571831
v -0.484399 3.980994 2.571438
v -0.522330 3.962190 1.669079
v -0.505558 3.980994 1.668686
v -0.482372 3.945413 2.571390
v -0.465600 3.964217 2.570997
v -0.503532 3.945413 1.668638
v -0.486760 3.964217 1.668245
vt 0.029882 0.343262
vt 0.025420 0.338800
vt 0.185305 0.178913
vt 0.189767 0.183375
vt 0.189767 0.174452
vt 0.194229 0.178913
vt 0.349650 0.014568
vt 0.354112 0.019030
vt 0.354112 0.338796
vt 0.349650 0.343258
vt 0.025422 0.019030
vt 0.029884 0.014568
vn -0.7460 0.6657 0.0175
vn -0.0234 -0.0000 -0.9997
vn 0.7460 -0.6657 -0.0175
vn -0.6656 -0.7462 0.0156
vn 0.6655 0.7462 -0.0156
usemtl Material
s off
f 41/57/19 42/58/19 44/59/19 43/60/19
f 43/60/20 44/59/20 48/61/20 47/62/20
f 47/62/21 48/61/21 46/63/21 45/64/21
f 43/60/22 47/62/22 45/65/22 41/66/22
f 48/61/23 44/59/23 42/67/23 46/68/23
o Estela_2_Cube.007
v -0.576674 3.994076 2.573249
v -0.571612 4.018762 2.573130
v -0.585113 3.994076 2.213234
v -0.580051 4.018762 2.213116
v -0.551995 3.989012 2.572670
v -0.546933 4.013699 2.572551
v -0.560433 3.989012 2.212656
v -0.555371 4.013699 2.212537
vt 0.744001 0.084237
vt 0.751716 0.076522
vt 0.861958 0.186765
vt 0.854244 0.194479
vt 0.869673 0.194479
vt 0.861958 0.202194
vt 0.979915 0.304722
vt 0.972201 0.312436
vt 0.751716 0.312436
vt 0.744002 0.304722
vt 0.972201 0.076522
vt 0.979915 0.084237
vn -0.9793 0.2009 0.0230
vn -0.0234 -0.0000 -0.9997
vn 0.9793 -0.2009 -0.0230
vn -0.2009 -0.9796 0.0047
vn 0.2009 0.9796 -0.0047
usemtl Material
s off
f 49/69/24 50/70/24 52/71/24 51/72/24
f 51/72/25 52/71/25 56/73/25 55/74/25
f 55/74/26 56/73/26 54/75/26 53/76/26
f 51/72/27 55/74/27 53/77/27 49/78/27
f 56/73/28 52/71/28 50/79/28 54/80/28
o Estela_3_Cube.008
v -0.545024 3.932855 2.572917
v -0.540481 3.908068 2.572810
v -0.560928 3.932855 1.894378
v -0.556385 3.908068 1.894272
v -0.569804 3.928311 2.573498
v -0.565261 3.903524 2.573391
v -0.585708 3.928311 1.894959
v -0.581165 3.903524 1.894852
vt 0.390874 0.024965
vt 0.396746 0.019093
vt 0.554902 0.177249
vt 0.549030 0.183121
vt 0.560774 0.183121
vt 0.554902 0.188993
vt 0.718924 0.341271
vt 0.713052 0.347142
vt 0.396753 0.347142
vt 0.390881 0.341270
vt 0.713052 0.019100
vt 0.718924 0.024972
vn 0.9833 0.1803 -0.0230
vn -0.0234 -0.0000 -0.9997
vn -0.9833 -0.1803 0.0230
vn -0.1803 0.9836 0.0042
vn 0.1803 -0.9836 -0.0042
usemtl Material
s off
f 57/81/29 58/82/29 60/83/29 59/84/29
f 59/84/30 60/83/30 64/85/30 63/86/30
f 63/86/31 64/85/31 62/87/31 61/88/31
f 59/84/32 63/86/32 61/89/32 57/90/32
f 64/85/33 60/83/33 58/91/33 62/92/33
o Fogonazo_Cylinder.004
v -0.525862 3.965277 2.504495
v -0.338007 3.995794 2.466738
v -0.402526 3.985118 2.543335
v -0.376265 3.860274 2.466501
v -0.424369 3.892793 2.543892
v -0.500278 3.767000 2.470560
v -0.505073 3.842963 2.545950
v -0.648353 3.803046 2.473128
v -0.597362 3.864816 2.548304
v -0.715396 3.934761 2.476362
v -0.647175 3.945552 2.549574
v -0.667010 4.069976 2.478295
v -0.625332 4.037877 2.549017
v -0.555654 4.144539 2.473053
v -0.544628 4.087707 2.546959
v -0.405747 4.138106 2.469337
v -0.452339 4.065854 2.544606
v -0.306477 4.117720 2.334518
v -0.460663 4.220289 2.353830
v -0.760808 4.020739 2.356688
v -0.647576 4.162662 2.375760
v -0.755009 3.827195 2.358834
v -0.601248 3.702892 2.370188
v -0.408943 3.748312 2.328451
v -0.289778 3.916281 2.343951
vt 0.850869 0.849468
vt 0.865642 0.889005
vt 0.820524 0.881111
vt 0.876722 0.851123
vt 0.884768 0.872295
vt 0.906749 0.910006
vt 0.869594 0.940029
vt 0.905573 0.882033
vt 0.947428 0.894084
vt 0.941664 0.935426
vt 0.927580 0.874303
vt 0.962746 0.854657
vt 0.990508 0.890076
vt 0.936703 0.853058
vt 0.944794 0.815568
vt 0.990508 0.820665
vt 0.928389 0.832052
vt 0.908294 0.798729
vt 0.939540 0.775883
vt 0.907920 0.822792
vt 0.866867 0.807937
vt 0.873982 0.767631
vt 0.886038 0.829976
vt 0.821646 0.809632
vt 0.126448 0.773829
vt 0.125686 0.680795
vt 0.173820 0.655586
vt 0.187849 0.714236
vt 0.081641 0.659384
vt 0.069454 0.714850
vt 0.047074 0.770080
vt 0.018590 0.815527
vt 0.065491 0.834048
vt 0.026885 0.728253
vt 0.077230 0.886821
vt 0.123271 0.863849
vt 0.164572 0.891121
vt 0.182364 0.842979
vt 0.235552 0.829027
vt 0.209102 0.775466
vt 0.235552 0.729784
vn 0.8415 -0.2384 0.4849
vn 0.7762 -0.2039 0.5966
vn 0.5475 -0.7086 0.4451
vn 0.4645 -0.6382 0.6140
vn -0.1699 -0.7440 0.6462
vn -0.1556 -0.7046 0.6923
vn -0.7153 -0.3785 0.5875
vn -0.6321 -0.3622 0.6850
vn -0.8115 0.2831 0.5113
vn -0.7568 0.2299 0.6119
vn -0.4457 0.7045 0.5523
vn -0.4266 0.6928 0.5814
vn 0.0494 0.8247 0.5633
vn 0.1031 0.7399 0.6648
vn 0.7764 0.3601 0.5172
vn 0.6623 0.3375 0.6689
vn -0.7168 0.3792 -0.5851
vn -0.0176 -0.7329 -0.6801
vn 0.5641 -0.5221 -0.6397
vn -0.6820 -0.2348 -0.6926
vn 0.5322 0.5582 -0.6365
vn 0.2136 -0.7532 -0.6222
vn 0.7269 0.0004 -0.6867
vn -0.3636 -0.6557 -0.6617
vn -0.0196 0.7408 -0.6714
vn 0.6446 -0.3558 -0.6767
vn -0.4859 0.5048 -0.7135
vn 0.6193 0.2094 -0.7567
vn -0.8421 -0.0164 -0.5391
vn 0.3253 0.6953 -0.6409
vn -0.2438 0.7675 -0.5928
vn -0.5454 -0.5472 -0.6349
vn 0.0255 -0.0000 0.9997
usemtl Material
s off
f 66/93/34 68/94/34 89/95/34
f 66/93/35 67/96/35 69/97/35 68/94/35
f 68/94/36 70/98/36 88/99/36
f 68/94/37 69/97/37 71/100/37 70/98/37
f 70/98/38 72/101/38 87/102/38
f 70/98/39 71/100/39 73/103/39 72/101/39
f 72/101/40 74/104/40 86/105/40
f 72/101/41 73/103/41 75/106/41 74/104/41
f 74/104/42 76/107/42 84/108/42
f 74/104/43 75/106/43 77/109/43 76/107/43
f 76/107/44 78/110/44 85/111/44
f 76/107/45 77/109/45 79/112/45 78/110/45
f 78/110/46 80/113/46 83/114/46
f 78/110/47 79/112/47 81/115/47 80/113/47
f 80/113/48 66/93/48 82/116/48
f 80/113/49 81/115/49 67/96/49 66/93/49
f 65/117/50 80/118/50 82/119/50
f 66/120/51 65/117/51 82/119/51
f 80/118/52 65/117/52 83/121/52
f 65/117/53 78/122/53 83/121/53
f 76/123/54 65/117/54 84/124/54
f 65/117/55 74/125/55 84/124/55
f 78/122/56 65/117/56 85/126/56
f 65/117/57 76/123/57 85/126/57
f 74/125/58 65/117/58 86/127/58
f 65/117/59 72/128/59 86/127/59
f 72/128/60 65/117/60 87/129/60
f 65/117/61 70/130/61 87/129/61
f 70/130/62 65/117/62 88/131/62
f 65/117/63 68/132/63 88/131/63
f 65/117/64 66/120/64 89/133/64
f 68/132/65 65/117/65 89/133/65
f 69/97/66 67/96/66 81/115/66 79/112/66 77/109/66 75/106/66 73/103/66 71/100/66
