# Blender v2.82 (sub 7) OBJ File: 'BalaDerecha.blend'
# www.blender.org
mtllib BalaDerecha_000013.mtl
o Bala_Cylinder.003
v -0.394058 3.976870 2.524534
v -0.455636 3.974340 3.199270
v -0.431929 3.876418 2.525507
v -0.472198 3.930409 3.199695
v -0.529715 3.832176 2.528019
v -0.514964 3.911061 3.200794
v -0.630134 3.870060 2.530598
v -0.558880 3.927629 3.201922
v -0.674362 3.967878 2.531734
v -0.578223 3.970408 3.202419
v -0.636490 4.068330 2.530761
v -0.561660 4.014339 3.201993
v -0.538704 4.112573 2.528250
v -0.518895 4.033688 3.200895
v -0.438285 4.074688 2.525670
v -0.474978 4.017120 3.199767
v -0.383959 3.976870 2.917649
v -0.421830 3.876418 2.918622
v -0.519617 3.832176 2.921134
v -0.620036 3.870060 2.923714
v -0.664263 3.967878 2.924850
v -0.626392 4.068330 2.923877
v -0.528605 4.112573 2.921365
v -0.428187 4.074688 2.918785
v -0.500579 3.972899 3.200424
v -0.504997 3.961180 3.200538
v -0.516405 3.956018 3.200831
v -0.528120 3.960438 3.201132
v -0.533280 3.971850 3.201264
v -0.528861 3.983569 3.201151
v -0.517453 3.988730 3.200858
v -0.505738 3.984310 3.200557
v -0.478129 3.974173 2.526694
v -0.493283 3.933978 2.527083
v -0.532411 3.916275 2.528088
v -0.572594 3.931434 2.529120
v -0.590291 3.970575 2.529575
v -0.575137 4.010770 2.529186
v -0.536008 4.028474 2.528180
v -0.495826 4.013315 2.527148
vt 0.571177 0.819618
vt 0.793679 0.842301
vt 0.792020 0.881992
vt 0.561213 0.895770
vt 0.797677 0.921414
vt 0.558627 0.981594
vt 0.784882 0.431415
vt 0.915080 0.649522
vt 0.882098 0.673287
vt 0.725706 0.494938
vt 0.854120 0.701371
vt 0.679164 0.556598
vt 0.830961 0.732764
vt 0.641960 0.618211
vt 0.812842 0.767023
vt 0.611028 0.684809
vt 0.982776 0.396146
vt 0.982776 0.463263
vt 0.923370 0.438657
vt 0.923370 0.420752
vt 0.801537 0.803928
vt 0.587762 0.749802
vt 0.227995 0.416724
vt 0.323726 0.422389
vt 0.291268 0.488982
vt 0.253411 0.486967
vt 0.320555 0.647466
vt 0.289883 0.730852
vt 0.370361 0.577645
vt 0.385540 0.494831
vt 0.426017 0.417005
vt 0.470066 0.340997
vt 0.514875 0.267284
vt 0.263759 0.816919
vt 0.241100 0.904987
vt 0.880146 0.438657
vt 0.880146 0.420752
vt 0.892805 0.408092
vt 0.910710 0.408092
vt 0.910710 0.451317
vt 0.892805 0.451317
vt 0.820740 0.396146
vt 0.868199 0.348686
vt 0.820740 0.463263
vt 0.935317 0.510722
vt 0.868199 0.510722
vt 0.935317 0.348686
vt 0.250323 0.578435
vt 0.223959 0.551121
vt 0.225364 0.512930
vt 0.316167 0.516903
vt 0.313787 0.552663
vt 0.287795 0.578888
vt 0.153818 0.578578
vt 0.156940 0.481709
vt 0.221449 0.648464
vn 0.9116 -0.3415 0.2289
vn 0.4051 -0.8817 0.2420
vn -0.3349 -0.9054 0.2610
vn -0.8749 -0.3988 0.2748
vn -0.8986 0.3415 0.2754
vn -0.3922 0.8817 0.2624
vn 0.0257 -0.0000 0.9997
vn 0.3478 0.9054 0.2434
vn 0.8879 0.3988 0.2296
vn -0.0257 -0.0000 -0.9997
vn 0.9108 0.4121 -0.0234
vn 0.3528 0.9357 -0.0091
vn -0.4120 0.9111 0.0106
vn -0.9354 0.3529 0.0240
vn -0.9108 -0.4121 0.0234
vn -0.3528 -0.9357 0.0091
vn 0.4120 -0.9111 -0.0106
vn 0.9354 -0.3529 -0.0240
usemtl Material
s off
f 17/1/1 2/2/1 4/3/1 18/4/1
f 18/4/2 4/3/2 6/5/2 19/6/2
f 19/7/3 6/8/3 8/9/3 20/10/3
f 20/10/4 8/9/4 10/11/4 21/12/4
f 21/12/5 10/11/5 12/13/5 22/14/5
f 22/14/6 12/13/6 14/15/6 23/16/6
f 12/17/7 10/18/7 29/19/7 30/20/7
f 23/16/8 14/15/8 16/21/8 24/22/8
f 24/22/9 16/21/9 2/2/9 17/1/9
f 7/23/10 9/24/10 37/25/10 36/26/10
f 15/27/11 24/22/11 17/1/11 1/28/11
f 13/29/12 23/16/12 24/22/12 15/27/12
f 11/30/13 22/14/13 23/16/13 13/29/13
f 9/31/14 21/12/14 22/14/14 11/30/14
f 7/32/15 20/10/15 21/12/15 9/31/15
f 5/33/16 19/7/16 20/10/16 7/32/16
f 3/34/17 18/4/17 19/6/17 5/35/17
f 1/28/18 17/1/18 18/4/18 3/34/18
f 26/36/7 25/37/7 32/38/7 31/39/7 30/20/7 29/19/7 28/40/7 27/41/7
f 2/42/7 16/43/7 32/38/7 25/37/7
f 4/44/7 2/42/7 25/37/7 26/36/7
f 8/45/7 6/46/7 27/41/7 28/40/7
f 14/47/7 12/17/7 30/20/7 31/39/7
f 10/18/7 8/45/7 28/40/7 29/19/7
f 16/43/7 14/47/7 31/39/7 32/38/7
f 6/46/7 4/44/7 26/36/7 27/41/7
f 33/48/10 34/49/10 35/50/10 36/26/10 37/25/10 38/51/10 39/52/10 40/53/10
f 13/29/10 15/27/10 40/53/10 39/52/10
f 3/54/10 5/55/10 35/50/10 34/49/10
f 9/24/10 11/30/10 38/51/10 37/25/10
f 15/27/10 1/56/10 33/48/10 40/53/10
f 1/56/10 3/54/10 34/49/10 33/48/10
f 5/55/10 7/23/10 36/26/10 35/50/10
f 11/30/10 13/29/10 39/52/10 38/51/10
o Estela_1_Cube.006
v -0.495990 3.954940 2.565984
v -0.474019 3.973553 2.565469
v -0.520172 3.954940 1.534268
v -0.498201 3.973553 1.533753
v -0.477383 3.932963 2.565548
v -0.455411 3.951576 2.565033
v -0.501565 3.932963 1.533831
v -0.479593 3.951576 1.533317
vt 0.029882 0.343262
vt 0.025420 0.338800
vt 0.185305 0.178913
vt 0.189767 0.183375
vt 0.189767 0.174452
vt 0.194229 0.178913
vt 0.349650 0.014568
vt 0.354112 0.019030
vt 0.354112 0.338796
vt 0.349650 0.343258
vt 0.025422 0.019030
vt 0.029884 0.014568
vn -0.6461 0.7631 0.0151
vn -0.0234 0.0000 -0.9997
vn 0.6461 -0.7631 -0.0151
vn -0.7629 -0.6463 0.0179
vn 0.7629 0.6463 -0.0179
usemtl Material
s off
f 41/57/19 42/58/19 44/59/19 43/60/19
f 43/60/20 44/59/20 48/61/20 47/62/20
f 47/62/21 48/61/21 46/63/21 45/64/21
f 43/60/22 47/62/22 45/65/22 41/66/22
f 48/61/23 44/59/23 42/67/23 46/68/23
o Estela_2_Cube.007
v -0.576370 4.003038 2.567466
v -0.566716 4.030170 2.567240
v -0.586013 4.003038 2.156021
v -0.576360 4.030170 2.155795
v -0.549245 3.993381 2.566830
v -0.539590 4.020514 2.566604
v -0.558888 3.993381 2.155385
v -0.549234 4.020514 2.155159
vt 0.744001 0.084237
vt 0.751716 0.076522
vt 0.861958 0.186765
vt 0.854244 0.194479
vt 0.869673 0.194479
vt 0.861958 0.202194
vt 0.979915 0.304722
vt 0.972201 0.312436
vt 0.751716 0.312436
vt 0.744002 0.304722
vt 0.972201 0.076522
vt 0.979915 0.084237
vn -0.9419 0.3353 0.0221
vn -0.0234 -0.0000 -0.9997
vn 0.9419 -0.3353 -0.0221
vn -0.3352 -0.9421 0.0079
vn 0.3352 0.9421 -0.0079
usemtl Material
s off
f 49/69/24 50/70/24 52/71/24 51/72/24
f 51/72/25 52/71/25 56/73/25 55/74/25
f 55/74/26 56/73/26 54/75/26 53/76/26
f 51/72/27 55/74/27 53/77/27 49/78/27
f 56/73/28 52/71/28 50/79/28 54/80/28
o Estela_3_Cube.008
v -0.550284 3.928718 2.567323
v -0.549085 3.899943 2.567295
v -0.568460 3.928718 1.791850
v -0.567261 3.899943 1.791822
v -0.579052 3.927518 2.567997
v -0.577852 3.898743 2.567969
v -0.597228 3.927518 1.792525
v -0.596028 3.898743 1.792496
vt 0.390874 0.024965
vt 0.396746 0.019093
vt 0.554902 0.177249
vt 0.549030 0.183121
vt 0.560774 0.183121
vt 0.554902 0.188993
vt 0.718924 0.341271
vt 0.713052 0.347142
vt 0.396753 0.347142
vt 0.390881 0.341270
vt 0.713052 0.019100
vt 0.718924 0.024972
vn 0.9989 0.0417 -0.0234
vn -0.0234 0.0000 -0.9997
vn -0.9989 -0.0417 0.0234
vn -0.0417 0.9991 0.0010
vn 0.0417 -0.9991 -0.0010
usemtl Material
s off
f 57/81/29 58/82/29 60/83/29 59/84/29
f 59/84/30 60/83/30 64/85/30 63/86/30
f 63/86/31 64/85/31 62/87/31 61/88/31
f 59/84/32 63/86/32 61/89/32 57/90/32
f 64/85/33 60/83/33 58/91/33 62/92/33
o Fogonazo_Cylinder.004
v -0.525194 3.964740 2.504495
v -0.329279 3.971052 2.466495
v -0.396615 3.968899 2.543178
v -0.386200 3.837663 2.466745
v -0.431082 3.877472 2.544064
v -0.525155 3.758730 2.471211
v -0.520078 3.837206 2.546350
v -0.671661 3.815052 2.473766
v -0.611471 3.871686 2.548697
v -0.722802 3.958428 2.476604
v -0.651723 3.960715 2.549732
v -0.655576 4.090179 2.478044
v -0.617256 4.052142 2.548846
v -0.532013 4.151662 2.472467
v -0.528260 4.092409 2.546560
v -0.379736 4.125343 2.468663
v -0.436867 4.057928 2.544212
v -0.280972 4.090998 2.333836
v -0.424968 4.216131 2.352915
v -0.757825 4.051827 2.356669
v -0.623486 4.181949 2.375179
v -0.777384 3.853377 2.359467
v -0.636695 3.706204 2.371127
v -0.434271 3.727139 2.329094
v -0.290440 3.883073 2.343938
vt 0.850869 0.849468
vt 0.865642 0.889005
vt 0.820524 0.881111
vt 0.876722 0.851123
vt 0.884768 0.872295
vt 0.906749 0.910006
vt 0.869594 0.940029
vt 0.905573 0.882033
vt 0.947428 0.894084
vt 0.941664 0.935426
vt 0.927580 0.874303
vt 0.962746 0.854657
vt 0.990508 0.890076
vt 0.936703 0.853058
vt 0.944794 0.815568
vt 0.990508 0.820665
vt 0.928389 0.832052
vt 0.908294 0.798729
vt 0.939540 0.775883
vt 0.907920 0.822792
vt 0.866867 0.807937
vt 0.873982 0.767631
vt 0.886038 0.829976
vt 0.821646 0.809632
vt 0.126448 0.773829
vt 0.125686 0.680795
vt 0.173820 0.655586
vt 0.187849 0.714236
vt 0.081641 0.659384
vt 0.069454 0.714850
vt 0.047074 0.770080
vt 0.018590 0.815527
vt 0.065491 0.834048
vt 0.026885 0.728253
vt 0.077230 0.886821
vt 0.123271 0.863849
vt 0.164572 0.891121
vt 0.182364 0.842979
vt 0.235552 0.829027
vt 0.209102 0.775466
vt 0.235552 0.729784
vn 0.7985 -0.3398 0.4970
vn 0.7360 -0.2961 0.6087
vn 0.4501 -0.7664 0.4582
vn 0.3754 -0.6823 0.6274
vn -0.2597 -0.7054 0.6596
vn -0.2401 -0.6672 0.7051
vn -0.7498 -0.2793 0.5999
vn -0.6635 -0.2725 0.6967
vn -0.7625 0.3834 0.5212
vn -0.7130 0.3233 0.6222
vn -0.3483 0.7508 0.5612
vn -0.3306 0.7363 0.5904
vn 0.1536 0.8058 0.5720
vn 0.1950 0.7132 0.6733
vn 0.8096 0.2574 0.5275
vn 0.6911 0.2487 0.6787
vn -0.6560 0.4607 -0.5979
vn -0.1104 -0.7169 -0.6884
vn 0.4862 -0.5852 -0.6490
vn -0.6967 -0.1458 -0.7024
vn 0.5915 0.4779 -0.6494
vn 0.1136 -0.7675 -0.6309
vn 0.7107 -0.0936 -0.6973
vn -0.4392 -0.5979 -0.6705
vn 0.0735 0.7252 -0.6846
vn 0.5853 -0.4319 -0.6862
vn -0.4117 0.5517 -0.7253
vn 0.6297 0.1240 -0.7669
vn -0.8301 0.0888 -0.5506
vn 0.4058 0.6382 -0.6542
vn -0.1429 0.7820 -0.6067
vn -0.6039 -0.4691 -0.6444
vn 0.0257 -0.0000 0.9997
usemtl Material
s off
f 66/93/34 68/94/34 89/95/34
f 66/93/35 67/96/35 69/97/35 68/94/35
f 68/94/36 70/98/36 88/99/36
f 68/94/37 69/97/37 71/100/37 70/98/37
f 70/98/38 72/101/38 87/102/38
f 70/98/39 71/100/39 73/103/39 72/101/39
f 72/101/40 74/104/40 86/105/40
f 72/101/41 73/103/41 75/106/41 74/104/41
f 74/104/42 76/107/42 84/108/42
f 74/104/43 75/106/43 77/109/43 76/107/43
f 76/107/44 78/110/44 85/111/44
f 76/107/45 77/109/45 79/112/45 78/110/45
f 78/110/46 80/113/46 83/114/46
f 78/110/47 79/112/47 81/115/47 80/113/47
f 80/113/48 66/93/48 82/116/48
f 80/113/49 81/115/49 67/96/49 66/93/49
f 65/117/50 80/118/50 82/119/50
f 66/120/51 65/117/51 82/119/51
f 80/118/52 65/117/52 83/121/52
f 65/117/53 78/122/53 83/121/53
f 76/123/54 65/117/54 84/124/54
f 65/117/55 74/125/55 84/124/55
f 78/122/56 65/117/56 85/126/56
f 65/117/57 76/123/57 85/126/57
f 74/125/58 65/117/58 86/127/58
f 65/117/59 72/128/59 86/127/59
f 72/128/60 65/117/60 87/129/60
f 65/117/61 70/130/61 87/129/61
f 70/130/62 65/117/62 88/131/62
f 65/117/63 68/132/63 88/131/63
f 65/117/64 66/120/64 89/133/64
f 68/132/65 65/117/65 89/133/65
f 69/97/66 67/96/66 81/115/66 79/112/66 77/109/66 75/106/66 73/103/66 71/100/66
