# Blender v2.82 (sub 7) OBJ File: 'BalaDerecha.blend'
# www.blender.org
mtllib BalaDerecha_000015.mtl
o Bala_Cylinder.003
v -0.397790 3.941161 2.524568
v -0.457177 3.958724 3.199276
v -0.459894 3.853604 2.526186
v -0.484338 3.920432 3.199984
v -0.565699 3.835621 2.528944
v -0.530610 3.912567 3.201190
v -0.653227 3.897746 2.531225
v -0.568889 3.939737 3.202188
v -0.671204 4.003587 2.531694
v -0.576751 3.986025 3.202393
v -0.609100 4.091145 2.530075
v -0.549591 4.024317 3.201685
v -0.503294 4.109128 2.527318
v -0.503318 4.032182 3.200479
v -0.415767 4.047003 2.525036
v -0.465039 4.005012 3.199481
v -0.387544 3.941161 2.917679
v -0.449648 3.853604 2.919298
v -0.555453 3.835621 2.922055
v -0.642981 3.897746 2.924337
v -0.660958 4.003587 2.924805
v -0.598854 4.091145 2.923187
v -0.493048 4.109128 2.920429
v -0.405521 4.047003 2.918148
v -0.501016 3.968733 3.200419
v -0.508261 3.958519 3.200608
v -0.520604 3.956420 3.200929
v -0.530815 3.963668 3.201195
v -0.532913 3.976016 3.201250
v -0.525667 3.986230 3.201061
v -0.513324 3.988328 3.200739
v -0.503113 3.981081 3.200473
v -0.479795 3.959884 2.526705
v -0.504645 3.924849 2.527353
v -0.546983 3.917653 2.528456
v -0.582006 3.942512 2.529369
v -0.589200 3.984864 2.529557
v -0.564349 4.019899 2.528909
v -0.522012 4.027095 2.527805
v -0.486988 4.002236 2.526892
vt 0.571177 0.819618
vt 0.793679 0.842301
vt 0.792020 0.881992
vt 0.561213 0.895770
vt 0.797677 0.921414
vt 0.558627 0.981594
vt 0.784882 0.431415
vt 0.915080 0.649522
vt 0.882098 0.673287
vt 0.725706 0.494938
vt 0.854120 0.701371
vt 0.679164 0.556598
vt 0.830961 0.732764
vt 0.641960 0.618211
vt 0.812842 0.767023
vt 0.611028 0.684809
vt 0.982776 0.396146
vt 0.982776 0.463263
vt 0.923370 0.438657
vt 0.923370 0.420752
vt 0.801537 0.803928
vt 0.587762 0.749802
vt 0.227995 0.416724
vt 0.323726 0.422389
vt 0.291268 0.488982
vt 0.253411 0.486967
vt 0.320555 0.647466
vt 0.289883 0.730852
vt 0.370361 0.577645
vt 0.385540 0.494831
vt 0.426017 0.417005
vt 0.470066 0.340997
vt 0.514875 0.267284
vt 0.263759 0.816919
vt 0.241100 0.904987
vt 0.880146 0.438657
vt 0.880146 0.420752
vt 0.892805 0.408092
vt 0.910710 0.408092
vt 0.910710 0.451317
vt 0.892805 0.451317
vt 0.820740 0.396146
vt 0.868199 0.348686
vt 0.820740 0.463263
vt 0.935317 0.510722
vt 0.868199 0.510722
vt 0.935317 0.348686
vt 0.250323 0.578435
vt 0.223959 0.551121
vt 0.225364 0.512930
vt 0.316167 0.516903
vt 0.313787 0.552663
vt 0.287795 0.578888
vt 0.153818 0.578578
vt 0.156940 0.481709
vt 0.221449 0.648464
vn 0.7955 -0.5600 0.2316
vn 0.1686 -0.9540 0.2480
vn -0.5532 -0.7892 0.2668
vn -0.9471 -0.1621 0.2770
vn -0.7823 0.5600 0.2728
vn -0.1555 0.9540 0.2564
vn 0.0261 0.0000 0.9997
vn 0.5663 0.7892 0.2376
vn 0.9602 0.1621 0.2273
vn -0.0261 0.0000 -0.9997
vn 0.9855 0.1675 -0.0257
vn 0.5785 0.8156 -0.0151
vn -0.1675 0.9859 0.0044
vn -0.8153 0.5787 0.0212
vn -0.9855 -0.1675 0.0257
vn -0.5785 -0.8156 0.0151
vn 0.1674 -0.9859 -0.0044
vn 0.8153 -0.5787 -0.0212
vn 0.0260 -0.0000 0.9997
usemtl Material
s off
f 17/1/1 2/2/1 4/3/1 18/4/1
f 18/4/2 4/3/2 6/5/2 19/6/2
f 19/7/3 6/8/3 8/9/3 20/10/3
f 20/10/4 8/9/4 10/11/4 21/12/4
f 21/12/5 10/11/5 12/13/5 22/14/5
f 22/14/6 12/13/6 14/15/6 23/16/6
f 12/17/7 10/18/7 29/19/7 30/20/7
f 23/16/8 14/15/8 16/21/8 24/22/8
f 24/22/9 16/21/9 2/2/9 17/1/9
f 7/23/10 9/24/10 37/25/10 36/26/10
f 15/27/11 24/22/11 17/1/11 1/28/11
f 13/29/12 23/16/12 24/22/12 15/27/12
f 11/30/13 22/14/13 23/16/13 13/29/13
f 9/31/14 21/12/14 22/14/14 11/30/14
f 7/32/15 20/10/15 21/12/15 9/31/15
f 5/33/16 19/7/16 20/10/16 7/32/16
f 3/34/17 18/4/17 19/6/17 5/35/17
f 1/28/18 17/1/18 18/4/18 3/34/18
f 26/36/19 25/37/19 32/38/19 31/39/19 30/20/19 29/19/19 28/40/19 27/41/19
f 2/42/7 16/43/7 32/38/7 25/37/7
f 4/44/7 2/42/7 25/37/7 26/36/7
f 8/45/7 6/46/7 27/41/7 28/40/7
f 14/47/7 12/17/7 30/20/7 31/39/7
f 10/18/19 8/45/19 28/40/19 29/19/19
f 16/43/7 14/47/7 31/39/7 32/38/7
f 6/46/19 4/44/19 26/36/19 27/41/19
f 33/48/10 34/49/10 35/50/10 36/26/10 37/25/10 38/51/10 39/52/10 40/53/10
f 13/29/10 15/27/10 40/53/10 39/52/10
f 3/54/10 5/55/10 35/50/10 34/49/10
f 9/24/10 11/30/10 38/51/10 37/25/10
f 15/27/10 1/56/10 33/48/10 40/53/10
f 1/56/10 3/54/10 34/49/10 33/48/10
f 5/55/10 7/23/10 36/26/10 35/50/10
f 11/30/10 13/29/10 39/52/10 38/51/10
o Estela_1_Cube.006
v -0.489795 3.936060 2.554388
v -0.456983 3.950852 2.553619
v -0.520022 3.936060 1.264742
v -0.487211 3.950852 1.263973
v -0.475006 3.903239 2.554041
v -0.442195 3.918031 2.553272
v -0.505234 3.903239 1.264396
v -0.472422 3.918031 1.263627
vt 0.029882 0.343262
vt 0.025420 0.338800
vt 0.185305 0.178913
vt 0.189767 0.183375
vt 0.189767 0.174452
vt 0.194229 0.178913
vt 0.349650 0.014568
vt 0.354112 0.019030
vt 0.354112 0.338796
vt 0.349650 0.343258
vt 0.025422 0.019030
vt 0.029884 0.014568
vn -0.4108 0.9117 0.0096
vn -0.0234 0.0000 -0.9997
vn 0.4108 -0.9117 -0.0096
vn -0.9114 -0.4109 0.0214
vn 0.9114 0.4109 -0.0214
usemtl Material
s off
f 41/57/20 42/58/20 44/59/20 43/60/20
f 43/60/21 44/59/21 48/61/21 47/62/21
f 47/62/22 48/61/22 46/63/22 45/64/22
f 43/60/23 47/62/23 45/65/23 41/66/23
f 48/61/24 44/59/24 42/67/24 46/68/24
o Estela_2_Cube.007
v -0.569810 4.021552 2.555760
v -0.548864 4.050827 2.555269
v -0.581865 4.021552 2.041454
v -0.560919 4.050827 2.040963
v -0.540543 4.000600 2.555074
v -0.519597 4.029875 2.554583
v -0.552598 4.000600 2.040768
v -0.531652 4.029875 2.040277
vt 0.744001 0.084237
vt 0.751716 0.076522
vt 0.861958 0.186765
vt 0.854244 0.194479
vt 0.869673 0.194479
vt 0.861958 0.202194
vt 0.979915 0.304722
vt 0.972201 0.312436
vt 0.751716 0.312436
vt 0.744002 0.304722
vt 0.972201 0.076522
vt 0.979915 0.084237
vn -0.8130 0.5820 0.0191
vn -0.0234 0.0000 -0.9997
vn 0.8130 -0.5820 -0.0191
vn -0.5818 -0.8132 0.0136
vn 0.5818 0.8132 -0.0136
usemtl Material
s off
f 49/69/25 50/70/25 52/71/25 51/72/25
f 51/72/26 52/71/26 56/73/26 55/74/26
f 55/74/27 56/73/27 54/75/27 53/76/27
f 51/72/28 55/74/28 53/77/28 49/78/28
f 56/73/29 52/71/29 50/79/29 54/80/29
o Estela_3_Cube.008
v -0.564065 3.923264 2.556212
v -0.572536 3.888276 2.556410
v -0.586785 3.923264 1.586871
v -0.595256 3.888276 1.587069
v -0.599045 3.931737 2.557032
v -0.607515 3.896748 2.557230
v -0.621765 3.931737 1.587691
v -0.630235 3.896748 1.587889
vt 0.390874 0.024965
vt 0.396746 0.019093
vt 0.554902 0.177249
vt 0.549030 0.183121
vt 0.560774 0.183121
vt 0.554902 0.188993
vt 0.718924 0.341271
vt 0.713052 0.347142
vt 0.396753 0.347142
vt 0.390881 0.341270
vt 0.713052 0.019100
vt 0.718924 0.024972
vn 0.9716 -0.2354 -0.0228
vn -0.0234 0.0000 -0.9997
vn -0.9716 0.2354 0.0228
vn 0.2353 0.9719 -0.0055
vn -0.2353 -0.9719 0.0055
usemtl Material
s off
f 57/81/30 58/82/30 60/83/30 59/84/30
f 59/84/31 60/83/31 64/85/31 63/86/31
f 63/86/32 64/85/32 62/87/32 61/88/32
f 59/84/33 63/86/33 61/89/33 57/90/33
f 64/85/34 60/83/34 58/91/34 62/92/34
o Fogonazo_Cylinder.004
v -0.523864 3.963669 2.504495
v -0.321646 3.917302 2.466256
v -0.391158 3.933694 2.543024
v -0.415691 3.796059 2.467495
v -0.450964 3.849377 2.544582
v -0.579087 3.752588 2.472650
v -0.552854 3.832059 2.547238
v -0.713923 3.849555 2.474956
v -0.637142 3.891885 2.549435
v -0.727799 4.010036 2.476842
v -0.654454 3.993809 2.549886
v -0.623646 4.126850 2.477294
v -0.594648 4.078126 2.548327
v -0.480686 4.156584 2.471165
v -0.492758 4.095444 2.545672
v -0.331894 4.088764 2.467395
v -0.408470 4.035618 2.543475
v -0.239994 4.026186 2.332705
v -0.353804 4.193019 2.351052
v -0.738558 4.114194 2.356284
v -0.566159 4.211452 2.373752
v -0.811820 3.916358 2.360488
v -0.707315 3.728066 2.373039
v -0.494512 3.694891 2.330659
v -0.305471 3.815995 2.344271
vt 0.850869 0.849468
vt 0.865642 0.889005
vt 0.820524 0.881111
vt 0.876722 0.851123
vt 0.884768 0.872295
vt 0.906749 0.910006
vt 0.869594 0.940029
vt 0.905573 0.882033
vt 0.947428 0.894084
vt 0.941664 0.935426
vt 0.927580 0.874303
vt 0.962746 0.854657
vt 0.990508 0.890076
vt 0.936703 0.853058
vt 0.944794 0.815568
vt 0.990508 0.820665
vt 0.928389 0.832052
vt 0.908294 0.798729
vt 0.939540 0.775883
vt 0.907920 0.822792
vt 0.866867 0.807937
vt 0.873982 0.767631
vt 0.886038 0.829976
vt 0.821646 0.809632
vt 0.126448 0.773829
vt 0.125686 0.680795
vt 0.173820 0.655586
vt 0.187849 0.714236
vt 0.081641 0.659384
vt 0.069454 0.714850
vt 0.047074 0.770080
vt 0.018590 0.815527
vt 0.065491 0.834048
vt 0.026885 0.728253
vt 0.077230 0.886821
vt 0.123271 0.863849
vt 0.164572 0.891121
vt 0.182364 0.842979
vt 0.235552 0.829027
vt 0.209102 0.775466
vt 0.235552 0.729784
vn 0.6768 -0.5197 0.5213
vn 0.6241 -0.4585 0.6327
vn 0.2392 -0.8415 0.4844
vn 0.1873 -0.7335 0.6533
vn -0.4177 -0.5972 0.6848
vn -0.3884 -0.5637 0.7290
vn -0.7790 -0.0747 0.6226
vn -0.6903 -0.0884 0.7181
vn -0.6296 0.5592 0.5394
vn -0.5932 0.4871 0.6410
vn -0.1424 0.8038 0.5777
vn -0.1289 0.7842 0.6070
vn 0.3476 0.7299 0.5886
vn 0.3615 0.6278 0.6893
vn 0.8350 0.0463 0.5483
vn 0.7130 0.0678 0.6978
vn -0.5080 0.5948 -0.6230
vn -0.2825 -0.6516 -0.7040
vn 0.3127 -0.6774 -0.6659
vn -0.6917 0.0302 -0.7215
vn 0.6756 0.3009 -0.6730
vn -0.0845 -0.7577 -0.6471
vn 0.6443 -0.2680 -0.7163
vn -0.5629 -0.4588 -0.6874
vn 0.2463 0.6603 -0.7095
vn 0.4431 -0.5559 -0.7033
vn -0.2523 0.6138 -0.7481
vn 0.6180 -0.0433 -0.7850
vn -0.7671 0.2872 -0.5736
vn 0.5394 0.4980 -0.6789
vn 0.0572 0.7718 -0.6333
vn -0.6873 -0.2972 -0.6628
vn 0.0261 -0.0000 0.9997
usemtl Material
s off
f 66/93/35 68/94/35 89/95/35
f 66/93/36 67/96/36 69/97/36 68/94/36
f 68/94/37 70/98/37 88/99/37
f 68/94/38 69/97/38 71/100/38 70/98/38
f 70/98/39 72/101/39 87/102/39
f 70/98/40 71/100/40 73/103/40 72/101/40
f 72/101/41 74/104/41 86/105/41
f 72/101/42 73/103/42 75/106/42 74/104/42
f 74/104/43 76/107/43 84/108/43
f 74/104/44 75/106/44 77/109/44 76/107/44
f 76/107/45 78/110/45 85/111/45
f 76/107/46 77/109/46 79/112/46 78/110/46
f 78/110/47 80/113/47 83/114/47
f 78/110/48 79/112/48 81/115/48 80/113/48
f 80/113/49 66/93/49 82/116/49
f 80/113/50 81/115/50 67/96/50 66/93/50
f 65/117/51 80/118/51 82/119/51
f 66/120/52 65/117/52 82/119/52
f 80/118/53 65/117/53 83/121/53
f 65/117/54 78/122/54 83/121/54
f 76/123/55 65/117/55 84/124/55
f 65/117/56 74/125/56 84/124/56
f 78/122/57 65/117/57 85/126/57
f 65/117/58 76/123/58 85/126/58
f 74/125/59 65/117/59 86/127/59
f 65/117/60 72/128/60 86/127/60
f 72/128/61 65/117/61 87/129/61
f 65/117/62 70/130/62 87/129/62
f 70/130/63 65/117/63 88/131/63
f 65/117/64 68/132/64 88/131/64
f 65/117/65 66/120/65 89/133/65
f 68/132/66 65/117/66 89/133/66
f 69/97/67 67/96/67 81/115/67 79/112/67 77/109/67 75/106/67 73/103/67 71/100/67
