# Blender v2.82 (sub 7) OBJ File: 'BalaDerecha.blend'
# www.blender.org
mtllib BalaDerecha_000030.mtl
o Bala_Cylinder.003
v -0.613142 3.854815 2.530315
v -0.550678 3.920962 3.201724
v -0.673830 3.943357 2.532068
v -0.577220 3.959684 3.202490
v -0.654161 4.048897 2.531500
v -0.568618 4.005841 3.202242
v -0.565656 4.109611 2.528944
v -0.529911 4.032393 3.201124
v -0.460161 4.089933 2.525898
v -0.483774 4.023787 3.199792
v -0.399472 4.001391 2.524145
v -0.457233 3.985065 3.199025
v -0.419141 3.895852 2.524713
v -0.465835 3.938909 3.199274
v -0.507646 3.835138 2.527269
v -0.504541 3.912356 3.200392
v -0.601791 3.854815 2.923396
v -0.662479 3.943357 2.925149
v -0.642810 4.048897 2.924581
v -0.554305 4.109611 2.922025
v -0.448809 4.089933 2.918979
v -0.388121 4.001391 2.917226
v -0.407790 3.895852 2.917794
v -0.496295 3.835138 2.920350
v -0.526150 3.958660 3.201015
v -0.533230 3.968989 3.201220
v -0.530935 3.981302 3.201154
v -0.520610 3.988385 3.200856
v -0.508303 3.986089 3.200500
v -0.501223 3.975760 3.200296
v -0.503518 3.963447 3.200362
v -0.513843 3.956364 3.200660
v -0.567258 3.925334 2.528990
v -0.591542 3.960763 2.529691
v -0.583672 4.002995 2.529464
v -0.548257 4.027288 2.528441
v -0.506044 4.019415 2.527222
v -0.481760 3.983985 2.526521
v -0.489630 3.941754 2.526748
v -0.525045 3.917460 2.527771
vt 0.571177 0.819618
vt 0.793679 0.842301
vt 0.792020 0.881992
vt 0.561213 0.895770
vt 0.797677 0.921414
vt 0.558627 0.981594
vt 0.784882 0.431415
vt 0.915080 0.649522
vt 0.882098 0.673287
vt 0.725706 0.494938
vt 0.854120 0.701371
vt 0.679164 0.556598
vt 0.830961 0.732764
vt 0.641960 0.618211
vt 0.812842 0.767023
vt 0.611028 0.684809
vt 0.982776 0.396146
vt 0.982776 0.463263
vt 0.923370 0.438657
vt 0.923370 0.420752
vt 0.801537 0.803928
vt 0.587762 0.749802
vt 0.227995 0.416724
vt 0.323726 0.422389
vt 0.291268 0.488982
vt 0.253411 0.486967
vt 0.320555 0.647466
vt 0.289883 0.730852
vt 0.370361 0.577645
vt 0.385540 0.494831
vt 0.426017 0.417005
vt 0.470066 0.340997
vt 0.514875 0.267284
vt 0.263759 0.816919
vt 0.241100 0.904987
vt 0.880146 0.438657
vt 0.880146 0.420752
vt 0.892805 0.408092
vt 0.910710 0.408092
vt 0.910710 0.451317
vt 0.892805 0.451317
vt 0.820740 0.396146
vt 0.868199 0.348686
vt 0.820740 0.463263
vt 0.935317 0.510722
vt 0.868199 0.510722
vt 0.935317 0.348686
vt 0.250323 0.578435
vt 0.223959 0.551121
vt 0.225364 0.512930
vt 0.316167 0.516903
vt 0.313787 0.552663
vt 0.287795 0.578888
vt 0.153818 0.578578
vt 0.156940 0.481709
vt 0.221449 0.648464
vn -0.7904 -0.5472 0.2752
vn -0.9436 0.1774 0.2796
vn -0.5397 0.7981 0.2680
vn 0.1846 0.9513 0.2471
vn 0.8050 0.5472 0.2291
vn 0.9581 -0.1774 0.2247
vn 0.0289 -0.0000 0.9996
vn 0.5543 -0.7981 0.2364
vn -0.1700 -0.9513 0.2573
vn -0.0289 -0.0000 -0.9996
vn -0.1832 -0.9831 0.0053
vn 0.5653 -0.8247 -0.0163
vn 0.9826 -0.1833 -0.0284
vn 0.8244 0.5655 -0.0238
vn 0.1832 0.9831 -0.0053
vn -0.5653 0.8247 0.0163
vn -0.9827 0.1833 0.0284
vn -0.8244 -0.5655 0.0238
usemtl Material
s off
f 17/1/1 2/2/1 4/3/1 18/4/1
f 18/4/2 4/3/2 6/5/2 19/6/2
f 19/7/3 6/8/3 8/9/3 20/10/3
f 20/10/4 8/9/4 10/11/4 21/12/4
f 21/12/5 10/11/5 12/13/5 22/14/5
f 22/14/6 12/13/6 14/15/6 23/16/6
f 12/17/7 10/18/7 29/19/7 30/20/7
f 23/16/8 14/15/8 16/21/8 24/22/8
f 24/22/9 16/21/9 2/2/9 17/1/9
f 7/23/10 9/24/10 37/25/10 36/26/10
f 15/27/11 24/22/11 17/1/11 1/28/11
f 13/29/12 23/16/12 24/22/12 15/27/12
f 11/30/13 22/14/13 23/16/13 13/29/13
f 9/31/14 21/12/14 22/14/14 11/30/14
f 7/32/15 20/10/15 21/12/15 9/31/15
f 5/33/16 19/7/16 20/10/16 7/32/16
f 3/34/17 18/4/17 19/6/17 5/35/17
f 1/28/18 17/1/18 18/4/18 3/34/18
f 26/36/7 25/37/7 32/38/7 31/39/7 30/20/7 29/19/7 28/40/7 27/41/7
f 2/42/7 16/43/7 32/38/7 25/37/7
f 4/44/7 2/42/7 25/37/7 26/36/7
f 8/45/7 6/46/7 27/41/7 28/40/7
f 14/47/7 12/17/7 30/20/7 31/39/7
f 10/18/7 8/45/7 28/40/7 29/19/7
f 16/43/7 14/47/7 31/39/7 32/38/7
f 6/46/7 4/44/7 26/36/7 27/41/7
f 33/48/10 34/49/10 35/50/10 36/26/10 37/25/10 38/51/10 39/52/10 40/53/10
f 13/29/10 15/27/10 40/53/10 39/52/10
f 3/54/10 5/55/10 35/50/10 34/49/10
f 9/24/10 11/30/10 38/51/10 37/25/10
f 15/27/10 1/56/10 33/48/10 40/53/10
f 1/56/10 3/54/10 34/49/10 33/48/10
f 5/55/10 7/23/10 36/26/10 35/50/10
f 11/30/10 13/29/10 39/52/10 38/51/10
o Estela_1_Cube.006
v -0.600697 3.929636 2.553130
v -0.604295 3.893816 2.553214
v -0.630924 3.929636 1.263484
v -0.634523 3.893816 1.263569
v -0.636506 3.933235 2.553969
v -0.640105 3.897416 2.554054
v -0.666734 3.933235 1.264324
v -0.670333 3.897416 1.264408
vt 0.029882 0.343262
vt 0.025420 0.338800
vt 0.185305 0.178913
vt 0.189767 0.183375
vt 0.189767 0.174452
vt 0.194229 0.178913
vt 0.349650 0.014568
vt 0.354112 0.019030
vt 0.354112 0.338796
vt 0.349650 0.343258
vt 0.025422 0.019030
vt 0.029884 0.014568
vn 0.9947 -0.1000 -0.0233
vn -0.0234 0.0000 -0.9997
vn -0.9947 0.1000 0.0233
vn 0.1000 0.9950 -0.0023
vn -0.1000 -0.9950 0.0023
usemtl Material
s off
f 41/57/19 42/58/19 44/59/19 43/60/19
f 43/60/20 44/59/20 48/61/20 47/62/20
f 47/62/21 48/61/21 46/63/21 45/64/21
f 43/60/22 47/62/22 45/65/22 41/66/22
f 48/61/23 44/59/23 42/67/23 46/68/23
o Estela_2_Cube.007
v -0.486689 3.956194 2.549955
v -0.471816 3.923412 2.549606
v -0.498744 3.956194 2.035649
v -0.483871 3.923412 2.035300
v -0.519462 3.941317 2.550723
v -0.504589 3.908535 2.550374
v -0.531517 3.941317 2.036417
v -0.516644 3.908535 2.036068
vt 0.744001 0.084237
vt 0.751716 0.076522
vt 0.861958 0.186765
vt 0.854244 0.194479
vt 0.869673 0.194479
vt 0.861958 0.202194
vt 0.979915 0.304722
vt 0.972201 0.312436
vt 0.751716 0.312436
vt 0.744002 0.304722
vt 0.972201 0.076522
vt 0.979915 0.084237
vn 0.9104 0.4132 -0.0213
vn -0.0234 -0.0000 -0.9997
vn -0.9104 -0.4133 0.0213
vn -0.4131 0.9106 0.0097
vn 0.4131 -0.9106 -0.0097
usemtl Material
s off
f 49/69/24 50/70/24 52/71/24 51/72/24
f 51/72/25 52/71/25 56/73/25 55/74/25
f 55/74/26 56/73/26 54/75/26 53/76/26
f 51/72/27 55/74/27 53/77/27 49/78/27
f 56/73/28 52/71/28 50/79/28 54/80/28
o Estela_3_Cube.008
v -0.574637 4.000373 2.552602
v -0.600694 4.025205 2.553213
v -0.597356 4.000373 1.583261
v -0.623414 4.025205 1.583872
v -0.549811 4.026438 2.552020
v -0.575869 4.051270 2.552631
v -0.572531 4.026438 1.582679
v -0.598589 4.051270 1.583290
vt 0.390874 0.024965
vt 0.396746 0.019093
vt 0.554902 0.177249
vt 0.549030 0.183121
vt 0.560774 0.183121
vt 0.554902 0.188993
vt 0.718924 0.341271
vt 0.713052 0.347142
vt 0.396753 0.347142
vt 0.390881 0.341270
vt 0.713052 0.019100
vt 0.718924 0.024972
vn -0.6896 -0.7240 0.0162
vn -0.0234 0.0000 -0.9997
vn 0.6896 0.7240 -0.0162
vn 0.7238 -0.6898 -0.0170
vn -0.7238 0.6898 0.0170
usemtl Material
s off
f 57/81/29 58/82/29 60/83/29 59/84/29
f 59/84/30 60/83/30 64/85/30 63/86/30
f 63/86/31 64/85/31 62/87/31 61/88/31
f 59/84/32 63/86/32 61/89/32 57/90/32
f 64/85/33 60/83/33 58/91/33 62/92/33
o Fogonazo_Cylinder.004
v -0.516897 3.955835 2.397088
v -0.516897 3.955835 2.397088
v -0.516897 3.955835 2.397088
v -0.516897 3.955835 2.397088
v -0.516897 3.955835 2.397088
v -0.516897 3.955835 2.397088
v -0.516897 3.955835 2.397088
v -0.516897 3.955835 2.397088
v -0.516897 3.955835 2.397088
v -0.516897 3.955835 2.397088
v -0.516897 3.955835 2.397088
v -0.516897 3.955835 2.397088
v -0.516897 3.955835 2.397088
v -0.516897 3.955835 2.397088
v -0.516897 3.955835 2.397088
v -0.516897 3.955835 2.397088
v -0.516897 3.955835 2.397088
v -0.516897 3.955835 2.397088
v -0.516897 3.955835 2.397088
v -0.516897 3.955835 2.397088
v -0.516897 3.955835 2.397088
v -0.516897 3.955835 2.397088
v -0.516897 3.955835 2.397088
v -0.516897 3.955835 2.397088
v -0.516897 3.955835 2.397088
vt 0.850869 0.849468
vt 0.865642 0.889005
vt 0.820524 0.881111
vt 0.876722 0.851123
vt 0.884768 0.872295
vt 0.906749 0.910006
vt 0.869594 0.940029
vt 0.905573 0.882033
vt 0.947428 0.894084
vt 0.941664 0.935426
vt 0.927580 0.874303
vt 0.962746 0.854657
vt 0.990508 0.890076
vt 0.936703 0.853058
vt 0.944794 0.815568
vt 0.990508 0.820665
vt 0.928389 0.832052
vt 0.908294 0.798729
vt 0.939540 0.775883
vt 0.907920 0.822792
vt 0.866867 0.807937
vt 0.873982 0.767631
vt 0.886038 0.829976
vt 0.821646 0.809632
vt 0.126448 0.773829
vt 0.125686 0.680795
vt 0.173820 0.655586
vt 0.187849 0.714236
vt 0.081641 0.659384
vt 0.069454 0.714850
vt 0.047074 0.770080
vt 0.018590 0.815527
vt 0.065491 0.834048
vt 0.026885 0.728253
vt 0.077230 0.886821
vt 0.123271 0.863849
vt 0.164572 0.891121
vt 0.182364 0.842979
vt 0.235552 0.829027
vt 0.209102 0.775466
vt 0.235552 0.729784
vn 0.0000 0.0000 1.0000
usemtl Material
s off
f 66/93/34 68/94/34 89/95/34
f 66/93/34 67/96/34 69/97/34 68/94/34
f 68/94/34 70/98/34 88/99/34
f 68/94/34 69/97/34 71/100/34 70/98/34
f 70/98/34 72/101/34 87/102/34
f 70/98/34 71/100/34 73/103/34 72/101/34
f 72/101/34 74/104/34 86/105/34
f 72/101/34 73/103/34 75/106/34 74/104/34
f 74/104/34 76/107/34 84/108/34
f 74/104/34 75/106/34 77/109/34 76/107/34
f 76/107/34 78/110/34 85/111/34
f 76/107/34 77/109/34 79/112/34 78/110/34
f 78/110/34 80/113/34 83/114/34
f 78/110/34 79/112/34 81/115/34 80/113/34
f 80/113/34 66/93/34 82/116/34
f 80/113/34 81/115/34 67/96/34 66/93/34
f 65/117/34 80/118/34 82/119/34
f 66/120/34 65/117/34 82/119/34
f 80/118/34 65/117/34 83/121/34
f 65/117/34 78/122/34 83/121/34
f 76/123/34 65/117/34 84/124/34
f 65/117/34 74/125/34 84/124/34
f 78/122/34 65/117/34 85/126/34
f 65/117/34 76/123/34 85/126/34
f 74/125/34 65/117/34 86/127/34
f 65/117/34 72/128/34 86/127/34
f 72/128/34 65/117/34 87/129/34
f 65/117/34 70/130/34 87/129/34
f 70/130/34 65/117/34 88/131/34
f 65/117/34 68/132/34 88/131/34
f 65/117/34 66/120/34 89/133/34
f 68/132/34 65/117/34 89/133/34
f 69/97/34 67/96/34 81/115/34 79/112/34 77/109/34 75/106/34 73/103/34 71/100/34
