# Blender v2.82 (sub 7) OBJ File: 'BalaDerecha.blend'
# www.blender.org
mtllib BalaDerecha_000004.mtl
o Bala_Cylinder.003
v -0.480293 4.102393 2.526886
v -0.493757 4.029235 3.200336
v -0.403796 4.027090 2.525050
v -0.460302 3.996303 3.199533
v -0.402936 3.919735 2.525030
v -0.459925 3.949353 3.199523
v -0.478217 3.843215 2.526837
v -0.492849 3.915888 3.200314
v -0.585541 3.842355 2.529413
v -0.539785 3.915512 3.201440
v -0.662039 3.917658 2.531249
v -0.573240 3.948444 3.202243
v -0.662899 4.025013 2.531269
v -0.573617 3.995394 3.202252
v -0.587618 4.101533 2.529462
v -0.540693 4.028859 3.201462
v -0.470858 4.102393 2.920018
v -0.394360 4.027090 2.918182
v -0.393500 3.919735 2.918162
v -0.468781 3.843215 2.919968
v -0.576105 3.842355 2.922544
v -0.652603 3.917658 2.924380
v -0.653463 4.025013 2.924401
v -0.578182 4.101533 2.922594
v -0.510632 3.987542 3.200740
v -0.501707 3.978757 3.200526
v -0.501607 3.966233 3.200524
v -0.510390 3.957306 3.200735
v -0.522910 3.957206 3.201035
v -0.531835 3.965990 3.201249
v -0.531935 3.978515 3.201252
v -0.523152 3.987442 3.201041
v -0.511860 4.024400 2.527644
v -0.481250 3.994268 2.526909
v -0.480906 3.951311 2.526901
v -0.511029 3.920692 2.527624
v -0.553974 3.920348 2.528655
v -0.584584 3.950480 2.529390
v -0.584929 3.993437 2.529398
v -0.554805 4.024056 2.528675
vt 0.571177 0.819618
vt 0.793679 0.842301
vt 0.792020 0.881992
vt 0.561213 0.895770
vt 0.797677 0.921414
vt 0.558627 0.981594
vt 0.784882 0.431415
vt 0.915080 0.649522
vt 0.882098 0.673287
vt 0.725706 0.494938
vt 0.854120 0.701371
vt 0.679164 0.556598
vt 0.830961 0.732764
vt 0.641960 0.618211
vt 0.812842 0.767023
vt 0.611028 0.684809
vt 0.982776 0.396146
vt 0.982776 0.463263
vt 0.923370 0.438657
vt 0.923370 0.420752
vt 0.801537 0.803928
vt 0.587762 0.749802
vt 0.227995 0.416724
vt 0.323726 0.422389
vt 0.291268 0.488982
vt 0.253411 0.486967
vt 0.320555 0.647466
vt 0.289883 0.730852
vt 0.370361 0.577645
vt 0.385540 0.494831
vt 0.426017 0.417005
vt 0.470066 0.340997
vt 0.514875 0.267284
vt 0.263759 0.816919
vt 0.241100 0.904987
vt 0.880146 0.438657
vt 0.880146 0.420752
vt 0.892805 0.408092
vt 0.910710 0.408092
vt 0.910710 0.451317
vt 0.892805 0.451317
vt 0.820740 0.396146
vt 0.868199 0.348686
vt 0.820740 0.463263
vt 0.935317 0.510722
vt 0.868199 0.510722
vt 0.935317 0.348686
vt 0.250323 0.578435
vt 0.223959 0.551121
vt 0.225364 0.512930
vt 0.316167 0.516903
vt 0.313787 0.552663
vt 0.287795 0.578888
vt 0.153818 0.578578
vt 0.156940 0.481709
vt 0.221449 0.648464
vn 0.6846 0.6897 0.2359
vn 0.9734 0.0078 0.2290
vn 0.6956 -0.6787 0.2357
vn 0.0138 -0.9676 0.2520
vn -0.6725 -0.6897 0.2685
vn -0.9613 -0.0078 0.2754
vn 0.0240 -0.0000 0.9997
vn -0.6834 0.6787 0.2688
vn -0.0017 0.9676 0.2524
vn -0.0240 -0.0000 -0.9997
vn -0.0080 1.0000 0.0002
vn -0.7125 0.7014 0.0171
vn -0.9997 -0.0080 0.0240
vn -0.7012 -0.7128 0.0168
vn 0.0080 -1.0000 -0.0002
vn 0.7125 -0.7014 -0.0171
vn 0.9997 0.0080 -0.0240
vn 0.7012 0.7128 -0.0168
usemtl Material
s off
f 17/1/1 2/2/1 4/3/1 18/4/1
f 18/4/2 4/3/2 6/5/2 19/6/2
f 19/7/3 6/8/3 8/9/3 20/10/3
f 20/10/4 8/9/4 10/11/4 21/12/4
f 21/12/5 10/11/5 12/13/5 22/14/5
f 22/14/6 12/13/6 14/15/6 23/16/6
f 12/17/7 10/18/7 29/19/7 30/20/7
f 23/16/8 14/15/8 16/21/8 24/22/8
f 24/22/9 16/21/9 2/2/9 17/1/9
f 7/23/10 9/24/10 37/25/10 36/26/10
f 15/27/11 24/22/11 17/1/11 1/28/11
f 13/29/12 23/16/12 24/22/12 15/27/12
f 11/30/13 22/14/13 23/16/13 13/29/13
f 9/31/14 21/12/14 22/14/14 11/30/14
f 7/32/15 20/10/15 21/12/15 9/31/15
f 5/33/16 19/7/16 20/10/16 7/32/16
f 3/34/17 18/4/17 19/6/17 5/35/17
f 1/28/18 17/1/18 18/4/18 3/34/18
f 26/36/7 25/37/7 32/38/7 31/39/7 30/20/7 29/19/7 28/40/7 27/41/7
f 2/42/7 16/43/7 32/38/7 25/37/7
f 4/44/7 2/42/7 25/37/7 26/36/7
f 8/45/7 6/46/7 27/41/7 28/40/7
f 14/47/7 12/17/7 30/20/7 31/39/7
f 10/18/7 8/45/7 28/40/7 29/19/7
f 16/43/7 14/47/7 31/39/7 32/38/7
f 6/46/7 4/44/7 26/36/7 27/41/7
f 33/48/10 34/49/10 35/50/10 36/26/10 37/25/10 38/51/10 39/52/10 40/53/10
f 13/29/10 15/27/10 40/53/10 39/52/10
f 3/54/10 5/55/10 35/50/10 34/49/10
f 9/24/10 11/30/10 38/51/10 37/25/10
f 15/27/10 1/56/10 33/48/10 40/53/10
f 1/56/10 3/54/10 34/49/10 33/48/10
f 5/55/10 7/23/10 36/26/10 35/50/10
f 11/30/10 13/29/10 39/52/10 38/51/10
o Estela_1_Cube.006
v -0.543087 3.964195 2.612891
v -0.543087 3.964195 2.612891
v -0.543087 3.964195 2.612891
v -0.543087 3.964195 2.612891
v -0.543087 3.964195 2.612891
v -0.543087 3.964195 2.612891
v -0.543087 3.964195 2.612891
v -0.543087 3.964195 2.612891
vt 0.029882 0.343262
vt 0.025420 0.338800
vt 0.185305 0.178913
vt 0.189767 0.183375
vt 0.189767 0.174452
vt 0.194229 0.178913
vt 0.349650 0.014568
vt 0.354112 0.019030
vt 0.354112 0.338796
vt 0.349650 0.343258
vt 0.025422 0.019030
vt 0.029884 0.014568
vn 0.0000 0.0000 1.0000
usemtl Material
s off
f 41/57/19 42/58/19 44/59/19 43/60/19
f 43/60/19 44/59/19 48/61/19 47/62/19
f 47/62/19 48/61/19 46/63/19 45/64/19
f 43/60/19 47/62/19 45/65/19 41/66/19
f 48/61/19 44/59/19 42/67/19 46/68/19
o Estela_2_Cube.007
v -0.543087 3.964195 2.612892
v -0.543087 3.964195 2.612892
v -0.543087 3.964195 2.612892
v -0.543087 3.964195 2.612892
v -0.543087 3.964195 2.612892
v -0.543087 3.964195 2.612892
v -0.543087 3.964195 2.612892
v -0.543087 3.964195 2.612892
vt 0.744001 0.084237
vt 0.751716 0.076522
vt 0.861958 0.186765
vt 0.854244 0.194479
vt 0.869673 0.194479
vt 0.861958 0.202194
vt 0.979915 0.304722
vt 0.972201 0.312436
vt 0.751716 0.312436
vt 0.744002 0.304722
vt 0.972201 0.076522
vt 0.979915 0.084237
vn 0.0000 0.0000 1.0000
usemtl Material
s off
f 49/69/20 50/70/20 52/71/20 51/72/20
f 51/72/20 52/71/20 56/73/20 55/74/20
f 55/74/20 56/73/20 54/75/20 53/76/20
f 51/72/20 55/74/20 53/77/20 49/78/20
f 56/73/20 52/71/20 50/79/20 54/80/20
o Estela_3_Cube.008
v -0.543087 3.964195 2.612891
v -0.543087 3.964195 2.612891
v -0.543087 3.964195 2.612891
v -0.543087 3.964195 2.612891
v -0.543087 3.964195 2.612891
v -0.543087 3.964195 2.612891
v -0.543087 3.964195 2.612891
v -0.543087 3.964195 2.612891
vt 0.390874 0.024965
vt 0.396746 0.019093
vt 0.554902 0.177249
vt 0.549030 0.183121
vt 0.560774 0.183121
vt 0.554902 0.188993
vt 0.718924 0.341271
vt 0.713052 0.347142
vt 0.396753 0.347142
vt 0.390881 0.341270
vt 0.713052 0.019100
vt 0.718924 0.024972
vn 0.0000 0.0000 1.0000
usemtl Material
s off
f 57/81/21 58/82/21 60/83/21 59/84/21
f 59/84/21 60/83/21 64/85/21 63/86/21
f 63/86/21 64/85/21 62/87/21 61/88/21
f 59/84/21 63/86/21 61/89/21 57/90/21
f 64/85/21 60/83/21 58/91/21 62/92/21
o Fogonazo_Cylinder.004
v -0.531249 3.969573 2.504498
v -0.477476 4.104383 2.470245
v -0.494931 4.056951 2.545605
v -0.404433 4.026064 2.467279
v -0.443493 4.006327 2.544371
v -0.392656 3.908574 2.467893
v -0.442907 3.934164 2.544357
v -0.474512 3.826463 2.468649
v -0.493516 3.882734 2.545571
v -0.586603 3.834762 2.472864
v -0.565674 3.882164 2.547303
v -0.655427 3.919519 2.477682
v -0.617112 3.932787 2.548538
v -0.660046 4.021419 2.475390
v -0.617698 4.004950 2.548552
v -0.596744 4.116418 2.473979
v -0.567089 4.056380 2.547337
v -0.546179 4.175164 2.340495
v -0.673485 4.115037 2.358928
v -0.662118 3.841126 2.353860
v -0.709472 3.970408 2.376954
v -0.533910 3.768531 2.353077
v -0.392209 3.819301 2.364949
v -0.346429 3.962949 2.327023
v -0.408433 4.106421 2.347047
vt 0.850869 0.849468
vt 0.865642 0.889005
vt 0.820524 0.881111
vt 0.876722 0.851123
vt 0.884768 0.872295
vt 0.906749 0.910006
vt 0.869594 0.940029
vt 0.905573 0.882033
vt 0.947428 0.894084
vt 0.941664 0.935426
vt 0.927580 0.874303
vt 0.962746 0.854657
vt 0.990508 0.890076
vt 0.936703 0.853058
vt 0.944794 0.815568
vt 0.990508 0.820665
vt 0.928389 0.832052
vt 0.908294 0.798729
vt 0.939540 0.775883
vt 0.907920 0.822792
vt 0.866867 0.807937
vt 0.873982 0.767631
vt 0.886038 0.829976
vt 0.821646 0.809632
vt 0.126448 0.773829
vt 0.125686 0.680795
vt 0.173820 0.655586
vt 0.187849 0.714236
vt 0.081641 0.659384
vt 0.069454 0.714850
vt 0.047074 0.770080
vt 0.018590 0.815527
vt 0.065491 0.834048
vt 0.026885 0.728253
vt 0.077230 0.886821
vt 0.123271 0.863849
vt 0.164572 0.891121
vt 0.182364 0.842979
vt 0.235552 0.829027
vt 0.209102 0.775466
vt 0.235552 0.729784
vn 0.6803 0.6196 0.3915
vn 0.6326 0.5945 0.4964
vn 0.9343 0.0954 0.3434
vn 0.8639 0.0579 0.5003
vn 0.6062 -0.5995 0.5225
vn 0.5869 -0.5738 0.5712
vn -0.0478 -0.8829 0.4671
vn -0.0164 -0.8248 0.5652
vn -0.6964 -0.5888 0.4104
vn -0.6346 -0.5863 0.5036
vn -0.8870 -0.0298 0.4608
vn -0.8725 -0.0197 0.4882
vn -0.7271 0.4916 0.4791
vn -0.6386 0.5072 0.5787
vn 0.1039 0.8952 0.4333
vn 0.0652 0.8113 0.5810
vn -0.7594 -0.4386 -0.4807
vn 0.6843 -0.4237 -0.5935
vn 0.8048 0.2468 -0.5398
vn -0.1762 -0.7770 -0.6043
vn -0.2234 0.8290 -0.5128
vn 0.8200 -0.2119 -0.5317
vn 0.4141 0.7064 -0.5740
vn 0.4095 -0.7068 -0.5768
vn -0.7187 0.4244 -0.5508
vn 0.7027 0.4221 -0.5727
vn -0.7789 -0.1567 -0.6073
vn 0.1577 0.7464 -0.6466
vn -0.4566 -0.7693 -0.4468
vn -0.4703 0.7156 -0.5165
vn -0.8526 0.2196 -0.4742
vn 0.2003 -0.8115 -0.5490
vn 0.0240 -0.0000 0.9997
usemtl Material
s off
f 66/93/22 68/94/22 89/95/22
f 66/93/23 67/96/23 69/97/23 68/94/23
f 68/94/24 70/98/24 88/99/24
f 68/94/25 69/97/25 71/100/25 70/98/25
f 70/98/26 72/101/26 87/102/26
f 70/98/27 71/100/27 73/103/27 72/101/27
f 72/101/28 74/104/28 86/105/28
f 72/101/29 73/103/29 75/106/29 74/104/29
f 74/104/30 76/107/30 84/108/30
f 74/104/31 75/106/31 77/109/31 76/107/31
f 76/107/32 78/110/32 85/111/32
f 76/107/33 77/109/33 79/112/33 78/110/33
f 78/110/34 80/113/34 83/114/34
f 78/110/35 79/112/35 81/115/35 80/113/35
f 80/113/36 66/93/36 82/116/36
f 80/113/37 81/115/37 67/96/37 66/93/37
f 65/117/38 80/118/38 82/119/38
f 66/120/39 65/117/39 82/119/39
f 80/118/40 65/117/40 83/121/40
f 65/117/41 78/122/41 83/121/41
f 76/123/42 65/117/42 84/124/42
f 65/117/43 74/125/43 84/124/43
f 78/122/44 65/117/44 85/126/44
f 65/117/45 76/123/45 85/126/45
f 74/125/46 65/117/46 86/127/46
f 65/117/47 72/128/47 86/127/47
f 72/128/48 65/117/48 87/129/48
f 65/117/49 70/130/49 87/129/49
f 70/130/50 65/117/50 88/131/50
f 65/117/51 68/132/51 88/131/51
f 65/117/52 66/120/52 89/133/52
f 68/132/53 65/117/53 89/133/53
f 69/97/54 67/96/54 81/115/54 79/112/54 77/109/54 75/106/54 73/103/54 71/100/54
