# Blender v2.82 (sub 7) OBJ File: 'BalaDerecha.blend'
# www.blender.org
mtllib BalaDerecha_000039.mtl
o Bala_Cylinder.003
v -0.676351 3.994761 2.532323
v -0.577915 3.982165 3.202560
v -0.619990 4.086119 2.530600
v -0.553266 4.022119 3.201807
v -0.515567 4.110847 2.527408
v -0.507598 4.032933 3.200411
v -0.424252 4.054459 2.524617
v -0.467663 4.008273 3.199190
v -0.399536 3.949987 2.523862
v -0.456854 3.962583 3.198860
v -0.455897 3.858629 2.525584
v -0.481502 3.922629 3.199613
v -0.560320 3.833902 2.528776
v -0.527170 3.911815 3.201009
v -0.651635 3.890290 2.531567
v -0.567106 3.936476 3.202230
v -0.664337 3.994761 2.925384
v -0.607976 4.086119 2.923661
v -0.503553 4.110847 2.920470
v -0.412238 4.054459 2.917679
v -0.387522 3.949987 2.916923
v -0.443883 3.858629 2.918646
v -0.548306 3.833902 2.921838
v -0.639621 3.890290 2.924629
v -0.533531 3.974986 3.201204
v -0.526956 3.985644 3.201003
v -0.514774 3.988528 3.200630
v -0.504121 3.981950 3.200305
v -0.501237 3.969762 3.200217
v -0.507812 3.959104 3.200418
v -0.519995 3.956220 3.200790
v -0.530648 3.962798 3.201115
v -0.593327 3.981332 2.529785
v -0.570774 4.017889 2.529096
v -0.528990 4.027783 2.527818
v -0.492450 4.005220 2.526701
v -0.482560 3.963416 2.526399
v -0.505113 3.926860 2.527089
v -0.546897 3.916965 2.528366
v -0.583437 3.939528 2.529483
vt 0.571177 0.819618
vt 0.793679 0.842301
vt 0.792020 0.881992
vt 0.561213 0.895770
vt 0.797677 0.921414
vt 0.558627 0.981594
vt 0.784882 0.431415
vt 0.915080 0.649522
vt 0.882098 0.673287
vt 0.725706 0.494938
vt 0.854120 0.701371
vt 0.679164 0.556598
vt 0.830961 0.732764
vt 0.641960 0.618211
vt 0.812842 0.767023
vt 0.611028 0.684809
vt 0.982776 0.396146
vt 0.982776 0.463263
vt 0.923370 0.438657
vt 0.923370 0.420752
vt 0.801537 0.803928
vt 0.587762 0.749802
vt 0.227995 0.416724
vt 0.323726 0.422389
vt 0.291268 0.488982
vt 0.253411 0.486967
vt 0.320555 0.647466
vt 0.289883 0.730852
vt 0.370361 0.577645
vt 0.385540 0.494831
vt 0.426017 0.417005
vt 0.470066 0.340997
vt 0.514875 0.267284
vt 0.263759 0.816919
vt 0.241100 0.904987
vt 0.880146 0.438657
vt 0.880146 0.420752
vt 0.892805 0.408092
vt 0.910710 0.408092
vt 0.910710 0.451317
vt 0.892805 0.451317
vt 0.820740 0.396146
vt 0.868199 0.348686
vt 0.820740 0.463263
vt 0.935317 0.510722
vt 0.868199 0.510722
vt 0.935317 0.348686
vt 0.250323 0.578435
vt 0.223959 0.551121
vt 0.225364 0.512930
vt 0.316167 0.516903
vt 0.313787 0.552663
vt 0.287795 0.578888
vt 0.153818 0.578578
vt 0.156940 0.481709
vt 0.221449 0.648464
vn -0.8153 0.5082 0.2773
vn -0.2151 0.9416 0.2590
vn 0.5157 0.8234 0.2366
vn 0.9489 0.2229 0.2234
vn 0.8308 -0.5082 0.2270
vn 0.2305 -0.9416 0.2454
vn 0.0306 0.0000 0.9995
vn -0.5003 -0.8234 0.2677
vn -0.9335 -0.2229 0.2809
vn -0.0306 -0.0000 -0.9995
vn -0.9727 -0.2303 0.0297
vn -0.5250 -0.8510 0.0160
vn 0.2302 -0.9731 -0.0070
vn 0.8506 -0.5252 -0.0260
vn 0.9727 0.2303 -0.0297
vn 0.5250 0.8510 -0.0160
vn -0.2302 0.9731 0.0070
vn -0.8506 0.5252 0.0260
vn 0.0305 -0.0000 0.9995
vn -0.0305 0.0000 -0.9995
usemtl Material
s off
f 17/1/1 2/2/1 4/3/1 18/4/1
f 18/4/2 4/3/2 6/5/2 19/6/2
f 19/7/3 6/8/3 8/9/3 20/10/3
f 20/10/4 8/9/4 10/11/4 21/12/4
f 21/12/5 10/11/5 12/13/5 22/14/5
f 22/14/6 12/13/6 14/15/6 23/16/6
f 12/17/7 10/18/7 29/19/7 30/20/7
f 23/16/8 14/15/8 16/21/8 24/22/8
f 24/22/9 16/21/9 2/2/9 17/1/9
f 7/23/10 9/24/10 37/25/10 36/26/10
f 15/27/11 24/22/11 17/1/11 1/28/11
f 13/29/12 23/16/12 24/22/12 15/27/12
f 11/30/13 22/14/13 23/16/13 13/29/13
f 9/31/14 21/12/14 22/14/14 11/30/14
f 7/32/15 20/10/15 21/12/15 9/31/15
f 5/33/16 19/7/16 20/10/16 7/32/16
f 3/34/17 18/4/17 19/6/17 5/35/17
f 1/28/18 17/1/18 18/4/18 3/34/18
f 26/36/7 25/37/7 32/38/7 31/39/7 30/20/7 29/19/7 28/40/7 27/41/7
f 2/42/19 16/43/19 32/38/19 25/37/19
f 4/44/7 2/42/7 25/37/7 26/36/7
f 8/45/7 6/46/7 27/41/7 28/40/7
f 14/47/7 12/17/7 30/20/7 31/39/7
f 10/18/7 8/45/7 28/40/7 29/19/7
f 16/43/7 14/47/7 31/39/7 32/38/7
f 6/46/7 4/44/7 26/36/7 27/41/7
f 33/48/10 34/49/10 35/50/10 36/26/10 37/25/10 38/51/10 39/52/10 40/53/10
f 13/29/20 15/27/20 40/53/20 39/52/20
f 3/54/10 5/55/10 35/50/10 34/49/10
f 9/24/10 11/30/10 38/51/10 37/25/10
f 15/27/20 1/56/20 33/48/20 40/53/20
f 1/56/10 3/54/10 34/49/10 33/48/10
f 5/55/10 7/23/10 36/26/10 35/50/10
f 11/30/10 13/29/10 39/52/10 38/51/10
o Estela_1_Cube.006
v -0.598735 4.003390 2.550770
v -0.633904 3.995744 2.551594
v -0.628962 4.003390 1.261124
v -0.664131 3.995744 1.261948
v -0.606378 4.038568 2.550949
v -0.641547 4.030923 2.551773
v -0.636605 4.038568 1.261303
v -0.671775 4.030923 1.262127
vt 0.029882 0.343262
vt 0.025420 0.338800
vt 0.185305 0.178913
vt 0.189767 0.183375
vt 0.189767 0.174452
vt 0.194229 0.178913
vt 0.349650 0.014568
vt 0.354112 0.019030
vt 0.354112 0.338796
vt 0.349650 0.343258
vt 0.025422 0.019030
vt 0.029884 0.014568
vn 0.2123 -0.9772 -0.0050
vn -0.0234 0.0000 -0.9997
vn -0.2123 0.9772 0.0050
vn 0.9769 0.2124 -0.0229
vn -0.9769 -0.2124 0.0229
usemtl Material
s off
f 41/57/21 42/58/21 44/59/21 43/60/21
f 43/60/22 44/59/22 48/61/22 47/62/22
f 47/62/23 48/61/23 46/63/23 45/64/23
f 43/60/24 47/62/24 45/65/24 41/66/24
f 48/61/25 44/59/25 42/67/25 46/68/25
o Estela_2_Cube.007
v -0.538261 3.903128 2.548849
v -0.564834 3.878849 2.549472
v -0.550316 3.903128 2.034543
v -0.576889 3.878849 2.035166
v -0.562533 3.929709 2.549418
v -0.589107 3.905430 2.550040
v -0.574588 3.929709 2.035112
v -0.601161 3.905430 2.035735
vt 0.744001 0.084237
vt 0.751716 0.076522
vt 0.861958 0.186765
vt 0.854244 0.194479
vt 0.869673 0.194479
vt 0.861958 0.202194
vt 0.979915 0.304722
vt 0.972201 0.312436
vt 0.751716 0.312436
vt 0.744002 0.304722
vt 0.972201 0.076522
vt 0.979915 0.084237
vn 0.6742 -0.7383 -0.0158
vn -0.0234 0.0000 -0.9997
vn -0.6742 0.7383 0.0158
vn 0.7381 0.6744 -0.0173
vn -0.7381 -0.6744 0.0173
usemtl Material
s off
f 49/69/26 50/70/26 52/71/26 51/72/26
f 51/72/27 52/71/27 56/73/27 55/74/27
f 55/74/28 56/73/28 54/75/28 53/76/28
f 51/72/29 55/74/29 53/77/29 49/78/29
f 56/73/30 52/71/30 50/79/30 54/80/30
o Estela_3_Cube.008
v -0.523424 4.000459 2.549087
v -0.507866 4.032922 2.548723
v -0.546144 4.000459 1.579746
v -0.530586 4.032922 1.579382
v -0.490970 3.984897 2.548326
v -0.475412 4.017360 2.547962
v -0.513690 3.984897 1.578986
v -0.498132 4.017360 1.578621
vt 0.390874 0.024965
vt 0.396746 0.019093
vt 0.554902 0.177249
vt 0.549030 0.183121
vt 0.560774 0.183121
vt 0.554902 0.188993
vt 0.718924 0.341271
vt 0.713052 0.347142
vt 0.396753 0.347142
vt 0.390881 0.341270
vt 0.713052 0.019100
vt 0.718924 0.024972
vn -0.9015 0.4323 0.0211
vn -0.0234 -0.0000 -0.9997
vn 0.9015 -0.4323 -0.0211
vn -0.4322 -0.9017 0.0101
vn 0.4322 0.9017 -0.0101
usemtl Material
s off
f 57/81/31 58/82/31 60/83/31 59/84/31
f 59/84/32 60/83/32 64/85/32 63/86/32
f 63/86/33 64/85/33 62/87/33 61/88/33
f 59/84/34 63/86/34 61/89/34 57/90/34
f 64/85/35 60/83/35 58/91/35 62/92/35
o Fogonazo_Cylinder.004
v -0.511016 3.951086 2.397079
v -0.511016 3.951086 2.397079
v -0.511016 3.951086 2.397079
v -0.511016 3.951086 2.397079
v -0.511016 3.951086 2.397079
v -0.511016 3.951086 2.397079
v -0.511016 3.951086 2.397079
v -0.511016 3.951086 2.397079
v -0.511016 3.951086 2.397079
v -0.511016 3.951086 2.397079
v -0.511016 3.951086 2.397079
v -0.511016 3.951086 2.397079
v -0.511016 3.951086 2.397079
v -0.511016 3.951086 2.397079
v -0.511016 3.951086 2.397079
v -0.511016 3.951086 2.397079
v -0.511016 3.951086 2.397079
v -0.511016 3.951086 2.397079
v -0.511016 3.951086 2.397079
v -0.511016 3.951086 2.397079
v -0.511016 3.951086 2.397079
v -0.511016 3.951086 2.397079
v -0.511016 3.951086 2.397079
v -0.511016 3.951086 2.397079
v -0.511016 3.951086 2.397079
vt 0.850869 0.849468
vt 0.865642 0.889005
vt 0.820524 0.881111
vt 0.876722 0.851123
vt 0.884768 0.872295
vt 0.906749 0.910006
vt 0.869594 0.940029
vt 0.905573 0.882033
vt 0.947428 0.894084
vt 0.941664 0.935426
vt 0.927580 0.874303
vt 0.962746 0.854657
vt 0.990508 0.890076
vt 0.936703 0.853058
vt 0.944794 0.815568
vt 0.990508 0.820665
vt 0.928389 0.832052
vt 0.908294 0.798729
vt 0.939540 0.775883
vt 0.907920 0.822792
vt 0.866867 0.807937
vt 0.873982 0.767631
vt 0.886038 0.829976
vt 0.821646 0.809632
vt 0.126448 0.773829
vt 0.125686 0.680795
vt 0.173820 0.655586
vt 0.187849 0.714236
vt 0.081641 0.659384
vt 0.069454 0.714850
vt 0.047074 0.770080
vt 0.018590 0.815527
vt 0.065491 0.834048
vt 0.026885 0.728253
vt 0.077230 0.886821
vt 0.123271 0.863849
vt 0.164572 0.891121
vt 0.182364 0.842979
vt 0.235552 0.829027
vt 0.209102 0.775466
vt 0.235552 0.729784
vn 0.0000 0.0000 1.0000
usemtl Material
s off
f 66/93/36 68/94/36 89/95/36
f 66/93/36 67/96/36 69/97/36 68/94/36
f 68/94/36 70/98/36 88/99/36
f 68/94/36 69/97/36 71/100/36 70/98/36
f 70/98/36 72/101/36 87/102/36
f 70/98/36 71/100/36 73/103/36 72/101/36
f 72/101/36 74/104/36 86/105/36
f 72/101/36 73/103/36 75/106/36 74/104/36
f 74/104/36 76/107/36 84/108/36
f 74/104/36 75/106/36 77/109/36 76/107/36
f 76/107/36 78/110/36 85/111/36
f 76/107/36 77/109/36 79/112/36 78/110/36
f 78/110/36 80/113/36 83/114/36
f 78/110/36 79/112/36 81/115/36 80/113/36
f 80/113/36 66/93/36 82/116/36
f 80/113/36 81/115/36 67/96/36 66/93/36
f 65/117/36 80/118/36 82/119/36
f 66/120/36 65/117/36 82/119/36
f 80/118/36 65/117/36 83/121/36
f 65/117/36 78/122/36 83/121/36
f 76/123/36 65/117/36 84/124/36
f 65/117/36 74/125/36 84/124/36
f 78/122/36 65/117/36 85/126/36
f 65/117/36 76/123/36 85/126/36
f 74/125/36 65/117/36 86/127/36
f 65/117/36 72/128/36 86/127/36
f 72/128/36 65/117/36 87/129/36
f 65/117/36 70/130/36 87/129/36
f 70/130/36 65/117/36 88/131/36
f 65/117/36 68/132/36 88/131/36
f 65/117/36 66/120/36 89/133/36
f 68/132/36 65/117/36 89/133/36
f 69/97/36 67/96/36 81/115/36 79/112/36 77/109/36 75/106/36 73/103/36 71/100/36
