# Blender v2.82 (sub 7) OBJ File: 'BalaDerecha.blend'
# www.blender.org
mtllib BalaDerecha_000046.mtl
o Bala_Cylinder.003
v -0.607747 4.094594 2.530275
v -0.547595 4.025825 3.201631
v -0.501218 4.107470 2.526879
v -0.501006 4.031456 3.200146
v -0.416791 4.041207 2.524187
v -0.464083 4.002477 3.198969
v -0.403922 3.934624 2.523777
v -0.458455 3.955864 3.198789
v -0.470151 3.850154 2.525888
v -0.487419 3.918922 3.199713
v -0.576680 3.837279 2.529284
v -0.534009 3.913292 3.201198
v -0.661107 3.903541 2.531976
v -0.570931 3.942271 3.202375
v -0.673976 4.010125 2.532386
v -0.576559 3.988883 3.202554
v -0.595217 4.094594 2.923320
v -0.488688 4.107470 2.919924
v -0.404261 4.041207 2.917233
v -0.391393 3.934624 2.916822
v -0.457621 3.850154 2.918934
v -0.564150 3.837279 2.922330
v -0.648577 3.903541 2.925021
v -0.661446 4.010125 2.925431
v -0.525533 3.986632 3.200928
v -0.513106 3.988134 3.200531
v -0.503256 3.980404 3.200217
v -0.501755 3.967970 3.200170
v -0.509481 3.958115 3.200416
v -0.521909 3.956613 3.200812
v -0.531759 3.964344 3.201126
v -0.533260 3.976778 3.201174
v -0.566478 4.021280 2.528959
v -0.523851 4.026432 2.527600
v -0.490068 3.999917 2.526523
v -0.484919 3.957268 2.526359
v -0.511420 3.923468 2.527204
v -0.554047 3.918317 2.528563
v -0.587830 3.944831 2.529640
v -0.592979 3.987480 2.529804
vt 0.571177 0.819618
vt 0.793679 0.842301
vt 0.792020 0.881992
vt 0.561213 0.895770
vt 0.797677 0.921414
vt 0.558627 0.981594
vt 0.784882 0.431415
vt 0.915080 0.649522
vt 0.882098 0.673287
vt 0.725706 0.494938
vt 0.854120 0.701371
vt 0.679164 0.556598
vt 0.830961 0.732764
vt 0.641960 0.618211
vt 0.812842 0.767023
vt 0.611028 0.684809
vt 0.982776 0.396146
vt 0.982776 0.463263
vt 0.923370 0.438657
vt 0.923370 0.420752
vt 0.801537 0.803928
vt 0.587762 0.749802
vt 0.227995 0.416724
vt 0.323726 0.422389
vt 0.291268 0.488982
vt 0.253411 0.486967
vt 0.320555 0.647466
vt 0.289883 0.730852
vt 0.370361 0.577645
vt 0.385540 0.494831
vt 0.426017 0.417005
vt 0.470066 0.340997
vt 0.514875 0.267284
vt 0.263759 0.816919
vt 0.241100 0.904987
vt 0.880146 0.438657
vt 0.880146 0.420752
vt 0.892805 0.408092
vt 0.910710 0.408092
vt 0.910710 0.451317
vt 0.892805 0.451317
vt 0.820740 0.396146
vt 0.868199 0.348686
vt 0.820740 0.463263
vt 0.935317 0.510722
vt 0.868199 0.510722
vt 0.935317 0.348686
vt 0.250323 0.578435
vt 0.223959 0.551121
vt 0.225364 0.512930
vt 0.316167 0.516903
vt 0.313787 0.552663
vt 0.287795 0.578888
vt 0.153818 0.578578
vt 0.156940 0.481709
vt 0.221449 0.648464
vn -0.1079 0.9607 0.2559
vn 0.6050 0.7614 0.2331
vn 0.9682 0.1160 0.2215
vn 0.7690 -0.5972 0.2279
vn 0.1240 -0.9607 0.2485
vn -0.5889 -0.7614 0.2712
vn 0.0319 0.0000 0.9995
vn -0.9521 -0.1160 0.2828
vn -0.7529 0.5972 0.2764
vn -0.0319 -0.0000 -0.9995
vn -0.7864 0.6172 0.0251
vn -0.9923 -0.1199 0.0316
vn -0.6169 -0.7868 0.0197
vn 0.1199 -0.9928 -0.0038
vn 0.7864 -0.6172 -0.0251
vn 0.9923 0.1199 -0.0316
vn 0.6169 0.7868 -0.0197
vn -0.1199 0.9928 0.0038
vn 0.0318 0.0000 0.9995
usemtl Material
s off
f 17/1/1 2/2/1 4/3/1 18/4/1
f 18/4/2 4/3/2 6/5/2 19/6/2
f 19/7/3 6/8/3 8/9/3 20/10/3
f 20/10/4 8/9/4 10/11/4 21/12/4
f 21/12/5 10/11/5 12/13/5 22/14/5
f 22/14/6 12/13/6 14/15/6 23/16/6
f 12/17/7 10/18/7 29/19/7 30/20/7
f 23/16/8 14/15/8 16/21/8 24/22/8
f 24/22/9 16/21/9 2/2/9 17/1/9
f 7/23/10 9/24/10 37/25/10 36/26/10
f 15/27/11 24/22/11 17/1/11 1/28/11
f 13/29/12 23/16/12 24/22/12 15/27/12
f 11/30/13 22/14/13 23/16/13 13/29/13
f 9/31/14 21/12/14 22/14/14 11/30/14
f 7/32/15 20/10/15 21/12/15 9/31/15
f 5/33/16 19/7/16 20/10/16 7/32/16
f 3/34/17 18/4/17 19/6/17 5/35/17
f 1/28/18 17/1/18 18/4/18 3/34/18
f 26/36/7 25/37/7 32/38/7 31/39/7 30/20/7 29/19/7 28/40/7 27/41/7
f 2/42/7 16/43/7 32/38/7 25/37/7
f 4/44/7 2/42/7 25/37/7 26/36/7
f 8/45/7 6/46/7 27/41/7 28/40/7
f 14/47/7 12/17/7 30/20/7 31/39/7
f 10/18/19 8/45/19 28/40/19 29/19/19
f 16/43/7 14/47/7 31/39/7 32/38/7
f 6/46/7 4/44/7 26/36/7 27/41/7
f 33/48/10 34/49/10 35/50/10 36/26/10 37/25/10 38/51/10 39/52/10 40/53/10
f 13/29/10 15/27/10 40/53/10 39/52/10
f 3/54/10 5/55/10 35/50/10 34/49/10
f 9/24/10 11/30/10 38/51/10 37/25/10
f 15/27/10 1/56/10 33/48/10 40/53/10
f 1/56/10 3/54/10 34/49/10 33/48/10
f 5/55/10 7/23/10 36/26/10 35/50/10
f 11/30/10 13/29/10 39/52/10 38/51/10
o Estela_1_Cube.006
v -0.545717 4.026796 2.547727
v -0.571720 4.051685 2.548336
v -0.575944 4.026796 1.258081
v -0.601947 4.051685 1.258690
v -0.520834 4.052806 2.547143
v -0.546837 4.077695 2.547753
v -0.551062 4.052806 1.257498
v -0.577065 4.077695 1.258107
vt 0.029882 0.343262
vt 0.025420 0.338800
vt 0.185305 0.178913
vt 0.189767 0.183375
vt 0.189767 0.174452
vt 0.194229 0.178913
vt 0.349650 0.014568
vt 0.354112 0.019030
vt 0.354112 0.338796
vt 0.349650 0.343258
vt 0.025422 0.019030
vt 0.029884 0.014568
vn -0.6912 -0.7225 0.0162
vn -0.0234 -0.0000 -0.9997
vn 0.6912 0.7225 -0.0162
vn 0.7223 -0.6914 -0.0169
vn -0.7223 0.6914 0.0169
usemtl Material
s off
f 41/57/20 42/58/20 44/59/20 43/60/20
f 43/60/21 44/59/21 48/61/21 47/62/21
f 47/62/22 48/61/22 46/63/22 45/64/22
f 43/60/23 47/62/23 45/65/23 41/66/23
f 48/61/24 44/59/24 42/67/24 46/68/24
o Estela_2_Cube.007
v -0.595003 3.920572 2.548379
v -0.629986 3.929031 2.549199
v -0.607058 3.920572 2.034073
v -0.642040 3.929031 2.034893
v -0.586546 3.955564 2.548180
v -0.621528 3.964023 2.549000
v -0.598601 3.955564 2.033875
v -0.633583 3.964023 2.034694
vt 0.744001 0.084237
vt 0.751716 0.076522
vt 0.861958 0.186765
vt 0.854244 0.194479
vt 0.869673 0.194479
vt 0.861958 0.202194
vt 0.979915 0.304722
vt 0.972201 0.312436
vt 0.751716 0.312436
vt 0.744002 0.304722
vt 0.972201 0.076522
vt 0.979915 0.084237
vn -0.2349 -0.9720 0.0055
vn -0.0234 0.0000 -0.9997
vn 0.2349 0.9720 -0.0055
vn 0.9717 -0.2350 -0.0228
vn -0.9717 0.2350 0.0228
usemtl Material
s off
f 49/69/25 50/70/25 52/71/25 51/72/25
f 51/72/26 52/71/26 56/73/26 55/74/26
f 55/74/27 56/73/27 54/75/27 53/76/27
f 51/72/28 55/74/28 53/77/28 49/78/28
f 56/73/29 52/71/29 50/79/29 54/80/29
o Estela_3_Cube.008
v -0.506031 3.962706 2.546879
v -0.470426 3.967957 2.546045
v -0.528751 3.962706 1.577538
v -0.493146 3.967957 1.576704
v -0.500781 3.927091 2.546756
v -0.465176 3.932342 2.545922
v -0.523501 3.927091 1.577415
v -0.487896 3.932342 1.576581
vt 0.390874 0.024965
vt 0.396746 0.019093
vt 0.554902 0.177249
vt 0.549030 0.183121
vt 0.560774 0.183121
vt 0.554902 0.188993
vt 0.718924 0.341271
vt 0.713052 0.347142
vt 0.396753 0.347142
vt 0.390881 0.341270
vt 0.713052 0.019100
vt 0.718924 0.024972
vn -0.1458 0.9893 0.0034
vn -0.0234 0.0000 -0.9997
vn 0.1458 -0.9893 -0.0034
vn -0.9890 -0.1459 0.0232
vn 0.9890 0.1459 -0.0232
usemtl Material
s off
f 57/81/30 58/82/30 60/83/30 59/84/30
f 59/84/31 60/83/31 64/85/31 63/86/31
f 63/86/32 64/85/32 62/87/32 61/88/32
f 59/84/33 63/86/33 61/89/33 57/90/33
f 64/85/34 60/83/34 58/91/34 62/92/34
o Fogonazo_Cylinder.004
v -0.506442 3.947391 2.397071
v -0.506442 3.947391 2.397071
v -0.506442 3.947391 2.397071
v -0.506442 3.947391 2.397071
v -0.506442 3.947391 2.397071
v -0.506442 3.947391 2.397071
v -0.506442 3.947391 2.397071
v -0.506442 3.947391 2.397071
v -0.506442 3.947391 2.397071
v -0.506442 3.947391 2.397071
v -0.506442 3.947391 2.397071
v -0.506442 3.947391 2.397071
v -0.506442 3.947391 2.397071
v -0.506442 3.947391 2.397071
v -0.506442 3.947391 2.397071
v -0.506442 3.947391 2.397071
v -0.506442 3.947391 2.397071
v -0.506442 3.947391 2.397071
v -0.506442 3.947391 2.397071
v -0.506442 3.947391 2.397071
v -0.506442 3.947391 2.397071
v -0.506442 3.947391 2.397071
v -0.506442 3.947391 2.397071
v -0.506442 3.947391 2.397071
v -0.506442 3.947391 2.397071
vt 0.850869 0.849468
vt 0.865642 0.889005
vt 0.820524 0.881111
vt 0.876722 0.851123
vt 0.884768 0.872295
vt 0.906749 0.910006
vt 0.869594 0.940029
vt 0.905573 0.882033
vt 0.947428 0.894084
vt 0.941664 0.935426
vt 0.927580 0.874303
vt 0.962746 0.854657
vt 0.990508 0.890076
vt 0.936703 0.853058
vt 0.944794 0.815568
vt 0.990508 0.820665
vt 0.928389 0.832052
vt 0.908294 0.798729
vt 0.939540 0.775883
vt 0.907920 0.822792
vt 0.866867 0.807937
vt 0.873982 0.767631
vt 0.886038 0.829976
vt 0.821646 0.809632
vt 0.126448 0.773829
vt 0.125686 0.680795
vt 0.173820 0.655586
vt 0.187849 0.714236
vt 0.081641 0.659384
vt 0.069454 0.714850
vt 0.047074 0.770080
vt 0.018590 0.815527
vt 0.065491 0.834048
vt 0.026885 0.728253
vt 0.077230 0.886821
vt 0.123271 0.863849
vt 0.164572 0.891121
vt 0.182364 0.842979
vt 0.235552 0.829027
vt 0.209102 0.775466
vt 0.235552 0.729784
vn 0.0000 0.0000 1.0000
usemtl Material
s off
f 66/93/35 68/94/35 89/95/35
f 66/93/35 67/96/35 69/97/35 68/94/35
f 68/94/35 70/98/35 88/99/35
f 68/94/35 69/97/35 71/100/35 70/98/35
f 70/98/35 72/101/35 87/102/35
f 70/98/35 71/100/35 73/103/35 72/101/35
f 72/101/35 74/104/35 86/105/35
f 72/101/35 73/103/35 75/106/35 74/104/35
f 74/104/35 76/107/35 84/108/35
f 74/104/35 75/106/35 77/109/35 76/107/35
f 76/107/35 78/110/35 85/111/35
f 76/107/35 77/109/35 79/112/35 78/110/35
f 78/110/35 80/113/35 83/114/35
f 78/110/35 79/112/35 81/115/35 80/113/35
f 80/113/35 66/93/35 82/116/35
f 80/113/35 81/115/35 67/96/35 66/93/35
f 65/117/35 80/118/35 82/119/35
f 66/120/35 65/117/35 82/119/35
f 80/118/35 65/117/35 83/121/35
f 65/117/35 78/122/35 83/121/35
f 76/123/35 65/117/35 84/124/35
f 65/117/35 74/125/35 84/124/35
f 78/122/35 65/117/35 85/126/35
f 65/117/35 76/123/35 85/126/35
f 74/125/35 65/117/35 86/127/35
f 65/117/35 72/128/35 86/127/35
f 72/128/35 65/117/35 87/129/35
f 65/117/35 70/130/35 87/129/35
f 70/130/35 65/117/35 88/131/35
f 65/117/35 68/132/35 88/131/35
f 65/117/35 66/120/35 89/133/35
f 68/132/35 65/117/35 89/133/35
f 69/97/35 67/96/35 81/115/35 79/112/35 77/109/35 75/106/35 73/103/35 71/100/35
