# Blender v2.82 (sub 7) OBJ File: 'BalaDerecha.blend'
# www.blender.org
mtllib BalaDerecha_000047.mtl
o Bala_Cylinder.003
v -0.591704 4.102393 2.529767
v -0.540534 4.029235 3.201404
v -0.484405 4.101533 2.526326
v -0.493608 4.028859 3.199899
v -0.409140 4.025013 2.523913
v -0.460692 3.995394 3.198844
v -0.410000 3.917658 2.523940
v -0.461068 3.948444 3.198856
v -0.486481 3.842355 2.526393
v -0.494516 3.915512 3.199928
v -0.593780 3.843215 2.529834
v -0.541442 3.915888 3.201433
v -0.669045 3.919735 2.532247
v -0.574358 3.949353 3.202489
v -0.668185 4.027090 2.532219
v -0.573982 3.996303 3.202477
v -0.579101 4.102393 2.922810
v -0.471801 4.101533 2.919369
v -0.396537 4.025013 2.916956
v -0.397397 3.917658 2.916983
v -0.473877 3.842355 2.919436
v -0.581177 3.843215 2.922877
v -0.656441 3.919735 2.925290
v -0.655581 4.027090 2.925262
v -0.523663 3.987542 3.200863
v -0.511145 3.987442 3.200462
v -0.502365 3.978515 3.200180
v -0.502465 3.965990 3.200183
v -0.511387 3.957205 3.200469
v -0.523905 3.957306 3.200871
v -0.532685 3.966233 3.201152
v -0.532585 3.978757 3.201149
v -0.560145 4.024400 2.528755
v -0.517209 4.024056 2.527378
v -0.487093 3.993437 2.526412
v -0.487437 3.950480 2.526423
v -0.518040 3.920348 2.527405
v -0.560975 3.920692 2.528781
v -0.591092 3.951311 2.529747
v -0.590748 3.994268 2.529736
vt 0.571177 0.819618
vt 0.793679 0.842301
vt 0.792020 0.881992
vt 0.561213 0.895770
vt 0.797677 0.921414
vt 0.558627 0.981594
vt 0.784882 0.431415
vt 0.915080 0.649522
vt 0.882098 0.673287
vt 0.725706 0.494938
vt 0.854120 0.701371
vt 0.679164 0.556598
vt 0.830961 0.732764
vt 0.641960 0.618211
vt 0.812842 0.767023
vt 0.611028 0.684809
vt 0.982776 0.396146
vt 0.982776 0.463263
vt 0.923370 0.438657
vt 0.923370 0.420752
vt 0.801537 0.803928
vt 0.587762 0.749802
vt 0.227995 0.416724
vt 0.323726 0.422389
vt 0.291268 0.488982
vt 0.253411 0.486967
vt 0.320555 0.647466
vt 0.289883 0.730852
vt 0.370361 0.577645
vt 0.385540 0.494831
vt 0.426017 0.417005
vt 0.470066 0.340997
vt 0.514875 0.267284
vt 0.263759 0.816919
vt 0.241100 0.904987
vt 0.880146 0.438657
vt 0.880146 0.420752
vt 0.892805 0.408092
vt 0.910710 0.408092
vt 0.910710 0.451317
vt 0.892805 0.451317
vt 0.820740 0.396146
vt 0.868199 0.348686
vt 0.820740 0.463263
vt 0.935317 0.510722
vt 0.868199 0.510722
vt 0.935317 0.348686
vt 0.250323 0.578435
vt 0.223959 0.551121
vt 0.225364 0.512930
vt 0.316167 0.516903
vt 0.313787 0.552663
vt 0.287795 0.578888
vt 0.153818 0.578578
vt 0.156940 0.481709
vt 0.221449 0.648464
vn 0.0158 0.9676 0.2519
vn 0.6974 0.6787 0.2300
vn 0.9752 -0.0078 0.2211
vn 0.6865 -0.6897 0.2304
vn 0.0003 -0.9676 0.2524
vn -0.6813 -0.6787 0.2743
vn 0.0320 -0.0000 0.9995
vn -0.9590 0.0078 0.2832
vn -0.6703 0.6897 0.2739
vn -0.0321 0.0000 -0.9995
vn -0.7011 0.7128 0.0225
vn -0.9995 0.0080 0.0320
vn -0.7124 -0.7014 0.0228
vn -0.0080 -1.0000 0.0003
vn 0.7011 -0.7128 -0.0225
vn 0.9995 -0.0080 -0.0320
vn 0.7124 0.7014 -0.0228
vn 0.0080 1.0000 -0.0003
vn 0.0321 -0.0000 0.9995
vn -0.0320 0.0000 -0.9995
usemtl Material
s off
f 17/1/1 2/2/1 4/3/1 18/4/1
f 18/4/2 4/3/2 6/5/2 19/6/2
f 19/7/3 6/8/3 8/9/3 20/10/3
f 20/10/4 8/9/4 10/11/4 21/12/4
f 21/12/5 10/11/5 12/13/5 22/14/5
f 22/14/6 12/13/6 14/15/6 23/16/6
f 12/17/7 10/18/7 29/19/7 30/20/7
f 23/16/8 14/15/8 16/21/8 24/22/8
f 24/22/9 16/21/9 2/2/9 17/1/9
f 7/23/10 9/24/10 37/25/10 36/26/10
f 15/27/11 24/22/11 17/1/11 1/28/11
f 13/29/12 23/16/12 24/22/12 15/27/12
f 11/30/13 22/14/13 23/16/13 13/29/13
f 9/31/14 21/12/14 22/14/14 11/30/14
f 7/32/15 20/10/15 21/12/15 9/31/15
f 5/33/16 19/7/16 20/10/16 7/32/16
f 3/34/17 18/4/17 19/6/17 5/35/17
f 1/28/18 17/1/18 18/4/18 3/34/18
f 26/36/7 25/37/7 32/38/7 31/39/7 30/20/7 29/19/7 28/40/7 27/41/7
f 2/42/7 16/43/7 32/38/7 25/37/7
f 4/44/19 2/42/19 25/37/19 26/36/19
f 8/45/19 6/46/19 27/41/19 28/40/19
f 14/47/19 12/17/19 30/20/19 31/39/19
f 10/18/19 8/45/19 28/40/19 29/19/19
f 16/43/19 14/47/19 31/39/19 32/38/19
f 6/46/7 4/44/7 26/36/7 27/41/7
f 33/48/20 34/49/20 35/50/20 36/26/20 37/25/20 38/51/20 39/52/20 40/53/20
f 13/29/10 15/27/10 40/53/10 39/52/10
f 3/54/10 5/55/10 35/50/10 34/49/10
f 9/24/20 11/30/20 38/51/20 37/25/20
f 15/27/20 1/56/20 33/48/20 40/53/20
f 1/56/20 3/54/20 34/49/20 33/48/20
f 5/55/10 7/23/10 36/26/10 35/50/10
f 11/30/10 13/29/10 39/52/10 38/51/10
o Estela_1_Cube.006
v -0.537212 4.025483 2.547270
v -0.559499 4.053751 2.547793
v -0.567439 4.025483 1.257625
v -0.589726 4.053751 1.258147
v -0.508953 4.047776 2.546608
v -0.531240 4.076043 2.547130
v -0.539180 4.047776 1.256962
v -0.561467 4.076043 1.257485
vt 0.029882 0.343262
vt 0.025420 0.338800
vt 0.185305 0.178913
vt 0.189767 0.183375
vt 0.189767 0.174452
vt 0.194229 0.178913
vt 0.349650 0.014568
vt 0.354112 0.019030
vt 0.354112 0.338796
vt 0.349650 0.343258
vt 0.025422 0.019030
vt 0.029884 0.014568
vn -0.7850 -0.6192 0.0184
vn -0.0234 0.0000 -0.9997
vn 0.7850 0.6193 -0.0184
vn 0.6191 -0.7852 -0.0145
vn -0.6191 0.7852 0.0145
usemtl Material
s off
f 41/57/21 42/58/21 44/59/21 43/60/21
f 43/60/22 44/59/22 48/61/22 47/62/22
f 47/62/23 48/61/23 46/63/23 45/64/23
f 43/60/24 47/62/24 45/65/24 41/66/24
f 48/61/25 44/59/25 42/67/25 46/68/25
o Estela_2_Cube.007
v -0.600798 3.927153 2.548257
v -0.634263 3.940400 2.549042
v -0.612853 3.927153 2.033952
v -0.646318 3.940400 2.034736
v -0.587555 3.960627 2.547947
v -0.621020 3.973874 2.548731
v -0.599610 3.960627 2.033641
v -0.633075 3.973874 2.034425
vt 0.744001 0.084237
vt 0.751716 0.076522
vt 0.861958 0.186765
vt 0.854244 0.194479
vt 0.869673 0.194479
vt 0.861958 0.202194
vt 0.979915 0.304722
vt 0.972201 0.312436
vt 0.751716 0.312436
vt 0.744002 0.304722
vt 0.972201 0.076522
vt 0.979915 0.084237
vn -0.3679 -0.9298 0.0086
vn -0.0234 -0.0000 -0.9997
vn 0.3679 0.9298 -0.0086
vn 0.9296 -0.3680 -0.0218
vn -0.9296 0.3680 0.0218
usemtl Material
s off
f 49/69/26 50/70/26 52/71/26 51/72/26
f 51/72/27 52/71/27 56/73/27 55/74/27
f 55/74/28 56/73/28 54/75/28 53/76/28
f 51/72/29 55/74/29 53/77/29 49/78/29
f 56/73/30 52/71/30 50/79/30 54/80/30
o Estela_3_Cube.008
v -0.506830 3.956492 2.546641
v -0.470841 3.956736 2.545797
v -0.529550 3.956492 1.577300
v -0.493561 3.956736 1.576456
v -0.506586 3.920493 2.546635
v -0.470597 3.920737 2.545792
v -0.529306 3.920493 1.577294
v -0.493317 3.920737 1.576451
vt 0.390874 0.024965
vt 0.396746 0.019093
vt 0.554902 0.177249
vt 0.549030 0.183121
vt 0.560774 0.183121
vt 0.554902 0.188993
vt 0.718924 0.341271
vt 0.713052 0.347142
vt 0.396753 0.347142
vt 0.390881 0.341270
vt 0.713052 0.019100
vt 0.718924 0.024972
vn -0.0068 1.0000 0.0002
vn -0.0234 0.0000 -0.9997
vn 0.0068 -1.0000 -0.0002
vn -0.9997 -0.0068 0.0234
vn 0.9997 0.0068 -0.0234
usemtl Material
s off
f 57/81/31 58/82/31 60/83/31 59/84/31
f 59/84/32 60/83/32 64/85/32 63/86/32
f 63/86/33 64/85/33 62/87/33 61/88/33
f 59/84/34 63/86/34 61/89/34 57/90/34
f 64/85/35 60/83/35 58/91/35 62/92/35
o Fogonazo_Cylinder.004
v -0.505788 3.946864 2.397070
v -0.505788 3.946864 2.397070
v -0.505788 3.946864 2.397070
v -0.505788 3.946864 2.397070
v -0.505788 3.946864 2.397070
v -0.505788 3.946864 2.397070
v -0.505788 3.946864 2.397070
v -0.505788 3.946864 2.397070
v -0.505788 3.946864 2.397070
v -0.505788 3.946864 2.397070
v -0.505788 3.946864 2.397070
v -0.505788 3.946864 2.397070
v -0.505788 3.946864 2.397070
v -0.505788 3.946864 2.397070
v -0.505788 3.946864 2.397070
v -0.505788 3.946864 2.397070
v -0.505788 3.946864 2.397070
v -0.505788 3.946864 2.397070
v -0.505788 3.946864 2.397070
v -0.505788 3.946864 2.397070
v -0.505788 3.946864 2.397070
v -0.505788 3.946864 2.397070
v -0.505788 3.946864 2.397070
v -0.505788 3.946864 2.397070
v -0.505788 3.946864 2.397070
vt 0.850869 0.849468
vt 0.865642 0.889005
vt 0.820524 0.881111
vt 0.876722 0.851123
vt 0.884768 0.872295
vt 0.906749 0.910006
vt 0.869594 0.940029
vt 0.905573 0.882033
vt 0.947428 0.894084
vt 0.941664 0.935426
vt 0.927580 0.874303
vt 0.962746 0.854657
vt 0.990508 0.890076
vt 0.936703 0.853058
vt 0.944794 0.815568
vt 0.990508 0.820665
vt 0.928389 0.832052
vt 0.908294 0.798729
vt 0.939540 0.775883
vt 0.907920 0.822792
vt 0.866867 0.807937
vt 0.873982 0.767631
vt 0.886038 0.829976
vt 0.821646 0.809632
vt 0.126448 0.773829
vt 0.125686 0.680795
vt 0.173820 0.655586
vt 0.187849 0.714236
vt 0.081641 0.659384
vt 0.069454 0.714850
vt 0.047074 0.770080
vt 0.018590 0.815527
vt 0.065491 0.834048
vt 0.026885 0.728253
vt 0.077230 0.886821
vt 0.123271 0.863849
vt 0.164572 0.891121
vt 0.182364 0.842979
vt 0.235552 0.829027
vt 0.209102 0.775466
vt 0.235552 0.729784
vn 0.0000 0.0000 1.0000
usemtl Material
s off
f 66/93/36 68/94/36 89/95/36
f 66/93/36 67/96/36 69/97/36 68/94/36
f 68/94/36 70/98/36 88/99/36
f 68/94/36 69/97/36 71/100/36 70/98/36
f 70/98/36 72/101/36 87/102/36
f 70/98/36 71/100/36 73/103/36 72/101/36
f 72/101/36 74/104/36 86/105/36
f 72/101/36 73/103/36 75/106/36 74/104/36
f 74/104/36 76/107/36 84/108/36
f 74/104/36 75/106/36 77/109/36 76/107/36
f 76/107/36 78/110/36 85/111/36
f 76/107/36 77/109/36 79/112/36 78/110/36
f 78/110/36 80/113/36 83/114/36
f 78/110/36 79/112/36 81/115/36 80/113/36
f 80/113/36 66/93/36 82/116/36
f 80/113/36 81/115/36 67/96/36 66/93/36
f 65/117/36 80/118/36 82/119/36
f 66/120/36 65/117/36 82/119/36
f 80/118/36 65/117/36 83/121/36
f 65/117/36 78/122/36 83/121/36
f 76/123/36 65/117/36 84/124/36
f 65/117/36 74/125/36 84/124/36
f 78/122/36 65/117/36 85/126/36
f 65/117/36 76/123/36 85/126/36
f 74/125/36 65/117/36 86/127/36
f 65/117/36 72/128/36 86/127/36
f 72/128/36 65/117/36 87/129/36
f 65/117/36 70/130/36 87/129/36
f 70/130/36 65/117/36 88/131/36
f 65/117/36 68/132/36 88/131/36
f 65/117/36 66/120/36 89/133/36
f 68/132/36 65/117/36 89/133/36
f 69/97/36 67/96/36 81/115/36 79/112/36 77/109/36 75/106/36 73/103/36 71/100/36
