# Blender v2.82 (sub 7) OBJ File: 'BalaDerecha.blend'
# www.blender.org
mtllib BalaDerecha_000008.mtl
o Bala_Cylinder.003
v -0.423857 4.059832 2.525429
v -0.468894 4.010622 3.199682
v -0.394146 3.956669 2.524694
v -0.455901 3.965505 3.199360
v -0.446061 3.862706 2.525979
v -0.478605 3.924412 3.199922
v -0.549192 3.832986 2.528531
v -0.523708 3.911414 3.201039
v -0.643126 3.884917 2.530856
v -0.564788 3.934126 3.202055
v -0.672837 3.988080 2.531592
v -0.577782 3.979242 3.202377
v -0.620922 4.082042 2.530307
v -0.555078 4.020336 3.201815
v -0.517791 4.111763 2.527754
v -0.509975 4.033333 3.200699
v -0.414127 4.059832 2.918554
v -0.384416 3.956669 2.917819
v -0.436331 3.862706 2.919103
v -0.539462 3.832986 2.921656
v -0.633396 3.884917 2.923981
v -0.663107 3.988080 2.924716
v -0.611192 4.082042 2.923431
v -0.508061 4.111763 2.920879
v -0.504051 3.982577 3.200552
v -0.500585 3.970542 3.200466
v -0.506642 3.959580 3.200616
v -0.518673 3.956113 3.200914
v -0.529631 3.962171 3.201185
v -0.533098 3.974206 3.201271
v -0.527041 3.985168 3.201121
v -0.515010 3.988635 3.200824
v -0.489622 4.007370 2.527057
v -0.477733 3.966090 2.526763
v -0.498507 3.928491 2.527277
v -0.539774 3.916599 2.528298
v -0.577361 3.937379 2.529228
v -0.589250 3.978658 2.529523
v -0.568476 4.016257 2.529009
v -0.527209 4.028150 2.527987
vt 0.571177 0.819618
vt 0.793679 0.842301
vt 0.792020 0.881992
vt 0.561213 0.895770
vt 0.797677 0.921414
vt 0.558627 0.981594
vt 0.784882 0.431415
vt 0.915080 0.649522
vt 0.882098 0.673287
vt 0.725706 0.494938
vt 0.854120 0.701371
vt 0.679164 0.556598
vt 0.830961 0.732764
vt 0.641960 0.618211
vt 0.812842 0.767023
vt 0.611028 0.684809
vt 0.982776 0.396146
vt 0.982776 0.463263
vt 0.923370 0.438657
vt 0.923370 0.420752
vt 0.801537 0.803928
vt 0.587762 0.749802
vt 0.227995 0.416724
vt 0.323726 0.422389
vt 0.291268 0.488982
vt 0.253411 0.486967
vt 0.320555 0.647466
vt 0.289883 0.730852
vt 0.370361 0.577645
vt 0.385540 0.494831
vt 0.426017 0.417005
vt 0.470066 0.340997
vt 0.514875 0.267284
vt 0.263759 0.816919
vt 0.241100 0.904987
vt 0.880146 0.438657
vt 0.880146 0.420752
vt 0.892805 0.408092
vt 0.910710 0.408092
vt 0.910710 0.451317
vt 0.892805 0.451317
vt 0.820740 0.396146
vt 0.868199 0.348686
vt 0.820740 0.463263
vt 0.935317 0.510722
vt 0.868199 0.510722
vt 0.935317 0.348686
vt 0.250323 0.578435
vt 0.223959 0.551121
vt 0.225364 0.512930
vt 0.316167 0.516903
vt 0.313787 0.552663
vt 0.287795 0.578888
vt 0.153818 0.578578
vt 0.156940 0.481709
vt 0.221449 0.648464
vn 0.9358 0.2679 0.2292
vn 0.8529 -0.4681 0.2312
vn 0.2740 -0.9298 0.2456
vn -0.4617 -0.8469 0.2638
vn -0.9233 -0.2679 0.2752
vn -0.8404 0.4681 0.2732
vn 0.0247 -0.0000 0.9997
vn -0.2616 0.9298 0.2588
vn 0.4742 0.8469 0.2406
vn -0.0247 -0.0000 -0.9997
vn 0.4836 0.8752 -0.0120
vn -0.2767 0.9609 0.0068
vn -0.8750 0.4837 0.0217
vn -0.9606 -0.2768 0.0238
vn -0.4836 -0.8752 0.0120
vn 0.2768 -0.9609 -0.0068
vn 0.8750 -0.4837 -0.0217
vn 0.9606 0.2768 -0.0238
vn 0.0248 -0.0000 0.9997
usemtl Material
s off
f 17/1/1 2/2/1 4/3/1 18/4/1
f 18/4/2 4/3/2 6/5/2 19/6/2
f 19/7/3 6/8/3 8/9/3 20/10/3
f 20/10/4 8/9/4 10/11/4 21/12/4
f 21/12/5 10/11/5 12/13/5 22/14/5
f 22/14/6 12/13/6 14/15/6 23/16/6
f 12/17/7 10/18/7 29/19/7 30/20/7
f 23/16/8 14/15/8 16/21/8 24/22/8
f 24/22/9 16/21/9 2/2/9 17/1/9
f 7/23/10 9/24/10 37/25/10 36/26/10
f 15/27/11 24/22/11 17/1/11 1/28/11
f 13/29/12 23/16/12 24/22/12 15/27/12
f 11/30/13 22/14/13 23/16/13 13/29/13
f 9/31/14 21/12/14 22/14/14 11/30/14
f 7/32/15 20/10/15 21/12/15 9/31/15
f 5/33/16 19/7/16 20/10/16 7/32/16
f 3/34/17 18/4/17 19/6/17 5/35/17
f 1/28/18 17/1/18 18/4/18 3/34/18
f 26/36/7 25/37/7 32/38/7 31/39/7 30/20/7 29/19/7 28/40/7 27/41/7
f 2/42/7 16/43/7 32/38/7 25/37/7
f 4/44/19 2/42/19 25/37/19 26/36/19
f 8/45/7 6/46/7 27/41/7 28/40/7
f 14/47/7 12/17/7 30/20/7 31/39/7
f 10/18/7 8/45/7 28/40/7 29/19/7
f 16/43/7 14/47/7 31/39/7 32/38/7
f 6/46/7 4/44/7 26/36/7 27/41/7
f 33/48/10 34/49/10 35/50/10 36/26/10 37/25/10 38/51/10 39/52/10 40/53/10
f 13/29/10 15/27/10 40/53/10 39/52/10
f 3/54/10 5/55/10 35/50/10 34/49/10
f 9/24/10 11/30/10 38/51/10 37/25/10
f 15/27/10 1/56/10 33/48/10 40/53/10
f 1/56/10 3/54/10 34/49/10 33/48/10
f 5/55/10 7/23/10 36/26/10 35/50/10
f 11/30/10 13/29/10 39/52/10 38/51/10
o Estela_1_Cube.006
v -0.527527 3.973440 2.595351
v -0.525701 3.984085 2.595308
v -0.536595 3.973440 2.208457
v -0.534769 3.984085 2.208414
v -0.516886 3.971613 2.595101
v -0.515059 3.982258 2.595058
v -0.525954 3.971613 2.208207
v -0.524127 3.982258 2.208164
vt 0.029882 0.343262
vt 0.025420 0.338800
vt 0.185305 0.178913
vt 0.189767 0.183375
vt 0.189767 0.174452
vt 0.194229 0.178913
vt 0.349650 0.014568
vt 0.354112 0.019030
vt 0.354112 0.338796
vt 0.349650 0.343258
vt 0.025422 0.019030
vt 0.029884 0.014568
vn -0.9853 0.1692 0.0231
vn -0.0234 -0.0000 -0.9997
vn 0.9853 -0.1692 -0.0231
vn -0.1691 -0.9856 0.0040
vn 0.1691 0.9856 -0.0040
usemtl Material
s off
f 41/57/20 42/58/20 44/59/20 43/60/20
f 43/60/21 44/59/21 48/61/21 47/62/21
f 47/62/22 48/61/22 46/63/22 45/64/22
f 43/60/23 47/62/23 45/65/23 41/66/23
f 48/61/24 44/59/24 42/67/24 46/68/24
o Estela_2_Cube.007
v -0.562209 3.967879 2.596013
v -0.565974 3.978001 2.596101
v -0.565825 3.967879 2.441721
v -0.569590 3.978001 2.441809
v -0.552089 3.971645 2.595775
v -0.555854 3.981767 2.595864
v -0.555706 3.971645 2.441483
v -0.559471 3.981767 2.441572
vt 0.744001 0.084237
vt 0.751716 0.076522
vt 0.861958 0.186765
vt 0.854244 0.194479
vt 0.869673 0.194479
vt 0.861958 0.202194
vt 0.979915 0.304722
vt 0.972201 0.312436
vt 0.751716 0.312436
vt 0.744002 0.304722
vt 0.972201 0.076522
vt 0.979915 0.084237
vn -0.9370 -0.3487 0.0220
vn -0.0234 -0.0000 -0.9997
vn 0.9370 0.3487 -0.0220
vn 0.3486 -0.9372 -0.0082
vn -0.3486 0.9372 0.0082
usemtl Material
s off
f 49/69/25 50/70/25 52/71/25 51/72/25
f 51/72/26 52/71/26 56/73/26 55/74/26
f 55/74/27 56/73/27 54/75/27 53/76/27
f 51/72/28 55/74/28 53/77/28 49/78/28
f 56/73/29 52/71/29 50/79/29 54/80/29
o Estela_3_Cube.008
v -0.536805 3.952816 2.595592
v -0.529526 3.944839 2.595422
v -0.543621 3.952816 2.304790
v -0.536342 3.944839 2.304620
v -0.544779 3.945535 2.595779
v -0.537501 3.937558 2.595609
v -0.551595 3.945535 2.304977
v -0.544317 3.937558 2.304807
vt 0.390874 0.024965
vt 0.396746 0.019093
vt 0.554902 0.177249
vt 0.549030 0.183121
vt 0.560774 0.183121
vt 0.554902 0.188993
vt 0.718924 0.341271
vt 0.713052 0.347142
vt 0.396753 0.347142
vt 0.390881 0.341270
vt 0.713052 0.019100
vt 0.718924 0.024972
vn 0.7384 0.6742 -0.0173
vn -0.0234 -0.0000 -0.9997
vn -0.7384 -0.6741 0.0173
vn -0.6740 0.7386 0.0158
vn 0.6740 -0.7386 -0.0158
usemtl Material
s off
f 57/81/30 58/82/30 60/83/30 59/84/30
f 59/84/31 60/83/31 64/85/31 63/86/31
f 63/86/32 64/85/32 62/87/32 61/88/32
f 59/84/33 63/86/33 61/89/33 57/90/33
f 64/85/34 60/83/34 58/91/34 62/92/34
o Fogonazo_Cylinder.004
v -0.528545 3.967427 2.504496
v -0.397800 4.072375 2.468296
v -0.442290 4.035480 2.544344
v -0.368620 3.951898 2.466361
v -0.419169 3.955218 2.543771
v -0.423455 3.826748 2.468614
v -0.459551 3.882119 2.544771
v -0.552612 3.790426 2.470603
v -0.539782 3.859003 2.546757
v -0.660921 3.862479 2.474808
v -0.612863 3.899412 2.548565
v -0.682190 3.987079 2.478501
v -0.635984 3.979674 2.549138
v -0.628991 4.092422 2.474782
v -0.595602 4.052773 2.548138
v -0.511223 4.152263 2.471974
v -0.515371 4.075889 2.546153
v -0.426957 4.180979 2.337610
v -0.589450 4.192865 2.357011
v -0.733516 3.910142 2.355781
v -0.707845 4.067700 2.377104
v -0.645461 3.764152 2.355896
v -0.473749 3.735073 2.366919
v -0.346048 3.853418 2.326929
v -0.327093 4.033559 2.344997
vt 0.850869 0.849468
vt 0.865642 0.889005
vt 0.820524 0.881111
vt 0.876722 0.851123
vt 0.884768 0.872295
vt 0.906749 0.910006
vt 0.869594 0.940029
vt 0.905573 0.882033
vt 0.947428 0.894084
vt 0.941664 0.935426
vt 0.927580 0.874303
vt 0.962746 0.854657
vt 0.990508 0.890076
vt 0.936703 0.853058
vt 0.944794 0.815568
vt 0.990508 0.820665
vt 0.928389 0.832052
vt 0.908294 0.798729
vt 0.939540 0.775883
vt 0.907920 0.822792
vt 0.866867 0.807937
vt 0.873982 0.767631
vt 0.886038 0.829976
vt 0.821646 0.809632
vt 0.126448 0.773829
vt 0.125686 0.680795
vt 0.173820 0.655586
vt 0.187849 0.714236
vt 0.081641 0.659384
vt 0.069454 0.714850
vt 0.047074 0.770080
vt 0.018590 0.815527
vt 0.065491 0.834048
vt 0.026885 0.728253
vt 0.077230 0.886821
vt 0.123271 0.863849
vt 0.164572 0.891121
vt 0.182364 0.842979
vt 0.235552 0.829027
vt 0.209102 0.775466
vt 0.235552 0.729784
vn 0.8755 0.2050 0.4375
vn 0.8115 0.2046 0.5473
vn 0.8448 -0.3631 0.3932
vn 0.7514 -0.3517 0.5584
vn 0.2274 -0.7766 0.5876
vn 0.2220 -0.7394 0.6356
vn -0.4547 -0.7145 0.5317
vn -0.3937 -0.6688 0.6306
vn -0.8700 -0.1623 0.4656
vn -0.8049 -0.1861 0.5635
vn -0.7596 0.4017 0.5116
vn -0.7394 0.4020 0.5401
vn -0.3755 0.7636 0.5252
vn -0.2882 0.7241 0.6266
vn 0.5167 0.7116 0.4761
vn 0.4349 0.6457 0.6276
vn -0.8457 -0.0146 -0.5335
vn 0.3639 -0.6748 -0.6420
vn 0.7831 -0.1782 -0.5958
vn -0.5084 -0.5634 -0.6512
vn 0.1991 0.7907 -0.5790
vn 0.5813 -0.5685 -0.5822
vn 0.6679 0.3854 -0.6367
vn 0.0054 -0.7821 -0.6232
vn -0.4011 0.6797 -0.6141
vn 0.7755 0.0154 -0.6312
vn -0.7143 0.2241 -0.6630
vn 0.4670 0.5295 -0.7082
vn -0.7525 -0.4363 -0.4933
vn -0.0601 0.8107 -0.5823
vn -0.6140 0.5805 -0.5348
vn -0.2170 -0.7739 -0.5950
vn 0.0247 -0.0000 0.9997
usemtl Material
s off
f 66/93/35 68/94/35 89/95/35
f 66/93/36 67/96/36 69/97/36 68/94/36
f 68/94/37 70/98/37 88/99/37
f 68/94/38 69/97/38 71/100/38 70/98/38
f 70/98/39 72/101/39 87/102/39
f 70/98/40 71/100/40 73/103/40 72/101/40
f 72/101/41 74/104/41 86/105/41
f 72/101/42 73/103/42 75/106/42 74/104/42
f 74/104/43 76/107/43 84/108/43
f 74/104/44 75/106/44 77/109/44 76/107/44
f 76/107/45 78/110/45 85/111/45
f 76/107/46 77/109/46 79/112/46 78/110/46
f 78/110/47 80/113/47 83/114/47
f 78/110/48 79/112/48 81/115/48 80/113/48
f 80/113/49 66/93/49 82/116/49
f 80/113/50 81/115/50 67/96/50 66/93/50
f 65/117/51 80/118/51 82/119/51
f 66/120/52 65/117/52 82/119/52
f 80/118/53 65/117/53 83/121/53
f 65/117/54 78/122/54 83/121/54
f 76/123/55 65/117/55 84/124/55
f 65/117/56 74/125/56 84/124/56
f 78/122/57 65/117/57 85/126/57
f 65/117/58 76/123/58 85/126/58
f 74/125/59 65/117/59 86/127/59
f 65/117/60 72/128/60 86/127/60
f 72/128/61 65/117/61 87/129/61
f 65/117/62 70/130/62 87/129/62
f 70/130/63 65/117/63 88/131/63
f 65/117/64 68/132/64 88/131/64
f 65/117/65 66/120/65 89/133/65
f 68/132/66 65/117/66 89/133/66
f 69/97/67 67/96/67 81/115/67 79/112/67 77/109/67 75/106/67 73/103/67 71/100/67
