# Blender v2.82 (sub 7) OBJ File: 'BalaDerecha.blend'
# www.blender.org
mtllib BalaDerecha_000010.mtl
o Bala_Cylinder.003
v -0.405554 4.029153 2.524918
v -0.460799 3.997205 3.199450
v -0.402974 3.921826 2.524853
v -0.459671 3.950268 3.199422
v -0.477018 3.844109 2.526713
v -0.492053 3.916279 3.200235
v -0.584311 3.841528 2.529409
v -0.538976 3.915150 3.201414
v -0.662003 3.915595 2.531361
v -0.572954 3.947542 3.202268
v -0.664584 4.022923 2.531426
v -0.574082 3.994481 3.202296
v -0.590540 4.100639 2.529566
v -0.541700 4.028469 3.201483
v -0.483247 4.103220 2.526870
v -0.494777 4.029598 3.200304
v -0.395677 4.029153 2.918038
v -0.393096 3.921826 2.917974
v -0.467140 3.844109 2.919834
v -0.574433 3.841528 2.922530
v -0.652126 3.915595 2.924482
v -0.654706 4.022923 2.924547
v -0.580662 4.100639 2.922687
v -0.473369 4.103220 2.919991
v -0.501918 3.978998 3.200483
v -0.501617 3.966477 3.200476
v -0.510255 3.957410 3.200693
v -0.522772 3.957109 3.201007
v -0.531835 3.965750 3.201235
v -0.532136 3.978271 3.201242
v -0.523498 3.987338 3.201025
v -0.510981 3.987639 3.200711
v -0.482471 3.995094 2.526850
v -0.481438 3.952147 2.526824
v -0.511066 3.921050 2.527569
v -0.553999 3.920017 2.528647
v -0.585087 3.949654 2.529428
v -0.586120 3.992601 2.529454
v -0.556492 4.023699 2.528710
v -0.513559 4.024731 2.527631
vt 0.571177 0.819618
vt 0.793679 0.842301
vt 0.792020 0.881992
vt 0.561213 0.895770
vt 0.797677 0.921414
vt 0.558627 0.981594
vt 0.784882 0.431415
vt 0.915080 0.649522
vt 0.882098 0.673287
vt 0.725706 0.494938
vt 0.854120 0.701371
vt 0.679164 0.556598
vt 0.830961 0.732764
vt 0.641960 0.618211
vt 0.812842 0.767023
vt 0.611028 0.684809
vt 0.982776 0.396146
vt 0.982776 0.463263
vt 0.923370 0.438657
vt 0.923370 0.420752
vt 0.801537 0.803928
vt 0.587762 0.749802
vt 0.227995 0.416724
vt 0.323726 0.422389
vt 0.291268 0.488982
vt 0.253411 0.486967
vt 0.320555 0.647466
vt 0.289883 0.730852
vt 0.370361 0.577645
vt 0.385540 0.494831
vt 0.426017 0.417005
vt 0.470066 0.340997
vt 0.514875 0.267284
vt 0.263759 0.816919
vt 0.241100 0.904987
vt 0.880146 0.438657
vt 0.880146 0.420752
vt 0.892805 0.408092
vt 0.910710 0.408092
vt 0.910710 0.451317
vt 0.892805 0.451317
vt 0.820740 0.396146
vt 0.868199 0.348686
vt 0.820740 0.463263
vt 0.935317 0.510722
vt 0.868199 0.510722
vt 0.935317 0.348686
vt 0.250323 0.578435
vt 0.223959 0.551121
vt 0.225364 0.512930
vt 0.316167 0.516903
vt 0.313787 0.552663
vt 0.287795 0.578888
vt 0.153818 0.578578
vt 0.156940 0.481709
vt 0.221449 0.648464
vn 0.9734 0.0233 0.2279
vn 0.7066 -0.6676 0.2346
vn 0.0296 -0.9674 0.2516
vn -0.6610 -0.7005 0.2690
vn -0.9607 -0.0233 0.2765
vn -0.6939 0.6676 0.2698
vn 0.0251 -0.0000 0.9997
vn -0.0169 0.9674 0.2528
vn 0.6737 0.7005 0.2354
vn -0.0251 0.0000 -0.9997
vn 0.6897 0.7239 -0.0173
vn -0.0240 0.9997 0.0006
vn -0.7237 0.6899 0.0182
vn -0.9994 -0.0240 0.0251
vn -0.6897 -0.7239 0.0173
vn 0.0240 -0.9997 -0.0006
vn 0.7237 -0.6899 -0.0182
vn 0.9994 0.0240 -0.0251
usemtl Material
s off
f 17/1/1 2/2/1 4/3/1 18/4/1
f 18/4/2 4/3/2 6/5/2 19/6/2
f 19/7/3 6/8/3 8/9/3 20/10/3
f 20/10/4 8/9/4 10/11/4 21/12/4
f 21/12/5 10/11/5 12/13/5 22/14/5
f 22/14/6 12/13/6 14/15/6 23/16/6
f 12/17/7 10/18/7 29/19/7 30/20/7
f 23/16/8 14/15/8 16/21/8 24/22/8
f 24/22/9 16/21/9 2/2/9 17/1/9
f 7/23/10 9/24/10 37/25/10 36/26/10
f 15/27/11 24/22/11 17/1/11 1/28/11
f 13/29/12 23/16/12 24/22/12 15/27/12
f 11/30/13 22/14/13 23/16/13 13/29/13
f 9/31/14 21/12/14 22/14/14 11/30/14
f 7/32/15 20/10/15 21/12/15 9/31/15
f 5/33/16 19/7/16 20/10/16 7/32/16
f 3/34/17 18/4/17 19/6/17 5/35/17
f 1/28/18 17/1/18 18/4/18 3/34/18
f 26/36/7 25/37/7 32/38/7 31/39/7 30/20/7 29/19/7 28/40/7 27/41/7
f 2/42/7 16/43/7 32/38/7 25/37/7
f 4/44/7 2/42/7 25/37/7 26/36/7
f 8/45/7 6/46/7 27/41/7 28/40/7
f 14/47/7 12/17/7 30/20/7 31/39/7
f 10/18/7 8/45/7 28/40/7 29/19/7
f 16/43/7 14/47/7 31/39/7 32/38/7
f 6/46/7 4/44/7 26/36/7 27/41/7
f 33/48/10 34/49/10 35/50/10 36/26/10 37/25/10 38/51/10 39/52/10 40/53/10
f 13/29/10 15/27/10 40/53/10 39/52/10
f 3/54/10 5/55/10 35/50/10 34/49/10
f 9/24/10 11/30/10 38/51/10 37/25/10
f 15/27/10 1/56/10 33/48/10 40/53/10
f 1/56/10 3/54/10 34/49/10 33/48/10
f 5/55/10 7/23/10 36/26/10 35/50/10
f 11/30/10 13/29/10 39/52/10 38/51/10
o Estela_1_Cube.006
v -0.513967 3.971465 2.583582
v -0.506153 3.987679 2.583399
v -0.529081 3.971465 1.938759
v -0.521266 3.987679 1.938576
v -0.497758 3.963648 2.583202
v -0.489943 3.979862 2.583019
v -0.512871 3.963648 1.938379
v -0.505057 3.979862 1.938196
vt 0.029882 0.343262
vt 0.025420 0.338800
vt 0.185305 0.178913
vt 0.189767 0.183375
vt 0.189767 0.174452
vt 0.194229 0.178913
vt 0.349650 0.014568
vt 0.354112 0.019030
vt 0.354112 0.338796
vt 0.349650 0.343258
vt 0.025422 0.019030
vt 0.029884 0.014568
vn -0.9005 0.4343 0.0211
vn -0.0234 0.0000 -0.9997
vn 0.9005 -0.4343 -0.0211
vn -0.4341 -0.9008 0.0102
vn 0.4341 0.9008 -0.0102
usemtl Material
s off
f 41/57/19 42/58/19 44/59/19 43/60/19
f 43/60/20 44/59/20 48/61/20 47/62/20
f 47/62/21 48/61/21 46/63/21 45/64/21
f 43/60/22 47/62/22 45/65/22 41/66/22
f 48/61/23 44/59/23 42/67/23 46/68/23
o Estela_2_Cube.007
v -0.572085 3.978490 2.584693
v -0.573469 3.996437 2.584725
v -0.578112 3.978490 2.327540
v -0.579496 3.996437 2.327572
v -0.554143 3.979874 2.584272
v -0.555527 3.997821 2.584305
v -0.560171 3.979874 2.327119
v -0.561554 3.997821 2.327152
vt 0.744001 0.084237
vt 0.751716 0.076522
vt 0.861958 0.186765
vt 0.854244 0.194479
vt 0.869673 0.194479
vt 0.861958 0.202194
vt 0.979915 0.304722
vt 0.972201 0.312436
vt 0.751716 0.312436
vt 0.744002 0.304722
vt 0.972201 0.076522
vt 0.979915 0.084237
vn -0.9968 -0.0769 0.0234
vn -0.0234 -0.0000 -0.9997
vn 0.9968 0.0769 -0.0234
vn 0.0769 -0.9970 -0.0018
vn -0.0769 0.9970 0.0018
usemtl Material
s off
f 49/69/24 50/70/24 52/71/24 51/72/24
f 51/72/25 52/71/25 56/73/25 55/74/25
f 55/74/26 56/73/26 54/75/26 53/76/26
f 51/72/27 55/74/27 53/77/27 49/78/27
f 56/73/28 52/71/28 50/79/28 54/80/28
o Estela_3_Cube.008
v -0.538303 3.942687 2.584194
v -0.530305 3.926562 2.584006
v -0.549663 3.942687 2.099523
v -0.541665 3.926562 2.099336
v -0.554423 3.934686 2.584571
v -0.546425 3.918562 2.584384
v -0.565783 3.934686 2.099901
v -0.557785 3.918562 2.099714
vt 0.390874 0.024965
vt 0.396746 0.019093
vt 0.554902 0.177249
vt 0.549030 0.183121
vt 0.560774 0.183121
vt 0.554902 0.188993
vt 0.718924 0.341271
vt 0.713052 0.347142
vt 0.396753 0.347142
vt 0.390881 0.341270
vt 0.713052 0.019100
vt 0.718924 0.024972
vn 0.8956 0.4444 -0.0210
vn -0.0234 -0.0000 -0.9997
vn -0.8956 -0.4444 0.0210
vn -0.4443 0.8958 0.0104
vn 0.4443 -0.8958 -0.0104
usemtl Material
s off
f 57/81/29 58/82/29 60/83/29 59/84/29
f 59/84/30 60/83/30 64/85/30 63/86/30
f 63/86/31 64/85/31 62/87/31 61/88/31
f 59/84/32 63/86/32 61/89/32 57/90/32
f 64/85/33 60/83/33 58/91/33 62/92/33
o Fogonazo_Cylinder.004
v -0.527200 3.966352 2.504496
v -0.363700 4.039118 2.467422
v -0.419685 4.013562 2.543778
v -0.366185 3.906750 2.466272
v -0.417538 3.924387 2.543724
v -0.456726 3.792333 2.469443
v -0.479051 3.859816 2.545270
v -0.599985 3.789799 2.471834
v -0.568192 3.857676 2.547509
v -0.692356 3.893586 2.475680
v -0.632742 3.919219 2.549131
v -0.680584 4.028082 2.478551
v -0.634889 4.008394 2.549185
v -0.597096 4.122471 2.474050
v -0.573376 4.072965 2.547640
v -0.459234 4.152380 2.470694
v -0.484235 4.075105 2.545400
v -0.364350 4.158325 2.336027
v -0.528995 4.214733 2.355543
v -0.754386 3.961681 2.356410
v -0.685206 4.117631 2.376631
v -0.702964 3.787031 2.357413
v -0.533464 3.710570 2.368428
v -0.369478 3.797974 2.327476
v -0.301118 3.979049 2.344296
vt 0.850869 0.849468
vt 0.865642 0.889005
vt 0.820524 0.881111
vt 0.876722 0.851123
vt 0.884768 0.872295
vt 0.906749 0.910006
vt 0.869594 0.940029
vt 0.905573 0.882033
vt 0.947428 0.894084
vt 0.941664 0.935426
vt 0.927580 0.874303
vt 0.962746 0.854657
vt 0.990508 0.890076
vt 0.936703 0.853058
vt 0.944794 0.815568
vt 0.990508 0.820665
vt 0.928389 0.832052
vt 0.908294 0.798729
vt 0.939540 0.775883
vt 0.907920 0.822792
vt 0.866867 0.807937
vt 0.873982 0.767631
vt 0.886038 0.829976
vt 0.821646 0.809632
vt 0.126448 0.773829
vt 0.125686 0.680795
vt 0.173820 0.655586
vt 0.187849 0.714236
vt 0.081641 0.659384
vt 0.069454 0.714850
vt 0.047074 0.770080
vt 0.018590 0.815527
vt 0.065491 0.834048
vt 0.026885 0.728253
vt 0.077230 0.886821
vt 0.123271 0.863849
vt 0.164572 0.891121
vt 0.182364 0.842979
vt 0.235552 0.829027
vt 0.209102 0.775466
vt 0.235552 0.729784
vn 0.8872 -0.0207 0.4610
vn 0.8201 -0.0044 0.5721
vn 0.7177 -0.5563 0.4189
vn 0.6248 -0.5153 0.5865
vn 0.0242 -0.7860 0.6178
vn 0.0283 -0.7463 0.6650
vn -0.6080 -0.5619 0.5608
vn -0.5344 -0.5290 0.6592
vn -0.8694 0.0656 0.4897
vn -0.8076 0.0270 0.5891
vn -0.6210 0.5747 0.5331
vn -0.6004 0.5690 0.5620
vn -0.1651 0.8220 0.5451
vn -0.0910 0.7573 0.6467
vn 0.6704 0.5512 0.4967
vn 0.5702 0.5040 0.6488
vn -0.8061 0.1929 -0.5595
vn 0.1742 -0.7289 -0.6621
vn 0.6946 -0.3663 -0.6192
vn -0.6178 -0.4077 -0.6724
vn 0.3826 0.6948 -0.6089
vn 0.4073 -0.6856 -0.6033
vn 0.7227 0.1942 -0.6633
vn -0.1898 -0.7418 -0.6432
vn -0.2117 0.7355 -0.6436
vn 0.7332 -0.1810 -0.6555
vn -0.6164 0.3815 -0.6888
vn 0.5650 0.3767 -0.7341
vn -0.8250 -0.2301 -0.5162
vn 0.1423 0.7774 -0.6127
vn -0.4391 0.6991 -0.5643
vn -0.3979 -0.6803 -0.6155
vn 0.0251 0.0000 0.9997
usemtl Material
s off
f 66/93/34 68/94/34 89/95/34
f 66/93/35 67/96/35 69/97/35 68/94/35
f 68/94/36 70/98/36 88/99/36
f 68/94/37 69/97/37 71/100/37 70/98/37
f 70/98/38 72/101/38 87/102/38
f 70/98/39 71/100/39 73/103/39 72/101/39
f 72/101/40 74/104/40 86/105/40
f 72/101/41 73/103/41 75/106/41 74/104/41
f 74/104/42 76/107/42 84/108/42
f 74/104/43 75/106/43 77/109/43 76/107/43
f 76/107/44 78/110/44 85/111/44
f 76/107/45 77/109/45 79/112/45 78/110/45
f 78/110/46 80/113/46 83/114/46
f 78/110/47 79/112/47 81/115/47 80/113/47
f 80/113/48 66/93/48 82/116/48
f 80/113/49 81/115/49 67/96/49 66/93/49
f 65/117/50 80/118/50 82/119/50
f 66/120/51 65/117/51 82/119/51
f 80/118/52 65/117/52 83/121/52
f 65/117/53 78/122/53 83/121/53
f 76/123/54 65/117/54 84/124/54
f 65/117/55 74/125/55 84/124/55
f 78/122/56 65/117/56 85/126/56
f 65/117/57 76/123/57 85/126/57
f 74/125/58 65/117/58 86/127/58
f 65/117/59 72/128/59 86/127/59
f 72/128/60 65/117/60 87/129/60
f 65/117/61 70/130/61 87/129/61
f 70/130/62 65/117/62 88/131/62
f 65/117/63 68/132/63 88/131/63
f 65/117/64 66/120/64 89/133/64
f 68/132/65 65/117/65 89/133/65
f 69/97/66 67/96/66 81/115/66 79/112/66 77/109/66 75/106/66 73/103/66 71/100/66
